<svg width="160" height="50" viewBox="0 0 160 50" fill="none" xmlns="http://www.w3.org/2000/svg">
<path d="M68.2567 30.3233V31.1489H64.1346V33.1282C64.1346 33.1978 64.1346 33.2575 64.1346 33.3271C64.1346 33.3868 64.1544 33.4465 64.1941 33.4863C64.2239 33.526 64.2736 33.5658 64.3431 33.5857C64.4127 33.6156 64.5021 33.6255 64.6113 33.6255H68.3064V34.461H63.1214C62.9724 34.461 62.8433 34.461 62.7241 34.4312C62.6049 34.4113 62.4956 34.3715 62.4062 34.3019C62.3168 34.2322 62.2473 34.1328 62.1976 33.9935C62.148 33.8543 62.1182 33.6752 62.1182 33.4465V28.4833C62.1182 28.2545 62.148 28.0755 62.1976 27.9462C62.2473 27.8169 62.3168 27.7075 62.4062 27.6378C62.4956 27.5682 62.5949 27.5185 62.7042 27.4986C62.8135 27.4787 62.9327 27.4688 63.0519 27.4688H68.3064V28.3042H64.6511C64.4723 28.3042 64.3332 28.3341 64.2538 28.3838C64.1644 28.4435 64.1246 28.5827 64.1246 28.8016V30.3233H68.2468H68.2567Z" fill="white"/>
<path d="M77.5738 33.8742C77.5738 34.0333 77.5241 34.1725 77.4149 34.2919C77.3056 34.4113 77.1566 34.461 76.9579 34.461H75.8852C75.6369 34.461 75.4581 34.4013 75.3289 34.2919C75.1998 34.1825 75.0806 34.0333 74.9813 33.8642L72.0213 28.9706V34.461H70.0049V28.0556C70.0049 27.8964 70.0545 27.7572 70.1638 27.6378C70.2631 27.5185 70.4221 27.4688 70.6207 27.4688H71.7928C72.0113 27.4688 72.1901 27.5284 72.3292 27.6279C72.4683 27.7373 72.5875 27.8765 72.6669 28.0257L75.5574 32.9193V27.4688H77.5738V33.8742Z" fill="white"/>
<path d="M87.1586 34.521H85.4502V33.8148C85.2813 34.0734 85.0231 34.2923 84.6655 34.4713C84.3178 34.6503 83.851 34.7498 83.2749 34.7697C82.7087 34.7896 82.1723 34.71 81.6757 34.531C81.1691 34.3519 80.732 34.0933 80.3546 33.7552C79.9771 33.417 79.6791 33.0092 79.4606 32.5417C79.2421 32.0643 79.1328 31.5471 79.1328 30.9702C79.1328 30.443 79.2222 29.9457 79.4109 29.4882C79.5997 29.0307 79.8679 28.6229 80.2155 28.2847C80.5731 27.9465 81.0002 27.668 81.5167 27.4791C82.0332 27.2801 82.6193 27.1807 83.2749 27.1807C84.2781 27.1807 85.1224 27.3895 85.778 27.8172C86.4435 28.235 86.9302 28.8218 87.2381 29.5678H85.2515C85.0529 29.1003 84.7946 28.7124 84.4767 28.414C84.149 28.1156 83.7516 27.9664 83.2848 27.9664C82.9868 27.9664 82.6987 28.046 82.4306 28.2051C82.1624 28.3643 81.924 28.5831 81.7352 28.8516C81.5366 29.1202 81.3777 29.4385 81.2684 29.8065C81.1492 30.1745 81.0995 30.5624 81.0995 30.9702C81.0995 31.378 81.1591 31.7758 81.2684 32.1439C81.3777 32.5119 81.5366 32.8302 81.7352 33.0987C81.9339 33.3673 82.1624 33.5861 82.4306 33.7452C82.6987 33.9044 82.9868 33.9839 83.2947 33.9839C83.5728 33.9839 83.8311 33.9342 84.0894 33.8347C84.3476 33.7353 84.5761 33.596 84.7648 33.407C84.9635 33.2181 85.1124 32.9794 85.2316 32.7009C85.3508 32.4224 85.4104 32.0941 85.4104 31.7162H83.4139V30.9006H86.5527C86.7514 30.9006 86.9004 30.9603 87.0096 31.0796C87.109 31.199 87.1686 31.3382 87.1686 31.4974V34.5409L87.1586 34.521Z" fill="white"/>
<path d="M88.8867 27.4688H90.9031V34.461H88.8867V27.4688Z" fill="white"/>
<path d="M100.241 33.8742C100.241 34.0333 100.191 34.1725 100.082 34.2919C99.9726 34.4113 99.8236 34.461 99.6249 34.461H98.5522C98.3039 34.461 98.1251 34.4013 97.9959 34.2919C97.8668 34.1825 97.7476 34.0333 97.6483 33.8642L94.6883 28.9706V34.461H92.6719V28.0556C92.6719 27.8964 92.7215 27.7572 92.8308 27.6378C92.9301 27.5185 93.0891 27.4688 93.2877 27.4688H94.4598C94.6783 27.4688 94.8571 27.5284 94.9962 27.6279C95.1352 27.7373 95.2544 27.8765 95.3339 28.0257L98.2244 32.9193V27.4688H100.241V33.8742Z" fill="white"/>
<path d="M108.197 30.3233V31.1489H104.075V33.1282C104.075 33.1978 104.075 33.2575 104.075 33.3271C104.075 33.3868 104.095 33.4465 104.135 33.4863C104.164 33.526 104.214 33.5658 104.284 33.5857C104.353 33.6156 104.443 33.6255 104.552 33.6255H108.247V34.461H103.062C102.913 34.461 102.784 34.461 102.665 34.4312C102.545 34.4113 102.436 34.3715 102.347 34.3019C102.257 34.2322 102.188 34.1328 102.138 33.9935C102.088 33.8543 102.059 33.6752 102.059 33.4465V28.4833C102.059 28.2545 102.088 28.0755 102.138 27.9462C102.188 27.8169 102.257 27.7075 102.347 27.6378C102.436 27.5682 102.535 27.5185 102.645 27.4986C102.754 27.4787 102.873 27.4688 102.992 27.4688H108.247V28.3042H104.591C104.413 28.3042 104.274 28.3341 104.194 28.3838C104.105 28.4435 104.065 28.5827 104.065 28.8016V30.3233H108.187H108.197Z" fill="white"/>
<path d="M116.063 30.3233V31.1489H111.941V33.1282C111.941 33.1978 111.941 33.2575 111.941 33.3271C111.941 33.3868 111.961 33.4465 112.001 33.4863C112.031 33.526 112.08 33.5658 112.15 33.5857C112.219 33.6156 112.309 33.6255 112.418 33.6255H116.113V34.461H110.928C110.779 34.461 110.65 34.461 110.531 34.4312C110.412 34.4113 110.302 34.3715 110.213 34.3019C110.123 34.2322 110.054 34.1328 110.004 33.9935C109.955 33.8543 109.925 33.6752 109.925 33.4465V28.4833C109.925 28.2545 109.955 28.0755 110.004 27.9462C110.054 27.8169 110.123 27.7075 110.213 27.6378C110.302 27.5682 110.402 27.5185 110.511 27.4986C110.62 27.4787 110.739 27.4688 110.859 27.4688H116.113V28.3042H112.458C112.279 28.3042 112.14 28.3341 112.06 28.3838C111.971 28.4435 111.931 28.5827 111.931 28.8016V30.3233H116.053H116.063Z" fill="white"/>
<path d="M123.136 34.461C123.106 34.3715 123.086 34.272 123.056 34.1725C123.036 34.0731 123.007 33.9637 122.987 33.8344C122.967 33.715 122.947 33.5758 122.917 33.4266C122.897 33.2774 122.878 33.0983 122.858 32.8895C122.828 32.6209 122.758 32.4021 122.629 32.233C122.5 32.0639 122.341 31.9346 122.152 31.8352C121.964 31.7357 121.745 31.676 121.517 31.6362C121.288 31.6064 121.06 31.5865 120.831 31.5865H119.838V34.461H117.802V28.4932C117.802 28.2645 117.832 28.0854 117.881 27.9462C117.931 27.8069 118 27.7075 118.09 27.6378C118.179 27.5682 118.279 27.5185 118.388 27.4986C118.497 27.4787 118.616 27.4688 118.735 27.4688H122.172C122.828 27.4688 123.354 27.5284 123.752 27.6478C124.149 27.7671 124.457 27.9263 124.685 28.1153C124.904 28.3042 125.053 28.5131 125.132 28.7419C125.212 28.9706 125.242 29.1895 125.242 29.3983C125.242 29.8857 125.093 30.2935 124.804 30.6317C124.516 30.9599 124.04 31.1688 123.374 31.2483C123.672 31.2782 123.911 31.3379 124.089 31.4274C124.278 31.5169 124.417 31.6362 124.526 31.7854C124.636 31.9346 124.715 32.1037 124.775 32.2927C124.824 32.4817 124.864 32.6905 124.894 32.9193C124.924 33.2376 124.963 33.536 125.013 33.7946C125.063 34.0631 125.122 34.282 125.202 34.461H123.136ZM121.129 30.751C121.835 30.751 122.351 30.6615 122.689 30.4725C123.026 30.2835 123.195 29.9553 123.195 29.4878C123.195 29.3287 123.166 29.1696 123.116 29.0303C123.066 28.8911 122.967 28.7618 122.838 28.6623C122.709 28.5529 122.53 28.4733 122.321 28.4037C122.113 28.344 121.844 28.3142 121.527 28.3142H120.394C120.285 28.3142 120.186 28.3142 120.116 28.3341C120.037 28.354 119.977 28.3838 119.937 28.4335C119.898 28.4833 119.858 28.5529 119.848 28.6424C119.828 28.7319 119.818 28.8413 119.818 28.9806V30.761H121.129V30.751Z" fill="white"/>
<path d="M126.86 27.4688H128.877V34.461H126.86V27.4688Z" fill="white"/>
<path d="M138.214 33.8742C138.214 34.0333 138.165 34.1725 138.055 34.2919C137.946 34.4113 137.797 34.461 137.599 34.461H136.526C136.277 34.461 136.099 34.4013 135.97 34.2919C135.84 34.1825 135.721 34.0333 135.622 33.8642L132.662 28.9706V34.461H130.646V28.0556C130.646 27.8964 130.695 27.7572 130.804 27.6378C130.904 27.5185 131.063 27.4688 131.261 27.4688H132.433C132.652 27.4688 132.831 27.5284 132.97 27.6279C133.109 27.7373 133.228 27.8765 133.308 28.0257L136.198 32.9193V27.4688H138.214V33.8742Z" fill="white"/>
<path d="M147.809 34.521H146.101V33.8148C145.932 34.0734 145.673 34.2923 145.316 34.4713C144.968 34.6503 144.501 34.7498 143.925 34.7697C143.359 34.7896 142.823 34.71 142.326 34.531C141.819 34.3519 141.382 34.0933 141.005 33.7552C140.628 33.417 140.33 33.0092 140.111 32.5417C139.892 32.0643 139.783 31.5471 139.783 30.9702C139.783 30.443 139.873 29.9457 140.061 29.4882C140.25 29.0307 140.518 28.6229 140.866 28.2847C141.223 27.9465 141.651 27.668 142.167 27.4791C142.684 27.2801 143.27 27.1807 143.925 27.1807C144.928 27.1807 145.773 27.3895 146.428 27.8172C147.094 28.235 147.581 28.8218 147.888 29.5678H145.902C145.703 29.1003 145.445 28.7124 145.127 28.414C144.799 28.1156 144.402 27.9664 143.935 27.9664C143.637 27.9664 143.349 28.046 143.081 28.2051C142.813 28.3643 142.574 28.5831 142.386 28.8516C142.187 29.1202 142.028 29.4385 141.919 29.8065C141.8 30.1745 141.75 30.5624 141.75 30.9702C141.75 31.378 141.81 31.7758 141.919 32.1439C142.028 32.5119 142.187 32.8302 142.386 33.0987C142.584 33.3673 142.813 33.5861 143.081 33.7452C143.349 33.9044 143.637 33.9839 143.945 33.9839C144.223 33.9839 144.481 33.9342 144.74 33.8347C144.998 33.7353 145.226 33.596 145.415 33.407C145.614 33.2181 145.763 32.9794 145.882 32.7009C146.001 32.4224 146.061 32.0941 146.061 31.7162H144.064V30.9006H147.203C147.402 30.9006 147.551 30.9603 147.66 31.0796C147.759 31.199 147.819 31.3382 147.819 31.4974V34.5409L147.809 34.521Z" fill="white"/>
<path d="M153.044 28.8321C153.044 28.5138 153.114 28.2453 153.253 28.0364C153.392 27.8275 153.571 27.6485 153.789 27.5192C154.008 27.3899 154.256 27.3004 154.534 27.2407C154.802 27.181 155.08 27.1611 155.349 27.1611C155.617 27.1611 155.905 27.191 156.173 27.2506C156.441 27.3103 156.68 27.4098 156.888 27.5391C157.097 27.6684 157.256 27.8375 157.385 28.0464C157.504 28.2552 157.554 28.5039 157.544 28.7923C157.534 29.0111 157.474 29.2001 157.375 29.3692C157.276 29.5284 157.156 29.6775 157.007 29.7969C156.858 29.9262 156.699 30.0356 156.511 30.1351C156.332 30.2345 156.143 30.334 155.964 30.4235L157.474 32.0149C157.534 31.8259 157.574 31.6171 157.603 31.3784C157.633 31.1396 157.643 30.9208 157.643 30.712H159.471C159.451 31.259 159.381 31.7364 159.272 32.1442C159.153 32.552 158.974 32.9399 158.726 33.3179L159.997 34.7004H157.822L157.454 34.3026C157.276 34.3821 157.107 34.4518 156.948 34.5015C156.789 34.5512 156.63 34.591 156.461 34.6209C156.302 34.6507 156.133 34.6706 155.955 34.6805C155.786 34.6905 155.597 34.7004 155.388 34.7004C155.09 34.7004 154.753 34.6706 154.385 34.6209C154.018 34.5711 153.68 34.4617 153.352 34.3125C153.034 34.1633 152.766 33.9445 152.548 33.666C152.329 33.3875 152.22 33.0294 152.22 32.5819C152.22 32.3133 152.279 32.0647 152.389 31.8458C152.498 31.627 152.637 31.4281 152.816 31.2491C152.995 31.08 153.193 30.9308 153.412 30.8114C153.63 30.6921 153.859 30.5926 154.087 30.513C153.978 30.3937 153.859 30.2743 153.739 30.1649C153.62 30.0456 153.511 29.9262 153.412 29.787C153.312 29.6477 153.223 29.5085 153.153 29.3493C153.084 29.2001 153.044 29.0211 153.044 28.8321ZM154.683 31.2789C154.534 31.4281 154.415 31.6071 154.316 31.816C154.216 32.0149 154.157 32.2437 154.157 32.4824C154.157 32.7907 154.246 33.0692 154.415 33.3179C154.594 33.5665 154.822 33.7356 155.12 33.8251C155.418 33.9147 155.706 33.9246 155.984 33.855C156.272 33.7854 156.481 33.6461 156.63 33.4472L154.673 31.2888L154.683 31.2789ZM154.733 28.6829C154.763 28.852 154.842 29.031 154.961 29.2101C155.08 29.3891 155.2 29.5482 155.329 29.6676C155.498 29.5383 155.647 29.3692 155.776 29.1802C155.905 28.9813 155.974 28.8023 155.984 28.6133C155.994 28.3746 155.945 28.1955 155.835 28.0662C155.726 27.9369 155.567 27.8773 155.368 27.8773C155.269 27.8773 155.17 27.8972 155.09 27.927C155.001 27.9568 154.931 28.0165 154.872 28.0861C154.812 28.1558 154.772 28.2353 154.743 28.3447C154.713 28.4442 154.713 28.5636 154.743 28.6929L154.733 28.6829Z" fill="white"/>
<path d="M69.7462 44.2485C69.5973 44.6066 69.4085 44.9348 69.1701 45.2332C68.9317 45.5316 68.6437 45.7902 68.3159 46.009C67.9881 46.2278 67.6107 46.3969 67.1835 46.5162C66.7564 46.6356 66.2995 46.7052 65.7929 46.7052C65.1374 46.7052 64.5613 46.6058 64.0447 46.4068C63.5282 46.2079 63.0912 45.9394 62.7336 45.5912C62.376 45.2531 62.0979 44.8453 61.9092 44.3877C61.7204 43.9203 61.6211 43.4329 61.6211 42.9057C61.6211 42.3786 61.7105 41.8813 61.8992 41.4237C62.0879 40.9662 62.3561 40.5584 62.7137 40.2202C63.0713 39.8821 63.5084 39.6036 64.0249 39.4146C64.5414 39.2157 65.1274 39.1162 65.783 39.1162C66.3194 39.1162 66.7962 39.1759 67.2133 39.2952C67.6405 39.4146 68.008 39.5837 68.3358 39.7926C68.6536 40.0014 68.9317 40.26 69.1602 40.5485C69.3887 40.8469 69.5774 41.1651 69.7165 41.5033H67.7497C67.6603 41.2746 67.5411 41.0557 67.412 40.8568C67.2829 40.6579 67.1339 40.4888 66.965 40.3396C66.7962 40.2004 66.6174 40.081 66.4187 40.0114C66.2201 39.9318 66.0115 39.892 65.7929 39.892C65.4751 39.892 65.1771 39.9716 64.9089 40.1307C64.6407 40.2899 64.4023 40.5087 64.2037 40.7772C64.005 41.0458 63.856 41.3641 63.7368 41.7321C63.6275 42.1001 63.568 42.488 63.568 42.8958C63.568 43.3036 63.6275 43.7313 63.7467 44.0993C63.8659 44.4673 64.0249 44.7856 64.2235 45.0541C64.4222 45.3227 64.6606 45.5316 64.9288 45.6808C65.197 45.83 65.485 45.9095 65.7929 45.9095C66.0015 45.9095 66.2101 45.8697 66.4088 45.7902C66.6074 45.7106 66.7962 45.6012 66.965 45.452C67.1339 45.3127 67.2928 45.1337 67.4319 44.9348C67.5709 44.7259 67.6802 44.5071 67.7795 44.2485H69.7264H69.7462Z" fill="white"/>
<path d="M78.825 42.8962C78.825 43.3935 78.7356 43.8808 78.5569 44.3384C78.3781 44.7959 78.1198 45.2037 77.7722 45.5518C77.4245 45.8999 76.9974 46.1784 76.4908 46.3873C75.9842 46.5962 75.3982 46.6956 74.7426 46.6956C74.087 46.6956 73.4811 46.5962 72.9745 46.3873C72.468 46.1784 72.0408 45.8999 71.6932 45.5518C71.3455 45.2037 71.0873 44.7959 70.9184 44.3384C70.7496 43.8808 70.6602 43.3935 70.6602 42.8962C70.6602 42.3988 70.7396 41.9115 70.9085 41.4539C71.0773 40.9964 71.3257 40.5886 71.6634 40.2405C72.0011 39.8924 72.4282 39.6139 72.9447 39.405C73.4613 39.1961 74.0572 39.0967 74.7525 39.0967C75.4478 39.0967 76.0438 39.1961 76.5603 39.405C77.0768 39.6139 77.504 39.8924 77.8417 40.2405C78.1794 40.5886 78.4277 40.9964 78.5966 41.4539C78.7654 41.9115 78.8449 42.3988 78.8449 42.8962H78.825ZM74.7426 39.8824C74.4247 39.8824 74.1466 39.962 73.8784 40.1211C73.6202 40.2803 73.3917 40.4991 73.203 40.7776C73.0143 41.0561 72.8653 41.3744 72.7659 41.7324C72.6666 42.1005 72.607 42.4884 72.607 42.8962C72.607 43.304 72.6567 43.7018 72.7659 44.0599C72.8653 44.4279 73.0143 44.7462 73.203 45.0147C73.3917 45.2833 73.6102 45.5021 73.8784 45.6612C74.1367 45.8204 74.4247 45.8999 74.7426 45.8999C75.0605 45.8999 75.3386 45.8204 75.6068 45.6612C75.865 45.5021 76.0935 45.2932 76.2723 45.0147C76.461 44.7462 76.6001 44.4279 76.6994 44.0599C76.7987 43.6919 76.8583 43.304 76.8583 42.8962C76.8583 42.4884 76.8087 42.0905 76.6994 41.7324C76.6001 41.3644 76.4511 41.0462 76.2723 40.7776C76.0835 40.4991 75.865 40.2803 75.6068 40.1211C75.3485 39.962 75.0605 39.8824 74.7426 39.8824Z" fill="white"/>
<path d="M87.7545 45.8097C87.7545 45.9689 87.7048 46.1081 87.5955 46.2275C87.4863 46.3468 87.3373 46.3965 87.1386 46.3965H86.0659C85.8175 46.3965 85.6387 46.3369 85.5096 46.2275C85.3805 46.118 85.2613 45.9688 85.162 45.7998L82.2019 40.9062V46.3965H80.1855V39.9911C80.1855 39.832 80.2352 39.6927 80.3445 39.5734C80.4438 39.454 80.6027 39.4043 80.8014 39.4043H81.9735C82.192 39.4043 82.3708 39.464 82.5099 39.5634C82.6489 39.6728 82.7681 39.8121 82.8476 39.9613L85.7381 44.8549V39.4043H87.7545V45.8097Z" fill="white"/>
<path d="M94.5989 41.1648C94.589 40.9559 94.5294 40.7868 94.44 40.6476C94.3506 40.5083 94.2314 40.3989 94.0923 40.3094C93.9533 40.2199 93.8043 40.1503 93.6553 40.1005C93.4963 40.0508 93.3473 40.011 93.2083 39.9911C93.0692 39.9712 92.9401 39.9613 92.8209 39.9513C92.7116 39.9513 92.6322 39.9513 92.5924 39.9513C92.5328 39.9513 92.4236 39.9613 92.2547 39.9911C92.0859 40.021 91.917 40.0707 91.7382 40.1403C91.5594 40.2199 91.4005 40.3194 91.2614 40.4586C91.1224 40.5978 91.0528 40.7769 91.0528 40.9957C91.0528 41.1548 91.0926 41.2841 91.172 41.3836C91.2515 41.4831 91.3806 41.5726 91.5693 41.6522C91.7581 41.7317 92.0064 41.7914 92.3242 41.8511C92.6421 41.9108 93.0295 41.9704 93.4963 42.0301C93.983 42.0997 94.4201 42.1893 94.8075 42.2987C95.1949 42.4081 95.5227 42.5473 95.8008 42.7264C96.069 42.8954 96.2776 43.1043 96.4266 43.343C96.5756 43.5817 96.6451 43.8503 96.6649 44.1586C96.6649 44.3178 96.6649 44.4868 96.6351 44.6758C96.6054 44.8648 96.5458 45.0438 96.4663 45.2328C96.3769 45.4218 96.2577 45.6008 96.0988 45.7699C95.9398 45.939 95.7312 46.0981 95.4829 46.2374C95.2247 46.3766 94.9167 46.4861 94.5492 46.5756C94.1817 46.6651 93.7546 46.7148 93.2579 46.7248C92.9997 46.7248 92.7216 46.7248 92.4236 46.7049C92.1256 46.685 91.8276 46.6452 91.5395 46.5855C91.2416 46.5258 90.9634 46.4363 90.6754 46.3269C90.3973 46.2175 90.1489 46.0683 89.9205 45.8793C89.7019 45.6903 89.5132 45.4715 89.3642 45.203C89.2152 44.9444 89.1159 44.6261 89.0762 44.2581H90.9138C90.9535 44.5565 91.0528 44.8151 91.2018 45.0239C91.3508 45.2328 91.5296 45.4019 91.7283 45.5312C91.9369 45.6605 92.1653 45.76 92.4136 45.8097C92.662 45.8694 92.9103 45.8893 93.1686 45.8893C93.7546 45.8694 94.1817 45.76 94.4499 45.571C94.7181 45.382 94.8472 45.1533 94.8472 44.9046C94.8472 44.6559 94.7678 44.457 94.6088 44.3078C94.4499 44.1586 94.2512 44.0293 94.0129 43.9497C93.7745 43.8602 93.5162 43.8006 93.2381 43.7608C92.96 43.721 92.7017 43.6812 92.4633 43.6514C92.3044 43.6315 92.1057 43.6116 91.8872 43.5718C91.6687 43.542 91.4303 43.4922 91.1919 43.4325C90.9535 43.3729 90.7151 43.2933 90.4767 43.2038C90.2383 43.1143 90.0297 42.985 89.8311 42.8457C89.6424 42.6965 89.4834 42.5175 89.3642 42.3186C89.245 42.1097 89.1755 41.871 89.1656 41.5825C89.1556 41.1548 89.245 40.7769 89.4437 40.4685C89.6424 40.1602 89.9105 39.9116 90.2284 39.7126C90.5562 39.5137 90.9237 39.3745 91.3309 39.275C91.7382 39.1855 92.1455 39.1357 92.5626 39.1357C92.7812 39.1357 93.0196 39.1357 93.2877 39.1556C93.5559 39.1755 93.8241 39.2054 94.1022 39.2551C94.3804 39.3048 94.6486 39.3844 94.9167 39.4839C95.1849 39.5833 95.4233 39.7027 95.6419 39.8618C95.8604 40.011 96.0392 40.2 96.1882 40.4188C96.3372 40.6376 96.4365 40.8962 96.4762 41.1946H94.6188L94.5989 41.1648Z" fill="white"/>
<path d="M101.819 40.2398V46.3965H99.793V40.2398H97.1807V39.4043H104.432V40.2398H101.819Z" fill="white"/>
<path d="M110.57 46.3965C110.541 46.307 110.521 46.2076 110.491 46.1081C110.471 46.0086 110.441 45.8992 110.421 45.7699C110.401 45.6506 110.382 45.5113 110.352 45.3621C110.332 45.2129 110.312 45.0339 110.292 44.825C110.262 44.5565 110.193 44.3377 110.064 44.1686C109.935 43.9995 109.776 43.8702 109.587 43.7707C109.398 43.6713 109.18 43.6116 108.951 43.5718C108.723 43.542 108.494 43.5221 108.266 43.5221H107.273V46.3965H105.236V40.4288C105.236 40.2 105.266 40.021 105.316 39.8817C105.365 39.7425 105.435 39.643 105.524 39.5734C105.614 39.5038 105.713 39.454 105.822 39.4341C105.932 39.4142 106.051 39.4043 106.17 39.4043H109.607C110.262 39.4043 110.789 39.464 111.186 39.5833C111.583 39.7027 111.891 39.8618 112.12 40.0508C112.338 40.2398 112.487 40.4487 112.567 40.6774C112.646 40.9062 112.676 41.125 112.676 41.3339C112.676 41.8212 112.527 42.229 112.239 42.5672C111.951 42.8954 111.474 43.1043 110.809 43.1839C111.107 43.2137 111.345 43.2734 111.524 43.3629C111.713 43.4524 111.852 43.5718 111.961 43.721C112.07 43.8702 112.15 44.0393 112.209 44.2282C112.259 44.4172 112.299 44.6261 112.328 44.8549C112.358 45.1731 112.398 45.4715 112.448 45.7301C112.497 45.9987 112.557 46.2175 112.636 46.3965H110.57ZM108.574 42.6866C109.279 42.6866 109.796 42.5971 110.133 42.4081C110.471 42.2191 110.64 41.8909 110.64 41.4234C110.64 41.2643 110.61 41.1051 110.56 40.9659C110.511 40.8266 110.411 40.6973 110.282 40.5979C110.153 40.4884 109.974 40.4089 109.766 40.3393C109.557 40.2796 109.289 40.2497 108.971 40.2497H107.839C107.73 40.2497 107.63 40.2497 107.561 40.2696C107.481 40.2895 107.422 40.3194 107.382 40.3691C107.342 40.4188 107.302 40.4884 107.292 40.578C107.273 40.6675 107.263 40.7769 107.263 40.9161V42.6965H108.574V42.6866Z" fill="white"/>
<path d="M115.935 39.4043V44.0194C115.935 44.3277 115.975 44.5963 116.064 44.825C116.153 45.0538 116.273 45.2428 116.412 45.4019C116.561 45.5511 116.729 45.6705 116.928 45.75C117.127 45.8296 117.345 45.8594 117.564 45.8594C117.782 45.8594 118.011 45.8197 118.21 45.75C118.408 45.6705 118.587 45.5611 118.736 45.4019C118.885 45.2428 119.004 45.0538 119.084 44.825C119.163 44.5963 119.213 44.3277 119.213 44.0194V39.4043H121.229V43.7409C121.229 44.1885 121.15 44.5863 120.981 44.9543C120.812 45.3223 120.564 45.6307 120.246 45.8893C119.928 46.1479 119.541 46.3468 119.084 46.4861C118.627 46.6253 118.12 46.6949 117.554 46.6949C116.988 46.6949 116.481 46.6253 116.024 46.4861C115.567 46.3468 115.19 46.1479 114.872 45.8893C114.554 45.6307 114.316 45.3223 114.147 44.9543C113.978 44.5863 113.889 44.1885 113.889 43.7409V39.4043H115.895H115.935Z" fill="white"/>
<path d="M130.506 44.2485C130.357 44.6066 130.168 44.9348 129.93 45.2332C129.692 45.5316 129.403 45.7902 129.076 46.009C128.748 46.2278 128.37 46.3969 127.943 46.5162C127.516 46.6356 127.059 46.7052 126.553 46.7052C125.897 46.7052 125.321 46.6058 124.805 46.4068C124.288 46.2079 123.851 45.9394 123.493 45.5912C123.136 45.2531 122.858 44.8453 122.669 44.3877C122.48 43.9203 122.381 43.4329 122.381 42.9057C122.381 42.3786 122.47 41.8813 122.659 41.4237C122.848 40.9662 123.116 40.5584 123.473 40.2202C123.831 39.8821 124.268 39.6036 124.785 39.4146C125.301 39.2157 125.887 39.1162 126.543 39.1162C127.079 39.1162 127.556 39.1759 127.973 39.2952C128.4 39.4146 128.768 39.5837 129.096 39.7926C129.413 40.0014 129.692 40.26 129.92 40.5485C130.148 40.8469 130.337 41.1651 130.476 41.5033H128.509C128.42 41.2746 128.301 41.0557 128.172 40.8568C128.043 40.6579 127.894 40.4888 127.725 40.3396C127.556 40.2004 127.377 40.081 127.178 40.0114C126.98 39.9318 126.771 39.892 126.553 39.892C126.235 39.892 125.937 39.9716 125.669 40.1307C125.4 40.2899 125.162 40.5087 124.963 40.7772C124.765 41.0458 124.616 41.3641 124.497 41.7321C124.387 42.1001 124.328 42.488 124.328 42.8958C124.328 43.3036 124.387 43.7313 124.507 44.0993C124.626 44.4673 124.785 44.7856 124.983 45.0541C125.182 45.3227 125.42 45.5316 125.689 45.6808C125.957 45.83 126.245 45.9095 126.553 45.9095C126.761 45.9095 126.97 45.8697 127.169 45.7902C127.367 45.7106 127.556 45.6012 127.725 45.452C127.894 45.3127 128.053 45.1337 128.192 44.9348C128.331 44.7259 128.44 44.5071 128.539 44.2485H130.486H130.506Z" fill="white"/>
<path d="M135.394 40.2398V46.3965H133.367V40.2398H130.755V39.4043H138.006V40.2398H135.394Z" fill="white"/>
<path d="M138.811 39.4043H140.827V46.3965H138.811V39.4043Z" fill="white"/>
<path d="M150.322 42.8962C150.322 43.3935 150.233 43.8808 150.054 44.3384C149.875 44.7959 149.617 45.2037 149.269 45.5518C148.922 45.8999 148.494 46.1784 147.988 46.3873C147.481 46.5962 146.895 46.6956 146.24 46.6956C145.584 46.6956 144.978 46.5962 144.472 46.3873C143.965 46.1784 143.538 45.8999 143.19 45.5518C142.843 45.2037 142.584 44.7959 142.415 44.3384C142.247 43.8808 142.157 43.3935 142.157 42.8962C142.157 42.3988 142.237 41.9115 142.406 41.4539C142.574 40.9964 142.823 40.5886 143.16 40.2405C143.498 39.8924 143.925 39.6139 144.442 39.405C144.958 39.1961 145.554 39.0967 146.25 39.0967C146.945 39.0967 147.541 39.1961 148.057 39.405C148.574 39.6139 149.001 39.8924 149.339 40.2405C149.676 40.5886 149.925 40.9964 150.094 41.4539C150.263 41.9115 150.342 42.3988 150.342 42.8962H150.322ZM146.24 39.8824C145.922 39.8824 145.644 39.962 145.376 40.1211C145.117 40.2803 144.889 40.4991 144.7 40.7776C144.511 41.0561 144.362 41.3744 144.263 41.7324C144.164 42.1005 144.104 42.4884 144.104 42.8962C144.104 43.304 144.154 43.7018 144.263 44.0599C144.362 44.4279 144.511 44.7462 144.7 45.0147C144.889 45.2833 145.107 45.5021 145.376 45.6612C145.634 45.8204 145.922 45.8999 146.24 45.8999C146.558 45.8999 146.836 45.8204 147.104 45.6612C147.362 45.5021 147.591 45.2932 147.769 45.0147C147.958 44.7462 148.097 44.4279 148.196 44.0599C148.296 43.6919 148.355 43.304 148.355 42.8962C148.355 42.4884 148.306 42.0905 148.196 41.7324C148.097 41.3644 147.948 41.0462 147.769 40.7776C147.581 40.4991 147.362 40.2803 147.104 40.1211C146.846 39.962 146.558 39.8824 146.24 39.8824Z" fill="white"/>
<path d="M159.252 45.8097C159.252 45.9689 159.203 46.1081 159.094 46.2275C158.984 46.3468 158.835 46.3965 158.637 46.3965H157.564C157.316 46.3965 157.137 46.3369 157.008 46.2275C156.879 46.118 156.759 45.9688 156.66 45.7998L153.7 40.9062V46.3965H151.684V39.9911C151.684 39.832 151.733 39.6927 151.843 39.5734C151.942 39.454 152.101 39.4043 152.299 39.4043H153.472C153.69 39.4043 153.869 39.464 154.008 39.5634C154.147 39.6728 154.266 39.8121 154.346 39.9613L157.236 44.8549V39.4043H159.252V45.8097Z" fill="white"/>
<path d="M35.2396 45.7504C29.5878 51.4099 20.3402 51.4099 14.6784 45.7504L4.23889 35.2869C-1.41296 29.6275 -1.41296 20.3576 4.23889 14.6981L14.6784 4.24458C20.3303 -1.41486 29.5878 -1.41486 35.2396 4.24458L45.6792 14.7081C51.331 20.3675 51.331 29.6375 45.6792 35.2969L35.2396 45.7604V45.7504Z" fill="white"/>
<path d="M18.7709 40.3596C17.9365 40.3596 17.2611 39.7131 17.2313 38.8776C17.2114 38.4599 17.3604 38.072 17.6385 37.7637C17.9166 37.4553 18.2941 37.2862 18.7113 37.2663C19.5655 37.2266 20.2807 37.893 20.3204 38.7483C20.3601 39.6037 19.6946 40.3199 18.8404 40.3596C18.8205 40.3596 18.8007 40.3596 18.7709 40.3596Z" fill="white"/>
<path d="M24.3827 11.8139C23.5384 11.8139 22.853 12.0824 22.3067 12.6295C21.1247 13.8131 20.4989 16.24 20.5585 19.4825C20.6281 23.4709 21.5717 31.3086 24.7105 35.3468C25.2171 36.0033 25.7634 36.5205 26.3395 36.8984C26.8957 37.2665 27.5116 37.6245 28.4751 37.6245C28.7333 37.6245 29.0214 37.5947 29.3095 37.5449C31.1073 37.1173 33.3621 35.1081 35.0308 32.4425C35.2891 32.0347 35.7261 31.796 36.2029 31.796C36.4612 31.796 36.7194 31.8656 36.938 32.0049C37.2459 32.2038 37.4644 32.5121 37.5538 32.8702C37.6333 33.2283 37.5737 33.6062 37.375 33.9146C35.2593 37.2863 32.4582 39.6536 29.8955 40.2503C29.8955 40.2503 29.8558 40.2503 29.826 40.2603C29.3591 40.3498 28.8923 40.3896 28.4552 40.3896C26.7964 40.3896 25.6343 39.763 24.7999 39.206C23.9755 38.6589 23.2106 37.9329 22.5153 37.0476C18.0951 31.3683 17.7972 20.7258 17.7773 19.5322C17.7276 16.6975 18.1349 12.8583 20.3499 10.6601C21.4326 9.58593 22.7835 9.04883 24.3628 9.04883H24.6211C26.2104 9.04883 27.5613 9.59587 28.6439 10.6601C30.8491 12.8583 31.2563 16.6975 31.2166 19.5322C31.1669 22.4863 30.6305 28.1954 27.5712 33.3277C27.3229 33.7455 26.8659 34.0041 26.3792 34.0041C26.1309 34.0041 25.8826 33.9344 25.674 33.8051C25.0184 33.4172 24.7999 32.5619 25.1972 31.9054C27.3328 28.3148 28.3658 24.3761 28.4552 19.4825C28.5148 16.24 27.889 13.8131 26.707 12.6295C26.1607 12.0824 25.4853 11.8139 24.631 11.8139H24.3926H24.3827Z" fill="#1C1C1C"/>
<path d="M88.9969 2.8125C82.1531 2.8125 78.0508 7.04962 78.0508 12.2814C78.0508 17.5131 82.1531 21.7502 88.9969 21.7502C95.8407 21.7502 99.9629 17.5131 99.9629 12.2814C99.9629 7.04962 95.8606 2.8125 88.9969 2.8125ZM88.9969 19.7212C85.719 19.7212 83.2258 16.3892 83.2258 12.2913C83.2258 8.19344 85.729 4.86144 88.9969 4.86144C92.2648 4.86144 94.7878 8.19344 94.7878 12.2913C94.7878 16.3892 92.2946 19.7212 88.9969 19.7212Z" fill="white"/>
<path d="M100.886 5.60746H108.097V20.9645H113.53V5.60746H119.619V3.50879H100.886V5.60746Z" fill="white"/>
<path d="M121.606 5.60746H127.685V20.9645H133.119V5.60746H140.33V3.50879H121.606V5.60746Z" fill="white"/>
<path d="M67.2334 17.8314V3.50879H62.0186V18.8858C62.0186 20.0296 62.9523 20.9645 64.0945 20.9645H77.4246V18.8758H68.2763C67.7002 18.8758 67.2433 18.4083 67.2433 17.8314H67.2334Z" fill="white"/>
<path d="M143.29 5.58756V18.8858C143.29 20.0296 144.224 20.9645 145.366 20.9645H159.58V18.8957H149.548C148.972 18.8957 148.515 18.4282 148.515 17.8513V12.7091H159.421V10.6701H148.515V6.60209C148.515 6.03515 148.972 5.56767 149.548 5.56767H159.58V3.50879H145.366C144.224 3.50879 143.29 4.43379 143.29 5.58756Z" fill="white"/>
</svg>
