<svg width="115" height="38" viewBox="0 0 115 38" fill="none" xmlns="http://www.w3.org/2000/svg">
<g clip-path="url(#clip0_15_352)">
<path d="M91.5461 9.29281C91.5461 9.61609 91.5933 9.95112 91.7229 10.2685C92.2945 11.6792 93.7501 12.5491 95.6005 11.8144C96.0424 11.6381 108.282 6.71833 108.282 6.71833C108.282 6.71833 103.462 18.9089 103.279 19.3615C102.578 21.1072 103.42 22.6883 104.852 23.2173C105.171 23.3349 105.501 23.3937 105.825 23.3878C106.997 23.3819 108.029 22.6942 108.535 21.3188C108.612 21.1131 114.64 4.60232 114.77 4.20851C114.847 3.9734 114.988 3.42088 114.988 3.03882C114.988 2.22181 114.688 1.45182 114.104 0.869915C113.533 0.29389 112.766 0 111.959 0C111.564 0 111.246 0.0705336 110.763 0.223357C110.474 0.317401 94.9346 6.08353 93.6087 6.57726C92.2828 7.071 91.5461 8.129 91.552 9.29281" fill="#ED1C24"/>
<path d="M62.4295 18.6032V18.2505H53.0067V20.6545H58.4812C57.0551 25.1569 51.9578 27.8019 51.9578 27.8019L53.319 29.7004C53.319 29.7004 62.4295 25.9504 62.4295 18.5973V18.6032Z" fill="white"/>
<path d="M59.4536 34.5674V29.8945H56.1123V35.161C56.1123 36.8068 57.4264 37.9941 59.2297 37.9941H69.5835V35.596H60.6204C59.8072 35.596 59.4654 35.2727 59.4477 34.5674H59.4536Z" fill="white"/>
<path d="M62.0522 22.6827V25.0867H66.03V30.8822H69.3712V17.998H66.03V22.6827H62.0522Z" fill="white"/>
<path d="M90.845 27.6551H94.1863V17.8979H90.845V20.9368H87.3623V23.3114H90.845V27.6551Z" fill="white"/>
<path d="M15.899 29.7124H3.18213V35.1611C3.18213 36.8069 4.49625 37.9942 6.29947 37.9942H16.6415V30.453C16.6415 30.0416 16.3056 29.7124 15.899 29.7124ZM13.3002 35.5961H7.6902C6.87698 35.5961 6.5293 35.2787 6.51751 34.5675V32.1223H13.3002V35.5961Z" fill="white"/>
<path d="M16.8655 18.286V18.1743H2.99949V20.5783H13.371C13.371 20.737 13.371 20.9369 13.371 21.1309C13.371 23.3644 13.259 24.8339 13.2001 25.4334H0V27.8374H20.3364V25.4334H16.176C16.3764 24.681 16.8714 22.3534 16.8714 18.286H16.8655Z" fill="white"/>
<path d="M37.632 30.923C40.4075 30.3176 42.4583 28.2427 42.4583 25.7858C42.4583 24.4633 41.8631 23.2524 40.8849 22.3179H44.4324V19.9139H37.632V17.645H34.2966V19.9139H27.4962V22.3179H31.0437C30.0655 23.2524 29.4703 24.4574 29.4703 25.7858C29.4703 28.2486 31.521 30.3176 34.3025 30.923V33.3564H25.8049V35.7604H46.1354V33.3564H37.6379V30.923H37.632ZM32.9 25.7094C32.9 24.0695 34.273 22.7293 35.9584 22.7293C37.6438 22.7293 39.0168 24.0636 39.0168 25.7094C39.0168 27.3552 37.6438 28.6894 35.9584 28.6894C34.273 28.6894 32.9 27.3552 32.9 25.7094Z" fill="white"/>
<path d="M84.457 27.4495H87.6922C87.5567 26.6678 86.3722 20.355 83.2902 18.1685H79.56L76.6902 27.5259H80.0432L81.9526 20.79C83.5613 22.6709 84.3451 26.8323 84.4511 27.4495H84.457Z" fill="white"/>
<path d="M85.123 35.6784C84.2744 35.6784 84.1212 35.4609 84.1212 34.7438V34.4441H94.1922V29.3892C94.1922 28.9542 93.874 28.6133 93.4202 28.6133H80.8389V30.9291H90.9923V32.1694H80.9273V35.1612C80.9273 36.8951 82.1766 37.9943 84.0446 37.9943H94.4102V35.6784H85.123Z" fill="white"/>
</g>
<defs>
<clipPath id="clip0_15_352">
<rect width="115" height="38" fill="white"/>
</clipPath>
</defs>
</svg>
