<svg width="36" height="36" viewBox="0 0 36 36" fill="none" xmlns="http://www.w3.org/2000/svg">
<path d="M6.00004 15.536C6.00004 15.8677 6.04829 16.2115 6.18102 16.5372C6.76624 17.9848 8.25644 18.8774 10.1509 18.1235C10.6033 17.9425 23.1342 12.8941 23.1342 12.8941C23.1342 12.8941 18.1991 25.4036 18.0121 25.868C17.2941 27.6593 18.1569 29.2818 19.6229 29.8247C19.9487 29.9453 20.2866 30.0056 20.6184 29.9996C21.819 29.9936 22.8748 29.2879 23.3937 27.8765C23.4721 27.6654 29.644 10.7228 29.7768 10.3187C29.8552 10.0774 30 9.51044 30 9.11839C30 8.28001 29.6923 7.48988 29.095 6.89276C28.4977 6.30166 27.7195 5.99406 26.8929 6.00009C26.4887 6.00009 26.1629 6.07247 25.6682 6.22929C25.3726 6.32579 9.46307 12.2427 8.10561 12.7494C6.74814 13.256 5.994 14.3417 6.00004 15.536Z" fill="#ED1B23"/>
</svg>
