<svg width="18" height="18" viewBox="0 0 18 18" fill="none" xmlns="http://www.w3.org/2000/svg">
<circle cx="9" cy="9" r="9" fill="#004289"/>
<mask id="mask0_32_1786" style="mask-type:alpha" maskUnits="userSpaceOnUse" x="1" y="1" width="16" height="15">
<rect x="1.78394" y="1.46387" width="14.4321" height="14.4321" fill="white"/>
</mask>
<g mask="url(#mask0_32_1786)">
<path d="M8.99993 14.0917C8.82955 14.0917 8.68673 14.034 8.57148 13.9188C8.45622 13.8035 8.39859 13.6607 8.39859 13.4903V9.28096H4.18923C4.01885 9.28096 3.87603 9.22333 3.76078 9.10807C3.64552 8.99282 3.58789 8.85 3.58789 8.67962C3.58789 8.50924 3.64552 8.36642 3.76078 8.25117C3.87603 8.13591 4.01885 8.07828 4.18923 8.07828H8.39859V3.86892C8.39859 3.69854 8.45622 3.55572 8.57148 3.44046C8.68673 3.32521 8.82955 3.26758 8.99993 3.26758C9.17031 3.26758 9.31313 3.32521 9.42838 3.44046C9.54364 3.55572 9.60127 3.69854 9.60127 3.86892V8.07828H13.8106C13.981 8.07828 14.1238 8.13591 14.2391 8.25117C14.3543 8.36642 14.412 8.50924 14.412 8.67962C14.412 8.85 14.3543 8.99282 14.2391 9.10807C14.1238 9.22333 13.981 9.28096 13.8106 9.28096H9.60127V13.4903C9.60127 13.6607 9.54364 13.8035 9.42838 13.9188C9.31313 14.034 9.17031 14.0917 8.99993 14.0917Z" fill="white"/>
</g>
</svg>
