<svg width="20" height="16" viewBox="0 0 20 16" fill="none" xmlns="http://www.w3.org/2000/svg">
<path d="M1.33333 2.58317C1.02639 2.58317 0.769097 2.47935 0.561458 2.27171C0.353819 2.06407 0.25 1.80678 0.25 1.49984C0.25 1.19289 0.353819 0.935601 0.561458 0.727962C0.769097 0.520323 1.02639 0.416504 1.33333 0.416504H18.6667C18.9736 0.416504 19.2309 0.520323 19.4385 0.727962C19.6462 0.935601 19.75 1.19289 19.75 1.49984C19.75 1.80678 19.6462 2.06407 19.4385 2.27171C19.2309 2.47935 18.9736 2.58317 18.6667 2.58317H1.33333ZM1.33333 15.5832C1.02639 15.5832 0.769097 15.4794 0.561458 15.2717C0.353819 15.0641 0.25 14.8068 0.25 14.4998C0.25 14.1929 0.353819 13.9356 0.561458 13.728C0.769097 13.5203 1.02639 13.4165 1.33333 13.4165H18.6667C18.9736 13.4165 19.2309 13.5203 19.4385 13.728C19.6462 13.9356 19.75 14.1929 19.75 14.4998C19.75 14.8068 19.6462 15.0641 19.4385 15.2717C19.2309 15.4794 18.9736 15.5832 18.6667 15.5832H1.33333ZM1.33333 9.08317C1.02639 9.08317 0.769097 8.97935 0.561458 8.77171C0.353819 8.56407 0.25 8.30678 0.25 7.99984C0.25 7.69289 0.353819 7.4356 0.561458 7.22796C0.769097 7.02032 1.02639 6.9165 1.33333 6.9165H18.6667C18.9736 6.9165 19.2309 7.02032 19.4385 7.22796C19.6462 7.4356 19.75 7.69289 19.75 7.99984C19.75 8.30678 19.6462 8.56407 19.4385 8.77171C19.2309 8.97935 18.9736 9.08317 18.6667 9.08317H1.33333Z" fill="white"/>
</svg>
