<svg width="139" height="54" viewBox="0 0 139 54" fill="none" xmlns="http://www.w3.org/2000/svg">
<g clip-path="url(#clip0_150_4)">
<path d="M28.6166 34.7485C26.0861 34.7519 24.0029 36.747 24.0029 39.2435C24.0029 41.7399 26.0861 43.7149 28.6166 43.7216C31.1704 43.7115 33.2369 41.7164 33.2369 39.2435C33.2369 36.7706 31.1704 34.7519 28.6166 34.7485ZM28.5531 41.6726C27.2311 41.6726 26.2296 40.5826 26.2296 39.2469C26.2296 37.9112 27.2979 36.7975 28.6132 36.7975C29.9285 36.7975 30.9601 37.8842 30.9601 39.2469C30.9601 40.6095 29.8785 41.6726 28.5498 41.6726H28.5531Z" fill="#004289"/>
<path d="M7.43786 31.6533C8.1456 32.3564 8.95348 32.9688 9.74468 33.3658L9.82814 33.4095L11.1902 31.7845L11.06 31.7105C9.76471 31.0039 8.74984 30.1123 8.08884 28.9852C7.43118 27.8783 7.09401 26.5863 7.09401 25.0488V23.6021H4.65699V24.894C4.65699 26.5628 4.27976 27.8749 3.5787 29.0256C2.79084 30.2974 1.62575 31.3235 0.133493 32.2723L0.0032959 32.3531L1.48554 33.8974L1.56566 33.8503C2.44365 33.3658 3.37839 32.6222 4.19296 31.7946C4.89736 31.0712 5.50828 30.2906 5.8755 29.5538C6.23271 30.2738 6.78354 31.0106 7.4412 31.6432L7.43786 31.6533Z" fill="#004289"/>
<path d="M4.80396 42.6617H15.0127V35.6333H4.80396V42.6617ZM7.09408 37.6183H12.7126V40.68H7.09408V37.6183Z" fill="#004289"/>
<path d="M15.0494 23.188H12.7826V34.8291H15.0494V29.6781H17.71V27.6089H15.0494V23.188Z" fill="#004289"/>
<path d="M72.9436 32.2484C73.688 32.9011 74.5426 33.4495 75.3439 33.8028L75.4273 33.8432L76.6525 32.171L76.5223 32.1071C75.3539 31.5015 74.309 30.7546 73.5612 29.8462C72.7967 28.9142 72.3427 27.7938 72.3427 26.4413V26.0443H75.7178V24.0391H66.5472V26.0443H69.9223V26.5254C69.9223 27.7535 69.5151 28.9007 68.8474 29.8933C68.0595 31.0843 66.9078 32.0465 65.7928 32.6656L65.6459 32.7464L67.1515 34.3176L67.2349 34.2772C68.0495 33.8129 68.9442 33.1097 69.712 32.3224C70.3263 31.6731 70.8771 30.9867 71.2143 30.3037C71.6216 30.9665 72.2458 31.6327 72.9436 32.2518V32.2484Z" fill="#004289"/>
<path d="M89.3617 37.6657H97.6142V42.6619H99.9076V35.6772H89.3617V37.6657Z" fill="#004289"/>
<path d="M95.0569 29.6613C95.0569 28.5612 94.5695 27.5484 93.8417 26.7746H96.1085V24.7929H91.782V22.6094H89.3249V24.7929H84.8949V26.7746H87.2084C86.504 27.5484 86.0099 28.5511 86.0099 29.6613C86.0099 32.114 88.0163 34.1092 90.5267 34.1159C93.0372 34.1092 95.0569 32.114 95.0603 29.6613H95.0569ZM88.1966 29.5705C88.1966 28.2112 89.3349 27.0606 90.5234 27.0606C91.7119 27.0606 92.8469 28.218 92.8503 29.5705C92.8503 30.9062 91.7119 32.0602 90.5234 32.0636C89.3316 32.0602 88.1966 30.9062 88.1966 29.5705Z" fill="#004289"/>
<path d="M99.9076 23.188H97.6409V34.8695H99.9076V30.4115H102.572V28.3457H99.9076V23.188Z" fill="#004289"/>
<path d="M80.6785 23.188H78.4084V34.8695H80.6785V29.6781H83.3392V27.6089H80.6785V23.188Z" fill="#004289"/>
<path d="M132.266 31.9965H124.595V26.1087H130.44V24.0361H122.298V34.0085H132.266V31.9965Z" fill="#004289"/>
<path d="M31.3907 26.6534H27.822V28.7024H31.3907V35.2362H33.6608V23.188H31.3907V26.6534Z" fill="#004289"/>
<path d="M25.6221 31.9561C26.3298 32.6593 27.1544 33.2716 27.9489 33.6855L28.0357 33.7359L29.4011 32.1109L29.2676 32.0335C27.9723 31.3539 26.9775 30.4623 26.3131 29.352C25.6355 28.2518 25.2983 26.9128 25.2983 25.3718V23.6055H22.8546V25.2272C22.8546 26.8959 22.484 28.2047 21.7963 29.3352C21.0085 30.6305 19.8267 31.66 18.3311 32.6055L18.2042 32.6862L19.6898 34.2372L19.7632 34.1901C20.6446 33.7057 21.556 33.0025 22.3672 32.1984C23.0983 31.4615 23.7125 30.6642 24.0798 29.8903C24.4303 30.5901 24.9678 31.3101 25.6154 31.9561H25.6221Z" fill="#004289"/>
<path d="M75.8079 34.7485C73.2774 34.7519 71.1943 36.747 71.1909 39.2435C71.1943 41.7164 73.2774 43.7149 75.8079 43.7216C78.3584 43.7115 80.4282 41.7164 80.4282 39.2435C80.4282 36.7706 78.3584 34.7519 75.8079 34.7485ZM75.7411 41.6726C74.4225 41.6726 73.4176 40.5826 73.4176 39.2469C73.4176 37.9112 74.4826 36.7975 75.8079 36.7975C77.1332 36.7975 78.1514 37.8842 78.1548 39.2469C78.1514 40.5826 77.0698 41.6726 75.7411 41.6726Z" fill="#004289"/>
<path d="M127.93 36.4575H125.633V42.6616H136.369V40.616H127.93V36.4575Z" fill="#004289"/>
<path d="M136.316 28.5846V23.188H134.049V37.551H136.316V30.6471H139V28.5846H136.316Z" fill="#004289"/>
<path d="M117.114 28.45H115.204V23.5177H113.061V42.1603H115.204V30.6942H117.114V42.6616H119.34V23.188H117.114V28.45Z" fill="#004289"/>
<path d="M109.909 31.034C109.399 29.9069 109.188 28.652 109.188 27.1043V26.3675H111.762V24.2681H104.278V26.3675H106.935V27.1413C106.935 28.6049 106.745 29.7993 106.284 30.9096C105.753 32.1813 104.858 33.332 103.433 34.5567L103.333 34.6509L104.742 36.0572L104.828 35.9899C105.536 35.4617 106.277 34.698 106.898 33.9107C107.419 33.2445 107.86 32.5582 108.14 31.9526C108.424 32.5413 108.868 33.2176 109.385 33.8501C109.989 34.5903 110.667 35.2935 111.318 35.7107L111.408 35.7712L112.593 34.3413L112.5 34.2539C111.225 33.1335 110.433 32.1342 109.913 31.0307L109.909 31.034Z" fill="#004289"/>
<path d="M6.44971 49.3807C5.3614 48.9904 5.15776 48.728 5.15776 48.2771C5.15776 47.8263 5.47156 47.4696 6.21602 47.4696C6.76018 47.4696 7.1274 47.648 7.52133 47.9777L7.90858 47.4966C7.45122 47.1298 6.98385 46.9111 6.25608 46.9111C5.23788 46.9111 4.55017 47.4326 4.55017 48.3141C4.55017 49.1048 4.95078 49.485 6.12255 49.9123C7.11738 50.2723 7.42118 50.565 7.42118 51.0696C7.42118 51.6517 6.97049 52.0083 6.24607 52.0083C5.68522 52.0083 5.21117 51.7493 4.80055 51.3523L4.39661 51.8065C4.82392 52.2405 5.48826 52.5635 6.22604 52.5635C7.36108 52.5635 8.02876 51.8973 8.02876 51.0394C8.02876 50.1814 7.6582 49.8147 6.45305 49.3739L6.44971 49.3807Z" fill="#004289"/>
<path d="M10.4958 48.2871C9.96504 48.2871 9.48098 48.4183 9.12377 48.6135L9.3441 49.0912C9.67794 48.8961 10.0285 48.775 10.4558 48.775C11.05 48.775 11.3438 49.071 11.3438 49.6867V50.1746C11.1034 50.04 10.7362 49.9357 10.3222 49.9357C9.51436 49.9357 8.75989 50.3293 8.75989 51.2546C8.75989 52.2471 9.4309 52.5667 10.0652 52.5667C10.6494 52.5667 11.05 52.2942 11.3405 51.9813V52.4826H11.9213V49.6161C11.9213 48.6606 11.3705 48.2871 10.4958 48.2871ZM11.3405 51.4733C11.0934 51.8165 10.6928 52.0923 10.1653 52.0923C9.66793 52.0923 9.33075 51.8232 9.33075 51.2108C9.33075 50.6961 9.69129 50.4 10.2889 50.4C10.7863 50.4 11.0734 50.4908 11.3371 50.6389V51.4699L11.3405 51.4733Z" fill="#004289"/>
<path d="M17.7802 50.077V52.4826H18.3644V49.9761C18.3644 48.775 17.847 48.2871 17.0124 48.2871C16.3514 48.2871 16.0175 48.5966 15.7772 48.9903C15.5836 48.5966 15.233 48.2871 14.6588 48.2871C14.1748 48.2871 13.8309 48.5193 13.6239 48.8759V48.3746H13.0364V52.486H13.6239V50.0804C13.6239 49.1686 13.9745 48.7951 14.5353 48.7951C15.0962 48.7951 15.4133 49.1383 15.4133 50.0804V52.486H15.9975V50.0804C15.9975 49.1686 16.3514 48.7951 16.9056 48.7951C17.4964 48.7951 17.7835 49.1383 17.7835 50.0804L17.7802 50.077Z" fill="#004289"/>
<path d="M20.7012 50.0972C20.0102 49.7809 19.8032 49.643 19.8032 49.2965C19.8032 49.0004 20.0502 48.7851 20.4809 48.7851C20.9115 48.7851 21.1786 48.9028 21.4958 49.1551L21.8229 48.7211C21.5125 48.4621 21.0785 48.2871 20.5143 48.2871C19.7765 48.2871 19.2424 48.7077 19.2424 49.3335C19.2424 49.9929 19.5829 50.2419 20.4008 50.5951C21.1219 50.908 21.3656 51.0965 21.3656 51.4329C21.3656 51.8333 21.1018 52.0688 20.541 52.0688C20.137 52.0688 19.7565 51.9006 19.4293 51.6146L19.0854 52.0452C19.476 52.3615 19.9634 52.5701 20.5243 52.5701C21.232 52.5701 21.9231 52.2202 21.9231 51.4127C21.9231 50.6759 21.4724 50.4505 20.7012 50.1006V50.0972Z" fill="#004289"/>
<path d="M25.3316 50.7733C25.3316 51.675 24.8843 52.0552 24.3234 52.0552C23.6658 52.0552 23.3553 51.6581 23.3553 50.7733V48.371H22.7744V50.8742C22.7744 52.0552 23.3386 52.5632 24.1999 52.5632C24.7173 52.5632 25.0946 52.321 25.3283 51.9778V52.4791H25.9125V48.3677H25.3283V50.7699L25.3316 50.7733Z" fill="#004289"/>
<path d="M30.0353 52.4826V49.9761C30.0353 48.7918 29.4678 48.2871 28.6032 48.2871C28.0924 48.2871 27.7118 48.526 27.4815 48.8759V48.3746H26.8939V52.486H27.4815V50.0804C27.4815 49.1821 27.9188 48.7951 28.4897 48.7951C29.1406 48.7951 29.4545 49.1955 29.4545 50.0804V52.486H30.0387L30.0353 52.4826Z" fill="#004289"/>
<path d="M31.8715 53.5492L32.0584 53.9966C33.574 53.9462 34.1249 53.354 34.1249 52.1159V48.3712H33.544V48.8322C33.2569 48.5024 32.9097 48.2871 32.3956 48.2871C31.5376 48.2871 30.8533 49.034 30.8533 50.4942C30.8533 51.9544 31.5009 52.5667 32.3188 52.5667C32.8697 52.5667 33.2602 52.2942 33.5473 51.9813V52.1933C33.5473 53.1488 33.2369 53.5088 31.8748 53.5492H31.8715ZM32.4624 52.0587C31.8181 52.0587 31.4275 51.5204 31.4275 50.4875C31.4275 49.3806 31.7613 48.7951 32.439 48.7951C32.9231 48.7951 33.317 49.071 33.5407 49.4108V51.4665C33.2536 51.8299 32.8964 52.0587 32.459 52.0587H32.4624Z" fill="#004289"/>
<path d="M40.5579 49.7036C40.5579 47.8228 39.5063 46.9985 38.0775 46.9985H36.6387V52.4826H37.9673C39.4229 52.4826 40.5579 51.692 40.5579 49.7002V49.7036ZM37.2463 47.5537H38.0308C39.2827 47.5537 39.9503 48.3241 39.9503 49.7238C39.9503 51.3017 39.2192 51.9275 38.0441 51.9275H37.2429V47.5537H37.2463Z" fill="#004289"/>
<path d="M42.1136 48.8827V48.3747H41.5294V52.4861H42.1136V50.0738C42.1136 49.2865 42.4308 48.8323 43.0016 48.8323C43.2721 48.8323 43.4523 48.8928 43.6126 48.987L43.7595 48.3949C43.6226 48.331 43.4256 48.2939 43.1252 48.2939C42.6878 48.2939 42.2972 48.5564 42.117 48.8895L42.1136 48.8827Z" fill="#004289"/>
<path d="M47.248 52.0923L46.9776 51.6684C46.6037 51.9208 46.3233 52.0587 45.8459 52.0587C45.1816 52.0587 44.7676 51.5036 44.7109 50.6288H47.4317C47.4517 50.5312 47.4584 50.4471 47.4584 50.3058C47.4584 49.1316 46.8808 48.2871 45.8159 48.2871C44.8444 48.2871 44.13 49.0979 44.13 50.4034C44.13 52.0217 45.038 52.5667 45.7858 52.5667C46.4001 52.5667 46.7606 52.4019 47.2514 52.0923H47.248ZM45.8092 48.7918C46.5236 48.7918 46.8675 49.3469 46.9142 50.1477H44.7109C44.7776 49.2292 45.2016 48.7918 45.8092 48.7918Z" fill="#004289"/>
<path d="M49.398 52.5667C49.9822 52.5667 50.3861 52.2942 50.6732 51.9813V52.4826H51.2574V49.6161C51.2574 48.6606 50.7066 48.2871 49.8253 48.2871C49.2945 48.2871 48.8137 48.4183 48.4565 48.6135L48.6769 49.0912C49.0107 48.8961 49.3612 48.775 49.7885 48.775C50.3861 48.775 50.6732 49.071 50.6732 49.6867V50.1746C50.4362 50.04 50.069 49.9357 49.6617 49.9357C48.8505 49.9357 48.0927 50.3293 48.0927 51.2546C48.0927 52.2471 48.7637 52.5667 49.398 52.5667ZM49.625 50.4034C50.119 50.4034 50.4095 50.4942 50.6732 50.6422V51.4733C50.4262 51.8165 50.0289 52.0923 49.5048 52.0923C48.9807 52.0923 48.6702 51.8232 48.6702 51.2108C48.6702 50.6961 49.0307 50.4 49.6283 50.4L49.625 50.4034Z" fill="#004289"/>
<path d="M57.1129 50.077V52.4826H57.6938V49.9761C57.6938 48.775 57.1764 48.2871 56.3418 48.2871C55.6808 48.2871 55.3469 48.5966 55.1066 48.9903C54.9129 48.5966 54.5657 48.2871 53.9882 48.2871C53.5041 48.2871 53.1636 48.5193 52.9533 48.8759V48.3746H52.3724V52.486H52.9533V50.0804C52.9533 49.1686 53.3038 48.7951 53.8647 48.7951C54.4255 48.7951 54.7427 49.1383 54.7427 50.0804V52.486H55.3236V50.0804C55.3236 49.1686 55.6808 48.7951 56.2349 48.7951C56.8225 48.7951 57.1129 49.1383 57.1129 50.0804V50.077Z" fill="#004289"/>
<path d="M62.0571 49.3807C60.9688 48.9904 60.7685 48.7314 60.7685 48.2772C60.7685 47.823 61.079 47.4697 61.8234 47.4697C62.3709 47.4697 62.7348 47.648 63.1287 47.9777L63.516 47.5C63.0586 47.1332 62.5913 46.9146 61.8635 46.9146C60.8453 46.9146 60.1609 47.4327 60.1609 48.3142C60.1609 49.1048 60.5549 49.4884 61.7333 49.9089C62.7281 50.2723 63.0319 50.5617 63.0319 51.0697C63.0319 51.6484 62.5813 52.0084 61.8568 52.0084C61.296 52.0084 60.8219 51.746 60.408 51.3489L60.004 51.7998C60.4313 52.2405 61.0957 52.5602 61.8301 52.5602C62.9618 52.5602 63.6328 51.894 63.6328 51.036C63.6328 50.1781 63.2623 49.8114 62.0571 49.3706V49.3807Z" fill="#004289"/>
<path d="M66.1099 48.7951C66.5205 48.7951 66.7943 48.9432 67.088 49.2123L67.4386 48.7716C67.1181 48.489 66.6974 48.2871 66.1466 48.2871C65.292 48.2871 64.3906 48.9264 64.3906 50.4505C64.3906 51.8837 65.2085 52.5701 66.1099 52.5701C66.6807 52.5701 67.078 52.3514 67.4219 51.9981L67.0713 51.6247C66.7943 51.8972 66.5272 52.0621 66.1333 52.0621C65.4088 52.0621 64.9815 51.4127 64.9815 50.4C64.9815 49.3873 65.4756 48.7951 66.1132 48.7951H66.1099Z" fill="#004289"/>
<path d="M69.9357 48.2872C69.4249 48.2872 69.041 48.5261 68.8073 48.876V46.9414H68.2264V52.4861H68.8073V50.0805C68.8073 49.1788 69.2547 48.7952 69.8188 48.7952C70.4732 48.7952 70.7803 49.1922 70.7803 50.0805V52.4861H71.3645V49.9762C71.3645 48.7952 70.797 48.2872 69.9324 48.2872H69.9357Z" fill="#004289"/>
<path d="M73.9684 48.2871C72.9769 48.2871 72.1824 49.034 72.1824 50.4336C72.1824 51.8333 72.9435 52.5701 73.9384 52.5701C74.9332 52.5701 75.7277 51.7963 75.7277 50.4C75.7277 49.0037 74.9599 48.2871 73.9684 48.2871ZM73.9584 52.0621C73.2507 52.0621 72.7733 51.5002 72.7733 50.4168C72.7733 49.3335 73.2507 48.7951 73.9584 48.7951C74.6661 48.7951 75.1435 49.3368 75.1435 50.4168C75.1435 51.4968 74.6628 52.0621 73.9584 52.0621Z" fill="#004289"/>
<path d="M77.1933 46.9414H76.6091V52.4861H77.1933V46.9414Z" fill="#004289"/>
<path d="M79.8574 48.2871C79.3299 48.2871 78.8458 48.4217 78.492 48.6168L78.709 49.0979C79.0428 48.8994 79.3933 48.7817 79.8207 48.7817C80.4182 48.7817 80.7053 49.0811 80.7053 49.6867V50.1779C80.465 50.04 80.0977 49.9391 79.6905 49.9391C78.8792 49.9391 78.1248 50.3327 78.1248 51.258C78.1248 52.2538 78.7924 52.5701 79.4301 52.5701C80.0143 52.5701 80.4182 52.3009 80.7053 51.9847V52.486H81.2895V49.6194C81.2895 48.6606 80.7387 48.2871 79.8574 48.2871ZM80.7053 51.4733C80.4583 51.8165 80.0577 52.0923 79.5336 52.0923C79.0395 52.0923 78.7023 51.8232 78.7023 51.2142C78.7023 50.6961 79.0628 50.4067 79.6604 50.4067C80.1578 50.4067 80.4449 50.4942 80.7087 50.6422V51.4733H80.7053Z" fill="#004289"/>
<path d="M82.9853 48.8826V48.3712H82.4011V52.486H82.9853V50.0737C82.9853 49.2897 83.3025 48.8288 83.87 48.8288C84.1438 48.8288 84.3207 48.8893 84.4843 48.9836L84.6312 48.388C84.4943 48.3275 84.2973 48.2871 83.9969 48.2871C83.5595 48.2871 83.1689 48.5495 82.9853 48.8826Z" fill="#004289"/>
<path d="M86.8713 50.0971C86.1769 49.7809 85.9699 49.6396 85.9699 49.293C85.9699 48.997 86.2203 48.7816 86.6476 48.7816C87.0749 48.7816 87.3487 48.9028 87.6658 49.1517L87.993 48.7211C87.6792 48.462 87.2485 48.2837 86.6877 48.2837C85.9466 48.2837 85.4124 48.7043 85.4124 49.3334C85.4124 49.9929 85.7563 50.2418 86.5742 50.5917C87.2953 50.9046 87.539 51.093 87.539 51.4295C87.539 51.8332 87.2719 52.0654 86.7177 52.0654C86.3105 52.0654 85.9299 51.8971 85.6027 51.6112L85.2622 52.0418C85.6495 52.3581 86.1402 52.5667 86.701 52.5667C87.4054 52.5667 88.0998 52.2168 88.0998 51.4093C88.0998 50.6691 87.6491 50.4471 86.878 50.0938L86.8713 50.0971Z" fill="#004289"/>
<path d="M90.7538 48.2872C90.2397 48.2872 89.8591 48.5261 89.6254 48.876V46.9414H89.0446V52.4861H89.6254V50.0805C89.6254 49.1788 90.0694 48.7952 90.637 48.7952C91.2879 48.7952 91.5984 49.1922 91.5984 50.0805V52.4861H92.1826V49.9762C92.1826 48.7952 91.6151 48.2872 90.7538 48.2872Z" fill="#004289"/>
<path d="M93.9152 48.3711H93.3344V52.4859H93.9152V48.3711Z" fill="#004289"/>
<path d="M93.6381 46.7969C93.3978 46.7969 93.2108 46.9853 93.2108 47.2242C93.2108 47.4496 93.3978 47.638 93.6381 47.638C93.8518 47.638 94.0421 47.4496 94.0421 47.2242C94.0421 46.9853 93.8518 46.7969 93.6381 46.7969Z" fill="#004289"/>
<path d="M96.903 48.2871C96.3522 48.2871 95.9616 48.5596 95.6745 48.8759V48.3746H95.0936V54H95.6745V52.0251C95.9616 52.3514 96.3121 52.5701 96.8262 52.5701C97.6809 52.5701 98.3652 51.8165 98.3652 50.363C98.3652 48.9095 97.7176 48.2871 96.903 48.2871ZM96.7795 52.0621C96.2988 52.0621 95.9015 51.7862 95.6745 51.443V49.3907C95.9616 49.034 96.3221 48.7951 96.7561 48.7951C97.4038 48.7951 97.7944 49.3368 97.7944 50.3697C97.7944 51.4733 97.4605 52.0621 96.7795 52.0621Z" fill="#004289"/>
<path d="M101.453 47.5571H104.044V47.002H100.846V52.4861H101.453V49.9291H102.946V49.3773H101.453V47.5571Z" fill="#004289"/>
<path d="M105.816 48.2871C104.825 48.2871 104.027 49.034 104.027 50.4336C104.027 51.8333 104.792 52.5701 105.783 52.5701C106.775 52.5701 107.572 51.7963 107.572 50.4C107.572 49.0037 106.811 48.2871 105.816 48.2871ZM105.8 52.0621C105.092 52.0621 104.618 51.5002 104.618 50.4168C104.618 49.3335 105.092 48.7951 105.8 48.7951C106.508 48.7951 106.992 49.3368 106.992 50.4168C106.992 51.4968 106.511 52.0621 105.8 52.0621Z" fill="#004289"/>
<path d="M110.794 50.7733C110.794 51.675 110.353 52.0586 109.786 52.0586C109.131 52.0586 108.821 51.6616 108.821 50.7733V48.3711H108.237V50.8776C108.237 52.0619 108.804 52.57 109.669 52.57C110.176 52.57 110.557 52.3311 110.791 51.9845V52.4859H111.375V48.3711H110.791V50.7733H110.794Z" fill="#004289"/>
<path d="M114.066 48.2871C113.555 48.2871 113.174 48.526 112.937 48.8759V48.3746H112.353V52.4893H112.937V50.0837C112.937 49.1821 113.381 48.7985 113.949 48.7985C114.603 48.7985 114.914 49.1955 114.914 50.0837V52.4893H115.494V49.9794C115.494 48.7985 114.927 48.2905 114.062 48.2905L114.066 48.2871Z" fill="#004289"/>
<path d="M119.006 48.8356C118.719 48.5059 118.369 48.2872 117.855 48.2872C117 48.2872 116.316 49.0341 116.316 50.4977C116.316 51.9612 116.96 52.5702 117.778 52.5702C118.329 52.5702 118.716 52.301 119.006 51.9848V52.4861H119.591V46.9414H119.006V48.839V48.8356ZM119.006 51.4666C118.719 51.8266 118.359 52.0622 117.925 52.0622C117.28 52.0622 116.89 51.5238 116.89 50.4876C116.89 49.3807 117.224 48.7952 117.901 48.7952C118.385 48.7952 118.776 49.0678 119.006 49.4143V51.4666Z" fill="#004289"/>
<path d="M122.064 48.2871C121.534 48.2871 121.053 48.4217 120.696 48.6168L120.913 49.0979C121.25 48.8994 121.6 48.7817 122.024 48.7817C122.622 48.7817 122.909 49.0811 122.909 49.6867V50.1779C122.669 50.04 122.301 49.9391 121.891 49.9391C121.086 49.9391 120.328 50.3327 120.328 51.258C120.328 52.2538 120.999 52.5701 121.637 52.5701C122.221 52.5701 122.622 52.3009 122.909 51.9847V52.486H123.493V49.6194C123.493 48.6606 122.942 48.2871 122.064 48.2871ZM122.909 51.4733C122.662 51.8165 122.265 52.0923 121.734 52.0923C121.24 52.0923 120.906 51.8232 120.906 51.2142C120.906 50.6961 121.263 50.4067 121.861 50.4067C122.358 50.4067 122.645 50.4942 122.909 50.6422V51.4733Z" fill="#004289"/>
<path d="M125.353 46.9414H124.768V48.3747H124.264V48.8693H124.768V51.645C124.768 52.3246 125.042 52.5736 125.55 52.5736C125.857 52.5736 126.074 52.5298 126.301 52.4322L126.341 51.9242C126.154 52.0016 126 52.042 125.763 52.042C125.453 52.042 125.353 51.9175 125.353 51.5474V48.8693H126.364V48.3747H125.353V46.9414Z" fill="#004289"/>
<path d="M127.686 46.7969C127.446 46.7969 127.256 46.9853 127.256 47.2242C127.256 47.4496 127.446 47.638 127.686 47.638C127.907 47.638 128.094 47.4496 128.094 47.2242C128.094 46.9853 127.907 46.7969 127.686 46.7969Z" fill="#004289"/>
<path d="M127.963 48.3711H127.382V52.4859H127.963V48.3711Z" fill="#004289"/>
<path d="M130.634 48.2871C129.643 48.2871 128.848 49.034 128.848 50.4336C128.848 51.8333 129.609 52.5701 130.604 52.5701C131.599 52.5701 132.39 51.7963 132.39 50.4C132.39 49.0037 131.629 48.2871 130.634 48.2871ZM130.614 52.0621C129.91 52.0621 129.436 51.5002 129.436 50.4168C129.436 49.3335 129.91 48.7951 130.614 48.7951C131.318 48.7951 131.806 49.3368 131.806 50.4168C131.806 51.4968 131.325 52.0621 130.614 52.0621Z" fill="#004289"/>
<path d="M134.94 48.2871C134.426 48.2871 134.046 48.526 133.812 48.8759V48.3746H133.228V52.4893H133.812V50.0837C133.812 49.1821 134.256 48.7985 134.824 48.7985C135.481 48.7985 135.788 49.1955 135.788 50.0837V52.4893H136.369V49.9794C136.369 48.7985 135.802 48.2905 134.94 48.2905V48.2871Z" fill="#004289"/>
<path d="M74.7029 9.12785L70.2195 7.2572L74.7029 5.38654L73.905 3.4486L69.4216 5.31925L71.2811 0.800748L69.3582 0L67.502 4.5185L65.6426 0L63.723 0.800748L65.5791 5.31925L61.0957 3.4486L60.3011 5.38654L64.7812 7.2572L60.3011 9.12785L61.0957 11.0658L65.5791 9.19178L63.723 13.7103L65.6459 14.5144L67.502 9.99589L69.3582 14.5144L71.2811 13.7103L69.4216 9.19178L73.905 11.0658L74.7029 9.12785Z" fill="#009FE3"/>
<path d="M45.6824 21.7415H48.6669V13.7104H38.4681V16.4155H45.6824V21.7415Z" fill="#009FE3"/>
<path d="M57.32 21.7415H60.3012V13.7104H50.1024V16.4155H57.32V21.7415Z" fill="#009FE3"/>
<path d="M37.9874 25.893H57.32V30.028H60.3011V23.188H37.9874V25.893Z" fill="#009FE3"/>
<path d="M45.2017 42.6616H60.2978V31.4209H45.2017V42.6616ZM48.1862 34.1259H57.32V39.9566H48.1862V34.1259Z" fill="#009FE3"/>
</g>
<defs>
<clipPath id="clip0_150_4">
<rect width="139" height="54" fill="white"/>
</clipPath>
</defs>
</svg>
