<svg width="61" height="24" viewBox="0 0 61 24" fill="none" xmlns="http://www.w3.org/2000/svg">
<g clip-path="url(#clip0_151_64)">
<path d="M12.5584 15.4438C11.4479 15.4453 10.5337 16.3321 10.5337 17.4416C10.5337 18.5511 11.4479 19.4289 12.5584 19.4319C13.6791 19.4274 14.586 18.5407 14.586 17.4416C14.586 16.3425 13.6791 15.4453 12.5584 15.4438ZM12.5305 18.5212C11.9504 18.5212 11.5109 18.0367 11.5109 17.4431C11.5109 16.8495 11.9797 16.3545 12.5569 16.3545C13.1341 16.3545 13.5868 16.8375 13.5868 17.4431C13.5868 18.0487 13.1122 18.5212 12.5291 18.5212H12.5305Z" fill="#004289"/>
<path d="M3.26412 14.0681C3.57471 14.3806 3.92925 14.6527 4.27646 14.8292L4.31309 14.8486L4.91082 14.1264L4.85369 14.0935C4.28525 13.7795 3.83988 13.3832 3.5498 12.8823C3.26119 12.3903 3.11322 11.8161 3.11322 11.1327V10.4897H2.04373V11.064C2.04373 11.8056 1.87819 12.3888 1.57053 12.9002C1.22478 13.4654 0.713476 13.9215 0.0586015 14.3432L0.00146484 14.3791L0.651944 15.0654L0.687105 15.0445C1.07241 14.8292 1.48262 14.4987 1.84009 14.1309C2.14922 13.8094 2.41732 13.4625 2.57848 13.135C2.73524 13.455 2.97697 13.7825 3.26558 14.0636L3.26412 14.0681Z" fill="#004289"/>
<path d="M2.10815 18.9607H6.58826V15.8369H2.10815V18.9607ZM3.11317 16.7192H5.57884V18.0799H3.11317V16.7192Z" fill="#004289"/>
<path d="M6.60438 10.3057H5.60962V15.4795H6.60438V13.1902H7.77202V12.2705H6.60438V10.3057Z" fill="#004289"/>
<path d="M32.0112 14.3327C32.3379 14.6228 32.7129 14.8665 33.0645 15.0235L33.1012 15.0415L33.6388 14.2983L33.5817 14.2699C33.0689 14.0007 32.6104 13.6688 32.2822 13.265C31.9467 12.8508 31.7475 12.3529 31.7475 11.7517V11.5753H33.2286V10.6841H29.2042V11.5753H30.6853V11.7891C30.6853 12.3349 30.5066 12.8448 30.2136 13.286C29.8678 13.8153 29.3624 14.243 28.8731 14.5181L28.8086 14.554L29.4693 15.2523L29.506 15.2344C29.8634 15.028 30.2561 14.7155 30.593 14.3656C30.8626 14.077 31.1043 13.7719 31.2523 13.4684C31.431 13.763 31.705 14.059 32.0112 14.3342V14.3327Z" fill="#004289"/>
<path d="M39.2163 16.7402H42.8379V18.9607H43.8444V15.8564H39.2163V16.7402Z" fill="#004289"/>
<path d="M41.7157 13.183C41.7157 12.6941 41.5018 12.244 41.1824 11.9H42.1772V11.0193H40.2785V10.0488H39.2002V11.0193H37.2561V11.9H38.2714C37.9623 12.244 37.7454 12.6896 37.7454 13.183C37.7454 14.2731 38.6259 15.1599 39.7276 15.1628C40.8293 15.1599 41.7157 14.2731 41.7172 13.183H41.7157ZM38.705 13.1427C38.705 12.5385 39.2046 12.0271 39.7262 12.0271C40.2477 12.0271 40.7458 12.5415 40.7473 13.1427C40.7473 13.7363 40.2477 14.2492 39.7262 14.2507C39.2031 14.2492 38.705 13.7363 38.705 13.1427Z" fill="#004289"/>
<path d="M43.8444 10.3057H42.8496V15.4974H43.8444V13.5161H45.0135V12.598H43.8444V10.3057Z" fill="#004289"/>
<path d="M35.4057 10.3057H34.4094V15.4974H35.4057V13.1902H36.5733V12.2705H35.4057V10.3057Z" fill="#004289"/>
<path d="M58.045 14.2206H54.6784V11.6037H57.2437V10.6826H53.6704V15.1148H58.045V14.2206Z" fill="#004289"/>
<path d="M13.7758 11.8459H12.2097V12.7565H13.7758V15.6604H14.7721V10.3057H13.7758V11.8459Z" fill="#004289"/>
<path d="M11.2442 14.2026C11.5548 14.5151 11.9167 14.7873 12.2654 14.9712L12.3034 14.9936L12.9026 14.2714L12.844 14.237C12.2756 13.9349 11.839 13.5387 11.5475 13.0452C11.2501 12.5563 11.1021 11.9611 11.1021 11.2763V10.4912H10.0297V11.212C10.0297 11.9536 9.86708 12.5353 9.56528 13.0378C9.21953 13.6135 8.7009 14.071 8.04456 14.4912L7.98889 14.5271L8.64084 15.2164L8.67307 15.1955C9.05984 14.9802 9.4598 14.6677 9.8158 14.3103C10.1366 13.9828 10.4062 13.6284 10.5674 13.2845C10.7212 13.5955 10.9571 13.9155 11.2413 14.2026H11.2442Z" fill="#004289"/>
<path d="M33.2682 15.4438C32.1577 15.4453 31.2435 16.3321 31.2421 17.4416C31.2435 18.5407 32.1577 19.4289 33.2682 19.4319C34.3875 19.4274 35.2958 18.5407 35.2958 17.4416C35.2958 16.3425 34.3875 15.4453 33.2682 15.4438ZM33.2389 18.5212C32.6602 18.5212 32.2192 18.0367 32.2192 17.4431C32.2192 16.8495 32.6866 16.3545 33.2682 16.3545C33.8498 16.3545 34.2967 16.8375 34.2981 17.4431C34.2967 18.0367 33.822 18.5212 33.2389 18.5212Z" fill="#004289"/>
<path d="M56.1419 16.2031H55.1339V18.9605H59.8455V18.0513H56.1419V16.2031Z" fill="#004289"/>
<path d="M59.8222 12.7042V10.3057H58.8274V16.6892H59.8222V13.6208H61V12.7042H59.8222Z" fill="#004289"/>
<path d="M51.3951 12.6444H50.5571V10.4522H49.6166V18.7378H50.5571V13.6417H51.3951V18.9606H52.3723V10.3057H51.3951V12.6444Z" fill="#004289"/>
<path d="M48.2337 13.7927C48.0095 13.2918 47.9172 12.7341 47.9172 12.0462V11.7187H49.0468V10.7856H45.7621V11.7187H46.9283V12.0627C46.9283 12.7131 46.8448 13.244 46.6426 13.7374C46.4097 14.3027 46.0171 14.8141 45.3915 15.3584L45.3475 15.4002L45.9658 16.0253L46.0039 15.9954C46.3145 15.7606 46.6397 15.4212 46.9122 15.0713C47.1407 14.7752 47.3341 14.4701 47.4572 14.201C47.5817 14.4627 47.7766 14.7632 48.0037 15.0443C48.2688 15.3733 48.5662 15.6858 48.8519 15.8713L48.8915 15.8982L49.4116 15.2627L49.3705 15.2238C48.8109 14.7258 48.4637 14.2817 48.2351 13.7913L48.2337 13.7927Z" fill="#004289"/>
<path d="M2.83044 21.9467C2.35284 21.7732 2.26347 21.6566 2.26347 21.4562C2.26347 21.2559 2.40119 21.0973 2.72789 21.0973C2.96669 21.0973 3.12785 21.1766 3.30072 21.3231L3.47067 21.1093C3.26996 20.9463 3.06485 20.8491 2.74547 20.8491C2.29863 20.8491 1.99684 21.0809 1.99684 21.4727C1.99684 21.8241 2.17264 21.993 2.68687 22.183C3.12345 22.343 3.25677 22.473 3.25677 22.6973C3.25677 22.956 3.05899 23.1145 2.74108 23.1145C2.49495 23.1145 2.28691 22.9994 2.10671 22.823L1.92944 23.0248C2.11697 23.2177 2.40851 23.3613 2.73229 23.3613C3.2304 23.3613 3.52341 23.0652 3.52341 22.6839C3.52341 22.3026 3.36079 22.1396 2.83191 21.9437L2.83044 21.9467Z" fill="#004289"/>
<path d="M4.60606 21.4609C4.37312 21.4609 4.16069 21.5193 4.00393 21.606L4.10062 21.8183C4.24713 21.7316 4.40095 21.6778 4.58848 21.6778C4.84926 21.6778 4.97818 21.8093 4.97818 22.083V22.2998C4.8727 22.24 4.71154 22.1936 4.52988 22.1936C4.17534 22.1936 3.84424 22.3686 3.84424 22.7798C3.84424 23.2209 4.13871 23.363 4.41707 23.363C4.67345 23.363 4.84926 23.2419 4.97672 23.1028V23.3256H5.23163V22.0516C5.23163 21.6269 4.9899 21.4609 4.60606 21.4609ZM4.97672 22.877C4.8683 23.0295 4.6925 23.1522 4.46102 23.1522C4.24273 23.1522 4.09476 23.0325 4.09476 22.7604C4.09476 22.5316 4.25299 22.4 4.51523 22.4C4.73352 22.4 4.85951 22.4404 4.97525 22.5062V22.8755L4.97672 22.877Z" fill="#004289"/>
<path d="M7.80277 22.2565V23.3256H8.05916V22.2116C8.05916 21.6778 7.83207 21.4609 7.46581 21.4609C7.17574 21.4609 7.02923 21.5985 6.92375 21.7735C6.83878 21.5985 6.68495 21.4609 6.43296 21.4609C6.22053 21.4609 6.06963 21.5641 5.9788 21.7226V21.4998H5.72095V23.3271H5.9788V22.2579C5.9788 21.8527 6.13262 21.6867 6.37875 21.6867C6.62488 21.6867 6.76406 21.8393 6.76406 22.2579V23.3271H7.02044V22.2579C7.02044 21.8527 7.17574 21.6867 7.41893 21.6867C7.67824 21.6867 7.80424 21.8393 7.80424 22.2579L7.80277 22.2565Z" fill="#004289"/>
<path d="M9.08469 22.2654C8.78143 22.1249 8.69059 22.0636 8.69059 21.9095C8.69059 21.7779 8.79901 21.6822 8.988 21.6822C9.17699 21.6822 9.29419 21.7346 9.43337 21.8467L9.57695 21.6538C9.4407 21.5387 9.25024 21.4609 9.00265 21.4609C8.67887 21.4609 8.44447 21.6479 8.44447 21.926C8.44447 22.2191 8.5939 22.3297 8.95284 22.4867C9.26929 22.6258 9.37624 22.7095 9.37624 22.8591C9.37624 23.037 9.2605 23.1417 9.01437 23.1417C8.8371 23.1417 8.67008 23.0669 8.52651 22.9398L8.37561 23.1312C8.54702 23.2718 8.76092 23.3645 9.00704 23.3645C9.31763 23.3645 9.6209 23.209 9.6209 22.8501C9.6209 22.5226 9.42312 22.4224 9.08469 22.2669V22.2654Z" fill="#004289"/>
<path d="M11.1167 22.5657C11.1167 22.9665 10.9204 23.1355 10.6743 23.1355C10.3857 23.1355 10.2494 22.959 10.2494 22.5657V21.4981H9.99451V22.6106C9.99451 23.1355 10.2421 23.3613 10.6201 23.3613C10.8472 23.3613 11.0127 23.2536 11.1153 23.1011V23.3239H11.3716V21.4966H11.1153V22.5642L11.1167 22.5657Z" fill="#004289"/>
<path d="M13.181 23.3256V22.2116C13.181 21.6852 12.9319 21.4609 12.5525 21.4609C12.3283 21.4609 12.1613 21.5671 12.0602 21.7226V21.4998H11.8024V23.3271H12.0602V22.2579C12.0602 21.8587 12.2521 21.6867 12.5027 21.6867C12.7883 21.6867 12.9261 21.8647 12.9261 22.2579V23.3271H13.1824L13.181 23.3256Z" fill="#004289"/>
<path d="M13.9868 23.7996L14.0688 23.9985C14.7339 23.9761 14.9757 23.7129 14.9757 23.1626V21.4983H14.7207V21.7032C14.5947 21.5566 14.4424 21.4609 14.2168 21.4609C13.8403 21.4609 13.5399 21.7929 13.5399 22.4419C13.5399 23.0908 13.8241 23.363 14.1831 23.363C14.4248 23.363 14.5962 23.2419 14.7222 23.1028V23.197C14.7222 23.6217 14.586 23.7817 13.9882 23.7996H13.9868ZM14.2461 23.1372C13.9633 23.1372 13.7919 22.8979 13.7919 22.4389C13.7919 21.9469 13.9384 21.6867 14.2358 21.6867C14.4482 21.6867 14.6211 21.8093 14.7193 21.9604V22.874C14.5933 23.0355 14.4365 23.1372 14.2446 23.1372H14.2461Z" fill="#004289"/>
<path d="M17.7988 22.0904C17.7988 21.2545 17.3373 20.8882 16.7103 20.8882H16.0789V23.3256H16.6619C17.3007 23.3256 17.7988 22.9742 17.7988 22.0889V22.0904ZM16.3455 21.1349H16.6898C17.2392 21.1349 17.5322 21.4773 17.5322 22.0994C17.5322 22.8007 17.2113 23.0788 16.6956 23.0788H16.344V21.1349H16.3455Z" fill="#004289"/>
<path d="M18.4815 21.7255V21.4998H18.2251V23.327H18.4815V22.2549C18.4815 21.905 18.6207 21.7031 18.8712 21.7031C18.9898 21.7031 19.069 21.73 19.1393 21.7719L19.2037 21.5087C19.1437 21.4803 19.0572 21.4639 18.9254 21.4639C18.7335 21.4639 18.5621 21.5805 18.4829 21.7285L18.4815 21.7255Z" fill="#004289"/>
<path d="M20.7348 23.1522L20.6161 22.9637C20.4521 23.0759 20.329 23.1372 20.1195 23.1372C19.8279 23.1372 19.6463 22.8905 19.6214 22.5017H20.8154C20.8242 22.4583 20.8271 22.4209 20.8271 22.3581C20.8271 21.8363 20.5737 21.4609 20.1063 21.4609C19.68 21.4609 19.3665 21.8213 19.3665 22.4015C19.3665 23.1207 19.7649 23.363 20.0931 23.363C20.3627 23.363 20.5209 23.2897 20.7363 23.1522H20.7348ZM20.1034 21.6852C20.4169 21.6852 20.5678 21.932 20.5883 22.2879H19.6214C19.6507 21.8796 19.8367 21.6852 20.1034 21.6852Z" fill="#004289"/>
<path d="M21.6783 23.363C21.9347 23.363 22.112 23.2419 22.2379 23.1028V23.3256H22.4943V22.0516C22.4943 21.6269 22.2526 21.4609 21.8658 21.4609C21.6329 21.4609 21.4219 21.5193 21.2652 21.606L21.3619 21.8183C21.5084 21.7316 21.6622 21.6778 21.8497 21.6778C22.112 21.6778 22.2379 21.8093 22.2379 22.083V22.2998C22.1339 22.24 21.9728 22.1936 21.794 22.1936C21.438 22.1936 21.1055 22.3686 21.1055 22.7798C21.1055 23.2209 21.3999 23.363 21.6783 23.363ZM21.7779 22.4015C21.9947 22.4015 22.1222 22.4419 22.2379 22.5077V22.877C22.1295 23.0295 21.9552 23.1522 21.7252 23.1522C21.4952 23.1522 21.3589 23.0325 21.3589 22.7604C21.3589 22.5316 21.5171 22.4 21.7794 22.4L21.7779 22.4015Z" fill="#004289"/>
<path d="M25.064 22.2565V23.3256H25.3189V22.2116C25.3189 21.6778 25.0918 21.4609 24.7256 21.4609C24.4355 21.4609 24.289 21.5985 24.1835 21.7735C24.0985 21.5985 23.9462 21.4609 23.6927 21.4609C23.4803 21.4609 23.3309 21.5641 23.2386 21.7226V21.4998H22.9836V23.3271H23.2386V22.2579C23.2386 21.8527 23.3924 21.6867 23.6385 21.6867C23.8846 21.6867 24.0238 21.8393 24.0238 22.2579V23.3271H24.2787V22.2579C24.2787 21.8527 24.4355 21.6867 24.6787 21.6867C24.9365 21.6867 25.064 21.8393 25.064 22.2579V22.2565Z" fill="#004289"/>
<path d="M27.2336 21.9471C26.756 21.7737 26.6681 21.6586 26.6681 21.4567C26.6681 21.2548 26.8044 21.0978 27.1311 21.0978C27.3714 21.0978 27.531 21.1771 27.7039 21.3236L27.8739 21.1113C27.6732 20.9483 27.468 20.8511 27.1487 20.8511C26.7018 20.8511 26.4015 21.0814 26.4015 21.4731C26.4015 21.8245 26.5744 21.995 27.0915 22.1819C27.5281 22.3434 27.6614 22.472 27.6614 22.6978C27.6614 22.955 27.4637 23.115 27.1457 23.115C26.8996 23.115 26.6916 22.9984 26.5099 22.8219L26.3326 23.0223C26.5202 23.2182 26.8117 23.3602 27.134 23.3602C27.6307 23.3602 27.9251 23.0642 27.9251 22.6829C27.9251 22.3015 27.7625 22.1386 27.2336 21.9427V21.9471Z" fill="#004289"/>
<path d="M29.0123 21.6867C29.1925 21.6867 29.3126 21.7525 29.4416 21.8722L29.5954 21.6763C29.4548 21.5507 29.2702 21.4609 29.0284 21.4609C28.6534 21.4609 28.2578 21.745 28.2578 22.4224C28.2578 23.0594 28.6167 23.3645 29.0123 23.3645C29.2628 23.3645 29.4372 23.2673 29.5881 23.1103L29.4342 22.9443C29.3126 23.0654 29.1954 23.1387 29.0226 23.1387C28.7047 23.1387 28.5171 22.8501 28.5171 22.4C28.5171 21.9499 28.7339 21.6867 29.0138 21.6867H29.0123Z" fill="#004289"/>
<path d="M30.6911 21.4609C30.467 21.4609 30.2985 21.5671 30.196 21.7226V20.8628H29.941V23.3271H30.196V22.2579C30.196 21.8572 30.3923 21.6867 30.6399 21.6867C30.927 21.6867 31.0618 21.8632 31.0618 22.2579V23.3271H31.3182V22.2116C31.3182 21.6867 31.0691 21.4609 30.6897 21.4609H30.6911Z" fill="#004289"/>
<path d="M32.4609 21.4609C32.0258 21.4609 31.6771 21.7929 31.6771 22.415C31.6771 23.037 32.0112 23.3645 32.4477 23.3645C32.8843 23.3645 33.233 23.0206 33.233 22.4C33.233 21.7794 32.896 21.4609 32.4609 21.4609ZM32.4565 23.1387C32.1459 23.1387 31.9364 22.889 31.9364 22.4075C31.9364 21.926 32.1459 21.6867 32.4565 21.6867C32.7671 21.6867 32.9766 21.9275 32.9766 22.4075C32.9766 22.8875 32.7656 23.1387 32.4565 23.1387Z" fill="#004289"/>
<path d="M35.0453 21.4609C34.8138 21.4609 34.6014 21.5207 34.4461 21.6075L34.5413 21.8213C34.6878 21.7331 34.8416 21.6808 35.0292 21.6808C35.2914 21.6808 35.4174 21.8138 35.4174 22.083V22.3013C35.3119 22.24 35.1508 22.1951 34.972 22.1951C34.616 22.1951 34.2849 22.3701 34.2849 22.7813C34.2849 23.2239 34.5779 23.3645 34.8577 23.3645C35.1141 23.3645 35.2914 23.2449 35.4174 23.1043V23.3271H35.6738V22.0531C35.6738 21.6269 35.432 21.4609 35.0453 21.4609ZM35.4174 22.877C35.309 23.0295 35.1332 23.1522 34.9032 23.1522C34.6863 23.1522 34.5384 23.0325 34.5384 22.7619C34.5384 22.5316 34.6966 22.403 34.9588 22.403C35.1771 22.403 35.3031 22.4419 35.4189 22.5077V22.877H35.4174Z" fill="#004289"/>
<path d="M36.418 21.7256V21.4983H36.1616V23.3271H36.418V22.255C36.418 21.9065 36.5572 21.7017 36.8062 21.7017C36.9264 21.7017 37.004 21.7286 37.0758 21.7705L37.1403 21.5058C37.0802 21.4789 36.9938 21.4609 36.8619 21.4609C36.67 21.4609 36.4986 21.5776 36.418 21.7256Z" fill="#004289"/>
<path d="M38.1234 22.2655C37.8187 22.1249 37.7278 22.0621 37.7278 21.9081C37.7278 21.7765 37.8377 21.6808 38.0252 21.6808C38.2128 21.6808 38.3329 21.7346 38.4721 21.8453L38.6156 21.6539C38.4779 21.5387 38.2889 21.4595 38.0428 21.4595C37.7176 21.4595 37.4832 21.6464 37.4832 21.926C37.4832 22.2191 37.6341 22.3298 37.993 22.4853C38.3094 22.6243 38.4164 22.7081 38.4164 22.8576C38.4164 23.037 38.2992 23.1402 38.056 23.1402C37.8773 23.1402 37.7102 23.0655 37.5667 22.9384L37.4172 23.1298C37.5872 23.2703 37.8025 23.363 38.0487 23.363C38.3578 23.363 38.6625 23.2075 38.6625 22.8486C38.6625 22.5197 38.4647 22.421 38.1263 22.264L38.1234 22.2655Z" fill="#004289"/>
<path d="M39.8272 21.4609C39.6016 21.4609 39.4346 21.5671 39.3321 21.7226V20.8628H39.0771V23.3271H39.3321V22.2579C39.3321 21.8572 39.5269 21.6867 39.776 21.6867C40.0617 21.6867 40.1979 21.8632 40.1979 22.2579V23.3271H40.4543V22.2116C40.4543 21.6867 40.2052 21.4609 39.8272 21.4609Z" fill="#004289"/>
<path d="M41.2146 21.4985H40.9597V23.3273H41.2146V21.4985Z" fill="#004289"/>
<path d="M41.093 20.7983C40.9876 20.7983 40.9055 20.8821 40.9055 20.9882C40.9055 21.0884 40.9876 21.1722 41.093 21.1722C41.1868 21.1722 41.2703 21.0884 41.2703 20.9882C41.2703 20.8821 41.1868 20.7983 41.093 20.7983Z" fill="#004289"/>
<path d="M42.5259 21.4609C42.2841 21.4609 42.1127 21.5821 41.9867 21.7226V21.4998H41.7318V24H41.9867V23.1222C42.1127 23.2673 42.2666 23.3645 42.4922 23.3645C42.8672 23.3645 43.1676 23.0295 43.1676 22.3836C43.1676 21.7376 42.8833 21.4609 42.5259 21.4609ZM42.4717 23.1387C42.2607 23.1387 42.0864 23.0161 41.9867 22.8636V21.9514C42.1127 21.7929 42.2709 21.6867 42.4614 21.6867C42.7456 21.6867 42.917 21.9275 42.917 22.3865C42.917 22.877 42.7705 23.1387 42.4717 23.1387Z" fill="#004289"/>
<path d="M44.5226 21.1364H45.6595V20.8896H44.256V23.327H44.5226V22.1906H45.1775V21.9453H44.5226V21.1364Z" fill="#004289"/>
<path d="M46.4375 21.4609C46.0024 21.4609 45.6522 21.7929 45.6522 22.415C45.6522 23.037 45.9877 23.3645 46.4228 23.3645C46.858 23.3645 47.2081 23.0206 47.2081 22.4C47.2081 21.7794 46.8741 21.4609 46.4375 21.4609ZM46.4302 23.1387C46.1196 23.1387 45.9115 22.889 45.9115 22.4075C45.9115 21.926 46.1196 21.6867 46.4302 21.6867C46.7408 21.6867 46.9532 21.9275 46.9532 22.4075C46.9532 22.8875 46.7422 23.1387 46.4302 23.1387Z" fill="#004289"/>
<path d="M48.6219 22.5662C48.6219 22.9669 48.4285 23.1374 48.1794 23.1374C47.8923 23.1374 47.756 22.961 47.756 22.5662V21.4985H47.4996V22.6126C47.4996 23.1389 47.7487 23.3647 48.1281 23.3647C48.3508 23.3647 48.5178 23.2585 48.6204 23.1045V23.3273H48.8768V21.4985H48.6204V22.5662H48.6219Z" fill="#004289"/>
<path d="M50.0576 21.4609C49.8334 21.4609 49.6664 21.5671 49.5624 21.7226V21.4998H49.306V23.3286H49.5624V22.2594C49.5624 21.8587 49.7573 21.6882 50.0063 21.6882C50.2935 21.6882 50.4297 21.8647 50.4297 22.2594V23.3286H50.6846V22.2131C50.6846 21.6882 50.4356 21.4624 50.0561 21.4624L50.0576 21.4609Z" fill="#004289"/>
<path d="M52.2259 21.7047C52.0999 21.5581 51.946 21.4609 51.7204 21.4609C51.3454 21.4609 51.045 21.7929 51.045 22.4434C51.045 23.0938 51.3278 23.3645 51.6867 23.3645C51.9285 23.3645 52.0984 23.2448 52.2259 23.1043V23.3271H52.4823V20.8628H52.2259V21.7062V21.7047ZM52.2259 22.874C52.0999 23.034 51.9416 23.1387 51.7512 23.1387C51.4684 23.1387 51.297 22.8994 51.297 22.4389C51.297 21.9469 51.4435 21.6867 51.7409 21.6867C51.9534 21.6867 52.1248 21.8078 52.2259 21.9619V22.874Z" fill="#004289"/>
<path d="M53.5679 21.4609C53.3349 21.4609 53.1239 21.5207 52.9672 21.6075L53.0624 21.8213C53.2104 21.7331 53.3642 21.6808 53.5503 21.6808C53.8125 21.6808 53.9385 21.8138 53.9385 22.083V22.3013C53.833 22.24 53.6719 22.1951 53.4917 22.1951C53.1386 22.1951 52.806 22.3701 52.806 22.7813C52.806 23.2239 53.1005 23.3645 53.3803 23.3645C53.6367 23.3645 53.8125 23.2449 53.9385 23.1043V23.3271H54.1949V22.0531C54.1949 21.6269 53.9532 21.4609 53.5679 21.4609ZM53.9385 22.877C53.8301 23.0295 53.6558 23.1522 53.4228 23.1522C53.206 23.1522 53.0595 23.0325 53.0595 22.7619C53.0595 22.5316 53.2162 22.403 53.4785 22.403C53.6968 22.403 53.8228 22.4419 53.9385 22.5077V22.877Z" fill="#004289"/>
<path d="M55.0109 20.8628H54.7545V21.4998H54.5333V21.7196H54.7545V22.9533C54.7545 23.2553 54.8747 23.366 55.0974 23.366C55.2321 23.366 55.3274 23.3465 55.427 23.3032L55.4446 23.0774C55.3625 23.1118 55.2951 23.1297 55.1911 23.1297C55.0549 23.1297 55.0109 23.0744 55.0109 22.9099V21.7196H55.4548V21.4998H55.0109V20.8628Z" fill="#004289"/>
<path d="M56.0349 20.7983C55.9295 20.7983 55.8459 20.8821 55.8459 20.9882C55.8459 21.0884 55.9295 21.1722 56.0349 21.1722C56.1316 21.1722 56.2137 21.0884 56.2137 20.9882C56.2137 20.8821 56.1316 20.7983 56.0349 20.7983Z" fill="#004289"/>
<path d="M56.1565 21.4985H55.9016V23.3273H56.1565V21.4985Z" fill="#004289"/>
<path d="M57.3286 21.4609C56.8935 21.4609 56.5448 21.7929 56.5448 22.415C56.5448 23.037 56.8788 23.3645 57.3154 23.3645C57.752 23.3645 58.0992 23.0206 58.0992 22.4C58.0992 21.7794 57.7652 21.4609 57.3286 21.4609ZM57.3198 23.1387C57.0107 23.1387 56.8026 22.889 56.8026 22.4075C56.8026 21.926 57.0107 21.6867 57.3198 21.6867C57.6289 21.6867 57.8428 21.9275 57.8428 22.4075C57.8428 22.8875 57.6319 23.1387 57.3198 23.1387Z" fill="#004289"/>
<path d="M59.2185 21.4609C58.9929 21.4609 58.8259 21.5671 58.7233 21.7226V21.4998H58.4669V23.3286H58.7233V22.2594C58.7233 21.8587 58.9182 21.6882 59.1672 21.6882C59.4558 21.6882 59.5906 21.8647 59.5906 22.2594V23.3286H59.8455V22.2131C59.8455 21.6882 59.5965 21.4624 59.2185 21.4624V21.4609Z" fill="#004289"/>
<path d="M32.7833 4.05682L30.8158 3.22542L32.7833 2.39402L32.4332 1.53271L30.4656 2.36411L31.2817 0.355888L30.4378 0L29.6232 2.00822L28.8072 0L27.9648 0.355888L28.7794 2.36411L26.8118 1.53271L26.4631 2.39402L28.4292 3.22542L26.4631 4.05682L26.8118 4.91813L28.7794 4.08523L27.9648 6.09346L28.8087 6.45084L29.6232 4.44262L30.4378 6.45084L31.2817 6.09346L30.4656 4.08523L32.4332 4.91813L32.7833 4.05682Z" fill="#009FE3"/>
<path d="M20.0477 9.66261H21.3574V6.09326H16.8817V7.2955H20.0477V9.66261Z" fill="#009FE3"/>
<path d="M25.1548 9.66261H26.4631V6.09326H21.9874V7.2955H25.1548V9.66261Z" fill="#009FE3"/>
<path d="M16.6708 11.5079H25.1548V13.3457H26.4631V10.3057H16.6708V11.5079Z" fill="#009FE3"/>
<path d="M19.8367 18.9607H26.4616V13.9648H19.8367V18.9607ZM21.1464 15.1671H25.1548V17.7585H21.1464V15.1671Z" fill="#009FE3"/>
</g>
<defs>
<clipPath id="clip0_151_64">
<rect width="61" height="24" fill="white"/>
</clipPath>
</defs>
</svg>
