<svg width="300" height="117" viewBox="0 0 300 117" fill="none" xmlns="http://www.w3.org/2000/svg">
<g clip-path="url(#clip0_58_62)">
<path d="M61.7624 75.2881C56.3009 75.2954 51.8049 79.6182 51.8049 85.0272C51.8049 90.4361 56.3009 94.7152 61.7624 94.7298C67.2743 94.7079 71.7343 90.3851 71.7343 85.0272C71.7343 79.6692 67.2743 75.2954 61.7624 75.2881ZM61.6255 90.2903C58.7723 90.2903 56.6108 87.9285 56.6108 85.0344C56.6108 82.1404 58.9164 79.7275 61.7552 79.7275C64.594 79.7275 66.8204 82.0821 66.8204 85.0344C66.8204 87.9868 64.486 90.2903 61.6183 90.2903H61.6255Z" fill="#004289"/>
<path d="M16.0531 68.582C17.5806 70.1055 19.3243 71.4323 21.0319 72.2925L21.212 72.3872L24.1517 68.8663L23.8707 68.7059C21.0751 67.1751 18.8848 65.2433 17.4581 62.8012C16.0387 60.4029 15.311 57.6037 15.311 54.2723V51.1377H10.0513V53.9369C10.0513 57.5526 9.2371 60.3956 7.72402 62.8887C6.02361 65.6442 3.50902 67.8676 0.288324 69.9233L0.00732422 70.0983L3.2064 73.4442L3.37932 73.3422C5.27427 72.2925 7.29171 70.6814 9.04976 68.8882C10.57 67.3209 11.8886 65.6297 12.6811 64.0332C13.4521 65.5932 14.6409 67.1897 16.0604 68.5601L16.0531 68.582Z" fill="#004289"/>
<path d="M10.3682 92.4333H32.4015V77.2051H10.3682V92.4333ZM15.3109 81.506H27.4371V88.1397H15.3109V81.506Z" fill="#004289"/>
<path d="M32.4807 50.2412H27.5884V75.4636H32.4807V64.3031H38.2231V59.8199H32.4807V50.2412Z" fill="#004289"/>
<path d="M157.432 69.8719C159.039 71.2861 160.883 72.4743 162.613 73.2397L162.793 73.3272L165.437 69.7042L165.156 69.5657C162.634 68.2536 160.379 66.6352 158.765 64.667C157.115 62.6478 156.135 60.2203 156.135 57.2898V56.4296H163.42V52.085H143.627V56.4296H150.911V57.4721C150.911 60.1328 150.032 62.6186 148.591 64.7691C146.891 67.3496 144.405 69.4345 141.999 70.7758L141.682 70.9508L144.931 74.3551L145.111 74.2676C146.869 73.2616 148.8 71.738 150.457 70.0323C151.783 68.6253 152.972 67.1382 153.7 65.6584C154.579 67.0945 155.926 68.5379 157.432 69.8792V69.8719Z" fill="#004289"/>
<path d="M192.867 81.608H210.678V92.4333H215.628V77.2998H192.867V81.608Z" fill="#004289"/>
<path d="M205.159 64.2666C205.159 61.8828 204.107 59.6886 202.536 58.012H207.429V53.7183H198.091V48.9873H192.788V53.7183H183.227V58.012H188.22C186.699 59.6886 185.633 61.861 185.633 64.2666C185.633 69.5808 189.963 73.9036 195.382 73.9181C200.8 73.9036 205.159 69.5808 205.166 64.2666H205.159ZM190.352 64.0697C190.352 61.1247 192.809 58.6316 195.374 58.6316C197.939 58.6316 200.389 61.1393 200.396 64.0697C200.396 66.9638 197.939 69.4641 195.374 69.4714C192.802 69.4641 190.352 66.9638 190.352 64.0697Z" fill="#004289"/>
<path d="M215.628 50.2412H210.736V75.5511H215.628V65.8922H221.378V61.4164H215.628V50.2412Z" fill="#004289"/>
<path d="M174.126 50.2412H169.227V75.5511H174.126V64.3031H179.869V59.8199H174.126V50.2412Z" fill="#004289"/>
<path d="M285.467 69.3256H268.91V56.5686H281.526V52.0781H263.953V73.6849H285.467V69.3256Z" fill="#004289"/>
<path d="M67.7499 57.7496H60.0476V62.1891H67.7499V76.3457H72.6494V50.2412H67.7499V57.7496Z" fill="#004289"/>
<path d="M55.2994 69.2376C56.8268 70.7612 58.6065 72.0879 60.3213 72.9845L60.5087 73.0939L63.4556 69.5729L63.1674 69.4053C60.3718 67.9328 58.2246 66.001 56.7908 63.5954C55.3282 61.2116 54.6005 58.3103 54.6005 54.9716V51.1445H49.3263V54.6582C49.3263 58.2739 48.5265 61.1096 47.0423 63.5589C45.3419 66.3655 42.7912 68.5961 39.5633 70.6445L39.2896 70.8195L42.4958 74.18L42.6543 74.078C44.5565 73.0283 46.5235 71.5047 48.2743 69.7625C49.8523 68.166 51.178 66.4384 51.9706 64.7617C52.7271 66.278 53.8871 67.838 55.2849 69.2376H55.2994Z" fill="#004289"/>
<path d="M163.614 75.2881C158.153 75.2954 153.657 79.6182 153.649 85.0272C153.657 90.3851 158.153 94.7152 163.614 94.7298C169.119 94.7079 173.586 90.3851 173.586 85.0272C173.586 79.6692 169.119 75.2954 163.614 75.2881ZM163.47 90.2903C160.624 90.2903 158.455 87.9285 158.455 85.0344C158.455 82.1404 160.754 79.7275 163.614 79.7275C166.475 79.7275 168.672 82.0821 168.679 85.0344C168.672 87.9285 166.338 90.2903 163.47 90.2903Z" fill="#004289"/>
<path d="M276.108 78.9912H271.151V92.4335H294.322V88.0013H276.108V78.9912Z" fill="#004289"/>
<path d="M294.207 61.9339V50.2412H289.315V81.361H294.207V66.4025H300V61.9339H294.207Z" fill="#004289"/>
<path d="M252.763 61.6423H248.642V50.9556H244.016V91.3479H248.642V66.5046H252.763V92.4341H257.569V50.2412H252.763V61.6423Z" fill="#004289"/>
<path d="M237.215 67.2407C236.112 64.7986 235.658 62.0796 235.658 58.7263V57.1298H241.213V52.5811H225.06V57.1298H230.795V58.8065C230.795 61.9775 230.384 64.5654 229.39 66.971C228.244 69.7265 226.313 72.2196 223.237 74.873L223.021 75.0771L226.061 78.1242L226.248 77.9784C227.776 76.834 229.375 75.1792 230.716 73.4734C231.84 72.03 232.791 70.5429 233.396 69.2308C234.008 70.5065 234.967 71.9717 236.083 73.3422C237.388 74.9459 238.85 76.4695 240.255 77.3734L240.45 77.5046L243.008 74.4065L242.806 74.2169C240.053 71.7895 238.346 69.6244 237.222 67.2334L237.215 67.2407Z" fill="#004289"/>
<path d="M13.9204 106.991C11.5715 106.146 11.132 105.577 11.132 104.6C11.132 103.623 11.8093 102.851 13.4161 102.851C14.5905 102.851 15.3831 103.237 16.2333 103.951L17.0691 102.909C16.082 102.114 15.0732 101.641 13.5025 101.641C11.305 101.641 9.82069 102.771 9.82069 104.68C9.82069 106.394 10.6853 107.217 13.2143 108.143C15.3614 108.923 16.0171 109.557 16.0171 110.651C16.0171 111.912 15.0444 112.685 13.4809 112.685C12.2704 112.685 11.2473 112.123 10.3611 111.263L9.48926 112.247C10.4115 113.188 11.8453 113.887 13.4377 113.887C15.8874 113.887 17.3284 112.444 17.3284 110.585C17.3284 108.726 16.5287 107.932 13.9276 106.977L13.9204 106.991Z" fill="#004289"/>
<path d="M22.6529 104.622C21.5073 104.622 20.4626 104.906 19.6916 105.329L20.1671 106.364C20.8877 105.942 21.6442 105.679 22.5665 105.679C23.849 105.679 24.483 106.321 24.483 107.655V108.712C23.9643 108.42 23.1717 108.194 22.2783 108.194C20.5346 108.194 18.9062 109.047 18.9062 111.052C18.9062 113.202 20.3545 113.895 21.7235 113.895C22.9844 113.895 23.849 113.304 24.4758 112.626V113.712H25.7295V107.502C25.7295 105.431 24.5407 104.622 22.6529 104.622ZM24.4758 111.525C23.9426 112.269 23.078 112.867 21.9396 112.867C20.866 112.867 20.1383 112.284 20.1383 110.957C20.1383 109.842 20.9165 109.2 22.2062 109.2C23.2798 109.2 23.8994 109.397 24.4686 109.718V111.518L24.4758 111.525Z" fill="#004289"/>
<path d="M38.3745 108.5V113.712H39.6354V108.282C39.6354 105.679 38.5186 104.622 36.7173 104.622C35.2907 104.622 34.5702 105.293 34.0514 106.146C33.6335 105.293 32.877 104.622 31.6377 104.622C30.5929 104.622 29.8508 105.125 29.4041 105.898V104.812H28.136V113.72H29.4041V108.507C29.4041 106.532 30.1606 105.723 31.3711 105.723C32.5816 105.723 33.266 106.466 33.266 108.507V113.72H34.5269V108.507C34.5269 106.532 35.2907 105.723 36.4867 105.723C37.762 105.723 38.3817 106.466 38.3817 108.507L38.3745 108.5Z" fill="#004289"/>
<path d="M44.6789 108.544C43.1875 107.859 42.7408 107.56 42.7408 106.809C42.7408 106.167 43.2739 105.701 44.2034 105.701C45.1329 105.701 45.7093 105.956 46.3938 106.503L47.0999 105.562C46.4298 105.001 45.4931 104.622 44.2754 104.622C42.6831 104.622 41.5303 105.533 41.5303 106.889C41.5303 108.318 42.2652 108.857 44.0305 109.623C45.5868 110.301 46.1128 110.709 46.1128 111.438C46.1128 112.305 45.5435 112.816 44.3331 112.816C43.4613 112.816 42.6399 112.451 41.9338 111.832L41.1917 112.765C42.0347 113.45 43.0866 113.902 44.2971 113.902C45.8245 113.902 47.316 113.144 47.316 111.394C47.316 109.798 46.3433 109.309 44.6789 108.551V108.544Z" fill="#004289"/>
<path d="M54.6724 110.009C54.6724 111.963 53.707 112.786 52.4965 112.786C51.0771 112.786 50.407 111.926 50.407 110.009V104.804H49.1533V110.228C49.1533 112.786 50.371 113.887 52.2299 113.887C53.3467 113.887 54.1609 113.362 54.6652 112.619V113.705H55.9261V104.797H54.6652V110.002L54.6724 110.009Z" fill="#004289"/>
<path d="M64.8245 113.712V108.282C64.8245 105.716 63.5996 104.622 61.7335 104.622C60.6311 104.622 59.8097 105.14 59.3125 105.898V104.812H58.0444V113.72H59.3125V108.507C59.3125 106.561 60.2564 105.723 61.4885 105.723C62.8935 105.723 63.5708 106.59 63.5708 108.507V113.72H64.8317L64.8245 113.712Z" fill="#004289"/>
<path d="M68.7874 116.023L69.1909 116.993C72.462 116.883 73.6509 115.6 73.6509 112.918V104.804H72.3972V105.803C71.7775 105.089 71.0282 104.622 69.9186 104.622C68.0669 104.622 66.5898 106.24 66.5898 109.404C66.5898 112.568 67.9876 113.895 69.7529 113.895C70.9417 113.895 71.7847 113.304 72.4044 112.626V113.085C72.4044 115.156 71.7343 115.936 68.7946 116.023H68.7874ZM70.0627 112.794C68.6721 112.794 67.8291 111.627 67.8291 109.39C67.8291 106.991 68.5496 105.723 70.0123 105.723C71.057 105.723 71.9072 106.321 72.39 107.057V111.511C71.7703 112.298 70.9994 112.794 70.0555 112.794H70.0627Z" fill="#004289"/>
<path d="M87.5352 107.691C87.5352 103.616 85.2656 101.83 82.1818 101.83H79.0764V113.712H81.9441C85.0855 113.712 87.5352 111.999 87.5352 107.684V107.691ZM80.3877 103.033H82.081C84.7829 103.033 86.2239 104.702 86.2239 107.735C86.2239 111.154 84.646 112.51 82.1098 112.51H80.3805V103.033H80.3877Z" fill="#004289"/>
<path d="M90.8927 105.912V104.812H89.6318V113.72H90.8927V108.493C90.8927 106.787 91.5772 105.803 92.8093 105.803C93.3929 105.803 93.782 105.934 94.1278 106.138L94.4449 104.855C94.1495 104.717 93.7243 104.637 93.0759 104.637C92.132 104.637 91.289 105.205 90.8999 105.927L90.8927 105.912Z" fill="#004289"/>
<path d="M101.974 112.867L101.391 111.948C100.584 112.495 99.9784 112.794 98.9481 112.794C97.5142 112.794 96.6208 111.591 96.4983 109.696H102.371C102.414 109.484 102.428 109.302 102.428 108.996C102.428 106.452 101.182 104.622 98.8832 104.622C96.7865 104.622 95.2446 106.379 95.2446 109.207C95.2446 112.714 97.2044 113.895 98.8184 113.895C100.144 113.895 100.922 113.537 101.981 112.867H101.974ZM98.8688 105.716C100.411 105.716 101.153 106.918 101.254 108.653H96.4983C96.6424 106.663 97.5575 105.716 98.8688 105.716Z" fill="#004289"/>
<path d="M106.614 113.895C107.875 113.895 108.747 113.304 109.367 112.626V113.712H110.628V107.502C110.628 105.431 109.439 104.622 107.537 104.622C106.391 104.622 105.353 104.906 104.582 105.329L105.058 106.364C105.779 105.942 106.535 105.679 107.457 105.679C108.747 105.679 109.367 106.321 109.367 107.655V108.712C108.855 108.42 108.063 108.194 107.184 108.194C105.433 108.194 103.797 109.047 103.797 111.052C103.797 113.202 105.245 113.895 106.614 113.895ZM107.104 109.207C108.171 109.207 108.797 109.404 109.367 109.725V111.525C108.834 112.269 107.976 112.867 106.845 112.867C105.714 112.867 105.044 112.284 105.044 110.957C105.044 109.842 105.822 109.2 107.111 109.2L107.104 109.207Z" fill="#004289"/>
<path d="M123.265 108.5V113.712H124.519V108.282C124.519 105.679 123.402 104.622 121.601 104.622C120.174 104.622 119.454 105.293 118.935 106.146C118.517 105.293 117.768 104.622 116.521 104.622C115.477 104.622 114.742 105.125 114.288 105.898V104.812H113.034V113.72H114.288V108.507C114.288 106.532 115.044 105.723 116.255 105.723C117.465 105.723 118.15 106.466 118.15 108.507V113.72H119.404V108.507C119.404 106.532 120.174 105.723 121.371 105.723C122.639 105.723 123.265 106.466 123.265 108.507V108.5Z" fill="#004289"/>
<path d="M133.936 106.991C131.587 106.145 131.155 105.584 131.155 104.6C131.155 103.616 131.825 102.85 133.432 102.85C134.613 102.85 135.399 103.237 136.249 103.951L137.085 102.916C136.098 102.121 135.089 101.647 133.518 101.647C131.321 101.647 129.844 102.77 129.844 104.68C129.844 106.393 130.694 107.224 133.237 108.135C135.384 108.923 136.04 109.55 136.04 110.65C136.04 111.904 135.067 112.684 133.504 112.684C132.293 112.684 131.27 112.115 130.377 111.255L129.505 112.232C130.427 113.187 131.861 113.88 133.446 113.88C135.889 113.88 137.337 112.436 137.337 110.577C137.337 108.718 136.537 107.924 133.936 106.969V106.991Z" fill="#004289"/>
<path d="M142.683 105.723C143.57 105.723 144.16 106.044 144.794 106.627L145.551 105.672C144.859 105.059 143.951 104.622 142.763 104.622C140.918 104.622 138.973 106.007 138.973 109.309C138.973 112.415 140.738 113.902 142.683 113.902C143.915 113.902 144.773 113.428 145.515 112.663L144.758 111.853C144.16 112.444 143.584 112.801 142.734 112.801C141.17 112.801 140.248 111.394 140.248 109.2C140.248 107.006 141.314 105.723 142.69 105.723H142.683Z" fill="#004289"/>
<path d="M150.94 104.622C149.838 104.622 149.009 105.14 148.505 105.898V101.706H147.251V113.72H148.505V108.507C148.505 106.554 149.47 105.723 150.688 105.723C152.1 105.723 152.763 106.583 152.763 108.507V113.72H154.024V108.281C154.024 105.723 152.799 104.622 150.933 104.622H150.94Z" fill="#004289"/>
<path d="M159.644 104.622C157.504 104.622 155.789 106.24 155.789 109.273C155.789 112.305 157.432 113.902 159.579 113.902C161.726 113.902 163.441 112.225 163.441 109.2C163.441 106.175 161.784 104.622 159.644 104.622ZM159.622 112.801C158.095 112.801 157.065 111.584 157.065 109.236C157.065 106.889 158.095 105.723 159.622 105.723C161.15 105.723 162.18 106.896 162.18 109.236C162.18 111.576 161.143 112.801 159.622 112.801Z" fill="#004289"/>
<path d="M166.604 101.706H165.343V113.72H166.604V101.706Z" fill="#004289"/>
<path d="M172.354 104.622C171.216 104.622 170.171 104.914 169.407 105.336L169.875 106.379C170.596 105.949 171.352 105.694 172.275 105.694C173.564 105.694 174.184 106.342 174.184 107.655V108.719C173.665 108.42 172.873 108.201 171.994 108.201C170.243 108.201 168.615 109.054 168.615 111.059C168.615 113.217 170.056 113.902 171.432 113.902C172.693 113.902 173.564 113.319 174.184 112.633V113.72H175.445V107.509C175.445 105.431 174.256 104.622 172.354 104.622ZM174.184 111.525C173.651 112.269 172.786 112.867 171.655 112.867C170.589 112.867 169.861 112.284 169.861 110.964C169.861 109.842 170.639 109.215 171.929 109.215C173.002 109.215 173.622 109.404 174.191 109.725V111.525H174.184Z" fill="#004289"/>
<path d="M179.105 105.912V104.804H177.844V113.72H179.105V108.493C179.105 106.794 179.79 105.796 181.014 105.796C181.605 105.796 181.987 105.927 182.34 106.131L182.657 104.841C182.362 104.71 181.937 104.622 181.288 104.622C180.344 104.622 179.501 105.191 179.105 105.912Z" fill="#004289"/>
<path d="M187.492 108.544C185.993 107.859 185.547 107.553 185.547 106.802C185.547 106.161 186.087 105.694 187.009 105.694C187.931 105.694 188.522 105.957 189.207 106.496L189.913 105.563C189.236 105.002 188.306 104.615 187.096 104.615C185.496 104.615 184.343 105.526 184.343 106.89C184.343 108.318 185.085 108.858 186.851 109.616C188.407 110.294 188.933 110.702 188.933 111.431C188.933 112.306 188.357 112.809 187.16 112.809C186.281 112.809 185.46 112.444 184.754 111.825L184.019 112.758C184.855 113.443 185.914 113.895 187.124 113.895C188.645 113.895 190.143 113.137 190.143 111.387C190.143 109.784 189.171 109.303 187.506 108.537L187.492 108.544Z" fill="#004289"/>
<path d="M195.871 104.622C194.762 104.622 193.94 105.14 193.436 105.898V101.706H192.182V113.72H193.436V108.507C193.436 106.554 194.394 105.723 195.619 105.723C197.024 105.723 197.694 106.583 197.694 108.507V113.72H198.955V108.281C198.955 105.723 197.73 104.622 195.871 104.622Z" fill="#004289"/>
<path d="M202.695 104.805H201.441V113.72H202.695V104.805Z" fill="#004289"/>
<path d="M202.097 101.393C201.578 101.393 201.174 101.801 201.174 102.318C201.174 102.807 201.578 103.215 202.097 103.215C202.558 103.215 202.968 102.807 202.968 102.318C202.968 101.801 202.558 101.393 202.097 101.393Z" fill="#004289"/>
<path d="M209.143 104.622C207.954 104.622 207.111 105.213 206.492 105.898V104.812H205.238V117H206.492V112.721C207.111 113.428 207.868 113.902 208.978 113.902C210.822 113.902 212.299 112.269 212.299 109.12C212.299 105.971 210.901 104.622 209.143 104.622ZM208.877 112.801C207.839 112.801 206.982 112.203 206.492 111.46V107.013C207.111 106.24 207.89 105.723 208.826 105.723C210.224 105.723 211.067 106.896 211.067 109.134C211.067 111.525 210.346 112.801 208.877 112.801Z" fill="#004289"/>
<path d="M218.964 103.04H224.555V101.837H217.653V113.719H218.964V108.179H222.185V106.983H218.964V103.04Z" fill="#004289"/>
<path d="M228.381 104.622C226.241 104.622 224.519 106.24 224.519 109.273C224.519 112.305 226.169 113.902 228.309 113.902C230.449 113.902 232.171 112.225 232.171 109.2C232.171 106.175 230.528 104.622 228.381 104.622ZM228.345 112.801C226.817 112.801 225.794 111.584 225.794 109.236C225.794 106.889 226.817 105.723 228.345 105.723C229.872 105.723 230.917 106.896 230.917 109.236C230.917 111.576 229.88 112.801 228.345 112.801Z" fill="#004289"/>
<path d="M239.124 110.01C239.124 111.963 238.173 112.794 236.948 112.794C235.536 112.794 234.866 111.934 234.866 110.01V104.805H233.605V110.236C233.605 112.802 234.83 113.902 236.696 113.902C237.791 113.902 238.612 113.385 239.117 112.634V113.72H240.378V104.805H239.117V110.01H239.124Z" fill="#004289"/>
<path d="M246.185 104.622C245.083 104.622 244.261 105.14 243.75 105.898V104.812H242.489V113.727H243.75V108.515C243.75 106.561 244.708 105.73 245.933 105.73C247.345 105.73 248.015 106.59 248.015 108.515V113.727H249.269V108.289C249.269 105.73 248.044 104.629 246.178 104.629L246.185 104.622Z" fill="#004289"/>
<path d="M256.849 105.81C256.229 105.096 255.472 104.622 254.363 104.622C252.518 104.622 251.041 106.24 251.041 109.411C251.041 112.582 252.432 113.902 254.197 113.902C255.386 113.902 256.222 113.319 256.849 112.633V113.72H258.109V101.706H256.849V105.817V105.81ZM256.849 111.511C256.229 112.291 255.451 112.801 254.514 112.801C253.124 112.801 252.281 111.635 252.281 109.389C252.281 106.991 253.001 105.723 254.464 105.723C255.508 105.723 256.351 106.313 256.849 107.064V111.511Z" fill="#004289"/>
<path d="M263.448 104.622C262.303 104.622 261.265 104.914 260.494 105.336L260.963 106.379C261.69 105.949 262.447 105.694 263.362 105.694C264.652 105.694 265.271 106.342 265.271 107.655V108.719C264.752 108.42 263.96 108.201 263.074 108.201C261.337 108.201 259.702 109.054 259.702 111.059C259.702 113.217 261.15 113.902 262.526 113.902C263.787 113.902 264.652 113.319 265.271 112.633V113.72H266.532V107.509C266.532 105.431 265.343 104.622 263.448 104.622ZM265.271 111.525C264.738 112.269 263.881 112.867 262.735 112.867C261.669 112.867 260.948 112.284 260.948 110.964C260.948 109.842 261.719 109.215 263.009 109.215C264.082 109.215 264.702 109.404 265.271 109.725V111.525Z" fill="#004289"/>
<path d="M270.545 101.706H269.284V104.811H268.197V105.883H269.284V111.897C269.284 113.37 269.875 113.909 270.97 113.909C271.633 113.909 272.102 113.814 272.592 113.603L272.678 112.502C272.275 112.67 271.943 112.757 271.432 112.757C270.762 112.757 270.545 112.488 270.545 111.686V105.883H272.729V104.811H270.545V101.706Z" fill="#004289"/>
<path d="M275.582 101.393C275.063 101.393 274.652 101.801 274.652 102.318C274.652 102.807 275.063 103.215 275.582 103.215C276.057 103.215 276.461 102.807 276.461 102.318C276.461 101.801 276.057 101.393 275.582 101.393Z" fill="#004289"/>
<path d="M276.18 104.805H274.926V113.72H276.18V104.805Z" fill="#004289"/>
<path d="M281.944 104.622C279.804 104.622 278.089 106.24 278.089 109.273C278.089 112.305 279.732 113.902 281.879 113.902C284.026 113.902 285.734 112.225 285.734 109.2C285.734 106.175 284.091 104.622 281.944 104.622ZM281.901 112.801C280.38 112.801 279.357 111.584 279.357 109.236C279.357 106.889 280.38 105.723 281.901 105.723C283.421 105.723 284.473 106.896 284.473 109.236C284.473 111.576 283.435 112.801 281.901 112.801Z" fill="#004289"/>
<path d="M291.238 104.622C290.129 104.622 289.307 105.14 288.803 105.898V104.812H287.542V113.727H288.803V108.515C288.803 106.561 289.761 105.73 290.986 105.73C292.406 105.73 293.069 106.59 293.069 108.515V113.727H294.322V108.289C294.322 105.73 293.097 104.629 291.238 104.629V104.622Z" fill="#004289"/>
<path d="M161.229 19.777L151.553 15.7239L161.229 11.6708L159.507 7.47196L149.831 11.525L153.844 1.73495L149.694 0L145.688 9.79009L141.674 0L137.531 1.73495L141.538 11.525L131.861 7.47196L130.146 11.6708L139.816 15.7239L130.146 19.777L131.861 23.9759L141.538 19.9155L137.531 29.7056L141.682 31.4479L145.688 21.6578L149.694 31.4479L153.844 29.7056L149.831 19.9155L159.507 23.9759L161.229 19.777Z" fill="#009FE3"/>
<path d="M98.5949 47.1066H105.036V29.7061H83.0247V35.567H98.5949V47.1066Z" fill="#009FE3"/>
<path d="M123.712 47.1066H130.146V29.7061H108.135V35.567H123.712V47.1066Z" fill="#009FE3"/>
<path d="M81.9871 56.1021H123.712V65.0612H130.146V50.2412H81.9871V56.1021Z" fill="#009FE3"/>
<path d="M97.5574 92.4341H130.139V68.0791H97.5574V92.4341ZM103.999 73.94H123.712V86.5731H103.999V73.94Z" fill="#009FE3"/>
</g>
<defs>
<clipPath id="clip0_58_62">
<rect width="300" height="117" fill="white"/>
</clipPath>
</defs>
</svg>
