<svg width="14" height="14" viewBox="0 0 14 14" fill="none" xmlns="http://www.w3.org/2000/svg">
<path d="M7 13.75C6.7875 13.75 6.60938 13.6781 6.46563 13.5344C6.32188 13.3906 6.25 13.2125 6.25 13V7.75H1C0.7875 7.75 0.609375 7.67813 0.465625 7.53438C0.321875 7.39063 0.25 7.2125 0.25 7C0.25 6.7875 0.321875 6.60938 0.465625 6.46563C0.609375 6.32188 0.7875 6.25 1 6.25H6.25V1C6.25 0.7875 6.32188 0.609375 6.46563 0.465625C6.60938 0.321875 6.7875 0.25 7 0.25C7.2125 0.25 7.39063 0.321875 7.53438 0.465625C7.67813 0.609375 7.75 0.7875 7.75 1V6.25H13C13.2125 6.25 13.3906 6.32188 13.5344 6.46563C13.6781 6.60938 13.75 6.7875 13.75 7C13.75 7.2125 13.6781 7.39063 13.5344 7.53438C13.3906 7.67813 13.2125 7.75 13 7.75H7.75V13C7.75 13.2125 7.67813 13.3906 7.53438 13.5344C7.39063 13.6781 7.2125 13.75 7 13.75Z" fill="#1D1D1D"/>
</svg>
