<svg width="24" height="24" viewBox="0 0 24 24" fill="none" xmlns="http://www.w3.org/2000/svg">
<mask id="mask0_26_475" style="mask-type:alpha" maskUnits="userSpaceOnUse" x="0" y="0" width="24" height="24">
<rect x="0.153809" y="0.154297" width="23.6923" height="23.6923" fill="white"/>
</mask>
<g mask="url(#mask0_26_475)">
<path d="M12 20.8845C11.7203 20.8845 11.4858 20.7899 11.2966 20.6007C11.1074 20.4114 11.0128 20.177 11.0128 19.8973V12.987H4.10254C3.82284 12.987 3.58838 12.8924 3.39917 12.7032C3.20996 12.514 3.11536 12.2796 3.11536 11.9999C3.11536 11.7201 3.20996 11.4857 3.39917 11.2965C3.58838 11.1073 3.82284 11.0127 4.10254 11.0127H11.0128V4.10241C11.0128 3.82271 11.1074 3.58826 11.2966 3.39905C11.4858 3.20984 11.7203 3.11523 12 3.11523C12.2797 3.11523 12.5141 3.20984 12.7033 3.39905C12.8925 3.58826 12.9872 3.82271 12.9872 4.10241V11.0127H19.8974C20.1771 11.0127 20.4116 11.1073 20.6008 11.2965C20.79 11.4857 20.8846 11.7201 20.8846 11.9999C20.8846 12.2796 20.79 12.514 20.6008 12.7032C20.4116 12.8924 20.1771 12.987 19.8974 12.987H12.9872V19.8973C12.9872 20.177 12.8925 20.4114 12.7033 20.6007C12.5141 20.7899 12.2797 20.8845 12 20.8845Z" fill="#009FE3"/>
</g>
</svg>
