<svg width="24" height="24" viewBox="0 0 24 24" fill="none" xmlns="http://www.w3.org/2000/svg">
<mask id="mask0_26_480" style="mask-type:alpha" maskUnits="userSpaceOnUse" x="0" y="0" width="24" height="24">
<rect x="0.153809" y="0.154297" width="23.6923" height="23.6923" fill="white"/>
</mask>
<g mask="url(#mask0_26_480)">
<path d="M11.9999 20.8845C11.7201 20.8845 11.4857 20.7899 11.2965 20.6007C11.1073 20.4114 11.0127 20.177 11.0127 19.8973V12.987H4.10241C3.82271 12.987 3.58826 12.8924 3.39905 12.7032C3.20984 12.514 3.11523 12.2796 3.11523 11.9999C3.11523 11.7201 3.20984 11.4857 3.39905 11.2965C3.58826 11.1073 3.82271 11.0127 4.10241 11.0127H11.0127V4.10241C11.0127 3.82271 11.1073 3.58826 11.2965 3.39905C11.4857 3.20984 11.7201 3.11523 11.9999 3.11523C12.2796 3.11523 12.514 3.20984 12.7032 3.39905C12.8924 3.58826 12.987 3.82271 12.987 4.10241V11.0127H19.8973C20.177 11.0127 20.4114 11.1073 20.6007 11.2965C20.7899 11.4857 20.8845 11.7201 20.8845 11.9999C20.8845 12.2796 20.7899 12.514 20.6007 12.7032C20.4114 12.8924 20.177 12.987 19.8973 12.987H12.987V19.8973C12.987 20.177 12.8924 20.4114 12.7032 20.6007C12.514 20.7899 12.2796 20.8845 11.9999 20.8845Z" fill="#004289"/>
</g>
</svg>
