<svg width="18" height="18" viewBox="0 0 18 18" fill="none" xmlns="http://www.w3.org/2000/svg">
<path d="M7.91666 4.47728L2.60833 9.78561C2.39166 10.0023 2.13889 10.1061 1.85 10.0971C1.56111 10.088 1.30833 9.9752 1.09166 9.75853C0.893052 9.54186 0.789233 9.28908 0.780205 9.0002C0.771177 8.71131 0.874996 8.45853 1.09166 8.24186L8.24166 1.09186C8.35 0.983529 8.46736 0.906793 8.59375 0.861654C8.72014 0.816515 8.85555 0.793945 9 0.793945C9.14444 0.793945 9.27986 0.816515 9.40625 0.861654C9.53264 0.906793 9.65 0.983529 9.75833 1.09186L16.9083 8.24186C17.1069 8.44047 17.2062 8.68874 17.2062 8.98665C17.2062 9.28457 17.1069 9.54186 16.9083 9.75853C16.6917 9.9752 16.4344 10.0835 16.1365 10.0835C15.8385 10.0835 15.5812 9.9752 15.3646 9.75853L10.0833 4.47728V16.5835C10.0833 16.8905 9.97951 17.1478 9.77187 17.3554C9.56423 17.563 9.30694 17.6669 9 17.6669C8.69305 17.6669 8.43576 17.563 8.22812 17.3554C8.02048 17.1478 7.91666 16.8905 7.91666 16.5835V4.47728Z" fill="white"/>
</svg>
