<svg width="12" height="12" viewBox="0 0 12 12" fill="none" xmlns="http://www.w3.org/2000/svg">
<path d="M5.32293 3.17318L2.00522 6.49089C1.8698 6.6263 1.71182 6.69119 1.53126 6.68555C1.35071 6.67991 1.19272 6.60938 1.0573 6.47396C0.933173 6.33854 0.868286 6.18056 0.862643 6C0.857001 5.81945 0.921888 5.66146 1.0573 5.52604L5.52605 1.05729C5.59376 0.989583 5.66711 0.941623 5.74611 0.913411C5.8251 0.8852 5.90974 0.871094 6.00001 0.871094C6.09029 0.871094 6.17493 0.8852 6.25392 0.913411C6.33291 0.941623 6.40626 0.989583 6.47397 1.05729L10.9427 5.52604C11.0669 5.65017 11.1289 5.80534 11.1289 5.99154C11.1289 6.17773 11.0669 6.33854 10.9427 6.47396C10.8073 6.60938 10.6465 6.67708 10.4603 6.67708C10.2741 6.67708 10.1133 6.60938 9.97788 6.47396L6.6771 3.17318V10.7396C6.6771 10.9314 6.61221 11.0922 6.48243 11.222C6.35266 11.3518 6.19185 11.4167 6.00001 11.4167C5.80817 11.4167 5.64737 11.3518 5.51759 11.222C5.38782 11.0922 5.32293 10.9314 5.32293 10.7396V3.17318Z" fill="white"/>
</svg>
