<svg width="298" height="112" viewBox="0 0 298 112" fill="none" xmlns="http://www.w3.org/2000/svg">
<path d="M4.352 1.504H5.456V2.944C5.456 3.872 5.29067 4.73067 4.96 5.52C4.62933 6.30933 4.16533 6.99733 3.568 7.584C2.97067 8.17067 2.26133 8.624 1.44 8.944L0.736 7.888C1.472 7.61067 2.112 7.22667 2.656 6.736C3.2 6.24533 3.616 5.67467 3.904 5.024C4.20267 4.36267 4.352 3.66933 4.352 2.944V1.504ZM4.592 1.504H5.664V2.912C5.664 3.41333 5.74933 3.89867 5.92 4.368C6.10133 4.83733 6.34667 5.27467 6.656 5.68C6.96533 6.07467 7.33333 6.42667 7.76 6.736C8.19733 7.04533 8.67733 7.296 9.2 7.488L8.496 8.528C7.728 8.22933 7.05067 7.80267 6.464 7.248C5.87733 6.69333 5.41867 6.048 5.088 5.312C4.75733 4.56533 4.592 3.76533 4.592 2.912V1.504ZM10.704 0.768H12.032V9.232H10.704V0.768ZM11.664 4.368H14.16V5.472H11.664V4.368ZM2.944 9.904H12.032V15.056H2.944V9.904ZM10.72 10.976H4.24V13.968H10.72V10.976ZM19.1668 1.584H20.2708V3.072C20.2708 4.01067 20.1001 4.87467 19.7588 5.664C19.4281 6.45333 18.9588 7.14667 18.3508 7.744C17.7534 8.33067 17.0388 8.77867 16.2068 9.088L15.5028 8.016C16.2494 7.74933 16.8948 7.37067 17.4388 6.88C17.9828 6.38933 18.4041 5.81867 18.7028 5.168C19.0121 4.50667 19.1668 3.808 19.1668 3.072V1.584ZM19.4068 1.584H20.4788V3.024C20.4788 3.70667 20.6281 4.352 20.9268 4.96C21.2254 5.568 21.6361 6.10667 22.1588 6.576C22.6921 7.03467 23.3108 7.38133 24.0148 7.616L23.2948 8.656C22.5161 8.35733 21.8334 7.936 21.2468 7.392C20.6601 6.848 20.2068 6.20267 19.8868 5.456C19.5668 4.70933 19.4068 3.89867 19.4068 3.024V1.584ZM26.0948 0.768H27.4228V9.328H26.0948V0.768ZM22.6548 9.76C24.1481 9.76 25.3214 10 26.1748 10.48C27.0388 10.96 27.4708 11.632 27.4708 12.496C27.4708 13.3493 27.0388 14.016 26.1748 14.496C25.3214 14.976 24.1481 15.216 22.6548 15.216C21.1614 15.216 19.9828 14.976 19.1188 14.496C18.2654 14.016 17.8388 13.3493 17.8388 12.496C17.8388 11.632 18.2654 10.96 19.1188 10.48C19.9828 10 21.1614 9.76 22.6548 9.76ZM22.6548 10.816C21.9294 10.816 21.3054 10.8853 20.7828 11.024C20.2601 11.152 19.8548 11.344 19.5668 11.6C19.2894 11.8453 19.1508 12.144 19.1508 12.496C19.1508 12.8373 19.2894 13.136 19.5668 13.392C19.8548 13.6373 20.2601 13.8293 20.7828 13.968C21.3054 14.096 21.9294 14.16 22.6548 14.16C23.3908 14.16 24.0148 14.096 24.5268 13.968C25.0494 13.8293 25.4494 13.6373 25.7268 13.392C26.0148 13.136 26.1588 12.8373 26.1588 12.496C26.1588 12.144 26.0148 11.8453 25.7268 11.6C25.4494 11.344 25.0494 11.152 24.5268 11.024C24.0148 10.8853 23.3908 10.816 22.6548 10.816ZM22.9427 3.824H26.3668V4.928H22.9427V3.824ZM31.5015 1.456H35.3255V2.544H31.5015V1.456ZM34.8455 1.456H36.1415V1.888C36.1415 2.16533 36.1308 2.54933 36.1095 3.04C36.0988 3.53067 36.0455 4.112 35.9495 4.784C35.8535 5.44533 35.6882 6.18667 35.4535 7.008L34.1575 6.848C34.3922 6.02667 34.5575 5.30133 34.6535 4.672C34.7495 4.032 34.8028 3.48267 34.8135 3.024C34.8348 2.55467 34.8455 2.176 34.8455 1.888V1.456ZM37.2135 1.456H41.1015V2.544H37.2135V1.456ZM40.5095 1.456H41.7895V2.032C41.7895 2.512 41.7628 3.17333 41.7095 4.016C41.6668 4.85867 41.4962 5.872 41.1975 7.056L39.9015 6.88C40.1042 6.10133 40.2482 5.408 40.3335 4.8C40.4188 4.18133 40.4668 3.64267 40.4775 3.184C40.4988 2.72533 40.5095 2.34133 40.5095 2.032V1.456ZM30.2375 6.448H43.3415V7.536H30.2375V6.448ZM36.0935 7.28H37.4055V10.448H36.0935V7.28ZM31.8695 9.968H41.6775V15.04H31.8695V9.968ZM40.3655 11.024H33.1655V13.968H40.3655V11.024ZM48.5243 2.32H49.6123V3.488C49.6123 4.384 49.4416 5.21067 49.1003 5.968C48.7696 6.72533 48.3003 7.38667 47.6923 7.952C47.0949 8.51733 46.3856 8.94933 45.5643 9.248L44.8923 8.192C45.6176 7.936 46.2523 7.57333 46.7963 7.104C47.3403 6.624 47.7616 6.07467 48.0603 5.456C48.3696 4.83733 48.5243 4.18133 48.5243 3.488V2.32ZM48.7643 2.32H49.8523V3.488C49.8523 4.11733 49.9963 4.71467 50.2843 5.28C50.5723 5.84533 50.9776 6.34133 51.5003 6.768C52.0229 7.19467 52.6363 7.53067 53.3403 7.776L52.7163 8.816C51.9056 8.53867 51.2069 8.13867 50.6203 7.616C50.0336 7.09333 49.5749 6.48 49.2443 5.776C48.9243 5.06133 48.7643 4.29867 48.7643 3.488V2.32ZM45.2923 1.84H53.0363V2.928H45.2923V1.84ZM54.8603 0.768H56.1883V9.488H54.8603V0.768ZM55.8203 4.448H58.3163V5.552H55.8203V4.448ZM51.5803 9.888C52.5616 9.888 53.4043 9.99467 54.1083 10.208C54.8229 10.4107 55.3723 10.7093 55.7563 11.104C56.1403 11.4987 56.3323 11.9787 56.3323 12.544C56.3323 13.1093 56.1403 13.5893 55.7563 13.984C55.3723 14.3787 54.8229 14.6827 54.1083 14.896C53.4043 15.1093 52.5616 15.216 51.5803 15.216C50.5989 15.216 49.7509 15.1093 49.0363 14.896C48.3216 14.6827 47.7723 14.3787 47.3883 13.984C47.0043 13.5893 46.8123 13.1093 46.8123 12.544C46.8123 11.9787 47.0043 11.4987 47.3883 11.104C47.7723 10.7093 48.3216 10.4107 49.0363 10.208C49.7509 9.99467 50.5989 9.888 51.5803 9.888ZM51.5803 10.944C50.8656 10.944 50.2469 11.008 49.7243 11.136C49.2123 11.264 48.8176 11.4453 48.5403 11.68C48.2629 11.9147 48.1243 12.2027 48.1243 12.544C48.1243 12.8853 48.2629 13.1787 48.5403 13.424C48.8176 13.6587 49.2123 13.84 49.7243 13.968C50.2469 14.096 50.8656 14.16 51.5803 14.16C52.2949 14.16 52.9083 14.096 53.4203 13.968C53.9323 13.84 54.3269 13.6587 54.6043 13.424C54.8816 13.1787 55.0203 12.8853 55.0203 12.544C55.0203 12.2027 54.8816 11.9147 54.6043 11.68C54.3269 11.4453 53.9323 11.264 53.4203 11.136C52.9083 11.008 52.2949 10.944 51.5803 10.944ZM59.707 2.304H68.251V3.376H59.707V2.304ZM63.979 4.128C64.6617 4.128 65.2643 4.23467 65.787 4.448C66.3097 4.66133 66.715 4.96533 67.003 5.36C67.291 5.744 67.435 6.20267 67.435 6.736C67.435 7.26933 67.291 7.728 67.003 8.112C66.715 8.496 66.3097 8.8 65.787 9.024C65.2643 9.23733 64.6617 9.344 63.979 9.344C63.2963 9.344 62.6937 9.23733 62.171 9.024C61.6483 8.8 61.2377 8.496 60.939 8.112C60.651 7.728 60.507 7.26933 60.507 6.736C60.507 6.20267 60.651 5.744 60.939 5.36C61.2377 4.96533 61.6483 4.66133 62.171 4.448C62.6937 4.23467 63.2963 4.128 63.979 4.128ZM63.979 5.152C63.3177 5.152 62.7843 5.296 62.379 5.584C61.9843 5.86133 61.787 6.24533 61.787 6.736C61.787 7.216 61.9843 7.6 62.379 7.888C62.7843 8.16533 63.3177 8.304 63.979 8.304C64.6297 8.304 65.1577 8.16533 65.563 7.888C65.9683 7.6 66.171 7.216 66.171 6.736C66.171 6.24533 65.9683 5.86133 65.563 5.584C65.1683 5.296 64.6403 5.152 63.979 5.152ZM69.579 0.768H70.907V9.824H69.579V0.768ZM70.539 4.768H73.035V5.872H70.539V4.768ZM61.499 10.608H70.907V15.248H69.579V11.696H61.499V10.608ZM63.323 0.704H64.651V2.896H63.323V0.704ZM85.4498 0.768H86.7298V15.248H85.4498V0.768ZM83.1618 6.608H85.9458V7.728H83.1618V6.608ZM82.2978 1.072H83.5618V14.512H82.2978V1.072ZM77.3858 3.008H78.4098V4.688C78.4098 5.54133 78.3404 6.35733 78.2018 7.136C78.0631 7.91467 77.8498 8.62933 77.5618 9.28C77.2844 9.93067 76.9378 10.512 76.5218 11.024C76.1058 11.5253 75.6204 11.9413 75.0658 12.272L74.2338 11.248C74.9378 10.864 75.5191 10.3467 75.9778 9.696C76.4364 9.03467 76.7831 8.27733 77.0178 7.424C77.2631 6.57067 77.3858 5.65867 77.3858 4.688V3.008ZM77.6258 3.008H78.6658V4.688C78.6658 5.56267 78.7831 6.39467 79.0178 7.184C79.2524 7.97333 79.5991 8.67733 80.0578 9.296C80.5164 9.904 81.0871 10.384 81.7698 10.736L80.9858 11.76C80.2498 11.344 79.6311 10.784 79.1298 10.08C78.6284 9.376 78.2498 8.56533 77.9938 7.648C77.7484 6.73067 77.6258 5.744 77.6258 4.688V3.008ZM74.5858 2.48H81.2898V3.568H74.5858V2.48ZM99.0165 0.768H100.345V11.248H99.0165V0.768ZM99.9285 5.056H102.489V6.16H99.9285V5.056ZM89.7845 7.584H90.9045C91.8965 7.584 92.7658 7.57333 93.5125 7.552C94.2592 7.53067 94.9472 7.48267 95.5765 7.408C96.2058 7.33333 96.8405 7.232 97.4805 7.104L97.6405 8.192C96.9685 8.32 96.3072 8.42133 95.6565 8.496C95.0165 8.57067 94.3178 8.624 93.5605 8.656C92.8032 8.67733 91.9178 8.688 90.9045 8.688H89.7845V7.584ZM89.7845 2.016H96.1685V3.104H91.0965V8.176H89.7845V2.016ZM91.3365 13.84H100.985V14.928H91.3365V13.84ZM91.3365 10.192H92.6485V14.336H91.3365V10.192ZM103.831 8.384H116.903V9.456H103.831V8.384ZM105.511 13.84H115.447V14.928H105.511V13.84ZM105.511 10.736H106.839V14.16H105.511V10.736ZM110.359 1.264C111.394 1.264 112.29 1.38133 113.047 1.616C113.815 1.84 114.407 2.17067 114.823 2.608C115.239 3.03467 115.447 3.54667 115.447 4.144C115.447 4.74133 115.239 5.25867 114.823 5.696C114.407 6.13333 113.815 6.46933 113.047 6.704C112.29 6.928 111.394 7.04 110.359 7.04C109.325 7.04 108.423 6.928 107.655 6.704C106.898 6.46933 106.311 6.13333 105.895 5.696C105.479 5.25867 105.271 4.74133 105.271 4.144C105.271 3.54667 105.479 3.03467 105.895 2.608C106.311 2.17067 106.898 1.84 107.655 1.616C108.423 1.38133 109.325 1.264 110.359 1.264ZM110.359 2.336C109.613 2.336 108.957 2.41067 108.391 2.56C107.837 2.69867 107.405 2.90667 107.095 3.184C106.786 3.45067 106.631 3.77067 106.631 4.144C106.631 4.51733 106.786 4.84267 107.095 5.12C107.405 5.38667 107.837 5.59467 108.391 5.744C108.957 5.88267 109.613 5.952 110.359 5.952C111.127 5.952 111.789 5.88267 112.343 5.744C112.898 5.59467 113.325 5.38667 113.623 5.12C113.933 4.84267 114.087 4.51733 114.087 4.144C114.087 3.77067 113.933 3.45067 113.623 3.184C113.325 2.90667 112.898 2.69867 112.343 2.56C111.789 2.41067 111.127 2.336 110.359 2.336ZM123.488 2.224H132.784V3.312H123.488V2.224ZM122.128 12.112H135.2V13.216H122.128V12.112ZM125.328 7.344H126.656V12.512H125.328V7.344ZM132.352 2.224H133.68V3.808C133.68 4.416 133.669 5.04533 133.648 5.696C133.637 6.34667 133.595 7.04533 133.52 7.792C133.456 8.528 133.339 9.344 133.168 10.24L131.856 10.096C132.101 8.80533 132.245 7.664 132.288 6.672C132.331 5.66933 132.352 4.71467 132.352 3.808V2.224ZM128.912 7.344H130.224V12.512H128.912V7.344ZM140.287 8.256H141.615V11.12H140.287V8.256ZM145.151 8.256H146.463V11.104H145.151V8.256ZM136.847 7.744H149.919V8.816H136.847V7.744ZM138.303 10.624H148.303V15.248H146.975V11.696H138.303V10.624ZM143.375 1.104C144.42 1.104 145.322 1.216 146.079 1.44C146.836 1.664 147.423 1.984 147.839 2.4C148.255 2.80533 148.463 3.296 148.463 3.872C148.463 4.45867 148.255 4.96 147.839 5.376C147.423 5.78133 146.836 6.096 146.079 6.32C145.322 6.544 144.42 6.656 143.375 6.656C142.34 6.656 141.439 6.544 140.671 6.32C139.914 6.096 139.327 5.78133 138.911 5.376C138.495 4.96 138.287 4.45867 138.287 3.872C138.287 3.296 138.495 2.80533 138.911 2.4C139.327 1.984 139.914 1.664 140.671 1.44C141.439 1.216 142.34 1.104 143.375 1.104ZM143.375 2.16C142.618 2.16 141.956 2.22933 141.391 2.368C140.836 2.496 140.404 2.688 140.095 2.944C139.796 3.2 139.647 3.50933 139.647 3.872C139.647 4.23467 139.796 4.544 140.095 4.8C140.404 5.056 140.836 5.25333 141.391 5.392C141.956 5.53067 142.618 5.6 143.375 5.6C144.143 5.6 144.804 5.53067 145.359 5.392C145.924 5.25333 146.356 5.056 146.655 4.8C146.954 4.544 147.103 4.23467 147.103 3.872C147.103 3.50933 146.954 3.2 146.655 2.944C146.356 2.688 145.924 2.496 145.359 2.368C144.804 2.22933 144.143 2.16 143.375 2.16ZM155.144 12.256H168.264V13.376H155.144V12.256ZM160.984 8.752H162.296V12.624H160.984V8.752ZM160.936 1.728H162.104V2.848C162.104 3.47733 161.992 4.06933 161.768 4.624C161.554 5.168 161.256 5.68 160.872 6.16C160.488 6.62933 160.045 7.05067 159.544 7.424C159.053 7.79733 158.525 8.112 157.96 8.368C157.394 8.624 156.818 8.81067 156.232 8.928L155.656 7.824C156.168 7.73867 156.674 7.58933 157.176 7.376C157.688 7.152 158.168 6.88533 158.616 6.576C159.064 6.256 159.464 5.904 159.816 5.52C160.168 5.12533 160.44 4.704 160.632 4.256C160.834 3.79733 160.936 3.328 160.936 2.848V1.728ZM161.176 1.728H162.328V2.848C162.328 3.33867 162.429 3.808 162.632 4.256C162.834 4.704 163.112 5.12533 163.464 5.52C163.816 5.904 164.216 6.256 164.664 6.576C165.122 6.896 165.602 7.16267 166.104 7.376C166.616 7.58933 167.128 7.73867 167.64 7.824L167.064 8.928C166.477 8.81067 165.901 8.624 165.336 8.368C164.77 8.112 164.237 7.79733 163.736 7.424C163.234 7.05067 162.792 6.62933 162.408 6.16C162.024 5.68 161.72 5.16267 161.496 4.608C161.282 4.05333 161.176 3.46667 161.176 2.848V1.728ZM173.879 8H175.207V11.296H173.879V8ZM174.551 1.712C175.308 1.712 175.975 1.856 176.551 2.144C177.137 2.42133 177.596 2.816 177.927 3.328C178.257 3.84 178.423 4.43733 178.423 5.12C178.423 5.78133 178.257 6.37333 177.927 6.896C177.596 7.408 177.137 7.808 176.551 8.096C175.975 8.37333 175.308 8.512 174.551 8.512C173.804 8.512 173.137 8.37333 172.551 8.096C171.964 7.808 171.5 7.408 171.159 6.896C170.828 6.37333 170.663 5.78133 170.663 5.12C170.663 4.43733 170.828 3.84 171.159 3.328C171.5 2.816 171.964 2.42133 172.551 2.144C173.137 1.856 173.804 1.712 174.551 1.712ZM174.551 2.864C174.06 2.864 173.617 2.96 173.223 3.152C172.839 3.33333 172.535 3.59467 172.311 3.936C172.087 4.26667 171.975 4.66133 171.975 5.12C171.975 5.55733 172.087 5.952 172.311 6.304C172.535 6.64533 172.839 6.912 173.223 7.104C173.617 7.28533 174.06 7.376 174.551 7.376C175.052 7.376 175.495 7.28533 175.879 7.104C176.263 6.912 176.567 6.64533 176.791 6.304C177.015 5.952 177.127 5.55733 177.127 5.12C177.127 4.66133 177.015 4.26667 176.791 3.936C176.567 3.59467 176.263 3.33333 175.879 3.152C175.495 2.96 175.052 2.864 174.551 2.864ZM180.327 0.768H181.655V15.264H180.327V0.768ZM170.118 12.112L169.943 11.008C170.828 11.008 171.799 11.0027 172.855 10.992C173.911 10.9707 174.999 10.928 176.119 10.864C177.249 10.7893 178.337 10.672 179.383 10.512L179.495 11.488C178.407 11.6907 177.303 11.8347 176.183 11.92C175.073 12.0053 174.001 12.0587 172.967 12.08C171.932 12.1013 170.982 12.112 170.118 12.112ZM190.197 4.784H193.397V5.872H190.197V4.784ZM190.085 8.416H193.365V9.504H190.085V8.416ZM195.605 0.768H196.885V15.248H195.605V0.768ZM192.693 1.152H193.957V14.512H192.693V1.152ZM189.477 2.608H190.757C190.757 3.86667 190.576 5.07733 190.213 6.24C189.851 7.392 189.269 8.46933 188.469 9.472C187.68 10.464 186.64 11.3493 185.349 12.128L184.565 11.168C185.696 10.4853 186.624 9.71733 187.349 8.864C188.075 8 188.608 7.06667 188.949 6.064C189.301 5.05067 189.477 3.97867 189.477 2.848V2.608ZM185.205 2.608H189.989V3.696H185.205V2.608ZM199.3 8.112H212.372V9.2H199.3V8.112ZM205.172 0.735999H206.484V2.752H205.172V0.735999ZM205.108 2.88H206.276V3.104C206.276 3.70133 206.121 4.23467 205.812 4.704C205.513 5.17333 205.092 5.57867 204.548 5.92C204.015 6.26133 203.396 6.53867 202.692 6.752C201.999 6.95467 201.257 7.09867 200.468 7.184L200.052 6.16C200.756 6.096 201.412 5.97867 202.02 5.808C202.628 5.63733 203.161 5.41867 203.62 5.152C204.089 4.88533 204.452 4.58133 204.708 4.24C204.975 3.89867 205.108 3.52 205.108 3.104V2.88ZM205.396 2.88H206.548V3.104C206.548 3.52 206.676 3.89867 206.932 4.24C207.199 4.58133 207.561 4.88533 208.02 5.152C208.489 5.41867 209.028 5.63733 209.636 5.808C210.244 5.97867 210.9 6.096 211.604 6.16L211.204 7.184C210.415 7.09867 209.668 6.95467 208.964 6.752C208.271 6.53867 207.652 6.26133 207.108 5.92C206.575 5.57867 206.153 5.17333 205.844 4.704C205.545 4.23467 205.396 3.70133 205.396 3.104V2.88ZM200.644 2.176H211.044V3.248H200.644V2.176ZM205.828 10.416C207.385 10.416 208.596 10.624 209.46 11.04C210.335 11.4453 210.772 12.0373 210.772 12.816C210.772 13.5947 210.335 14.1867 209.46 14.592C208.596 15.008 207.385 15.216 205.828 15.216C204.271 15.216 203.055 15.008 202.18 14.592C201.305 14.1867 200.868 13.5947 200.868 12.816C200.868 12.0373 201.305 11.4453 202.18 11.04C203.055 10.624 204.271 10.416 205.828 10.416ZM205.828 11.424C204.676 11.424 203.785 11.5467 203.156 11.792C202.527 12.0267 202.212 12.368 202.212 12.816C202.212 13.264 202.527 13.6107 203.156 13.856C203.785 14.0907 204.676 14.208 205.828 14.208C206.969 14.208 207.855 14.0907 208.484 13.856C209.124 13.6107 209.444 13.264 209.444 12.816C209.444 12.368 209.124 12.0267 208.484 11.792C207.855 11.5467 206.969 11.424 205.828 11.424ZM218.707 1.824C219.464 1.824 220.131 1.968 220.707 2.256C221.293 2.53333 221.752 2.928 222.083 3.44C222.413 3.952 222.579 4.54933 222.579 5.232C222.579 5.904 222.413 6.50133 222.083 7.024C221.752 7.536 221.293 7.936 220.707 8.224C220.131 8.50133 219.464 8.64 218.707 8.64C217.96 8.64 217.293 8.50133 216.707 8.224C216.12 7.936 215.656 7.536 215.315 7.024C214.984 6.50133 214.819 5.904 214.819 5.232C214.819 4.54933 214.984 3.952 215.315 3.44C215.656 2.928 216.12 2.53333 216.707 2.256C217.293 1.968 217.96 1.824 218.707 1.824ZM218.707 2.976C218.216 2.976 217.773 3.072 217.379 3.264C216.995 3.44533 216.691 3.70667 216.467 4.048C216.243 4.38933 216.131 4.784 216.131 5.232C216.131 5.68 216.243 6.07467 216.467 6.416C216.691 6.75733 216.995 7.024 217.379 7.216C217.773 7.39733 218.216 7.488 218.707 7.488C219.208 7.488 219.651 7.39733 220.035 7.216C220.419 7.024 220.723 6.75733 220.947 6.416C221.171 6.07467 221.283 5.68 221.283 5.232C221.283 4.784 221.171 4.38933 220.947 4.048C220.723 3.70667 220.419 3.44533 220.035 3.264C219.651 3.072 219.208 2.976 218.707 2.976ZM224.483 0.768H225.811V15.264H224.483V0.768ZM214.275 12.096L214.099 10.976C214.984 10.976 215.955 10.9707 217.011 10.96C218.067 10.9387 219.155 10.896 220.275 10.832C221.405 10.7573 222.493 10.64 223.539 10.48L223.651 11.456C222.563 11.6587 221.459 11.808 220.339 11.904C219.229 11.9893 218.157 12.0427 217.123 12.064C216.088 12.0853 215.139 12.096 214.275 12.096ZM242.844 0.768H244.172V8.256H242.844V0.768ZM234.812 8.992H244.172V12.48H236.14V14.464H234.86V11.472H242.86V10.048H234.812V8.992ZM234.86 14.016H244.668V15.088H234.86V14.016ZM236.076 1.184H237.18V2.288C237.18 3.184 237.009 4.02133 236.668 4.8C236.326 5.57867 235.846 6.256 235.228 6.832C234.609 7.39733 233.894 7.82933 233.084 8.128L232.412 7.072C232.956 6.88 233.452 6.624 233.9 6.304C234.348 5.984 234.732 5.616 235.052 5.2C235.382 4.77333 235.633 4.31467 235.804 3.824C235.985 3.33333 236.076 2.82133 236.076 2.288V1.184ZM236.316 1.184H237.42V2.288C237.42 2.78933 237.505 3.27467 237.676 3.744C237.857 4.21333 238.108 4.64533 238.428 5.04C238.758 5.43467 239.148 5.78667 239.596 6.096C240.044 6.39467 240.534 6.63467 241.068 6.816L240.412 7.856C239.804 7.64267 239.249 7.36 238.748 7.008C238.246 6.64533 237.814 6.224 237.452 5.744C237.089 5.25333 236.806 4.72 236.604 4.144C236.412 3.55733 236.316 2.93867 236.316 2.288V1.184ZM257.562 0.768H258.89V8.272H257.562V0.768ZM249.53 8.976H258.89V12.448H250.858V14.496H249.578V11.472H257.578V10.016H249.53V8.976ZM249.578 14.032H259.386V15.088H249.578V14.032ZM250.89 2.048H251.978V2.816C251.978 3.65867 251.802 4.448 251.45 5.184C251.109 5.90933 250.629 6.544 250.01 7.088C249.392 7.62133 248.672 8.02667 247.85 8.304L247.226 7.248C247.77 7.07733 248.266 6.84267 248.714 6.544C249.162 6.24533 249.546 5.89867 249.866 5.504C250.197 5.10933 250.448 4.688 250.618 4.24C250.8 3.78133 250.89 3.30667 250.89 2.816V2.048ZM251.162 2.048H252.234V2.816C252.234 3.27467 252.32 3.72267 252.49 4.16C252.672 4.58667 252.928 4.98133 253.258 5.344C253.589 5.70667 253.978 6.02667 254.426 6.304C254.874 6.58133 255.365 6.8 255.898 6.96L255.258 8C254.448 7.744 253.733 7.36533 253.114 6.864C252.506 6.352 252.026 5.75467 251.674 5.072C251.333 4.37867 251.162 3.62667 251.162 2.816V2.048ZM247.578 1.584H255.498V2.672H247.578V1.584ZM265.433 2.24H266.521V3.424C266.521 4.29867 266.35 5.12 266.009 5.888C265.678 6.656 265.209 7.328 264.601 7.904C263.993 8.46933 263.289 8.90133 262.489 9.2L261.801 8.144C262.334 7.952 262.82 7.696 263.257 7.376C263.705 7.056 264.094 6.688 264.425 6.272C264.756 5.84533 265.006 5.392 265.177 4.912C265.348 4.42133 265.433 3.92533 265.433 3.424V2.24ZM265.689 2.24H266.777V3.408C266.777 4.02667 266.921 4.62933 267.209 5.216C267.497 5.792 267.908 6.30933 268.441 6.768C268.974 7.216 269.588 7.568 270.281 7.824L269.609 8.864C268.82 8.576 268.132 8.16 267.545 7.616C266.958 7.072 266.5 6.43733 266.169 5.712C265.849 4.98667 265.689 4.21867 265.689 3.408V2.24ZM269.497 4.544H272.713V5.648H269.497V4.544ZM262.217 1.76H269.945V2.848H262.217V1.76ZM263.993 10.208H273.657V15.248H272.329V11.296H263.993V10.208ZM272.329 0.768H273.657V9.424H272.329V0.768ZM287 0.783999H288.328V11.344H287V0.783999ZM279.032 13.84H288.776V14.928H279.032V13.84ZM279.032 10.272H280.36V14.208H279.032V10.272ZM280.568 1.792C281.293 1.792 281.939 1.94133 282.504 2.24C283.069 2.53867 283.517 2.96 283.848 3.504C284.179 4.03733 284.344 4.65067 284.344 5.344C284.344 6.03733 284.179 6.656 283.848 7.2C283.517 7.73333 283.069 8.15467 282.504 8.464C281.939 8.76267 281.293 8.912 280.568 8.912C279.853 8.912 279.208 8.76267 278.632 8.464C278.067 8.15467 277.619 7.73333 277.288 7.2C276.957 6.656 276.792 6.03733 276.792 5.344C276.792 4.65067 276.957 4.03733 277.288 3.504C277.619 2.96 278.067 2.53867 278.632 2.24C279.208 1.94133 279.853 1.792 280.568 1.792ZM280.568 2.944C280.099 2.944 279.677 3.04533 279.304 3.248C278.931 3.45067 278.632 3.73333 278.408 4.096C278.195 4.45867 278.088 4.87467 278.088 5.344C278.088 5.824 278.195 6.24533 278.408 6.608C278.632 6.96 278.931 7.23733 279.304 7.44C279.677 7.64267 280.099 7.744 280.568 7.744C281.037 7.744 281.459 7.64267 281.832 7.44C282.216 7.23733 282.515 6.96 282.728 6.608C282.941 6.24533 283.048 5.824 283.048 5.344C283.048 4.87467 282.941 4.45867 282.728 4.096C282.515 3.73333 282.216 3.45067 281.832 3.248C281.459 3.04533 281.037 2.944 280.568 2.944ZM2.16 26.224H11.456V27.312H2.16V26.224ZM0.8 36.112H13.872V37.216H0.8V36.112ZM4 31.344H5.328V36.512H4V31.344ZM11.024 26.224H12.352V27.808C12.352 28.416 12.3413 29.0453 12.32 29.696C12.3093 30.3467 12.2667 31.0453 12.192 31.792C12.128 32.528 12.0107 33.344 11.84 34.24L10.528 34.096C10.7733 32.8053 10.9173 31.664 10.96 30.672C11.0027 29.6693 11.024 28.7147 11.024 27.808V26.224ZM7.584 31.344H8.896V36.512H7.584V31.344ZM18.9588 32.256H20.2868V35.12H18.9588V32.256ZM23.8228 32.256H25.1348V35.104H23.8228V32.256ZM15.5188 31.744H28.5908V32.816H15.5188V31.744ZM16.9748 34.624H26.9748V39.248H25.6468V35.696H16.9748V34.624ZM22.0468 25.104C23.0921 25.104 23.9934 25.216 24.7508 25.44C25.5081 25.664 26.0948 25.984 26.5108 26.4C26.9268 26.8053 27.1348 27.296 27.1348 27.872C27.1348 28.4587 26.9268 28.96 26.5108 29.376C26.0948 29.7813 25.5081 30.096 24.7508 30.32C23.9934 30.544 23.0921 30.656 22.0468 30.656C21.0121 30.656 20.1108 30.544 19.3428 30.32C18.5854 30.096 17.9988 29.7813 17.5828 29.376C17.1668 28.96 16.9588 28.4587 16.9588 27.872C16.9588 27.296 17.1668 26.8053 17.5828 26.4C17.9988 25.984 18.5854 25.664 19.3428 25.44C20.1108 25.216 21.0121 25.104 22.0468 25.104ZM22.0468 26.16C21.2894 26.16 20.6281 26.2293 20.0628 26.368C19.5081 26.496 19.0761 26.688 18.7668 26.944C18.4681 27.2 18.3188 27.5093 18.3188 27.872C18.3188 28.2347 18.4681 28.544 18.7668 28.8C19.0761 29.056 19.5081 29.2533 20.0628 29.392C20.6281 29.5307 21.2894 29.6 22.0468 29.6C22.8148 29.6 23.4761 29.5307 24.0308 29.392C24.5961 29.2533 25.0281 29.056 25.3268 28.8C25.6254 28.544 25.7748 28.2347 25.7748 27.872C25.7748 27.5093 25.6254 27.2 25.3268 26.944C25.0281 26.688 24.5961 26.496 24.0308 26.368C23.4761 26.2293 22.8148 26.16 22.0468 26.16ZM40.7815 24.768H42.1095V39.248H40.7815V24.768ZM36.5415 26.336H37.8535C37.8535 27.3813 37.7255 28.3893 37.4695 29.36C37.2242 30.3307 36.8348 31.2533 36.3015 32.128C35.7682 32.992 35.0748 33.7973 34.2215 34.544C33.3682 35.2907 32.3335 35.9573 31.1175 36.544L30.4135 35.472C31.8108 34.8 32.9628 34.016 33.8695 33.12C34.7762 32.224 35.4482 31.2267 35.8855 30.128C36.3228 29.0187 36.5415 27.824 36.5415 26.544V26.336ZM31.0855 26.336H37.1015V27.408H31.0855V26.336ZM49.0843 33.456H50.4123V35.84H49.0843V33.456ZM55.4203 24.768H56.7483V39.248H55.4203V24.768ZM45.2283 36.496L45.0363 35.376C45.9536 35.3653 46.9456 35.3547 48.0123 35.344C49.0789 35.3333 50.1669 35.296 51.2763 35.232C52.3856 35.168 53.4576 35.0667 54.4923 34.928L54.5883 35.92C53.5216 36.0907 52.4389 36.2187 51.3403 36.304C50.2416 36.3787 49.1696 36.432 48.1243 36.464C47.0789 36.4853 46.1136 36.496 45.2283 36.496ZM45.3403 26.544H54.1243V27.616H45.3403V26.544ZM49.7243 28.432C50.4176 28.432 51.0256 28.544 51.5483 28.768C52.0709 28.992 52.4763 29.3067 52.7643 29.712C53.0629 30.1067 53.2123 30.576 53.2123 31.12C53.2123 31.6533 53.0629 32.1227 52.7643 32.528C52.4763 32.9333 52.0709 33.248 51.5483 33.472C51.0256 33.6853 50.4176 33.792 49.7243 33.792C49.0416 33.792 48.4389 33.6853 47.9163 33.472C47.3936 33.248 46.9883 32.9333 46.7003 32.528C46.4123 32.1227 46.2682 31.6533 46.2682 31.12C46.2682 30.576 46.4123 30.1067 46.7003 29.712C46.9883 29.3067 47.3936 28.992 47.9163 28.768C48.4389 28.544 49.0416 28.432 49.7243 28.432ZM49.7243 29.472C49.0843 29.472 48.5563 29.6213 48.1403 29.92C47.7243 30.2187 47.5163 30.6187 47.5163 31.12C47.5163 31.6107 47.7243 32.0053 48.1403 32.304C48.5563 32.6027 49.0843 32.752 49.7243 32.752C50.3856 32.752 50.9189 32.6027 51.3243 32.304C51.7403 32.0053 51.9483 31.6107 51.9483 31.12C51.9483 30.6187 51.7403 30.2187 51.3243 29.92C50.9189 29.6213 50.3856 29.472 49.7243 29.472ZM49.0843 24.784H50.4123V27.12H49.0843V24.784ZM67.0451 31.568H68.3571V33.408H67.0451V31.568ZM73.1411 24.784H74.4691V34.48H73.1411V24.784ZM73.9091 29.152H76.5811V30.256H73.9091V29.152ZM63.3331 34.064L63.1731 32.992C64.0371 32.992 64.9811 32.9867 66.0051 32.976C67.0398 32.9547 68.0958 32.912 69.1731 32.848C70.2505 32.784 71.2851 32.6827 72.2771 32.544L72.3731 33.488C71.3491 33.6693 70.2985 33.8027 69.2211 33.888C68.1545 33.9627 67.1145 34.0107 66.1011 34.032C65.0985 34.0533 64.1758 34.064 63.3331 34.064ZM64.9491 35.216H74.4691V39.248H73.1411V36.272H64.9491V35.216ZM63.5411 26.08H71.8451V27.088H63.5411V26.08ZM67.6851 27.632C68.7091 27.632 69.5251 27.824 70.1331 28.208C70.7518 28.592 71.0611 29.1147 71.0611 29.776C71.0611 30.4373 70.7518 30.96 70.1331 31.344C69.5251 31.728 68.7091 31.92 67.6851 31.92C66.6718 31.92 65.8558 31.728 65.2371 31.344C64.6185 30.96 64.3091 30.4373 64.3091 29.776C64.3091 29.1147 64.6185 28.592 65.2371 28.208C65.8558 27.824 66.6718 27.632 67.6851 27.632ZM67.6851 28.56C67.0451 28.56 66.5331 28.6667 66.1491 28.88C65.7651 29.0933 65.5731 29.392 65.5731 29.776C65.5731 30.1387 65.7651 30.4373 66.1491 30.672C66.5331 30.896 67.0451 31.008 67.6851 31.008C68.3251 31.008 68.8371 30.896 69.2211 30.672C69.6051 30.4373 69.7971 30.1387 69.7971 29.776C69.7971 29.392 69.6051 29.0933 69.2211 28.88C68.8371 28.6667 68.3251 28.56 67.6851 28.56ZM67.0451 24.656H68.3571V26.576H67.0451V24.656ZM88.9799 24.768H90.2439V39.248H88.9799V24.768ZM86.5319 30.576H89.3159V31.664H86.5319V30.576ZM85.6999 25.088H86.9319V38.496H85.6999V25.088ZM78.4839 34.56H79.4279C80.1425 34.56 80.7879 34.5547 81.3639 34.544C81.9505 34.5227 82.5052 34.48 83.0279 34.416C83.5612 34.352 84.1052 34.2613 84.6599 34.144L84.7879 35.248C84.2119 35.3653 83.6519 35.456 83.1079 35.52C82.5745 35.584 82.0092 35.6267 81.4119 35.648C80.8252 35.6693 80.1639 35.68 79.4279 35.68H78.4839V34.56ZM78.4839 26.528H83.8599V27.616H79.8119V35.072H78.4839V26.528ZM92.6746 31.488H105.795V32.512H92.6746V31.488ZM94.2426 33.664H104.163V36.752H95.5866V38.448H94.2746V35.84H102.851V34.624H94.2426V33.664ZM94.2746 38.096H104.627V39.056H94.2746V38.096ZM94.3386 25.2H104.115V28.208H95.6826V29.776H94.3706V27.312H102.803V26.144H94.3386V25.2ZM94.3706 29.456H104.371V30.416H94.3706V29.456ZM115.708 25.456C116.433 25.456 117.073 25.584 117.628 25.84C118.182 26.0853 118.614 26.432 118.924 26.88C119.244 27.3173 119.404 27.8347 119.404 28.432C119.404 29.008 119.244 29.5253 118.924 29.984C118.614 30.432 118.182 30.784 117.628 31.04C117.073 31.2853 116.433 31.408 115.708 31.408C115.004 31.408 114.374 31.2853 113.82 31.04C113.265 30.784 112.828 30.432 112.508 29.984C112.188 29.5253 112.028 29.008 112.028 28.432C112.028 27.8347 112.188 27.3173 112.508 26.88C112.828 26.432 113.265 26.0853 113.82 25.84C114.374 25.584 115.004 25.456 115.708 25.456ZM115.708 26.544C115.249 26.544 114.838 26.624 114.476 26.784C114.113 26.944 113.825 27.168 113.612 27.456C113.409 27.7333 113.308 28.0587 113.308 28.432C113.308 28.7947 113.409 29.12 113.612 29.408C113.825 29.6853 114.113 29.904 114.476 30.064C114.838 30.224 115.249 30.304 115.708 30.304C116.188 30.304 116.609 30.224 116.972 30.064C117.334 29.904 117.617 29.6853 117.82 29.408C118.033 29.12 118.14 28.7947 118.14 28.432C118.14 28.0587 118.033 27.7333 117.82 27.456C117.617 27.168 117.334 26.944 116.972 26.784C116.609 26.624 116.188 26.544 115.708 26.544ZM115.132 33.024H116.46V38.8H115.132V33.024ZM121.532 24.784H122.844V39.248H121.532V24.784ZM111.132 33.744L110.956 32.624C111.851 32.624 112.833 32.6133 113.9 32.592C114.977 32.5707 116.081 32.5227 117.212 32.448C118.353 32.3733 119.446 32.256 120.492 32.096L120.588 33.088C119.51 33.2907 118.412 33.44 117.292 33.536C116.172 33.6213 115.084 33.6747 114.028 33.696C112.982 33.7173 112.017 33.7333 111.132 33.744ZM135.61 24.784H136.938V35.632H135.61V24.784ZM136.522 29.536H139.066V30.64H136.522V29.536ZM125.738 26.544H134.282V27.616H125.738V26.544ZM130.01 28.4C130.693 28.4 131.296 28.5173 131.818 28.752C132.341 28.976 132.746 29.2907 133.034 29.696C133.322 30.0907 133.466 30.56 133.466 31.104C133.466 31.648 133.322 32.1227 133.034 32.528C132.746 32.9227 132.341 33.232 131.818 33.456C131.296 33.68 130.693 33.792 130.01 33.792C129.328 33.792 128.725 33.68 128.202 33.456C127.68 33.232 127.269 32.9227 126.97 32.528C126.682 32.1227 126.538 31.648 126.538 31.104C126.538 30.56 126.682 30.0907 126.97 29.696C127.269 29.2907 127.68 28.976 128.202 28.752C128.725 28.5173 129.328 28.4 130.01 28.4ZM130.01 29.44C129.36 29.44 128.832 29.5947 128.426 29.904C128.021 30.2027 127.818 30.6027 127.818 31.104C127.818 31.6053 128.021 32.0053 128.426 32.304C128.832 32.6027 129.36 32.752 130.01 32.752C130.672 32.752 131.2 32.6027 131.594 32.304C132 32.0053 132.202 31.6053 132.202 31.104C132.202 30.6027 132 30.2027 131.594 29.904C131.2 29.5947 130.672 29.44 130.01 29.44ZM129.354 24.784H130.682V27.088H129.354V24.784ZM127.93 37.84H137.578V38.928H127.93V37.84ZM127.93 34.768H129.242V38.288H127.93V34.768ZM147.571 26.32H148.659V27.488C148.659 28.384 148.488 29.2107 148.147 29.968C147.816 30.7253 147.347 31.3867 146.739 31.952C146.142 32.5173 145.432 32.9493 144.611 33.248L143.939 32.192C144.664 31.936 145.299 31.5733 145.843 31.104C146.387 30.624 146.808 30.0747 147.107 29.456C147.416 28.8373 147.571 28.1813 147.571 27.488V26.32ZM147.811 26.32H148.899V27.488C148.899 28.1173 149.043 28.7147 149.331 29.28C149.619 29.8453 150.024 30.3413 150.547 30.768C151.07 31.1947 151.683 31.5307 152.387 31.776L151.763 32.816C150.952 32.5387 150.254 32.1387 149.667 31.616C149.08 31.0933 148.622 30.48 148.291 29.776C147.971 29.0613 147.811 28.2987 147.811 27.488V26.32ZM144.339 25.84H152.083V26.928H144.339V25.84ZM153.907 24.768H155.235V33.488H153.907V24.768ZM154.867 28.448H157.363V29.552H154.867V28.448ZM150.627 33.888C151.608 33.888 152.451 33.9947 153.155 34.208C153.87 34.4107 154.419 34.7093 154.803 35.104C155.187 35.4987 155.379 35.9787 155.379 36.544C155.379 37.1093 155.187 37.5893 154.803 37.984C154.419 38.3787 153.87 38.6827 153.155 38.896C152.451 39.1093 151.608 39.216 150.627 39.216C149.646 39.216 148.798 39.1093 148.083 38.896C147.368 38.6827 146.819 38.3787 146.435 37.984C146.051 37.5893 145.859 37.1093 145.859 36.544C145.859 35.9787 146.051 35.4987 146.435 35.104C146.819 34.7093 147.368 34.4107 148.083 34.208C148.798 33.9947 149.646 33.888 150.627 33.888ZM150.627 34.944C149.912 34.944 149.294 35.008 148.771 35.136C148.259 35.264 147.864 35.4453 147.587 35.68C147.31 35.9147 147.171 36.2027 147.171 36.544C147.171 36.8853 147.31 37.1787 147.587 37.424C147.864 37.6587 148.259 37.84 148.771 37.968C149.294 38.096 149.912 38.16 150.627 38.16C151.342 38.16 151.955 38.096 152.467 37.968C152.979 37.84 153.374 37.6587 153.651 37.424C153.928 37.1787 154.067 36.8853 154.067 36.544C154.067 36.2027 153.928 35.9147 153.651 35.68C153.374 35.4453 152.979 35.264 152.467 35.136C151.955 35.008 151.342 34.944 150.627 34.944ZM158.754 26.304H167.298V27.376H158.754V26.304ZM163.026 28.128C163.709 28.128 164.311 28.2347 164.834 28.448C165.357 28.6613 165.762 28.9653 166.05 29.36C166.338 29.744 166.482 30.2027 166.482 30.736C166.482 31.2693 166.338 31.728 166.05 32.112C165.762 32.496 165.357 32.8 164.834 33.024C164.311 33.2373 163.709 33.344 163.026 33.344C162.343 33.344 161.741 33.2373 161.218 33.024C160.695 32.8 160.285 32.496 159.986 32.112C159.698 31.728 159.554 31.2693 159.554 30.736C159.554 30.2027 159.698 29.744 159.986 29.36C160.285 28.9653 160.695 28.6613 161.218 28.448C161.741 28.2347 162.343 28.128 163.026 28.128ZM163.026 29.152C162.365 29.152 161.831 29.296 161.426 29.584C161.031 29.8613 160.834 30.2453 160.834 30.736C160.834 31.216 161.031 31.6 161.426 31.888C161.831 32.1653 162.365 32.304 163.026 32.304C163.677 32.304 164.205 32.1653 164.61 31.888C165.015 31.6 165.218 31.216 165.218 30.736C165.218 30.2453 165.015 29.8613 164.61 29.584C164.215 29.296 163.687 29.152 163.026 29.152ZM168.626 24.768H169.954V33.824H168.626V24.768ZM169.586 28.768H172.082V29.872H169.586V28.768ZM160.546 34.608H169.954V39.248H168.626V35.696H160.546V34.608ZM162.37 24.704H163.698V26.896H162.37V24.704ZM176.977 26.016H178.065V28.608C178.065 29.408 177.963 30.192 177.761 30.96C177.569 31.728 177.291 32.448 176.929 33.12C176.566 33.792 176.139 34.3893 175.649 34.912C175.158 35.4347 174.625 35.8507 174.049 36.16L173.233 35.088C173.766 34.8213 174.257 34.464 174.705 34.016C175.163 33.5573 175.563 33.0347 175.905 32.448C176.246 31.8613 176.507 31.2427 176.689 30.592C176.881 29.9307 176.977 29.2693 176.977 28.608V26.016ZM177.217 26.016H178.289V28.608C178.289 29.248 178.379 29.8827 178.561 30.512C178.753 31.1413 179.019 31.7333 179.361 32.288C179.702 32.8427 180.091 33.3387 180.529 33.776C180.977 34.2133 181.457 34.56 181.969 34.816L181.153 35.872C180.587 35.584 180.065 35.1893 179.585 34.688C179.115 34.1867 178.699 33.616 178.337 32.976C177.985 32.3253 177.707 31.632 177.505 30.896C177.313 30.1493 177.217 29.3867 177.217 28.608V26.016ZM183.233 24.768H184.561V39.248H183.233V24.768ZM184.257 30.624H186.929V31.76H184.257V30.624ZM195.423 28.224H199.311V29.312H195.423V28.224ZM192.111 25.44C192.826 25.44 193.461 25.584 194.015 25.872C194.581 26.1493 195.023 26.5387 195.343 27.04C195.663 27.5413 195.823 28.1227 195.823 28.784C195.823 29.4453 195.663 30.032 195.343 30.544C195.023 31.0453 194.581 31.44 194.015 31.728C193.461 32.0053 192.826 32.144 192.111 32.144C191.386 32.144 190.741 32.0053 190.175 31.728C189.621 31.44 189.183 31.0453 188.863 30.544C188.543 30.032 188.383 29.4453 188.383 28.784C188.383 28.1227 188.543 27.5413 188.863 27.04C189.183 26.5387 189.621 26.1493 190.175 25.872C190.741 25.584 191.386 25.44 192.111 25.44ZM192.111 26.56C191.631 26.56 191.205 26.656 190.831 26.848C190.469 27.0293 190.181 27.2907 189.967 27.632C189.754 27.9627 189.647 28.3467 189.647 28.784C189.647 29.2213 189.754 29.6107 189.967 29.952C190.181 30.2827 190.469 30.544 190.831 30.736C191.205 30.928 191.631 31.024 192.111 31.024C192.581 31.024 192.997 30.928 193.359 30.736C193.733 30.544 194.026 30.2827 194.239 29.952C194.453 29.6107 194.559 29.2213 194.559 28.784C194.559 28.3467 194.453 27.9627 194.239 27.632C194.026 27.2907 193.733 27.0293 193.359 26.848C192.997 26.656 192.581 26.56 192.111 26.56ZM198.735 24.768H200.063V32.544H198.735V24.768ZM190.799 33.264H192.111V35.072H198.735V33.264H200.063V39.056H190.799V33.264ZM192.111 36.128V37.968H198.735V36.128H192.111ZM203.534 26.352H210.062V27.44H203.534V26.352ZM205.79 30.496H207.102V35.392H205.79V30.496ZM209.518 26.352H210.83V27.136C210.83 27.7227 210.809 28.4907 210.766 29.44C210.734 30.3893 210.617 31.536 210.414 32.88L209.102 32.768C209.315 31.456 209.438 30.336 209.47 29.408C209.502 28.48 209.518 27.7227 209.518 27.136V26.352ZM212.638 24.768H213.966V39.248H212.638V24.768ZM213.598 30.816H216.27V31.952H213.598V30.816ZM202.894 36.08L202.734 34.976C203.598 34.9653 204.542 34.9547 205.566 34.944C206.601 34.9227 207.646 34.88 208.702 34.816C209.769 34.752 210.787 34.6613 211.758 34.544L211.838 35.536C210.835 35.696 209.806 35.8133 208.75 35.888C207.705 35.9627 206.681 36.016 205.678 36.048C204.675 36.0693 203.747 36.08 202.894 36.08ZM221.175 32.224H234.247V33.328H221.175V32.224ZM227.047 30.08H228.375V32.576H227.047V30.08ZM222.631 34.736H232.631V39.248H231.303V35.808H222.631V34.736ZM222.903 25.104H224.215V26.752H231.223V25.104H232.535V30.528H222.903V25.104ZM224.215 27.776V29.456H231.223V27.776H224.215ZM239.718 26.848H240.806V29.184C240.806 29.952 240.699 30.7093 240.486 31.456C240.272 32.192 239.974 32.8907 239.59 33.552C239.216 34.2027 238.779 34.7787 238.278 35.28C237.776 35.7813 237.238 36.176 236.662 36.464L235.894 35.408C236.416 35.152 236.907 34.8053 237.366 34.368C237.835 33.9307 238.246 33.4293 238.598 32.864C238.95 32.2987 239.222 31.7013 239.414 31.072C239.616 30.4427 239.718 29.8133 239.718 29.184V26.848ZM239.99 26.848H241.062V29.184C241.062 29.792 241.158 30.4 241.35 31.008C241.552 31.6053 241.83 32.1707 242.182 32.704C242.544 33.2267 242.955 33.6907 243.414 34.096C243.883 34.5013 244.384 34.8213 244.918 35.056L244.182 36.112C243.595 35.8347 243.046 35.4613 242.534 34.992C242.022 34.5227 241.574 33.984 241.19 33.376C240.816 32.7573 240.523 32.096 240.31 31.392C240.096 30.6773 239.99 29.9413 239.99 29.184V26.848ZM236.358 26.256H244.438V27.36H236.358V26.256ZM246.406 24.768H247.734V39.248H246.406V24.768ZM261.141 24.784H262.469V35.472H261.141V24.784ZM253.173 37.84H262.917V38.928H253.173V37.84ZM253.173 34.48H254.501V38.416H253.173V34.48ZM254.533 27.536H255.621V28.144C255.621 29.008 255.45 29.8133 255.109 30.56C254.767 31.296 254.293 31.9413 253.685 32.496C253.077 33.04 252.367 33.4507 251.557 33.728L250.901 32.688C251.445 32.5067 251.935 32.2667 252.373 31.968C252.821 31.6587 253.205 31.3067 253.525 30.912C253.855 30.5067 254.106 30.0747 254.277 29.616C254.447 29.1467 254.533 28.656 254.533 28.144V27.536ZM254.757 27.536H255.845V28.144C255.845 28.624 255.935 29.0827 256.117 29.52C256.298 29.9573 256.549 30.368 256.869 30.752C257.199 31.1253 257.589 31.456 258.036 31.744C258.485 32.0213 258.975 32.2453 259.509 32.416L258.869 33.472C258.058 33.2053 257.343 32.8107 256.725 32.288C256.106 31.7653 255.621 31.152 255.269 30.448C254.927 29.744 254.757 28.976 254.757 28.144V27.536ZM251.253 26.704H259.109V27.776H251.253V26.704ZM254.533 24.848H255.861V27.232H254.533V24.848ZM269.075 33.392H270.403V35.744H269.075V33.392ZM275.155 24.768H276.483V39.248H275.155V24.768ZM276.067 30.912H278.739V32.032H276.067V30.912ZM265.363 36.496L265.155 35.376C266.03 35.376 266.979 35.3707 268.003 35.36C269.038 35.3387 270.094 35.296 271.171 35.232C272.249 35.168 273.289 35.0667 274.291 34.928L274.387 35.904C273.353 36.0853 272.297 36.2187 271.219 36.304C270.153 36.3893 269.118 36.4427 268.115 36.464C267.123 36.4853 266.206 36.496 265.363 36.496ZM265.411 26.528H274.051V27.6H265.411V26.528ZM269.747 28.432C270.419 28.432 271.011 28.544 271.523 28.768C272.035 28.992 272.435 29.3067 272.723 29.712C273.011 30.1067 273.155 30.576 273.155 31.12C273.155 31.6533 273.011 32.1227 272.723 32.528C272.435 32.9333 272.035 33.248 271.523 33.472C271.011 33.6853 270.419 33.792 269.747 33.792C269.075 33.792 268.478 33.6853 267.955 33.472C267.443 33.248 267.043 32.9333 266.755 32.528C266.478 32.1227 266.339 31.6533 266.339 31.12C266.339 30.576 266.478 30.1067 266.755 29.712C267.043 29.3067 267.443 28.992 267.955 28.768C268.478 28.544 269.075 28.432 269.747 28.432ZM269.747 29.472C269.097 29.472 268.574 29.6213 268.179 29.92C267.785 30.2187 267.587 30.6187 267.587 31.12C267.587 31.6107 267.785 32.0053 268.179 32.304C268.574 32.6027 269.097 32.752 269.747 32.752C270.387 32.752 270.905 32.6027 271.299 32.304C271.694 32.0053 271.891 31.6107 271.891 31.12C271.891 30.6187 271.694 30.2187 271.299 29.92C270.905 29.6213 270.387 29.472 269.747 29.472ZM269.075 24.8H270.403V27.232H269.075V24.8ZM283.73 26.24H284.818V27.424C284.818 28.2987 284.647 29.12 284.306 29.888C283.975 30.656 283.506 31.328 282.898 31.904C282.29 32.4693 281.586 32.9013 280.786 33.2L280.098 32.144C280.631 31.952 281.117 31.696 281.554 31.376C282.002 31.056 282.391 30.688 282.722 30.272C283.053 29.8453 283.303 29.392 283.474 28.912C283.645 28.4213 283.73 27.9253 283.73 27.424V26.24ZM283.986 26.24H285.074V27.408C285.074 28.0267 285.218 28.6293 285.506 29.216C285.794 29.792 286.205 30.3093 286.738 30.768C287.271 31.216 287.885 31.568 288.578 31.824L287.906 32.864C287.117 32.576 286.429 32.16 285.842 31.616C285.255 31.072 284.797 30.4373 284.466 29.712C284.146 28.9867 283.986 28.2187 283.986 27.408V26.24ZM287.794 28.544H291.01V29.648H287.794V28.544ZM280.514 25.76H288.242V26.848H280.514V25.76ZM282.29 34.208H291.954V39.248H290.626V35.296H282.29V34.208ZM290.626 24.768H291.954V33.424H290.626V24.768ZM11.328 48.784H12.656V59.344H11.328V48.784ZM3.36 61.84H13.104V62.928H3.36V61.84ZM3.36 58.272H4.688V62.208H3.36V58.272ZM4.896 49.792C5.62133 49.792 6.26667 49.9413 6.832 50.24C7.39733 50.5387 7.84533 50.96 8.176 51.504C8.50667 52.0373 8.672 52.6507 8.672 53.344C8.672 54.0373 8.50667 54.656 8.176 55.2C7.84533 55.7333 7.39733 56.1547 6.832 56.464C6.26667 56.7627 5.62133 56.912 4.896 56.912C4.18133 56.912 3.536 56.7627 2.96 56.464C2.39467 56.1547 1.94667 55.7333 1.616 55.2C1.28533 54.656 1.12 54.0373 1.12 53.344C1.12 52.6507 1.28533 52.0373 1.616 51.504C1.94667 50.96 2.39467 50.5387 2.96 50.24C3.536 49.9413 4.18133 49.792 4.896 49.792ZM4.896 50.944C4.42667 50.944 4.00533 51.0453 3.632 51.248C3.25867 51.4507 2.96 51.7333 2.736 52.096C2.52267 52.4587 2.416 52.8747 2.416 53.344C2.416 53.824 2.52267 54.2453 2.736 54.608C2.96 54.96 3.25867 55.2373 3.632 55.44C4.00533 55.6427 4.42667 55.744 4.896 55.744C5.36533 55.744 5.78667 55.6427 6.16 55.44C6.544 55.2373 6.84267 54.96 7.056 54.608C7.26933 54.2453 7.376 53.824 7.376 53.344C7.376 52.8747 7.26933 52.4587 7.056 52.096C6.84267 51.7333 6.544 51.4507 6.16 51.248C5.78667 51.0453 5.36533 50.944 4.896 50.944ZM20.4569 50.224H29.7529V51.312H20.4569V50.224ZM19.0969 60.112H32.1689V61.216H19.0969V60.112ZM22.2969 55.344H23.6249V60.512H22.2969V55.344ZM29.3209 50.224H30.6489V51.808C30.6489 52.416 30.6382 53.0453 30.6169 53.696C30.6062 54.3467 30.5635 55.0453 30.4889 55.792C30.4249 56.528 30.3075 57.344 30.1369 58.24L28.8249 58.096C29.0702 56.8053 29.2142 55.664 29.2569 54.672C29.2995 53.6693 29.3209 52.7147 29.3209 51.808V50.224ZM25.8809 55.344H27.1929V60.512H25.8809V55.344ZM37.2556 56.256H38.5836V59.12H37.2556V56.256ZM42.1196 56.256H43.4316V59.104H42.1196V56.256ZM33.8156 55.744H46.8876V56.816H33.8156V55.744ZM35.2716 58.624H45.2716V63.248H43.9436V59.696H35.2716V58.624ZM40.3436 49.104C41.389 49.104 42.2903 49.216 43.0476 49.44C43.805 49.664 44.3916 49.984 44.8076 50.4C45.2236 50.8053 45.4316 51.296 45.4316 51.872C45.4316 52.4587 45.2236 52.96 44.8076 53.376C44.3916 53.7813 43.805 54.096 43.0476 54.32C42.2903 54.544 41.389 54.656 40.3436 54.656C39.309 54.656 38.4076 54.544 37.6396 54.32C36.8823 54.096 36.2956 53.7813 35.8796 53.376C35.4636 52.96 35.2556 52.4587 35.2556 51.872C35.2556 51.296 35.4636 50.8053 35.8796 50.4C36.2956 49.984 36.8823 49.664 37.6396 49.44C38.4076 49.216 39.309 49.104 40.3436 49.104ZM40.3436 50.16C39.5863 50.16 38.925 50.2293 38.3596 50.368C37.805 50.496 37.373 50.688 37.0636 50.944C36.765 51.2 36.6156 51.5093 36.6156 51.872C36.6156 52.2347 36.765 52.544 37.0636 52.8C37.373 53.056 37.805 53.2533 38.3596 53.392C38.925 53.5307 39.5863 53.6 40.3436 53.6C41.1116 53.6 41.773 53.5307 42.3276 53.392C42.893 53.2533 43.325 53.056 43.6236 52.8C43.9223 52.544 44.0716 52.2347 44.0716 51.872C44.0716 51.5093 43.9223 51.2 43.6236 50.944C43.325 50.688 42.893 50.496 42.3276 50.368C41.773 50.2293 41.1116 50.16 40.3436 50.16ZM58.6245 52H63.0085V53.088H58.6245V52ZM58.6245 56.576H63.0085V57.664H58.6245V56.576ZM55.9685 49.888C56.6725 49.888 57.2965 50.096 57.8405 50.512C58.3845 50.9173 58.8058 51.4987 59.1045 52.256C59.4138 53.0133 59.5685 53.904 59.5685 54.928C59.5685 55.952 59.4138 56.8427 59.1045 57.6C58.8058 58.3573 58.3845 58.944 57.8405 59.36C57.2965 59.776 56.6725 59.984 55.9685 59.984C55.2752 59.984 54.6512 59.776 54.0965 59.36C53.5525 58.944 53.1258 58.3573 52.8165 57.6C52.5178 56.8427 52.3685 55.952 52.3685 54.928C52.3685 53.904 52.5178 53.0133 52.8165 52.256C53.1258 51.4987 53.5525 50.9173 54.0965 50.512C54.6512 50.096 55.2752 49.888 55.9685 49.888ZM55.9685 51.072C55.5098 51.072 55.1045 51.232 54.7525 51.552C54.4005 51.8613 54.1232 52.3093 53.9205 52.896C53.7285 53.472 53.6325 54.1493 53.6325 54.928C53.6325 55.7067 53.7285 56.3893 53.9205 56.976C54.1232 57.552 54.4005 58 54.7525 58.32C55.1045 58.64 55.5098 58.8 55.9685 58.8C56.4378 58.8 56.8485 58.64 57.2005 58.32C57.5525 58 57.8245 57.552 58.0165 56.976C58.2192 56.3893 58.3205 55.7067 58.3205 54.928C58.3205 54.1493 58.2192 53.472 58.0165 52.896C57.8245 52.3093 57.5525 51.8613 57.2005 51.552C56.8485 51.232 56.4378 51.072 55.9685 51.072ZM62.7045 48.768H64.0165V63.264H62.7045V48.768ZM77.4073 48.784H78.7353V59.472H77.4073V48.784ZM74.2713 53.232H77.6633V54.336H74.2713V53.232ZM72.9273 49.888H74.3353C74.3353 51.136 74.0579 52.2773 73.5033 53.312C72.9486 54.336 72.1699 55.2267 71.1673 55.984C70.1646 56.7413 68.9806 57.3493 67.6153 57.808L67.0553 56.736C68.2286 56.3413 69.2579 55.8347 70.1432 55.216C71.0286 54.5973 71.7113 53.8827 72.1913 53.072C72.6819 52.2613 72.9273 51.3813 72.9273 50.432V49.888ZM67.7753 49.888H73.7913V50.992H67.7753V49.888ZM69.5833 61.84H79.1033V62.928H69.5833V61.84ZM69.5833 58.384H70.9273V62.384H69.5833V58.384ZM85.1281 60.288H98.2481V61.392H85.1281V60.288ZM91.0161 56.784H92.3441V60.656H91.0161V56.784ZM90.9841 50.608H92.1201V51.488C92.1201 52.0853 92.0081 52.6507 91.7841 53.184C91.5708 53.7067 91.2721 54.1973 90.8881 54.656C90.5148 55.104 90.0775 55.504 89.5761 55.856C89.0855 56.1973 88.5575 56.496 87.9921 56.752C87.4375 56.9973 86.8775 57.1787 86.3121 57.296L85.7681 56.24C86.2588 56.1547 86.7548 56.0107 87.2561 55.808C87.7575 55.5947 88.2268 55.3387 88.6641 55.04C89.1121 54.7413 89.5068 54.4053 89.8481 54.032C90.2001 53.6587 90.4775 53.2587 90.6801 52.832C90.8828 52.4053 90.9841 51.9573 90.9841 51.488V50.608ZM91.2401 50.608H92.3601V51.488C92.3601 51.9573 92.4615 52.4053 92.6641 52.832C92.8668 53.248 93.1441 53.6427 93.4961 54.016C93.8481 54.3893 94.2481 54.7253 94.6961 55.024C95.1441 55.312 95.6188 55.5573 96.1201 55.76C96.6321 55.9627 97.1388 56.1013 97.6401 56.176L97.0961 57.232C96.5201 57.1147 95.9495 56.9387 95.3841 56.704C94.8188 56.4587 94.2855 56.1653 93.7841 55.824C93.2935 55.472 92.8561 55.0773 92.4721 54.64C92.0881 54.192 91.7841 53.7067 91.5601 53.184C91.3468 52.6507 91.2401 52.0853 91.2401 51.488V50.608ZM86.2161 50.08H97.1281V51.184H86.2161V50.08ZM103.495 49.584H104.599V51.072C104.599 52.0107 104.428 52.8747 104.087 53.664C103.756 54.4533 103.287 55.1467 102.679 55.744C102.082 56.3307 101.367 56.7787 100.535 57.088L99.8309 56.016C100.578 55.7493 101.223 55.3707 101.767 54.88C102.311 54.3893 102.732 53.8187 103.031 53.168C103.34 52.5067 103.495 51.808 103.495 51.072V49.584ZM103.735 49.584H104.807V51.024C104.807 51.7067 104.956 52.352 105.255 52.96C105.554 53.568 105.964 54.1067 106.487 54.576C107.02 55.0347 107.639 55.3813 108.343 55.616L107.623 56.656C106.844 56.3573 106.162 55.936 105.575 55.392C104.988 54.848 104.535 54.2027 104.215 53.456C103.895 52.7093 103.735 51.8987 103.735 51.024V49.584ZM110.423 48.768H111.751V57.328H110.423V48.768ZM106.983 57.76C108.476 57.76 109.65 58 110.503 58.48C111.367 58.96 111.799 59.632 111.799 60.496C111.799 61.3493 111.367 62.016 110.503 62.496C109.65 62.976 108.476 63.216 106.983 63.216C105.49 63.216 104.311 62.976 103.447 62.496C102.594 62.016 102.167 61.3493 102.167 60.496C102.167 59.632 102.594 58.96 103.447 58.48C104.311 58 105.49 57.76 106.983 57.76ZM106.983 58.816C106.258 58.816 105.634 58.8853 105.111 59.024C104.588 59.152 104.183 59.344 103.895 59.6C103.618 59.8453 103.479 60.144 103.479 60.496C103.479 60.8373 103.618 61.136 103.895 61.392C104.183 61.6373 104.588 61.8293 105.111 61.968C105.634 62.096 106.258 62.16 106.983 62.16C107.719 62.16 108.343 62.096 108.855 61.968C109.378 61.8293 109.778 61.6373 110.055 61.392C110.343 61.136 110.487 60.8373 110.487 60.496C110.487 60.144 110.343 59.8453 110.055 59.6C109.778 59.344 109.378 59.152 108.855 59.024C108.343 58.8853 107.719 58.816 106.983 58.816ZM107.271 51.824H110.695V52.928H107.271V51.824ZM121.68 50.016H122.768V52.608C122.768 53.408 122.666 54.192 122.464 54.96C122.272 55.728 121.994 56.448 121.632 57.12C121.269 57.792 120.842 58.3893 120.352 58.912C119.861 59.4347 119.328 59.8507 118.752 60.16L117.936 59.088C118.469 58.8213 118.96 58.464 119.408 58.016C119.866 57.5573 120.266 57.0347 120.608 56.448C120.949 55.8613 121.21 55.2427 121.392 54.592C121.584 53.9307 121.68 53.2693 121.68 52.608V50.016ZM121.92 50.016H122.992V52.608C122.992 53.248 123.082 53.8827 123.264 54.512C123.456 55.1413 123.722 55.7333 124.064 56.288C124.405 56.8427 124.794 57.3387 125.232 57.776C125.68 58.2133 126.16 58.56 126.672 58.816L125.856 59.872C125.29 59.584 124.768 59.1893 124.288 58.688C123.818 58.1867 123.402 57.616 123.04 56.976C122.688 56.3253 122.41 55.632 122.208 54.896C122.016 54.1493 121.92 53.3867 121.92 52.608V50.016ZM127.936 48.768H129.264V63.248H127.936V48.768ZM128.96 54.624H131.632V55.76H128.96V54.624ZM140.127 52.224H144.015V53.312H140.127V52.224ZM136.815 49.44C137.529 49.44 138.164 49.584 138.719 49.872C139.284 50.1493 139.727 50.5387 140.047 51.04C140.367 51.5413 140.527 52.1227 140.527 52.784C140.527 53.4453 140.367 54.032 140.047 54.544C139.727 55.0453 139.284 55.44 138.719 55.728C138.164 56.0053 137.529 56.144 136.815 56.144C136.089 56.144 135.444 56.0053 134.879 55.728C134.324 55.44 133.887 55.0453 133.567 54.544C133.247 54.032 133.087 53.4453 133.087 52.784C133.087 52.1227 133.247 51.5413 133.567 51.04C133.887 50.5387 134.324 50.1493 134.879 49.872C135.444 49.584 136.089 49.44 136.815 49.44ZM136.815 50.56C136.335 50.56 135.908 50.656 135.535 50.848C135.172 51.0293 134.884 51.2907 134.671 51.632C134.457 51.9627 134.351 52.3467 134.351 52.784C134.351 53.2213 134.457 53.6107 134.671 53.952C134.884 54.2827 135.172 54.544 135.535 54.736C135.908 54.928 136.335 55.024 136.815 55.024C137.284 55.024 137.7 54.928 138.063 54.736C138.436 54.544 138.729 54.2827 138.943 53.952C139.156 53.6107 139.263 53.2213 139.263 52.784C139.263 52.3467 139.156 51.9627 138.943 51.632C138.729 51.2907 138.436 51.0293 138.063 50.848C137.7 50.656 137.284 50.56 136.815 50.56ZM143.439 48.768H144.767V56.544H143.439V48.768ZM135.503 57.264H136.815V59.072H143.439V57.264H144.767V63.056H135.503V57.264ZM136.815 60.128V61.968H143.439V60.128H136.815ZM154.109 49.024C155.709 49.024 156.957 49.2427 157.853 49.68C158.749 50.1067 159.197 50.72 159.197 51.52C159.197 52.3307 158.749 52.9547 157.853 53.392C156.957 53.8187 155.709 54.032 154.109 54.032C152.52 54.032 151.272 53.8187 150.365 53.392C149.469 52.9547 149.021 52.3307 149.021 51.52C149.021 50.72 149.469 50.1067 150.365 49.68C151.272 49.2427 152.52 49.024 154.109 49.024ZM154.109 50.016C153.331 50.016 152.664 50.0747 152.109 50.192C151.555 50.3093 151.128 50.48 150.829 50.704C150.541 50.928 150.397 51.2 150.397 51.52C150.397 51.84 150.541 52.1173 150.829 52.352C151.128 52.576 151.555 52.7467 152.109 52.864C152.664 52.9707 153.331 53.024 154.109 53.024C154.899 53.024 155.571 52.9707 156.125 52.864C156.68 52.7467 157.101 52.576 157.389 52.352C157.688 52.1173 157.837 51.84 157.837 51.52C157.837 51.2 157.688 50.928 157.389 50.704C157.101 50.48 156.68 50.3093 156.125 50.192C155.571 50.0747 154.899 50.016 154.109 50.016ZM147.581 55.008H160.653V56.08H147.581V55.008ZM149.165 57.312H158.973V60.576H150.493V62.32H149.197V59.6H157.677V58.336H149.165V57.312ZM149.197 62.048H159.405V63.088H149.197V62.048ZM176.406 48.768H177.734V56.256H176.406V48.768ZM168.374 56.992H177.734V60.48H169.702V62.464H168.422V59.472H176.422V58.048H168.374V56.992ZM168.422 62.016H178.23V63.088H168.422V62.016ZM169.638 49.184H170.742V50.288C170.742 51.184 170.571 52.0213 170.23 52.8C169.889 53.5787 169.409 54.256 168.79 54.832C168.171 55.3973 167.457 55.8293 166.646 56.128L165.974 55.072C166.518 54.88 167.014 54.624 167.462 54.304C167.91 53.984 168.294 53.616 168.614 53.2C168.945 52.7733 169.195 52.3147 169.366 51.824C169.547 51.3333 169.638 50.8213 169.638 50.288V49.184ZM169.878 49.184H170.982V50.288C170.982 50.7893 171.067 51.2747 171.238 51.744C171.419 52.2133 171.67 52.6453 171.99 53.04C172.321 53.4347 172.71 53.7867 173.158 54.096C173.606 54.3947 174.097 54.6347 174.63 54.816L173.974 55.856C173.366 55.6427 172.811 55.36 172.31 55.008C171.809 54.6453 171.377 54.224 171.014 53.744C170.651 53.2533 170.369 52.72 170.166 52.144C169.974 51.5573 169.878 50.9387 169.878 50.288V49.184ZM184.405 50.016H185.509V52.608C185.509 53.44 185.402 54.2507 185.189 55.04C184.986 55.8187 184.693 56.5493 184.309 57.232C183.936 57.904 183.493 58.5013 182.981 59.024C182.48 59.536 181.93 59.9413 181.333 60.24L180.517 59.136C181.061 58.8907 181.568 58.5387 182.037 58.08C182.506 57.6213 182.917 57.104 183.269 56.528C183.621 55.9413 183.898 55.312 184.101 54.64C184.304 53.968 184.405 53.2907 184.405 52.608V50.016ZM184.629 50.016H185.733V52.608C185.733 53.2693 185.829 53.92 186.021 54.56C186.224 55.2 186.501 55.808 186.853 56.384C187.216 56.9493 187.626 57.4507 188.085 57.888C188.554 58.3147 189.056 58.6507 189.589 58.896L188.789 59.952C188.202 59.6747 187.658 59.2853 187.157 58.784C186.656 58.2827 186.213 57.7067 185.829 57.056C185.456 56.4053 185.162 55.7013 184.949 54.944C184.736 54.1867 184.629 53.408 184.629 52.608V50.016ZM191.109 48.768H192.437V63.264H191.109V48.768ZM205.22 48.768H206.548V57.488H205.22V48.768ZM206.18 52.608H208.676V53.728H206.18V52.608ZM197.46 58.304H206.548V63.056H197.46V58.304ZM205.236 59.376H198.756V61.968H205.236V59.376ZM195.348 50.304H203.892V51.376H195.348V50.304ZM199.62 52.096C200.313 52.096 200.916 52.2027 201.428 52.416C201.95 52.6293 202.356 52.9333 202.644 53.328C202.932 53.712 203.076 54.16 203.076 54.672C203.076 55.1947 202.932 55.648 202.644 56.032C202.356 56.416 201.95 56.7147 201.428 56.928C200.916 57.1413 200.313 57.248 199.62 57.248C198.926 57.248 198.318 57.1413 197.796 56.928C197.284 56.7147 196.878 56.416 196.58 56.032C196.292 55.648 196.148 55.1947 196.148 54.672C196.148 54.16 196.292 53.712 196.58 53.328C196.878 52.9333 197.284 52.6293 197.796 52.416C198.318 52.2027 198.926 52.096 199.62 52.096ZM199.62 53.12C198.958 53.12 198.425 53.2587 198.02 53.536C197.625 53.8133 197.428 54.192 197.428 54.672C197.428 55.152 197.625 55.536 198.02 55.824C198.425 56.1013 198.958 56.24 199.62 56.24C200.27 56.24 200.798 56.1013 201.204 55.824C201.609 55.536 201.812 55.152 201.812 54.672C201.812 54.192 201.609 53.8133 201.204 53.536C200.809 53.2587 200.281 53.12 199.62 53.12ZM198.964 48.656H200.292V50.848H198.964V48.656ZM216.562 49.696C217.576 49.696 218.477 49.8613 219.266 50.192C220.056 50.5227 220.68 50.9867 221.138 51.584C221.597 52.1813 221.826 52.88 221.826 53.68C221.826 54.4907 221.597 55.1947 221.138 55.792C220.68 56.3893 220.056 56.8533 219.266 57.184C218.477 57.5147 217.576 57.68 216.562 57.68C215.57 57.68 214.674 57.5147 213.874 57.184C213.085 56.8533 212.461 56.3893 212.002 55.792C211.544 55.1947 211.314 54.4907 211.314 53.68C211.314 52.88 211.544 52.1813 212.002 51.584C212.461 50.9867 213.085 50.5227 213.874 50.192C214.674 49.8613 215.57 49.696 216.562 49.696ZM216.562 50.768C215.805 50.768 215.128 50.8907 214.53 51.136C213.933 51.3813 213.458 51.7227 213.106 52.16C212.754 52.5867 212.578 53.0933 212.578 53.68C212.578 54.256 212.754 54.7627 213.106 55.2C213.458 55.6373 213.933 55.9787 214.53 56.224C215.128 56.4693 215.805 56.592 216.562 56.592C217.33 56.592 218.013 56.4693 218.61 56.224C219.208 55.9787 219.677 55.6373 220.018 55.2C220.37 54.7627 220.546 54.256 220.546 53.68C220.546 53.0933 220.37 52.5867 220.018 52.16C219.677 51.7227 219.208 51.3813 218.61 51.136C218.013 50.8907 217.33 50.768 216.562 50.768ZM210.034 60.224H223.154V61.328H210.034V60.224ZM224.753 60.352H237.873V61.456H224.753V60.352ZM230.625 57.264H231.937V60.816H230.625V57.264ZM226.353 49.84H236.241V54.224H227.697V57.12H226.385V53.168H234.929V50.928H226.353V49.84ZM226.385 56.56H236.577V57.648H226.385V56.56ZM250.256 48.768H251.6V63.248H250.256V48.768ZM247.76 54H250.896V55.152H247.76V54ZM241.488 50.048H242.48V53.296C242.48 53.872 242.443 54.4747 242.368 55.104C242.293 55.7333 242.165 56.352 241.984 56.96C241.813 57.5573 241.573 58.1173 241.264 58.64C240.965 59.152 240.587 59.5787 240.128 59.92L239.248 58.976C239.696 58.656 240.064 58.272 240.352 57.824C240.64 57.3653 240.864 56.8747 241.024 56.352C241.195 55.8293 241.312 55.3067 241.376 54.784C241.451 54.2613 241.488 53.7653 241.488 53.296V50.048ZM241.776 50.048H242.736V53.296C242.736 53.7333 242.763 54.2133 242.816 54.736C242.88 55.2587 242.987 55.7867 243.136 56.32C243.296 56.8533 243.515 57.3653 243.792 57.856C244.069 58.336 244.427 58.7467 244.864 59.088L244.128 60.08C243.648 59.728 243.253 59.28 242.944 58.736C242.635 58.1813 242.395 57.5893 242.224 56.96C242.053 56.3307 241.936 55.7013 241.872 55.072C241.808 54.432 241.776 53.84 241.776 53.296V50.048ZM245.504 50.048H246.48V53.296C246.48 53.8613 246.448 54.464 246.384 55.104C246.32 55.744 246.203 56.3787 246.032 57.008C245.872 57.6373 245.637 58.2187 245.328 58.752C245.019 59.2853 244.619 59.728 244.128 60.08L243.392 59.088C243.84 58.7467 244.197 58.3413 244.464 57.872C244.741 57.4027 244.955 56.9067 245.104 56.384C245.253 55.8507 245.355 55.3227 245.408 54.8C245.472 54.2667 245.504 53.7653 245.504 53.296V50.048ZM245.792 50.048H246.784V53.296C246.784 53.776 246.816 54.2827 246.88 54.816C246.955 55.3387 247.072 55.8613 247.232 56.384C247.403 56.896 247.632 57.376 247.92 57.824C248.208 58.272 248.576 58.656 249.024 58.976L248.192 59.968C247.723 59.616 247.333 59.184 247.024 58.672C246.715 58.16 246.469 57.6053 246.288 57.008C246.107 56.4 245.979 55.7813 245.904 55.152C245.829 54.512 245.792 53.8933 245.792 53.296V50.048ZM268.745 48.768H270.025V63.248H268.745V48.768ZM266.409 54.592H269.193V55.68H266.409V54.592ZM262.681 50.64H263.945C263.945 51.568 263.854 52.4747 263.673 53.36C263.491 54.2453 263.193 55.0987 262.777 55.92C262.371 56.7307 261.822 57.4933 261.129 58.208C260.435 58.912 259.571 59.5573 258.537 60.144L257.769 59.2C258.985 58.5173 259.95 57.744 260.665 56.88C261.379 56.016 261.891 55.0827 262.201 54.08C262.521 53.0667 262.681 52 262.681 50.88V50.64ZM258.329 50.64H263.113V51.728H258.329V50.64ZM265.545 49.152H266.793V62.528H265.545V49.152ZM283.016 48.784H284.344V59.344H283.016V48.784ZM275.048 61.84H284.792V62.928H275.048V61.84ZM275.048 58.272H276.376V62.208H275.048V58.272ZM276.584 49.792C277.309 49.792 277.954 49.9413 278.52 50.24C279.085 50.5387 279.533 50.96 279.864 51.504C280.194 52.0373 280.36 52.6507 280.36 53.344C280.36 54.0373 280.194 54.656 279.864 55.2C279.533 55.7333 279.085 56.1547 278.52 56.464C277.954 56.7627 277.309 56.912 276.584 56.912C275.869 56.912 275.224 56.7627 274.648 56.464C274.082 56.1547 273.634 55.7333 273.304 55.2C272.973 54.656 272.808 54.0373 272.808 53.344C272.808 52.6507 272.973 52.0373 273.304 51.504C273.634 50.96 274.082 50.5387 274.648 50.24C275.224 49.9413 275.869 49.792 276.584 49.792ZM276.584 50.944C276.114 50.944 275.693 51.0453 275.32 51.248C274.946 51.4507 274.648 51.7333 274.424 52.096C274.21 52.4587 274.104 52.8747 274.104 53.344C274.104 53.824 274.21 54.2453 274.424 54.608C274.648 54.96 274.946 55.2373 275.32 55.44C275.693 55.6427 276.114 55.744 276.584 55.744C277.053 55.744 277.474 55.6427 277.848 55.44C278.232 55.2373 278.53 54.96 278.744 54.608C278.957 54.2453 279.064 53.824 279.064 53.344C279.064 52.8747 278.957 52.4587 278.744 52.096C278.53 51.7333 278.232 51.4507 277.848 51.248C277.474 51.0453 277.053 50.944 276.584 50.944ZM287.606 65.04L287.254 64.176C287.756 63.952 288.15 63.648 288.438 63.264C288.726 62.88 288.865 62.4427 288.854 61.952L288.694 60.64L289.414 61.712C289.308 61.8293 289.19 61.9147 289.062 61.968C288.945 62.0107 288.817 62.032 288.678 62.032C288.39 62.032 288.14 61.9413 287.926 61.76C287.713 61.5787 287.606 61.328 287.606 61.008C287.606 60.688 287.713 60.4373 287.926 60.256C288.15 60.0747 288.412 59.984 288.71 59.984C289.094 59.984 289.393 60.1387 289.606 60.448C289.83 60.7467 289.942 61.1627 289.942 61.696C289.942 62.464 289.729 63.136 289.302 63.712C288.886 64.288 288.321 64.7307 287.606 65.04ZM4.624 74.848H5.712V77.184C5.712 77.952 5.60533 78.7093 5.392 79.456C5.17867 80.192 4.88 80.8907 4.496 81.552C4.12267 82.2027 3.68533 82.7787 3.184 83.28C2.68267 83.7813 2.144 84.176 1.568 84.464L0.8 83.408C1.32267 83.152 1.81333 82.8053 2.272 82.368C2.74133 81.9307 3.152 81.4293 3.504 80.864C3.856 80.2987 4.128 79.7013 4.32 79.072C4.52267 78.4427 4.624 77.8133 4.624 77.184V74.848ZM4.896 74.848H5.968V77.184C5.968 77.792 6.064 78.4 6.256 79.008C6.45867 79.6053 6.736 80.1707 7.088 80.704C7.45067 81.2267 7.86133 81.6907 8.32 82.096C8.78933 82.5013 9.29067 82.8213 9.824 83.056L9.088 84.112C8.50133 83.8347 7.952 83.4613 7.44 82.992C6.928 82.5227 6.48 81.984 6.096 81.376C5.72267 80.7573 5.42933 80.096 5.216 79.392C5.00267 78.6773 4.896 77.9413 4.896 77.184V74.848ZM1.264 74.256H9.344V75.36H1.264V74.256ZM11.312 72.768H12.64V87.248H11.312V72.768ZM22.1108 74.896H26.5108V75.984H22.1108V74.896ZM22.1108 78.144H26.5108V79.232H22.1108V78.144ZM17.7588 82.096H27.4228V87.248H26.0948V83.168H17.7588V82.096ZM26.0948 72.768H27.4228V81.296H26.0948V72.768ZM19.4708 73.584C20.1748 73.584 20.8041 73.7333 21.3588 74.032C21.9241 74.32 22.3668 74.7307 22.6868 75.264C23.0174 75.7867 23.1828 76.384 23.1828 77.056C23.1828 77.7387 23.0174 78.3413 22.6868 78.864C22.3668 79.3867 21.9241 79.7973 21.3588 80.096C20.8041 80.3947 20.1748 80.544 19.4708 80.544C18.7561 80.544 18.1161 80.3947 17.5508 80.096C16.9961 79.7973 16.5534 79.3867 16.2228 78.864C15.9028 78.3413 15.7428 77.7387 15.7428 77.056C15.7428 76.384 15.9028 75.7867 16.2228 75.264C16.5534 74.7307 16.9961 74.32 17.5508 74.032C18.1161 73.7333 18.7561 73.584 19.4708 73.584ZM19.4708 74.72C19.0014 74.72 18.5801 74.8213 18.2068 75.024C17.8334 75.2267 17.5401 75.504 17.3268 75.856C17.1134 76.208 17.0068 76.608 17.0068 77.056C17.0068 77.5147 17.1134 77.9253 17.3268 78.288C17.5401 78.64 17.8334 78.9173 18.2068 79.12C18.5801 79.312 19.0014 79.408 19.4708 79.408C19.9294 79.408 20.3454 79.312 20.7188 79.12C21.0921 78.9173 21.3854 78.64 21.5988 78.288C21.8121 77.9253 21.9188 77.5147 21.9188 77.056C21.9188 76.608 21.8121 76.208 21.5988 75.856C21.3854 75.504 21.0921 75.2267 20.7188 75.024C20.3454 74.8213 19.9294 74.72 19.4708 74.72ZM30.6375 89.04L30.2855 88.176C30.7868 87.952 31.1815 87.648 31.4695 87.264C31.7575 86.88 31.8962 86.4427 31.8855 85.952L31.7255 84.64L32.4455 85.712C32.3388 85.8293 32.2215 85.9147 32.0935 85.968C31.9762 86.0107 31.8482 86.032 31.7095 86.032C31.4215 86.032 31.1708 85.9413 30.9575 85.76C30.7442 85.5787 30.6375 85.328 30.6375 85.008C30.6375 84.688 30.7442 84.4373 30.9575 84.256C31.1815 84.0747 31.4428 83.984 31.7415 83.984C32.1255 83.984 32.4242 84.1387 32.6375 84.448C32.8615 84.7467 32.9735 85.1627 32.9735 85.696C32.9735 86.464 32.7602 87.136 32.3335 87.712C31.9175 88.288 31.3522 88.7307 30.6375 89.04ZM43.8848 76.784H47.0848V77.872H43.8848V76.784ZM43.7728 80.416H47.0528V81.504H43.7728V80.416ZM49.2928 72.768H50.5728V87.248H49.2928V72.768ZM46.3808 73.152H47.6448V86.512H46.3808V73.152ZM43.1648 74.608H44.4448C44.4448 75.8667 44.2634 77.0773 43.9008 78.24C43.5381 79.392 42.9568 80.4693 42.1568 81.472C41.3674 82.464 40.3274 83.3493 39.0368 84.128L38.2528 83.168C39.3834 82.4853 40.3114 81.7173 41.0368 80.864C41.7621 80 42.2954 79.0667 42.6368 78.064C42.9888 77.0507 43.1648 75.9787 43.1648 74.848V74.608ZM38.8928 74.608H43.6768V75.696H38.8928V74.608ZM52.9875 80.112H66.0595V81.2H52.9875V80.112ZM58.8595 72.736H60.1715V74.752H58.8595V72.736ZM58.7955 74.88H59.9635V75.104C59.9635 75.7013 59.8088 76.2347 59.4995 76.704C59.2008 77.1733 58.7795 77.5787 58.2355 77.92C57.7022 78.2613 57.0835 78.5387 56.3795 78.752C55.6862 78.9547 54.9448 79.0987 54.1555 79.184L53.7395 78.16C54.4435 78.096 55.0995 77.9787 55.7075 77.808C56.3155 77.6373 56.8488 77.4187 57.3075 77.152C57.7768 76.8853 58.1395 76.5813 58.3955 76.24C58.6622 75.8987 58.7955 75.52 58.7955 75.104V74.88ZM59.0835 74.88H60.2355V75.104C60.2355 75.52 60.3635 75.8987 60.6195 76.24C60.8862 76.5813 61.2488 76.8853 61.7075 77.152C62.1768 77.4187 62.7155 77.6373 63.3235 77.808C63.9315 77.9787 64.5875 78.096 65.2915 78.16L64.8915 79.184C64.1022 79.0987 63.3555 78.9547 62.6515 78.752C61.9582 78.5387 61.3395 78.2613 60.7955 77.92C60.2622 77.5787 59.8408 77.1733 59.5315 76.704C59.2328 76.2347 59.0835 75.7013 59.0835 75.104V74.88ZM54.3315 74.176H64.7315V75.248H54.3315V74.176ZM59.5155 82.416C61.0728 82.416 62.2835 82.624 63.1475 83.04C64.0222 83.4453 64.4595 84.0373 64.4595 84.816C64.4595 85.5947 64.0222 86.1867 63.1475 86.592C62.2835 87.008 61.0728 87.216 59.5155 87.216C57.9582 87.216 56.7422 87.008 55.8675 86.592C54.9928 86.1867 54.5555 85.5947 54.5555 84.816C54.5555 84.0373 54.9928 83.4453 55.8675 83.04C56.7422 82.624 57.9582 82.416 59.5155 82.416ZM59.5155 83.424C58.3635 83.424 57.4728 83.5467 56.8435 83.792C56.2142 84.0267 55.8995 84.368 55.8995 84.816C55.8995 85.264 56.2142 85.6107 56.8435 85.856C57.4728 86.0907 58.3635 86.208 59.5155 86.208C60.6568 86.208 61.5422 86.0907 62.1715 85.856C62.8115 85.6107 63.1315 85.264 63.1315 84.816C63.1315 84.368 62.8115 84.0267 62.1715 83.792C61.5422 83.5467 60.6568 83.424 59.5155 83.424ZM81.1724 72.768H82.5164V83.344H81.1724V72.768ZM82.1004 77.152H84.6444V78.272H82.1004V77.152ZM77.2204 73.888H78.6284C78.6284 75.136 78.351 76.2667 77.7964 77.28C77.2524 78.2933 76.4737 79.1733 75.4604 79.92C74.447 80.6667 73.247 81.2587 71.8604 81.696L71.3004 80.624C72.5164 80.24 73.567 79.744 74.4524 79.136C75.3377 78.528 76.0204 77.8293 76.5004 77.04C76.9804 76.2507 77.2204 75.3973 77.2204 74.48V73.888ZM71.8924 73.888H77.9084V74.992H71.8924V73.888ZM73.4924 85.84H83.1404V86.928H73.4924V85.84ZM73.4924 82.272H74.8204V86.272H73.4924V82.272ZM90.9413 74.224H100.237V75.312H90.9413V74.224ZM89.5813 84.112H102.653V85.216H89.5813V84.112ZM92.7812 79.344H94.1093V84.512H92.7812V79.344ZM99.8053 74.224H101.133V75.808C101.133 76.416 101.123 77.0453 101.101 77.696C101.091 78.3467 101.048 79.0453 100.973 79.792C100.909 80.528 100.792 81.344 100.621 82.24L99.3093 82.096C99.5546 80.8053 99.6986 79.664 99.7413 78.672C99.7839 77.6693 99.8053 76.7147 99.8053 75.808V74.224ZM96.3653 79.344H97.6773V84.512H96.3653V79.344ZM107.74 80.256H109.068V83.12H107.74V80.256ZM112.604 80.256H113.916V83.104H112.604V80.256ZM104.3 79.744H117.372V80.816H104.3V79.744ZM105.756 82.624H115.756V87.248H114.428V83.696H105.756V82.624ZM110.828 73.104C111.873 73.104 112.775 73.216 113.532 73.44C114.289 73.664 114.876 73.984 115.292 74.4C115.708 74.8053 115.916 75.296 115.916 75.872C115.916 76.4587 115.708 76.96 115.292 77.376C114.876 77.7813 114.289 78.096 113.532 78.32C112.775 78.544 111.873 78.656 110.828 78.656C109.793 78.656 108.892 78.544 108.124 78.32C107.367 78.096 106.78 77.7813 106.364 77.376C105.948 76.96 105.74 76.4587 105.74 75.872C105.74 75.296 105.948 74.8053 106.364 74.4C106.78 73.984 107.367 73.664 108.124 73.44C108.892 73.216 109.793 73.104 110.828 73.104ZM110.828 74.16C110.071 74.16 109.409 74.2293 108.844 74.368C108.289 74.496 107.857 74.688 107.548 74.944C107.249 75.2 107.1 75.5093 107.1 75.872C107.1 76.2347 107.249 76.544 107.548 76.8C107.857 77.056 108.289 77.2533 108.844 77.392C109.409 77.5307 110.071 77.6 110.828 77.6C111.596 77.6 112.257 77.5307 112.812 77.392C113.377 77.2533 113.809 77.056 114.108 76.8C114.407 76.544 114.556 76.2347 114.556 75.872C114.556 75.5093 114.407 75.2 114.108 74.944C113.809 74.688 113.377 74.496 112.812 74.368C112.257 74.2293 111.596 74.16 110.828 74.16ZM125.195 73.744H126.587C126.587 74.9707 126.309 76.0747 125.755 77.056C125.2 78.0373 124.411 78.88 123.387 79.584C122.373 80.288 121.163 80.832 119.755 81.216L119.243 80.16C120.48 79.8187 121.541 79.3653 122.427 78.8C123.323 78.224 124.005 77.5627 124.475 76.816C124.955 76.0587 125.195 75.232 125.195 74.336V73.744ZM119.979 73.744H125.995V74.832H119.979V73.744ZM121.259 82.048H130.923V87.216H129.595V83.12H121.259V82.048ZM129.595 72.784H130.923V81.408H129.595V72.784ZM125.995 75.36H129.867V76.432H125.995V75.36ZM125.835 78.416H129.755V79.504H125.835V78.416ZM137.258 76.208H138.314V77.456C138.314 78.2133 138.212 78.9547 138.01 79.68C137.818 80.3947 137.54 81.0613 137.178 81.68C136.826 82.2987 136.41 82.848 135.93 83.328C135.45 83.7973 134.922 84.1707 134.346 84.448L133.594 83.424C134.127 83.168 134.618 82.832 135.066 82.416C135.514 82 135.898 81.5253 136.218 80.992C136.548 80.4587 136.804 79.8933 136.986 79.296C137.167 78.688 137.258 78.0747 137.258 77.456V76.208ZM137.514 76.208H138.554V77.456C138.554 78.032 138.639 78.608 138.81 79.184C138.991 79.7493 139.236 80.288 139.546 80.8C139.855 81.3013 140.223 81.76 140.65 82.176C141.087 82.5813 141.567 82.912 142.09 83.168L141.338 84.176C140.772 83.8987 140.255 83.5307 139.786 83.072C139.327 82.6027 138.927 82.0747 138.586 81.488C138.244 80.8907 137.978 80.2507 137.786 79.568C137.604 78.8747 137.514 78.1707 137.514 77.456V76.208ZM133.993 75.28H141.77V76.352H133.993V75.28ZM137.242 73.04H138.57V75.872H137.242V73.04ZM143.53 72.768H144.858V87.248H143.53V72.768ZM144.554 78.704H147.226V79.824H144.554V78.704ZM148.44 79.488H161.56V80.512H148.44V79.488ZM150.008 81.664H159.928V84.752H151.352V86.448H150.04V83.84H158.616V82.624H150.008V81.664ZM150.04 86.096H160.392V87.056H150.04V86.096ZM150.104 73.2H159.88V76.208H151.448V77.776H150.136V75.312H158.568V74.144H150.104V73.2ZM150.136 77.456H160.136V78.416H150.136V77.456ZM166.721 75.248H173.905V76.336H166.721V75.248ZM170.321 77.296C170.929 77.296 171.462 77.4347 171.921 77.712C172.39 77.9893 172.758 78.3787 173.025 78.88C173.292 79.3707 173.425 79.9413 173.425 80.592C173.425 81.2427 173.292 81.8187 173.025 82.32C172.758 82.8107 172.39 83.2 171.921 83.488C171.462 83.7653 170.929 83.904 170.321 83.904C169.724 83.904 169.19 83.7653 168.721 83.488C168.252 83.2 167.884 82.8107 167.617 82.32C167.35 81.8187 167.217 81.2427 167.217 80.592C167.217 79.9413 167.35 79.3707 167.617 78.88C167.884 78.3893 168.252 78.0053 168.721 77.728C169.19 77.44 169.724 77.296 170.321 77.296ZM170.321 78.416C169.958 78.416 169.628 78.512 169.329 78.704C169.041 78.8853 168.812 79.1413 168.641 79.472C168.481 79.792 168.401 80.1653 168.401 80.592C168.401 81.0187 168.481 81.3973 168.641 81.728C168.812 82.0587 169.041 82.3147 169.329 82.496C169.628 82.6773 169.958 82.768 170.321 82.768C170.694 82.768 171.025 82.6773 171.313 82.496C171.601 82.3147 171.825 82.0587 171.985 81.728C172.156 81.3973 172.241 81.0187 172.241 80.592C172.241 80.1653 172.156 79.792 171.985 79.472C171.825 79.1413 171.601 78.8853 171.313 78.704C171.025 78.512 170.694 78.416 170.321 78.416ZM177.729 72.768H178.993V87.248H177.729V72.768ZM175.409 78.864H178.145V79.952H175.409V78.864ZM174.625 73.104H175.873V86.544H174.625V73.104ZM169.665 73.2H170.977V75.904H169.665V73.2ZM181.472 84.256H194.592V85.376H181.472V84.256ZM187.312 80.752H188.624V84.624H187.312V80.752ZM187.264 73.728H188.432V74.848C188.432 75.4773 188.32 76.0693 188.096 76.624C187.883 77.168 187.584 77.68 187.2 78.16C186.816 78.6293 186.373 79.0507 185.872 79.424C185.381 79.7973 184.853 80.112 184.288 80.368C183.723 80.624 183.147 80.8107 182.56 80.928L181.984 79.824C182.496 79.7387 183.003 79.5893 183.504 79.376C184.016 79.152 184.496 78.8853 184.944 78.576C185.392 78.256 185.792 77.904 186.144 77.52C186.496 77.1253 186.768 76.704 186.96 76.256C187.163 75.7973 187.264 75.328 187.264 74.848V73.728ZM187.504 73.728H188.656V74.848C188.656 75.3387 188.757 75.808 188.96 76.256C189.163 76.704 189.44 77.1253 189.792 77.52C190.144 77.904 190.544 78.256 190.992 78.576C191.451 78.896 191.931 79.1627 192.432 79.376C192.944 79.5893 193.456 79.7387 193.968 79.824L193.392 80.928C192.805 80.8107 192.229 80.624 191.664 80.368C191.099 80.112 190.565 79.7973 190.064 79.424C189.563 79.0507 189.12 78.6293 188.736 78.16C188.352 77.68 188.048 77.1627 187.824 76.608C187.611 76.0533 187.504 75.4667 187.504 74.848V73.728ZM205.999 72.768H207.311V87.248H205.999V72.768ZM207.007 78.72H209.679V79.84H207.007V78.72ZM196.111 75.088H204.639V76.176H196.111V75.088ZM200.447 77.36C201.129 77.36 201.732 77.504 202.255 77.792C202.788 78.08 203.204 78.4747 203.503 78.976C203.812 79.4667 203.967 80.0373 203.967 80.688C203.967 81.3387 203.812 81.9147 203.503 82.416C203.204 82.9173 202.788 83.312 202.255 83.6C201.732 83.8773 201.129 84.016 200.447 84.016C199.764 84.016 199.156 83.8773 198.623 83.6C198.1 83.312 197.684 82.9173 197.375 82.416C197.065 81.9147 196.911 81.3387 196.911 80.688C196.911 80.0373 197.065 79.4667 197.375 78.976C197.684 78.4747 198.1 78.08 198.623 77.792C199.156 77.504 199.764 77.36 200.447 77.36ZM200.447 78.464C200.009 78.464 199.62 78.56 199.279 78.752C198.937 78.944 198.665 79.2053 198.463 79.536C198.271 79.8667 198.175 80.2507 198.175 80.688C198.175 81.1253 198.271 81.5147 198.463 81.856C198.665 82.1867 198.937 82.448 199.279 82.64C199.62 82.8213 200.009 82.912 200.447 82.912C200.873 82.912 201.257 82.8213 201.599 82.64C201.94 82.448 202.207 82.1867 202.399 81.856C202.601 81.5147 202.703 81.1253 202.703 80.688C202.703 80.2507 202.601 79.8667 202.399 79.536C202.207 79.2053 201.94 78.944 201.599 78.752C201.257 78.56 200.873 78.464 200.447 78.464ZM199.759 72.944H201.087V75.568H199.759V72.944ZM212.301 74.224H221.613V75.312H212.301V74.224ZM210.909 84.112H223.981V85.216H210.909V84.112ZM215.997 78.944H217.309V84.672H215.997V78.944ZM221.101 74.224H222.429V75.648C222.429 76.2453 222.419 76.8747 222.397 77.536C222.387 78.1973 222.344 78.9227 222.269 79.712C222.205 80.5013 222.083 81.3813 221.901 82.352L220.557 82.192C220.835 80.8053 220.995 79.5893 221.037 78.544C221.08 77.488 221.101 76.5227 221.101 75.648V74.224ZM232.742 74.016H233.83V76.608C233.83 77.408 233.729 78.192 233.526 78.96C233.334 79.728 233.057 80.448 232.694 81.12C232.332 81.792 231.905 82.3893 231.414 82.912C230.924 83.4347 230.39 83.8507 229.814 84.16L228.998 83.088C229.532 82.8213 230.022 82.464 230.47 82.016C230.929 81.5573 231.329 81.0347 231.67 80.448C232.012 79.8613 232.273 79.2427 232.454 78.592C232.646 77.9307 232.742 77.2693 232.742 76.608V74.016ZM232.982 74.016H234.054V76.608C234.054 77.248 234.145 77.8827 234.326 78.512C234.518 79.1413 234.785 79.7333 235.126 80.288C235.468 80.8427 235.857 81.3387 236.294 81.776C236.742 82.2133 237.222 82.56 237.734 82.816L236.918 83.872C236.353 83.584 235.83 83.1893 235.35 82.688C234.881 82.1867 234.465 81.616 234.102 80.976C233.75 80.3253 233.473 79.632 233.27 78.896C233.078 78.1493 232.982 77.3867 232.982 76.608V74.016ZM238.998 72.768H240.326V87.248H238.998V72.768ZM240.022 78.624H242.694V79.76H240.022V78.624ZM248.053 81.456H249.381V83.84H248.053V81.456ZM254.389 72.768H255.717V87.248H254.389V72.768ZM244.197 84.496L244.005 83.376C244.922 83.3653 245.914 83.3547 246.981 83.344C248.048 83.3333 249.136 83.296 250.245 83.232C251.354 83.168 252.426 83.0667 253.461 82.928L253.557 83.92C252.49 84.0907 251.408 84.2187 250.309 84.304C249.21 84.3787 248.138 84.432 247.093 84.464C246.048 84.4853 245.082 84.496 244.197 84.496ZM244.309 74.544H253.093V75.616H244.309V74.544ZM248.693 76.432C249.386 76.432 249.994 76.544 250.517 76.768C251.04 76.992 251.445 77.3067 251.733 77.712C252.032 78.1067 252.181 78.576 252.181 79.12C252.181 79.6533 252.032 80.1227 251.733 80.528C251.445 80.9333 251.04 81.248 250.517 81.472C249.994 81.6853 249.386 81.792 248.693 81.792C248.01 81.792 247.408 81.6853 246.885 81.472C246.362 81.248 245.957 80.9333 245.669 80.528C245.381 80.1227 245.237 79.6533 245.237 79.12C245.237 78.576 245.381 78.1067 245.669 77.712C245.957 77.3067 246.362 76.992 246.885 76.768C247.408 76.544 248.01 76.432 248.693 76.432ZM248.693 77.472C248.053 77.472 247.525 77.6213 247.109 77.92C246.693 78.2187 246.485 78.6187 246.485 79.12C246.485 79.6107 246.693 80.0053 247.109 80.304C247.525 80.6027 248.053 80.752 248.693 80.752C249.354 80.752 249.888 80.6027 250.293 80.304C250.709 80.0053 250.917 79.6107 250.917 79.12C250.917 78.6187 250.709 78.2187 250.293 77.92C249.888 77.6213 249.354 77.472 248.693 77.472ZM248.053 72.784H249.381V75.12H248.053V72.784ZM258.628 80.432H271.716V81.504H258.628V80.432ZM264.5 78.56H265.828V80.88H264.5V78.56ZM260.356 77.984H270.18V79.024H260.356V77.984ZM260.356 73.184H270.1V74.24H261.684V78.544H260.356V73.184ZM261.284 75.568H269.716V76.576H261.284V75.568ZM265.172 82.576C266.74 82.576 267.956 82.7733 268.82 83.168C269.684 83.5627 270.116 84.1387 270.116 84.896C270.116 85.6533 269.684 86.2293 268.82 86.624C267.956 87.0187 266.74 87.216 265.172 87.216C263.593 87.216 262.372 87.0187 261.508 86.624C260.644 86.2293 260.212 85.6533 260.212 84.896C260.212 84.1387 260.644 83.5627 261.508 83.168C262.372 82.7733 263.593 82.576 265.172 82.576ZM265.156 83.584C264.004 83.584 263.113 83.696 262.484 83.92C261.854 84.144 261.54 84.4693 261.54 84.896C261.54 85.3333 261.854 85.664 262.484 85.888C263.113 86.1013 264.004 86.208 265.156 86.208C266.329 86.208 267.225 86.1013 267.844 85.888C268.473 85.664 268.788 85.3333 268.788 84.896C268.788 84.4693 268.473 84.144 267.844 83.92C267.225 83.696 266.329 83.584 265.156 83.584ZM283.267 72.768H284.595V81.184H283.267V72.768ZM284.019 76.464H286.723V77.584H284.019V76.464ZM275.491 81.824H276.803V83.344H283.267V81.824H284.595V87.056H275.491V81.824ZM276.803 84.384V85.984H283.267V84.384H276.803ZM273.395 74.256H281.939V75.328H273.395V74.256ZM277.667 76C278.36 76 278.963 76.1067 279.475 76.32C279.997 76.5227 280.403 76.816 280.691 77.2C280.979 77.5733 281.123 78.016 281.123 78.528C281.123 79.04 280.979 79.488 280.691 79.872C280.403 80.256 279.997 80.5547 279.475 80.768C278.963 80.9707 278.36 81.072 277.667 81.072C276.973 81.072 276.365 80.9707 275.843 80.768C275.331 80.5547 274.925 80.256 274.627 79.872C274.339 79.488 274.195 79.04 274.195 78.528C274.195 78.016 274.339 77.5733 274.627 77.2C274.925 76.816 275.331 76.5227 275.843 76.32C276.365 76.1067 276.973 76 277.667 76ZM277.667 77.008C277.005 77.008 276.472 77.1467 276.067 77.424C275.672 77.7013 275.475 78.0693 275.475 78.528C275.475 78.9973 275.672 79.3707 276.067 79.648C276.472 79.9253 277.005 80.064 277.667 80.064C278.317 80.064 278.845 79.9253 279.251 79.648C279.656 79.3707 279.859 78.9973 279.859 78.528C279.859 78.0693 279.656 77.7013 279.251 77.424C278.856 77.1467 278.328 77.008 277.667 77.008ZM277.011 72.64H278.339V74.832H277.011V72.64ZM1.552 97.712H8.304V103.616H1.552V97.712ZM7.008 98.768H2.848V102.56H7.008V98.768ZM11.328 96.768H12.656V105.072H11.328V96.768ZM7.392 106.8H8.528V107.072C8.528 107.595 8.37867 108.085 8.08 108.544C7.792 108.992 7.392 109.403 6.88 109.776C6.368 110.139 5.78133 110.437 5.12 110.672C4.45867 110.917 3.76533 111.093 3.04 111.2L2.576 110.176C3.088 110.112 3.57867 110.011 4.048 109.872C4.51733 109.733 4.95467 109.568 5.36 109.376C5.76533 109.173 6.11733 108.949 6.416 108.704C6.72533 108.459 6.96533 108.197 7.136 107.92C7.30667 107.643 7.392 107.36 7.392 107.072V106.8ZM7.6 106.8H8.752V107.072C8.752 107.413 8.88 107.755 9.136 108.096C9.392 108.437 9.73867 108.752 10.176 109.04C10.624 109.317 11.1307 109.557 11.696 109.76C12.272 109.963 12.8747 110.101 13.504 110.176L13.04 111.2C12.304 111.093 11.6107 110.917 10.96 110.672C10.3093 110.427 9.728 110.117 9.216 109.744C8.71467 109.371 8.32 108.96 8.032 108.512C7.744 108.053 7.6 107.573 7.6 107.072V106.8ZM3.152 106.064H12.992V107.088H3.152V106.064ZM7.408 104.656H8.752V106.528H7.408V104.656ZM20.7609 97.456H30.0729V98.544H20.7609V97.456ZM19.0969 102.624H32.2169V103.712H19.0969V102.624ZM24.9689 103.376H26.2969V106.768H24.9689V103.376ZM29.2089 97.456H30.5209V98.512C30.5209 99.1093 30.4995 99.7867 30.4569 100.544C30.4142 101.291 30.2755 102.16 30.0409 103.152L28.7449 103.008C28.9795 102.027 29.1129 101.179 29.1449 100.464C29.1875 99.7493 29.2089 99.0987 29.2089 98.512V97.456ZM20.4569 106.352H30.6009V111.248H29.2729V107.424H20.4569V106.352ZM43.6076 96.768H44.9356V111.232H43.6076V96.768ZM44.5836 102.64H47.2396V103.744H44.5836V102.64ZM39.9116 98.32H41.2076C41.2076 99.696 40.9836 101.013 40.5356 102.272C40.0876 103.52 39.3836 104.677 38.4236 105.744C37.4636 106.8 36.1996 107.717 34.6316 108.496L33.8956 107.472C35.2396 106.8 36.3543 106.016 37.2396 105.12C38.1356 104.213 38.8023 103.211 39.2396 102.112C39.6876 101.003 39.9116 99.808 39.9116 98.528V98.32ZM34.5676 98.32H40.5836V99.424H34.5676V98.32ZM49.1264 97.376H50.4384V99.44H54.5184V97.376H55.8304V103.68H49.1264V97.376ZM50.4384 100.48V102.608H54.5184V100.48H50.4384ZM58.4384 96.768H59.7664V104.24H58.4384V96.768ZM59.1744 99.888H61.8944V100.976H59.1744V99.888ZM50.5664 104.928H59.7664V108.448H51.9104V110.608H50.6144V107.456H58.4544V105.984H50.5664V104.928ZM50.6144 110.016H60.2784V111.088H50.6144V110.016ZM70.9171 100.768H74.5811V101.856H70.9171V100.768ZM73.8291 96.784H75.1571V107.392H73.8291V96.784ZM65.9251 109.84H75.5571V110.928H65.9251V109.84ZM65.9251 106.448H67.2371V110.384H65.9251V106.448ZM66.9331 98.576H68.0211V99.744C68.0211 100.619 67.8505 101.445 67.5091 102.224C67.1785 102.992 66.7091 103.664 66.1011 104.24C65.4931 104.805 64.7891 105.243 63.9891 105.552L63.3011 104.48C63.8345 104.288 64.3198 104.032 64.7571 103.712C65.2051 103.392 65.5945 103.024 65.9251 102.608C66.2558 102.192 66.5065 101.739 66.6771 101.248C66.8478 100.757 66.9331 100.256 66.9331 99.744V98.576ZM67.1891 98.576H68.2771V99.744C68.2771 100.363 68.4211 100.965 68.7091 101.552C68.9971 102.139 69.4078 102.661 69.9411 103.12C70.4745 103.568 71.0878 103.915 71.7811 104.16L71.1091 105.216C70.3198 104.928 69.6318 104.512 69.0451 103.968C68.4585 103.413 67.9998 102.773 67.6691 102.048C67.3491 101.323 67.1891 100.555 67.1891 99.744V98.576ZM63.7171 97.952H71.4451V99.04H63.7171V97.952ZM83.8439 102.4H86.5639V103.488H83.8439V102.4ZM88.9959 96.768H90.2759V111.248H88.9959V96.768ZM86.1159 97.072H87.3799V110.512H86.1159V97.072ZM81.2199 97.984C81.8492 97.984 82.3932 98.1867 82.8519 98.592C83.3212 98.9973 83.6839 99.5787 83.9399 100.336C84.1959 101.093 84.3239 101.984 84.3239 103.008C84.3239 104.043 84.1959 104.939 83.9399 105.696C83.6839 106.453 83.3212 107.04 82.8519 107.456C82.3932 107.861 81.8492 108.064 81.2199 108.064C80.6119 108.064 80.0732 107.861 79.6039 107.456C79.1452 107.04 78.7879 106.453 78.5319 105.696C78.2759 104.939 78.1479 104.043 78.1479 103.008C78.1479 101.984 78.2759 101.093 78.5319 100.336C78.7879 99.5787 79.1452 98.9973 79.6039 98.592C80.0732 98.1867 80.6119 97.984 81.2199 97.984ZM81.2199 99.216C80.8465 99.216 80.5212 99.3707 80.2439 99.68C79.9665 99.9893 79.7532 100.427 79.6039 100.992C79.4545 101.557 79.3799 102.229 79.3799 103.008C79.3799 103.787 79.4545 104.464 79.6039 105.04C79.7532 105.605 79.9665 106.043 80.2439 106.352C80.5212 106.661 80.8465 106.816 81.2199 106.816C81.6039 106.816 81.9345 106.661 82.2119 106.352C82.4999 106.043 82.7185 105.605 82.8679 105.04C83.0172 104.464 83.0919 103.787 83.0919 103.008C83.0919 102.229 83.0172 101.557 82.8679 100.992C82.7185 100.427 82.4999 99.9893 82.2119 99.68C81.9345 99.3707 81.6039 99.216 81.2199 99.216ZM106.813 96.768H108.141V111.248H106.813V96.768ZM102.573 98.336H103.885C103.885 99.3813 103.757 100.389 103.501 101.36C103.255 102.331 102.866 103.253 102.333 104.128C101.799 104.992 101.106 105.797 100.253 106.544C99.3994 107.291 98.3648 107.957 97.1488 108.544L96.4448 107.472C97.8421 106.8 98.9941 106.016 99.9008 105.12C100.807 104.224 101.479 103.227 101.917 102.128C102.354 101.019 102.573 99.824 102.573 98.544V98.336ZM97.1168 98.336H103.133V99.408H97.1168V98.336ZM117.5 100H121.884V101.088H117.5V100ZM117.5 104.576H121.884V105.664H117.5V104.576ZM114.844 97.888C115.548 97.888 116.172 98.096 116.716 98.512C117.26 98.9173 117.681 99.4987 117.98 100.256C118.289 101.013 118.444 101.904 118.444 102.928C118.444 103.952 118.289 104.843 117.98 105.6C117.681 106.357 117.26 106.944 116.716 107.36C116.172 107.776 115.548 107.984 114.844 107.984C114.15 107.984 113.526 107.776 112.972 107.36C112.428 106.944 112.001 106.357 111.692 105.6C111.393 104.843 111.243 103.952 111.243 102.928C111.243 101.904 111.393 101.013 111.692 100.256C112.001 99.4987 112.428 98.9173 112.972 98.512C113.526 98.096 114.15 97.888 114.844 97.888ZM114.844 99.072C114.385 99.072 113.98 99.232 113.628 99.552C113.276 99.8613 112.998 100.309 112.796 100.896C112.604 101.472 112.508 102.149 112.508 102.928C112.508 103.707 112.604 104.389 112.796 104.976C112.998 105.552 113.276 106 113.628 106.32C113.98 106.64 114.385 106.8 114.844 106.8C115.313 106.8 115.724 106.64 116.076 106.32C116.428 106 116.7 105.552 116.892 104.976C117.094 104.389 117.196 103.707 117.196 102.928C117.196 102.149 117.094 101.472 116.892 100.896C116.7 100.309 116.428 99.8613 116.076 99.552C115.724 99.232 115.313 99.072 114.844 99.072ZM121.58 96.768H122.892V111.264H121.58V96.768ZM135.514 96.768H136.826V111.248H135.514V96.768ZM136.522 102.72H139.194V103.84H136.522V102.72ZM125.626 99.088H134.154V100.176H125.626V99.088ZM129.962 101.36C130.645 101.36 131.248 101.504 131.77 101.792C132.304 102.08 132.72 102.475 133.018 102.976C133.328 103.467 133.482 104.037 133.482 104.688C133.482 105.339 133.328 105.915 133.018 106.416C132.72 106.917 132.304 107.312 131.77 107.6C131.248 107.877 130.645 108.016 129.962 108.016C129.28 108.016 128.672 107.877 128.138 107.6C127.616 107.312 127.2 106.917 126.89 106.416C126.581 105.915 126.426 105.339 126.426 104.688C126.426 104.037 126.581 103.467 126.89 102.976C127.2 102.475 127.616 102.08 128.138 101.792C128.672 101.504 129.28 101.36 129.962 101.36ZM129.962 102.464C129.525 102.464 129.136 102.56 128.794 102.752C128.453 102.944 128.181 103.205 127.978 103.536C127.786 103.867 127.69 104.251 127.69 104.688C127.69 105.125 127.786 105.515 127.978 105.856C128.181 106.187 128.453 106.448 128.794 106.64C129.136 106.821 129.525 106.912 129.962 106.912C130.389 106.912 130.773 106.821 131.114 106.64C131.456 106.448 131.722 106.187 131.914 105.856C132.117 105.515 132.218 105.125 132.218 104.688C132.218 104.251 132.117 103.867 131.914 103.536C131.722 103.205 131.456 102.944 131.114 102.752C130.773 102.56 130.389 102.464 129.962 102.464ZM129.274 96.944H130.602V99.568H129.274V96.944ZM150.969 96.768H152.297V111.248H150.969V96.768ZM146.729 98.336H148.041C148.041 99.3813 147.913 100.389 147.657 101.36C147.412 102.331 147.022 103.253 146.489 104.128C145.956 104.992 145.262 105.797 144.409 106.544C143.556 107.291 142.521 107.957 141.305 108.544L140.601 107.472C141.998 106.8 143.15 106.016 144.057 105.12C144.964 104.224 145.636 103.227 146.073 102.128C146.51 101.019 146.729 99.824 146.729 98.544V98.336ZM141.273 98.336H147.289V99.408H141.273V98.336ZM163.442 97.456C164.167 97.456 164.807 97.584 165.362 97.84C165.917 98.0853 166.349 98.432 166.658 98.88C166.978 99.3173 167.138 99.8347 167.138 100.432C167.138 101.008 166.978 101.525 166.658 101.984C166.349 102.432 165.917 102.784 165.362 103.04C164.807 103.285 164.167 103.408 163.442 103.408C162.738 103.408 162.109 103.285 161.554 103.04C160.999 102.784 160.562 102.432 160.242 101.984C159.922 101.525 159.762 101.008 159.762 100.432C159.762 99.8347 159.922 99.3173 160.242 98.88C160.562 98.432 160.999 98.0853 161.554 97.84C162.109 97.584 162.738 97.456 163.442 97.456ZM163.442 98.544C162.983 98.544 162.573 98.624 162.21 98.784C161.847 98.944 161.559 99.168 161.346 99.456C161.143 99.7333 161.042 100.059 161.042 100.432C161.042 100.795 161.143 101.12 161.346 101.408C161.559 101.685 161.847 101.904 162.21 102.064C162.573 102.224 162.983 102.304 163.442 102.304C163.922 102.304 164.343 102.224 164.706 102.064C165.069 101.904 165.351 101.685 165.554 101.408C165.767 101.12 165.874 100.795 165.874 100.432C165.874 100.059 165.767 99.7333 165.554 99.456C165.351 99.168 165.069 98.944 164.706 98.784C164.343 98.624 163.922 98.544 163.442 98.544ZM162.866 105.024H164.194V110.8H162.866V105.024ZM169.266 96.784H170.578V111.248H169.266V96.784ZM158.866 105.744L158.69 104.624C159.586 104.624 160.567 104.613 161.634 104.592C162.711 104.571 163.815 104.523 164.946 104.448C166.087 104.373 167.181 104.256 168.226 104.096L168.322 105.088C167.245 105.291 166.146 105.44 165.026 105.536C163.906 105.621 162.818 105.675 161.762 105.696C160.717 105.717 159.751 105.733 158.866 105.744ZM173.409 99.248H180.593V100.336H173.409V99.248ZM177.009 101.296C177.617 101.296 178.15 101.435 178.609 101.712C179.078 101.989 179.446 102.379 179.713 102.88C179.979 103.371 180.113 103.941 180.113 104.592C180.113 105.243 179.979 105.819 179.713 106.32C179.446 106.811 179.078 107.2 178.609 107.488C178.15 107.765 177.617 107.904 177.009 107.904C176.411 107.904 175.878 107.765 175.409 107.488C174.939 107.2 174.571 106.811 174.305 106.32C174.038 105.819 173.905 105.243 173.905 104.592C173.905 103.941 174.038 103.371 174.305 102.88C174.571 102.389 174.939 102.005 175.409 101.728C175.878 101.44 176.411 101.296 177.009 101.296ZM177.009 102.416C176.646 102.416 176.315 102.512 176.017 102.704C175.729 102.885 175.499 103.141 175.329 103.472C175.169 103.792 175.089 104.165 175.089 104.592C175.089 105.019 175.169 105.397 175.329 105.728C175.499 106.059 175.729 106.315 176.017 106.496C176.315 106.677 176.646 106.768 177.009 106.768C177.382 106.768 177.713 106.677 178.001 106.496C178.289 106.315 178.513 106.059 178.673 105.728C178.843 105.397 178.929 105.019 178.929 104.592C178.929 104.165 178.843 103.792 178.673 103.472C178.513 103.141 178.289 102.885 178.001 102.704C177.713 102.512 177.382 102.416 177.009 102.416ZM184.417 96.768H185.681V111.248H184.417V96.768ZM182.097 102.864H184.833V103.952H182.097V102.864ZM181.313 97.104H182.561V110.544H181.313V97.104ZM176.353 97.2H177.665V99.904H176.353V97.2ZM199.161 99.392H202.874V100.48H199.161V99.392ZM202.314 96.768H203.642V104.24H202.314V96.768ZM194.33 104.976H203.642V108.448H195.658V110.64H194.362V107.44H202.33V106.032H194.33V104.976ZM194.362 109.984H204.17V111.056H194.362V109.984ZM195.354 97.232H196.426V98.576C196.426 99.4613 196.26 100.288 195.93 101.056C195.599 101.813 195.135 102.469 194.538 103.024C193.94 103.568 193.236 103.984 192.426 104.272L191.722 103.216C192.447 102.971 193.082 102.619 193.626 102.16C194.17 101.701 194.591 101.168 194.89 100.56C195.199 99.9413 195.354 99.28 195.354 98.576V97.232ZM195.562 97.232H196.65V98.576C196.65 99.0453 196.735 99.504 196.906 99.952C197.076 100.389 197.316 100.8 197.626 101.184C197.946 101.568 198.324 101.909 198.762 102.208C199.199 102.496 199.679 102.725 200.202 102.896L199.498 103.936C198.719 103.659 198.031 103.259 197.434 102.736C196.847 102.203 196.388 101.584 196.058 100.88C195.727 100.165 195.562 99.3973 195.562 98.576V97.232ZM216.984 96.784H218.312V104.736H216.984V96.784ZM207.208 103.328H208.376C209.251 103.328 210.062 103.317 210.808 103.296C211.566 103.275 212.302 103.232 213.016 103.168C213.731 103.093 214.472 102.997 215.24 102.88L215.4 103.968C214.6 104.096 213.832 104.192 213.096 104.256C212.371 104.32 211.624 104.368 210.856 104.4C210.099 104.421 209.272 104.432 208.376 104.432H207.208V103.328ZM207.176 97.472H213.736V101.408H208.504V104.048H207.208V100.368H212.44V98.56H207.176V97.472ZM208.968 105.456H210.28V107.152H217V105.456H218.312V111.056H208.968V105.456ZM210.28 108.208V109.968H217V108.208H210.28ZM222.327 103.008H229.719V104.096H222.327V103.008ZM225.287 103.872H226.615V107.2H225.287V103.872ZM222.327 98.144H229.655V99.216H223.639V103.392H222.327V98.144ZM231.639 96.768H232.967V111.264H231.639V96.768ZM221.431 108.128L221.255 107.008C222.204 107.008 223.212 107.003 224.279 106.992C225.346 106.971 226.428 106.933 227.527 106.88C228.626 106.816 229.682 106.725 230.695 106.608L230.807 107.584C229.751 107.744 228.674 107.867 227.575 107.952C226.487 108.027 225.42 108.075 224.375 108.096C223.34 108.117 222.359 108.128 221.431 108.128ZM239.59 105.584H240.63V106.432C240.63 107.061 240.502 107.685 240.246 108.304C239.99 108.912 239.616 109.456 239.126 109.936C238.646 110.416 238.054 110.789 237.35 111.056L236.694 110.064C237.302 109.84 237.819 109.536 238.246 109.152C238.683 108.757 239.014 108.325 239.238 107.856C239.472 107.376 239.59 106.901 239.59 106.432V105.584ZM239.878 105.584H240.87V106.432C240.87 106.923 240.966 107.413 241.158 107.904C241.35 108.384 241.638 108.827 242.022 109.232C242.406 109.627 242.891 109.947 243.478 110.192L242.902 111.184C242.208 110.907 241.638 110.517 241.19 110.016C240.742 109.515 240.411 108.955 240.198 108.336C239.984 107.707 239.878 107.072 239.878 106.432V105.584ZM244.934 105.584H245.926V106.432C245.926 106.997 245.819 107.595 245.606 108.224C245.392 108.843 245.062 109.419 244.614 109.952C244.166 110.485 243.595 110.896 242.902 111.184L242.342 110.192C242.918 109.915 243.398 109.563 243.782 109.136C244.166 108.709 244.454 108.256 244.646 107.776C244.838 107.296 244.934 106.848 244.934 106.432V105.584ZM245.206 105.584H246.23V106.432C246.23 106.933 246.342 107.424 246.566 107.904C246.8 108.384 247.131 108.811 247.558 109.184C247.995 109.557 248.523 109.851 249.142 110.064L248.47 111.056C247.766 110.8 247.168 110.437 246.678 109.968C246.198 109.499 245.83 108.96 245.574 108.352C245.328 107.744 245.206 107.104 245.206 106.432V105.584ZM243.014 100.4H246.838V101.488H243.014V100.4ZM239.846 97.584C240.55 97.584 241.179 97.728 241.734 98.016C242.299 98.304 242.742 98.704 243.062 99.216C243.382 99.728 243.542 100.315 243.542 100.976C243.542 101.648 243.382 102.24 243.062 102.752C242.742 103.253 242.299 103.648 241.734 103.936C241.179 104.224 240.55 104.368 239.846 104.368C239.131 104.368 238.491 104.224 237.926 103.936C237.371 103.648 236.934 103.253 236.614 102.752C236.294 102.24 236.134 101.648 236.134 100.976C236.134 100.315 236.294 99.728 236.614 99.216C236.934 98.704 237.371 98.304 237.926 98.016C238.491 97.728 239.131 97.584 239.846 97.584ZM239.846 98.704C239.376 98.704 238.955 98.8 238.582 98.992C238.219 99.184 237.931 99.456 237.718 99.808C237.504 100.149 237.398 100.539 237.398 100.976C237.398 101.424 237.504 101.819 237.718 102.16C237.931 102.501 238.219 102.773 238.582 102.976C238.955 103.168 239.376 103.264 239.846 103.264C240.304 103.264 240.715 103.168 241.078 102.976C241.451 102.773 241.744 102.501 241.958 102.16C242.171 101.819 242.278 101.424 242.278 100.976C242.278 100.539 242.171 100.149 241.958 99.808C241.744 99.456 241.451 99.184 241.078 98.992C240.715 98.8 240.304 98.704 239.846 98.704ZM246.47 96.768H247.798V105.024H246.47V96.768ZM252.261 105.456H253.573V107.12H260.661V105.456H261.973V111.056H252.261V105.456ZM253.573 108.16V109.984H260.661V108.16H253.573ZM250.613 103.36H263.685V104.448H250.613V103.36ZM256.469 96.928H257.621V97.584C257.621 98.0853 257.514 98.56 257.301 99.008C257.087 99.4453 256.794 99.8507 256.421 100.224C256.058 100.587 255.631 100.912 255.141 101.2C254.661 101.488 254.138 101.728 253.573 101.92C253.018 102.112 252.442 102.256 251.845 102.352L251.349 101.296C251.871 101.221 252.378 101.104 252.869 100.944C253.37 100.784 253.839 100.592 254.277 100.368C254.714 100.133 255.098 99.872 255.429 99.584C255.759 99.2853 256.015 98.9707 256.197 98.64C256.378 98.2987 256.469 97.9467 256.469 97.584V96.928ZM256.693 96.928H257.829V97.584C257.829 97.936 257.919 98.2827 258.101 98.624C258.293 98.9547 258.554 99.2693 258.885 99.568C259.215 99.856 259.594 100.117 260.021 100.352C260.458 100.587 260.922 100.789 261.413 100.96C261.914 101.12 262.421 101.232 262.933 101.296L262.453 102.352C261.855 102.256 261.274 102.112 260.709 101.92C260.154 101.728 259.631 101.488 259.141 101.2C258.661 100.901 258.234 100.565 257.861 100.192C257.498 99.8187 257.21 99.4133 256.997 98.976C256.794 98.5387 256.693 98.0747 256.693 97.584V96.928ZM275.859 96.768H277.171V111.248H275.859V96.768ZM266.243 98.192H267.555V107.152H266.243V98.192ZM266.243 106.368H267.427C268.537 106.368 269.662 106.32 270.803 106.224C271.955 106.117 273.139 105.941 274.355 105.696L274.531 106.816C273.273 107.083 272.062 107.269 270.899 107.376C269.737 107.472 268.579 107.52 267.427 107.52H266.243V106.368ZM289.842 96.768H291.17V111.264H289.842V96.768ZM290.866 102.48H293.538V103.584H290.866V102.48ZM280.674 106.528H281.81C282.695 106.528 283.506 106.517 284.242 106.496C284.989 106.464 285.703 106.411 286.386 106.336C287.079 106.261 287.783 106.16 288.498 106.032L288.658 107.168C287.911 107.296 287.186 107.397 286.482 107.472C285.789 107.547 285.063 107.595 284.306 107.616C283.549 107.637 282.717 107.648 281.81 107.648H280.674V106.528ZM280.674 98.176H287.378V99.264H281.986V107.04H280.674V98.176ZM296.193 110.208C295.905 110.208 295.654 110.107 295.441 109.904C295.238 109.691 295.137 109.424 295.137 109.104C295.137 108.763 295.238 108.491 295.441 108.288C295.654 108.085 295.905 107.984 296.193 107.984C296.481 107.984 296.726 108.085 296.929 108.288C297.142 108.491 297.249 108.763 297.249 109.104C297.249 109.424 297.142 109.691 296.929 109.904C296.726 110.107 296.481 110.208 296.193 110.208Z" fill="#223A5C"/>
</svg>
