<svg width="22" height="22" viewBox="0 0 22 22" fill="none" xmlns="http://www.w3.org/2000/svg">
<path d="M10.8333 21.6667C9.35278 21.6667 7.95347 21.3823 6.63542 20.8135C5.31736 20.2448 4.16632 19.4684 3.18229 18.4844C2.19826 17.5003 1.42187 16.3493 0.853125 15.0312C0.284375 13.7132 0 12.3139 0 10.8333C0 9.33472 0.284375 7.9309 0.853125 6.62187C1.42187 5.31285 2.19826 4.16632 3.18229 3.18229C4.16632 2.19826 5.31736 1.42187 6.63542 0.853125C7.95347 0.284375 9.35278 0 10.8333 0C12.3319 0 13.7358 0.284375 15.0448 0.853125C16.3538 1.42187 17.5003 2.19826 18.4844 3.18229C19.4684 4.16632 20.2448 5.31285 20.8135 6.62187C21.3823 7.9309 21.6667 9.33472 21.6667 10.8333C21.6667 12.3139 21.3823 13.7132 20.8135 15.0312C20.2448 16.3493 19.4684 17.5003 18.4844 18.4844C17.5003 19.4684 16.3538 20.2448 15.0448 20.8135C13.7358 21.3823 12.3319 21.6667 10.8333 21.6667ZM10.8333 19.4458C11.3028 18.7958 11.709 18.1187 12.0521 17.4146C12.3951 16.7104 12.675 15.9611 12.8917 15.1667H8.775C8.99167 15.9611 9.27153 16.7104 9.61458 17.4146C9.95764 18.1187 10.3639 18.7958 10.8333 19.4458ZM8.01667 19.0125C7.69167 18.4167 7.40729 17.7983 7.16354 17.1573C6.91979 16.5163 6.71667 15.8528 6.55417 15.1667H3.35833C3.88194 16.0694 4.53646 16.8549 5.32187 17.5229C6.10729 18.191 7.00556 18.6875 8.01667 19.0125ZM13.65 19.0125C14.6611 18.6875 15.5594 18.191 16.3448 17.5229C17.1302 16.8549 17.7847 16.0694 18.3083 15.1667H15.1125C14.95 15.8528 14.7469 16.5163 14.5031 17.1573C14.2594 17.7983 13.975 18.4167 13.65 19.0125ZM2.4375 13H6.12083C6.06667 12.6389 6.02604 12.2823 5.99896 11.9302C5.97187 11.5781 5.95833 11.2125 5.95833 10.8333C5.95833 10.4542 5.97187 10.0885 5.99896 9.73646C6.02604 9.38437 6.06667 9.02778 6.12083 8.66667H2.4375C2.34722 9.02778 2.27951 9.38437 2.23437 9.73646C2.18924 10.0885 2.16667 10.4542 2.16667 10.8333C2.16667 11.2125 2.18924 11.5781 2.23437 11.9302C2.27951 12.2823 2.34722 12.6389 2.4375 13ZM8.2875 13H13.3792C13.4333 12.6389 13.474 12.2823 13.501 11.9302C13.5281 11.5781 13.5417 11.2125 13.5417 10.8333C13.5417 10.4542 13.5281 10.0885 13.501 9.73646C13.474 9.38437 13.4333 9.02778 13.3792 8.66667H8.2875C8.23333 9.02778 8.19271 9.38437 8.16562 9.73646C8.13854 10.0885 8.125 10.4542 8.125 10.8333C8.125 11.2125 8.13854 11.5781 8.16562 11.9302C8.19271 12.2823 8.23333 12.6389 8.2875 13ZM15.5458 13H19.2292C19.3194 12.6389 19.3872 12.2823 19.4323 11.9302C19.4774 11.5781 19.5 11.2125 19.5 10.8333C19.5 10.4542 19.4774 10.0885 19.4323 9.73646C19.3872 9.38437 19.3194 9.02778 19.2292 8.66667H15.5458C15.6 9.02778 15.6406 9.38437 15.6677 9.73646C15.6948 10.0885 15.7083 10.4542 15.7083 10.8333C15.7083 11.2125 15.6948 11.5781 15.6677 11.9302C15.6406 12.2823 15.6 12.6389 15.5458 13ZM15.1125 6.5H18.3083C17.7847 5.59722 17.1302 4.81181 16.3448 4.14375C15.5594 3.47569 14.6611 2.97917 13.65 2.65417C13.975 3.25 14.2594 3.8684 14.5031 4.50937C14.7469 5.15035 14.95 5.81389 15.1125 6.5ZM8.775 6.5H12.8917C12.675 5.70556 12.3951 4.95625 12.0521 4.25208C11.709 3.54792 11.3028 2.87083 10.8333 2.22083C10.3639 2.87083 9.95764 3.54792 9.61458 4.25208C9.27153 4.95625 8.99167 5.70556 8.775 6.5ZM3.35833 6.5H6.55417C6.71667 5.81389 6.91979 5.15035 7.16354 4.50937C7.40729 3.8684 7.69167 3.25 8.01667 2.65417C7.00556 2.97917 6.10729 3.47569 5.32187 4.14375C4.53646 4.81181 3.88194 5.59722 3.35833 6.5Z" fill="#1D1D1D"/>
</svg>
