<svg width="22" height="22" viewBox="0 0 22 22" fill="none" xmlns="http://www.w3.org/2000/svg">
<path d="M11 21.8332C9.5194 21.8332 8.1201 21.5488 6.80204 20.98C5.48399 20.4113 4.33294 19.6349 3.34892 18.6509C2.36489 17.6668 1.5885 16.5158 1.01975 15.1978C0.451001 13.8797 0.166626 12.4804 0.166626 10.9998C0.166626 9.50123 0.451001 8.09741 1.01975 6.78838C1.5885 5.47935 2.36489 4.33282 3.34892 3.3488C4.33294 2.36477 5.48399 1.58838 6.80204 1.01963C8.1201 0.450879 9.5194 0.166504 11 0.166504C12.4986 0.166504 13.9024 0.450879 15.2114 1.01963C16.5204 1.58838 17.667 2.36477 18.651 3.3488C19.635 4.33282 20.4114 5.47935 20.9802 6.78838C21.5489 8.09741 21.8333 9.50123 21.8333 10.9998C21.8333 12.4804 21.5489 13.8797 20.9802 15.1978C20.4114 16.5158 19.635 17.6668 18.651 18.6509C17.667 19.6349 16.5204 20.4113 15.2114 20.98C13.9024 21.5488 12.4986 21.8332 11 21.8332ZM11 19.6123C11.4694 18.9623 11.8757 18.2853 12.2187 17.5811C12.5618 16.8769 12.8416 16.1276 13.0583 15.3332H8.94163C9.15829 16.1276 9.43815 16.8769 9.78121 17.5811C10.1243 18.2853 10.5305 18.9623 11 19.6123ZM8.18329 19.179C7.85829 18.5832 7.57392 17.9648 7.33017 17.3238C7.08642 16.6828 6.88329 16.0193 6.72079 15.3332H3.52496C4.04857 16.2359 4.70308 17.0214 5.4885 17.6894C6.27392 18.3575 7.17218 18.854 8.18329 19.179ZM13.8166 19.179C14.8277 18.854 15.726 18.3575 16.5114 17.6894C17.2968 17.0214 17.9513 16.2359 18.475 15.3332H15.2791C15.1166 16.0193 14.9135 16.6828 14.6697 17.3238C14.426 17.9648 14.1416 18.5832 13.8166 19.179ZM2.60413 13.1665H6.28746C6.23329 12.8054 6.19267 12.4488 6.16558 12.0967C6.1385 11.7446 6.12496 11.379 6.12496 10.9998C6.12496 10.6207 6.1385 10.255 6.16558 9.90296C6.19267 9.55088 6.23329 9.19428 6.28746 8.83317H2.60413C2.51385 9.19428 2.44614 9.55088 2.401 9.90296C2.35586 10.255 2.33329 10.6207 2.33329 10.9998C2.33329 11.379 2.35586 11.7446 2.401 12.0967C2.44614 12.4488 2.51385 12.8054 2.60413 13.1665ZM8.45413 13.1665H13.5458C13.6 12.8054 13.6406 12.4488 13.6677 12.0967C13.6948 11.7446 13.7083 11.379 13.7083 10.9998C13.7083 10.6207 13.6948 10.255 13.6677 9.90296C13.6406 9.55088 13.6 9.19428 13.5458 8.83317H8.45413C8.39996 9.19428 8.35933 9.55088 8.33225 9.90296C8.30517 10.255 8.29163 10.6207 8.29163 10.9998C8.29163 11.379 8.30517 11.7446 8.33225 12.0967C8.35933 12.4488 8.39996 12.8054 8.45413 13.1665ZM15.7125 13.1665H19.3958C19.4861 12.8054 19.5538 12.4488 19.5989 12.0967C19.6441 11.7446 19.6666 11.379 19.6666 10.9998C19.6666 10.6207 19.6441 10.255 19.5989 9.90296C19.5538 9.55088 19.4861 9.19428 19.3958 8.83317H15.7125C15.7666 9.19428 15.8073 9.55088 15.8343 9.90296C15.8614 10.255 15.875 10.6207 15.875 10.9998C15.875 11.379 15.8614 11.7446 15.8343 12.0967C15.8073 12.4488 15.7666 12.8054 15.7125 13.1665ZM15.2791 6.6665H18.475C17.9513 5.76373 17.2968 4.97831 16.5114 4.31025C15.726 3.6422 14.8277 3.14567 13.8166 2.82067C14.1416 3.4165 14.426 4.03491 14.6697 4.67588C14.9135 5.31685 15.1166 5.98039 15.2791 6.6665ZM8.94163 6.6665H13.0583C12.8416 5.87206 12.5618 5.12275 12.2187 4.41859C11.8757 3.71442 11.4694 3.03734 11 2.38734C10.5305 3.03734 10.1243 3.71442 9.78121 4.41859C9.43815 5.12275 9.15829 5.87206 8.94163 6.6665ZM3.52496 6.6665H6.72079C6.88329 5.98039 7.08642 5.31685 7.33017 4.67588C7.57392 4.03491 7.85829 3.4165 8.18329 2.82067C7.17218 3.14567 6.27392 3.6422 5.4885 4.31025C4.70308 4.97831 4.04857 5.76373 3.52496 6.6665Z" fill="white"/>
</svg>
