<svg width="22" height="22" viewBox="0 0 22 22" fill="none" xmlns="http://www.w3.org/2000/svg">
<path d="M4.33746 16.5248C5.25829 15.8207 6.28746 15.2655 7.42496 14.8592C8.56246 14.453 9.75413 14.2498 11 14.2498C12.2458 14.2498 13.4375 14.453 14.575 14.8592C15.7125 15.2655 16.7416 15.8207 17.6625 16.5248C18.2944 15.7846 18.7864 14.945 19.1385 14.0061C19.4906 13.0672 19.6666 12.0651 19.6666 10.9998C19.6666 8.59845 18.8225 6.55366 17.1343 4.86546C15.4461 3.17727 13.4013 2.33317 11 2.33317C8.59857 2.33317 6.55378 3.17727 4.86558 4.86546C3.17739 6.55366 2.33329 8.59845 2.33329 10.9998C2.33329 12.0651 2.50933 13.0672 2.86142 14.0061C3.2135 14.945 3.70551 15.7846 4.33746 16.5248ZM11 12.0832C9.93468 12.0832 9.03642 11.7175 8.30517 10.9863C7.57392 10.255 7.20829 9.35678 7.20829 8.2915C7.20829 7.22623 7.57392 6.32796 8.30517 5.59671C9.03642 4.86546 9.93468 4.49984 11 4.49984C12.0652 4.49984 12.9635 4.86546 13.6947 5.59671C14.426 6.32796 14.7916 7.22623 14.7916 8.2915C14.7916 9.35678 14.426 10.255 13.6947 10.9863C12.9635 11.7175 12.0652 12.0832 11 12.0832ZM11 21.8332C9.50135 21.8332 8.09301 21.5488 6.77496 20.98C5.4569 20.4113 4.31038 19.6394 3.33538 18.6644C2.36038 17.6894 1.5885 16.5429 1.01975 15.2248C0.451001 13.9068 0.166626 12.4984 0.166626 10.9998C0.166626 9.50123 0.451001 8.09289 1.01975 6.77484C1.5885 5.45678 2.36038 4.31025 3.33538 3.33525C4.31038 2.36025 5.4569 1.58838 6.77496 1.01963C8.09301 0.450879 9.50135 0.166504 11 0.166504C12.4986 0.166504 13.9069 0.450879 15.225 1.01963C16.543 1.58838 17.6895 2.36025 18.6645 3.33525C19.6395 4.31025 20.4114 5.45678 20.9802 6.77484C21.5489 8.09289 21.8333 9.50123 21.8333 10.9998C21.8333 12.4984 21.5489 13.9068 20.9802 15.2248C20.4114 16.5429 19.6395 17.6894 18.6645 18.6644C17.6895 19.6394 16.543 20.4113 15.225 20.98C13.9069 21.5488 12.4986 21.8332 11 21.8332ZM11 19.6665C11.9569 19.6665 12.8597 19.5266 13.7083 19.2467C14.5569 18.9669 15.3333 18.5651 16.0375 18.0415C15.3333 17.5179 14.5569 17.1162 13.7083 16.8363C12.8597 16.5564 11.9569 16.4165 11 16.4165C10.043 16.4165 9.14024 16.5564 8.29163 16.8363C7.44301 17.1162 6.66663 17.5179 5.96246 18.0415C6.66663 18.5651 7.44301 18.9669 8.29163 19.2467C9.14024 19.5266 10.043 19.6665 11 19.6665ZM11 9.9165C11.4694 9.9165 11.8576 9.76303 12.1645 9.45609C12.4715 9.14914 12.625 8.76095 12.625 8.2915C12.625 7.82206 12.4715 7.43386 12.1645 7.12692C11.8576 6.81998 11.4694 6.6665 11 6.6665C10.5305 6.6665 10.1423 6.81998 9.83538 7.12692C9.52843 7.43386 9.37496 7.82206 9.37496 8.2915C9.37496 8.76095 9.52843 9.14914 9.83538 9.45609C10.1423 9.76303 10.5305 9.9165 11 9.9165Z" fill="white"/>
</svg>
