<svg width="22" height="22" viewBox="0 0 22 22" fill="none" xmlns="http://www.w3.org/2000/svg">
<path d="M4.33758 16.5248C5.25841 15.8207 6.28758 15.2655 7.42508 14.8592C8.56258 14.453 9.75425 14.2498 11.0001 14.2498C12.2459 14.2498 13.4376 14.453 14.5751 14.8592C15.7126 15.2655 16.7417 15.8207 17.6626 16.5248C18.2945 15.7846 18.7865 14.945 19.1386 14.0061C19.4907 13.0672 19.6667 12.0651 19.6667 10.9998C19.6667 8.59845 18.8226 6.55366 17.1345 4.86546C15.4463 3.17727 13.4015 2.33317 11.0001 2.33317C8.59869 2.33317 6.5539 3.17727 4.86571 4.86546C3.17751 6.55366 2.33341 8.59845 2.33341 10.9998C2.33341 12.0651 2.50946 13.0672 2.86154 14.0061C3.21362 14.945 3.70564 15.7846 4.33758 16.5248ZM11.0001 12.0832C9.9348 12.0832 9.03654 11.7175 8.30529 10.9863C7.57404 10.255 7.20841 9.35678 7.20841 8.2915C7.20841 7.22623 7.57404 6.32796 8.30529 5.59671C9.03654 4.86546 9.9348 4.49984 11.0001 4.49984C12.0654 4.49984 12.9636 4.86546 13.6949 5.59671C14.4261 6.32796 14.7917 7.22623 14.7917 8.2915C14.7917 9.35678 14.4261 10.255 13.6949 10.9863C12.9636 11.7175 12.0654 12.0832 11.0001 12.0832ZM11.0001 21.8332C9.50147 21.8332 8.09314 21.5488 6.77508 20.98C5.45703 20.4113 4.3105 19.6394 3.3355 18.6644C2.3605 17.6894 1.58862 16.5429 1.01987 15.2248C0.451123 13.9068 0.166748 12.4984 0.166748 10.9998C0.166748 9.50123 0.451123 8.09289 1.01987 6.77484C1.58862 5.45678 2.3605 4.31025 3.3355 3.33525C4.3105 2.36025 5.45703 1.58838 6.77508 1.01963C8.09314 0.450879 9.50147 0.166504 11.0001 0.166504C12.4987 0.166504 13.907 0.450879 15.2251 1.01963C16.5431 1.58838 17.6897 2.36025 18.6647 3.33525C19.6397 4.31025 20.4115 5.45678 20.9803 6.77484C21.549 8.09289 21.8334 9.50123 21.8334 10.9998C21.8334 12.4984 21.549 13.9068 20.9803 15.2248C20.4115 16.5429 19.6397 17.6894 18.6647 18.6644C17.6897 19.6394 16.5431 20.4113 15.2251 20.98C13.907 21.5488 12.4987 21.8332 11.0001 21.8332ZM11.0001 19.6665C11.957 19.6665 12.8598 19.5266 13.7084 19.2467C14.557 18.9669 15.3334 18.5651 16.0376 18.0415C15.3334 17.5179 14.557 17.1162 13.7084 16.8363C12.8598 16.5564 11.957 16.4165 11.0001 16.4165C10.0431 16.4165 9.14036 16.5564 8.29175 16.8363C7.44314 17.1162 6.66675 17.5179 5.96258 18.0415C6.66675 18.5651 7.44314 18.9669 8.29175 19.2467C9.14036 19.5266 10.0431 19.6665 11.0001 19.6665ZM11.0001 9.9165C11.4695 9.9165 11.8577 9.76303 12.1647 9.45609C12.4716 9.14914 12.6251 8.76095 12.6251 8.2915C12.6251 7.82206 12.4716 7.43386 12.1647 7.12692C11.8577 6.81998 11.4695 6.6665 11.0001 6.6665C10.5306 6.6665 10.1424 6.81998 9.8355 7.12692C9.52855 7.43386 9.37508 7.82206 9.37508 8.2915C9.37508 8.76095 9.52855 9.14914 9.8355 9.45609C10.1424 9.76303 10.5306 9.9165 11.0001 9.9165Z" fill="#1D1D1D"/>
</svg>
