<svg width="11" height="14" viewBox="0 0 11 14" fill="none" xmlns="http://www.w3.org/2000/svg">
<path d="M0 12.1752V1.8252C0 1.54186 0.1 1.30436 0.3 1.1127C0.5 0.921029 0.733333 0.825195 1 0.825195C1.08333 0.825195 1.17083 0.837695 1.2625 0.862695C1.35417 0.887695 1.44167 0.925195 1.525 0.975195L9.675 6.1502C9.825 6.2502 9.9375 6.3752 10.0125 6.5252C10.0875 6.6752 10.125 6.83353 10.125 7.0002C10.125 7.16686 10.0875 7.3252 10.0125 7.4752C9.9375 7.6252 9.825 7.7502 9.675 7.8502L1.525 13.0252C1.44167 13.0752 1.35417 13.1127 1.2625 13.1377C1.17083 13.1627 1.08333 13.1752 1 13.1752C0.733333 13.1752 0.5 13.0794 0.3 12.8877C0.1 12.696 0 12.4585 0 12.1752Z" fill="white"/>
</svg>
