<svg width="12" height="20" viewBox="0 0 12 20" fill="none" xmlns="http://www.w3.org/2000/svg">
<path d="M8.44999 10.0001L1.09999 17.3501C0.849988 17.6001 0.729155 17.8918 0.737488 18.2251C0.745821 18.5584 0.874988 18.8501 1.12499 19.1001C1.37499 19.3501 1.66665 19.4751 1.99999 19.4751C2.33332 19.4751 2.62499 19.3501 2.87499 19.1001L10.575 11.4251C10.775 11.2251 10.925 11.0001 11.025 10.7501C11.125 10.5001 11.175 10.2501 11.175 10.0001C11.175 9.75011 11.125 9.50011 11.025 9.25011C10.925 9.00011 10.775 8.77511 10.575 8.57511L2.87499 0.87511C2.62499 0.62511 2.32915 0.504277 1.98749 0.51261C1.64582 0.520944 1.34999 0.65011 1.09999 0.90011C0.849988 1.15011 0.724988 1.44178 0.724988 1.77511C0.724988 2.10844 0.849988 2.40011 1.09999 2.65011L8.44999 10.0001Z" fill="white"/>
</svg>
