<?xml version="1.0" encoding="utf-8"?>
<!-- Generator: Adobe Illustrator 28.0.0, SVG Export Plug-In . SVG Version: 6.00 Build 0)  -->
<svg version="1.1" id="레이어_2" xmlns="http://www.w3.org/2000/svg" xmlns:xlink="http://www.w3.org/1999/xlink" x="0px"
	 y="0px" viewBox="0 0 35 35" style="enable-background:new 0 0 35 35;" xml:space="preserve">
<style type="text/css">
	.st0{fill:#23359B;}
</style>
<g>
	<path class="st0" d="M23.4,30c-0.3,0.1-0.6,0.3-1,0.4c-0.6,0.2-0.9,0.9-0.7,1.4c0.2,0.5,0.6,0.7,1,0.7c0.1,0,0.3,0,0.4-0.1
		c0.4-0.1,0.8-0.3,1.1-0.5c0.6-0.3,0.8-0.9,0.5-1.5C24.7,30,24,29.7,23.4,30z"/>
	<path class="st0" d="M28.5,26c-0.4,0.6-0.9,1.1-1.5,1.6c-0.5,0.4-0.5,1.1,0,1.6c0.2,0.2,0.5,0.4,0.8,0.4s0.5-0.1,0.8-0.3
		c0.6-0.6,1.2-1.2,1.7-1.9c0.4-0.5,0.3-1.2-0.2-1.6C29.6,25.4,28.9,25.5,28.5,26z"/>
	<path class="st0" d="M32.5,19.2c-0.6-0.1-1.2,0.3-1.3,0.9c-0.1,0.7-0.3,1.4-0.6,2.1c-0.2,0.6,0.1,1.2,0.7,1.4
		c0.1,0,0.2,0.1,0.4,0.1c0.5,0,0.9-0.3,1.1-0.7c0.3-0.8,0.5-1.6,0.7-2.4C33.5,19.9,33.1,19.3,32.5,19.2z"/>
	<path class="st0" d="M31.9,12.8c0.3,0,0.6-0.1,0.8-0.3S33,12,33,11.7l0.2-5.6c0-0.6-0.5-1.1-1.1-1.1l0,0C31.5,5,31,5.5,31,6.1
		l-0.1,2.5c-3-4.3-7.9-7-13.3-7c-8.8,0-16,7.2-16,16s7.2,16,16,16c0.6,0,1.1-0.5,1.1-1.1c0-0.6-0.5-1.1-1.1-1.1
		c-7.6,0-13.8-6.2-13.8-13.8S10,3.7,17.6,3.7c4.9,0,9.4,2.6,11.9,6.8l-3.1-0.1l0,0c-0.6,0-1.1,0.5-1.1,1.1s0.5,1.1,1.1,1.1
		L31.9,12.8L31.9,12.8z"/>
	<path class="st0" d="M16.5,7.7v9.2L11.3,22c-0.4,0.4-0.4,1.1,0,1.6c0.2,0.2,0.5,0.3,0.8,0.3s0.6-0.1,0.8-0.3l5.5-5.4
		c0.2-0.2,0.3-0.5,0.3-0.8V7.7c0-0.6-0.5-1.1-1.1-1.1S16.5,7.1,16.5,7.7z"/>
</g>
</svg>
