<?xml version="1.0" encoding="utf-8"?>
<!-- Generator: Adobe Illustrator 28.0.0, SVG Export Plug-In . SVG Version: 6.00 Build 0)  -->
<svg version="1.1" id="Layer_1" xmlns="http://www.w3.org/2000/svg" xmlns:xlink="http://www.w3.org/1999/xlink" x="0px" y="0px"
	 viewBox="0 0 35 35" style="enable-background:new 0 0 35 35;" xml:space="preserve">
<style type="text/css">
	.st0{fill:#23359B;}
</style>
<g>
	<g>
		<path class="st0" d="M27.6,29.3H7.4c-3.3,0-6-2.7-6-6V11.7c0-3.3,2.7-6,6-6h20.2c3.3,0,6,2.7,6,6v11.6
			C33.6,26.6,30.9,29.3,27.6,29.3z M7.4,7.3C5,7.3,3,9.3,3,11.7v11.6c0,2.5,2,4.4,4.4,4.4h20.2c2.5,0,4.5-2,4.5-4.5V11.7
			c0-2.4-2-4.5-4.5-4.5L7.4,7.3L7.4,7.3z"/>
	</g>
	<g>
		<rect x="2.7" y="12.2" class="st0" width="30.1" height="1.5"/>
	</g>
	<g>
		<rect x="11.4" y="6" transform="matrix(0.8651 -0.5016 0.5016 0.8651 -3.2475 7.4141)" class="st0" width="1.5" height="7.5"/>
	</g>
	<g>
		<rect x="21.3" y="5.7" transform="matrix(0.8709 -0.4915 0.4915 0.8709 -1.9497 12.1058)" class="st0" width="1.5" height="8.1"/>
	</g>
	<g>
		<path class="st0" d="M21.7,19.6l-7.1-4.1c-0.4-0.2-0.8,0.1-0.8,0.5v8.2c0,0.4,0.5,0.7,0.8,0.5l7.1-4.1
			C22.1,20.4,22.1,19.8,21.7,19.6z"/>
	</g>
</g>
</svg>
