<svg width="62" height="62" viewBox="0 0 62 62" fill="none" xmlns="http://www.w3.org/2000/svg">
<path d="M44.7119 13.8885V20.2347C44.7119 20.6902 45.0574 21.064 45.5103 21.1156C50.251 21.6505 54.9874 24.9762 56.4081 29.5908C56.9618 31.3869 56.5669 33.909 56.8652 34.9273C57.4189 36.8157 59.5929 36.7835 58.8482 40.5754C57.5884 46.9818 45.0381 49.491 44.1496 46.4082C43.3341 43.5745 48.1735 44.6035 49.5127 44.3715C51.5601 44.0149 53.7684 43.0331 54.9788 41.2908C57.2644 38.0038 54.4959 38.4506 53.9487 36.6117C53.0859 33.7071 54.6075 31.6661 52.1288 28.1751C49.4955 24.4691 46.3193 24.9375 42.6774 23.5754C42.3448 23.4508 42.1173 23.135 42.1044 22.7805L41.9156 17.9704C41.8898 17.3022 41.1623 16.9048 40.5871 17.2399L35.312 20.3207C34.8764 20.5763 34.4708 20.6837 34.7433 21.1091C35.5267 22.338 36.7757 23.7752 37.4088 25.2211C38.3187 27.2985 38.3509 30.3342 39.3252 31.853C41.1344 34.6695 46.4417 33.5588 45.8107 39.5162C45.1433 45.8238 38.3101 49.3686 32.4663 48.9754C30.7194 48.8573 24.7082 46.8099 24.2211 45.1965C23.9528 44.3092 24.9765 42.8548 25.6826 42.7409C26.3092 42.6399 28.6592 45.0934 30.3031 45.4264C35.106 46.4017 42.3619 44.8807 42.8341 38.9018C43.0272 36.4505 39.5913 36.2636 37.9024 34.9811C33.9407 31.9712 36.6813 25.2984 30.4834 21.8804C19.843 16.0068 5.90636 28.0569 5.94713 39.0028C5.97503 46.3287 14.9972 48.0817 18.0296 42.5368C20.8624 37.3528 20.5985 31.1441 24.8542 25.423C26.1762 23.6463 27.6376 21.4421 29.406 23.0942C29.7129 23.3821 29.758 23.8526 29.5326 24.207C27.8801 26.8152 25.8972 29.1826 24.6546 32.0614C22.4613 37.1466 22.545 44.3157 17.3214 47.5275C12.0764 50.7521 4.28177 47.8798 3.22589 41.714C1.26222 30.2504 12.4305 17.4268 23.9313 17.0444C26.1547 16.9714 31.0564 18.8039 31.801 18.6557C32.3247 18.5526 37.4453 14.6769 39.5913 13.9379C41.0679 13.4287 42.3212 12.9733 43.8342 13.0012C44.3192 13.0098 44.7119 13.4008 44.7119 13.8863V13.8885Z" fill="#152346"/>
<path d="M33.7369 32.5945C35.7306 34.5559 32.5759 37.7226 30.6036 35.7268C28.479 33.5784 31.5758 30.4676 33.7369 32.5945Z" fill="#152346"/>
<path d="M51.4122 33.1662C52.9252 34.6936 51.1976 37.6777 49.2854 36.7518C46.5277 35.4155 49.1309 30.861 51.4122 33.1662Z" fill="#152346"/>
</svg>
