<svg width="39" height="39" viewBox="0 0 39 39" fill="none" xmlns="http://www.w3.org/2000/svg">
<path d="M39 19.0487C39 19.4421 38.7035 19.4421 37.6544 19.7662C37.2211 19.905 36.993 20.5994 36.6509 21.7104C35.8982 24.0481 33.5035 27.8208 28.5316 27.8208C23.5596 27.8208 20.9368 23.5157 20.7544 23.2843C20.5035 22.9371 20.093 22.6131 19.7509 22.6131C19.5228 22.6131 19.3632 22.7056 19.2263 22.7982C17.4246 24.0481 15.4632 25.4599 15.4632 28.7003C15.4632 30.8297 17.2193 33.2599 20.1842 33.2599C22.7158 33.2599 24.3807 30.8297 24.9053 29.1401C25.0877 28.5614 25.0421 28.33 25.3386 28.33C25.7263 28.33 25.8632 29.2095 26.3877 29.2095C26.8211 29.2095 26.6842 28.978 27.2544 28.978C27.7789 28.978 27.9158 29.6955 28.3491 29.6955C28.9649 29.6955 29.786 29.1632 30.1965 29.1632C30.3333 29.1632 30.5386 29.1632 30.5386 29.3021C30.5386 29.5335 30.1509 29.7418 29.786 30.0659C29.0333 30.7371 28.486 31.1306 27.9158 32.1027C25.9088 35.5513 23.5825 36.1763 22.3965 36.5466C21.9632 36.6855 21.5298 36.8938 21.3474 37.3104C20.686 38.8148 20.2982 39 20.1158 39C19.8877 39 19.8193 38.7454 19.7737 38.1668C19.7281 37.5418 19.386 36.8243 18.2 36.616C15.1895 36.0374 11.4719 32.9359 11.4719 28.0522C11.4719 23.6546 14.7561 21.9418 16.4211 20.2522C16.6491 20.0208 16.8088 19.7662 16.8088 19.3727V19.2338C16.8088 19.0255 16.7632 18.7478 16.4895 18.4006C14.8246 16.2712 13.5702 14.8593 11.2895 14.8593C8.80351 14.8593 6.61403 16.9424 6.61403 19.9513C6.61403 23.1917 8.18772 24.3027 9.7614 24.6961C10.286 24.835 10.4684 24.8813 10.4684 25.0433C10.4684 25.3905 10.1263 25.3211 10.1263 25.8534C10.1263 26.2469 10.4228 26.2006 10.4228 26.8255C10.4228 27.2653 10.0351 27.4042 10.0351 28.0754C10.0351 28.6077 10.286 28.7929 10.286 29.0938C10.286 29.4872 10.514 29.4409 10.514 30.2973C10.514 30.5288 10.6053 30.6908 10.4228 30.6908C10.2404 30.6908 10.0351 30.3899 9.7614 29.9733C9.14561 29.0475 8.48421 28.4688 8.00526 28.0985C4.19649 25.2979 4.05965 24.0712 3.10175 22.1501C2.87368 21.7104 2.80526 20.9466 2.34912 20.7383C0.957895 20.0208 0 19.8125 0 18.6552C0 18.1228 0.61579 18.6552 1.57368 18.6552C2.09825 18.6552 2.71404 18.7478 3.01053 17.6368C3.67193 15.276 6.40877 11.5033 11.2211 11.5033C16.3298 11.5033 18.8614 15.8083 19.0439 16.0398C19.386 16.5258 19.7053 16.711 20.0474 16.711C20.2754 16.711 20.4351 16.711 20.8228 16.3638C24.0614 13.4475 24.3123 12.1513 24.3123 10.4617C24.3123 8.33235 22.6474 5.85579 19.6825 5.85579C16.7175 5.85579 15.3035 8.23976 14.9158 10.022C14.7789 10.6006 14.6877 10.9015 14.4368 10.9015C14.0491 10.9015 14.0491 10.3691 13.6158 10.3691C12.9088 10.3691 12.8404 10.67 12.4754 10.67C11.9965 10.67 11.9965 9.7905 11.2895 9.7905C11.107 9.7905 10.7193 10.022 10.4684 10.022C9.80702 10.022 9.7614 10.1608 9.46491 10.1608C9.12281 10.1608 8.75789 9.97567 8.75789 9.72107C8.75789 9.46647 8.98597 9.28131 9.67018 8.93412C10.5825 8.44807 11.4263 8.10089 11.8596 7.10564C13.2053 4.05044 16.193 3.07834 17.3333 2.63858C17.7667 2.45341 17.9947 2.29139 18.2 1.87478C19.1123 0.185163 19.5228 0 19.7737 0C20.0246 0 20.0018 0.439763 20.1158 0.972107C20.2526 1.59703 20.2526 2.08309 21.2561 2.33769C24.107 3.10148 28.2807 5.7632 28.2807 10.6237C28.2807 15.4843 23.5597 18.5626 23.3316 18.7478C22.807 19.1412 22.6246 19.4653 22.6246 19.7662C22.6246 19.9976 22.7614 20.2522 22.8982 20.53C24.0386 22.8445 26 24.349 28.2807 24.349C30.9947 24.349 33.093 21.7798 33.093 19.1181C33.093 16.4564 31.3368 14.8593 29.8088 14.3733C29.2386 14.1881 28.9877 14.1881 28.9877 13.8872C28.9877 13.5401 29.3754 13.6558 29.3754 13.1234C29.3754 12.73 29.193 12.8226 29.193 12.1976C29.193 11.7579 29.7175 11.619 29.7175 10.9478C29.7175 10.4154 29.4667 10.2303 29.4667 9.92938C29.4667 9.53591 29.3298 9.58219 29.3298 8.72582C29.3298 8.49436 29.2386 8.33234 29.4211 8.33234C29.6491 8.33234 29.8544 8.63323 30.1281 9.04985C30.7439 9.97567 31.2228 10.6932 31.7018 10.9941C35.1456 13.216 35.8982 14.6279 36.6965 16.6184C36.8789 17.0582 37.0386 17.822 37.5632 18.1228C37.9965 18.4006 38.9544 18.7015 38.9544 19.0487" fill="#171614"/>
</svg>
