<svg width="164" height="26" viewBox="0 0 164 26" fill="none" xmlns="http://www.w3.org/2000/svg">
<g clip-path="url(#clip0_32_869)">
<path d="M163.862 13.1847L159.057 13.1232V16.3963C159.057 20.6067 158.322 23.6953 157.97 24.6173C157.741 24.8785 157.205 25.0322 156.884 24.94C156.685 24.2024 156.272 21.9128 156.272 18.1019V3.38089C156.272 2.76623 154.543 1.49082 153.9 1.29106C153.732 1.22959 154.282 0.5842 154.451 0.5842C155.767 0.5842 159.225 1.38325 159.149 1.99791C159.087 2.41281 159.057 2.90453 159.057 3.44236V11.8632L162.699 10.4187C163.02 10.2958 164.459 13.1847 163.877 13.1847M153.885 14.7828C154.39 15.4896 153.028 18.4861 152.538 17.7792C151.834 16.7804 149.906 13.8301 148.177 11.8632C145.866 15.1055 142.989 17.7178 140.403 19.1007C140.081 19.07 139.699 18.5937 139.699 18.3017C142.897 15.4435 146.509 10.4341 148.024 5.87025C148.115 5.60902 147.029 4.80997 146.555 4.51801C146.401 4.42581 147.059 3.93408 147.228 3.93408C148.1 3.93408 150.518 4.9329 151.099 5.34779C151.421 5.57829 151.451 5.73195 151.298 6.11612C150.656 7.79106 149.799 9.38917 148.835 10.8643C151.008 12.3703 153.41 14.1067 153.885 14.7828ZM138.352 13.4613L133.517 13.3691V16.3963C133.517 20.6067 132.843 23.6953 132.461 24.6173C132.231 24.8785 131.695 25.0322 131.405 24.94C131.175 24.2024 130.793 21.9128 130.793 18.1019V3.38089C130.793 2.76623 129.063 1.55229 128.421 1.29106C128.268 1.22959 128.803 0.5842 128.972 0.5842C130.288 0.5842 133.67 1.38325 133.608 1.99791C133.578 2.41281 133.517 2.90453 133.517 3.44236V12.1244L137.174 10.7107C137.526 10.557 138.964 13.4459 138.352 13.4459M122.636 14.9057C123.983 14.9057 124.978 13.9684 124.978 12.5239C124.978 11.0795 124.044 10.1114 122.636 10.1114C121.228 10.1114 120.295 11.0795 120.295 12.5239C120.295 13.9684 121.228 14.9057 122.636 14.9057ZM118.061 2.62794C118.03 2.505 118.183 2.10548 118.351 2.12084C119.316 2.30524 120.295 2.47427 121.519 2.62794L124.503 2.95063C124.763 2.98136 125.911 4.56411 125.146 4.56411H120.632C119.866 4.56411 118.107 2.88917 118.045 2.62794M115.061 6.20831C115.031 6.11612 115.214 5.79342 115.291 5.82415C115.796 6.00855 117.586 6.05465 119.285 6.02392L125.391 5.96245C127.151 5.93172 127.671 5.05583 127.946 5.05583C128.237 5.05583 129.354 6.60784 129.354 7.33006C129.354 7.453 129.232 7.52983 129.033 7.52983C128.742 7.52983 127.043 7.43763 125.697 7.43763L119.132 7.46836C118.076 7.46836 117.372 7.69886 117.051 7.99082C116.224 7.76032 115.199 6.51564 115.092 6.19295M129.645 18.2556C127.013 19.4695 121.963 20.1764 118.504 20.6067C117.571 20.7296 117.005 20.8986 116.454 21.2213C115.566 20.9908 114.281 19.6847 114.158 19.1929C114.189 19.0393 114.312 18.901 114.388 18.8088C115.352 18.8088 116.76 18.8395 118.459 18.7473C119.514 18.6859 120.509 18.6244 121.412 18.5476L121.244 16.0121C119.009 15.6279 117.632 14.3064 117.632 12.4778C117.632 10.4802 119.361 9.12794 122.085 8.97427C122.116 8.85134 122.147 8.77451 122.147 8.65158C122.147 8.42108 122.085 8.14448 121.764 7.91399C121.764 7.3608 123.524 7.91399 123.524 8.20595C123.524 8.32888 123.371 8.68231 123.294 8.97427C125.957 9.15867 127.64 10.5109 127.64 12.4778C127.64 14.3064 126.202 15.6279 123.998 16.0121L123.876 18.3017C126.661 17.979 128.543 17.5334 129.798 17.1185C130.058 17.0263 129.951 18.0866 129.63 18.2402M96.3001 3.91872L96.2695 8.83597H103.095L103.263 3.91872H96.2848H96.3001ZM91.8776 2.8277C91.847 2.67404 92.2602 2.18231 92.4591 2.18231C92.9641 2.18231 94.7086 2.24378 95.8564 2.44354H102.36C103.186 2.44354 103.615 2.32061 103.936 2.02865C104.288 1.90571 106.568 2.25914 106.522 2.6433L105.558 8.55938C105.972 8.94354 106.522 9.71186 106.522 10.1268C106.522 10.2497 106.4 10.3265 106.201 10.3265C105.91 10.3265 104.824 10.2958 103.186 10.2958H95.9788C95.7951 10.6185 95.5656 10.9104 95.3055 11.2178C95.0453 11.479 94.5709 11.6019 94.219 11.5097C93.9282 10.8029 93.6834 9.45063 93.4844 7.00737L93.2243 3.94945C93.1937 3.65749 92.3673 3.0121 91.8776 2.8277ZM108.114 23.726C108.114 23.849 108.022 23.9258 107.793 23.9258H104.778L95.8104 23.9565C93.3161 23.9565 92.8264 23.096 92.8264 21.4211V18.9164C92.8264 18.4707 91.8929 17.7024 91.3573 17.6256C91.189 17.5948 91.7705 16.8573 92 16.8573C93.0253 16.8573 94.5556 17.0877 95.3208 17.3797C95.4738 17.4412 95.7033 17.5334 95.6421 17.8561C95.5809 18.2402 95.5809 18.7934 95.5809 19.2698V21.4518C95.5809 22.3584 95.9023 22.4814 96.698 22.4814L104.227 22.4506C105.818 22.4506 106.339 21.5594 106.538 21.5594C106.951 21.5594 108.114 23.0346 108.114 23.7107M110.96 14.1989C110.96 14.3525 110.838 14.4294 110.639 14.4294H101.35V16.135C101.35 17.8714 100.707 19.3773 100.264 20.0535C100.034 20.3147 99.529 20.4376 99.2077 20.3454C98.9475 19.5464 98.565 18.4861 98.565 16.5499V14.4294H92.3214C91.2655 14.4294 90.5616 14.7213 90.2402 15.0133C89.4139 14.7828 87.7459 13.4766 87.7459 13.1847C87.7459 13.0617 87.8989 12.739 87.9754 12.7698C88.4804 12.9542 90.2708 12.9695 91.9694 12.9695L106.339 12.9388C108.16 12.9388 108.772 11.9093 109.001 11.9093C109.323 11.9093 110.96 13.4766 110.96 14.1835M70.0252 6.74614C70.0252 8.63621 71.2495 9.89626 73.1011 9.89626C74.9527 9.89626 76.3606 8.63621 76.3606 6.74614C76.3606 4.85607 75.0446 3.59602 73.1317 3.59602C71.2189 3.59602 70.0252 4.87143 70.0252 6.74614ZM67.2401 6.83834C67.2401 4.19531 69.3519 2.42817 72.6114 2.24378C72.642 2.15158 72.6726 2.07474 72.6726 1.98255C72.6726 1.72132 72.6114 1.42935 72.2288 1.15276C72.2288 0.568834 74.1876 1.15276 74.1876 1.47545C74.1876 1.59838 74.0346 1.95181 73.9581 2.24378C77.0645 2.47427 79.1151 4.24141 79.1151 6.83834C79.1151 9.57356 76.7432 11.3714 73.1929 11.3714C69.6427 11.3714 67.2401 9.57356 67.2401 6.83834ZM84.7771 14.875C84.7771 14.9979 84.6547 15.0747 84.4558 15.0747H78.0898V16.4885C78.0898 20.4684 77.3859 23.557 77.0033 24.4636C76.7738 24.7249 76.2382 24.8478 75.9474 24.7863C75.7179 24.0487 75.3047 21.7591 75.3047 18.1941V15.0747L70.821 15.1055V15.9967C70.821 19.9459 70.1171 23.0346 69.7651 23.9412C69.5356 24.2024 69 24.3253 68.6786 24.2639C68.4797 23.5263 68.0665 21.2367 68.0665 17.7024V15.1055H66.1383C65.0824 15.1055 64.3785 15.3974 64.0572 15.6894C63.2308 15.4589 61.5628 14.1528 61.5628 13.8301C61.5628 13.7379 61.7158 13.4152 61.7923 13.4459C62.2973 13.6149 64.0878 13.6457 65.7864 13.6457L80.1557 13.5842C81.9767 13.5842 82.5888 12.5547 82.8184 12.5547C83.1397 12.5547 84.7771 14.1374 84.7771 14.8442M44.0717 5.56292C44.0717 7.1764 45.2806 8.32888 47.0864 8.32888C48.8921 8.32888 50.101 7.1764 50.101 5.56292C50.101 3.94945 48.8921 2.85843 47.0864 2.85843C45.2806 2.85843 44.0717 3.98018 44.0717 5.56292ZM41.2866 5.68586C41.2866 3.36552 43.3066 1.67522 46.4436 1.47545C46.4743 1.32179 46.5355 1.21422 46.5355 1.06056C46.5355 0.79933 46.4436 0.522735 46.0917 0.261505C46.0917 -0.353152 48.0504 0.261505 48.0504 0.553468C48.0504 0.737865 47.8515 1.13739 47.7291 1.46009C50.8355 1.65985 52.9167 3.35016 52.9167 5.67049C52.9167 8.11375 50.5448 9.85016 47.0864 9.85016C43.6279 9.85016 41.2866 8.11375 41.2866 5.67049M55.1815 24.2024C55.1815 24.3561 55.0591 24.4022 54.8602 24.4022H43.4596C41.5008 24.4022 40.8122 23.726 40.7663 22.1894L40.7051 20.2225C40.7051 19.9305 39.94 19.5464 39.4503 19.3312C39.4197 19.1776 39.8634 18.6859 40.093 18.6859C40.6439 18.6859 42.7404 18.8088 43.4902 19.07H50.9121L50.9427 16.6882H43.5208C42.618 16.6882 42.0211 16.9187 41.6998 17.226C40.6439 17.0724 39.7869 15.6894 39.7716 15.4896C39.741 15.336 39.8941 15.044 40.0318 15.0747C40.9652 15.2438 42.1436 15.2438 43.8422 15.2438H49.9174C50.7437 15.2438 51.1722 15.1516 51.4936 14.8289C51.8455 14.7981 54.1869 15.0594 54.1103 15.4435L53.3758 18.9164C53.9267 19.3312 54.2787 20.0381 54.2787 20.2071C54.2787 20.3608 54.1869 20.4684 54.0491 20.4684C53.789 20.4684 52.121 20.4376 50.759 20.4376H43.4902V21.7284C43.4902 22.7272 43.781 22.927 45.097 22.927H51.5242C53.3452 22.927 53.6054 22.1587 53.8043 22.1587C54.2175 22.1587 55.1815 23.5416 55.1815 24.1563M58.5328 12.8159C58.5328 12.9388 58.4104 13.0156 58.2115 13.0156H54.0797L39.9094 13.0464C38.8841 13.0464 38.1801 13.3383 37.8588 13.5996C37.0018 13.3691 35.4869 12.0937 35.3644 11.771C35.3338 11.6788 35.5175 11.3561 35.594 11.3868C36.099 11.5712 37.8741 11.6019 39.588 11.6019L53.9267 11.5405C55.7171 11.5405 56.3292 10.5109 56.5894 10.5109C56.9108 10.5109 58.5175 12.0937 58.5175 12.8005M26.1521 12.7544C26.1521 13.0156 25.9532 13.0156 25.2493 13.2308C24.9585 13.323 24.8055 13.784 24.576 14.5216C24.071 16.0736 22.4642 18.5783 19.1282 18.5783C15.7922 18.5783 14.0323 15.7201 13.9099 15.5665C13.7416 15.336 13.4661 15.1208 13.2366 15.1208C13.0836 15.1208 12.9764 15.1823 12.8846 15.2438C11.6757 16.0736 10.3597 17.0109 10.3597 19.1622C10.3597 20.5759 11.538 22.1894 13.5273 22.1894C15.226 22.1894 16.3431 20.5759 16.695 19.4542C16.8174 19.07 16.7868 18.9164 16.9858 18.9164C17.2459 18.9164 17.3377 19.5003 17.6897 19.5003C17.9805 19.5003 17.8886 19.3466 18.2712 19.3466C18.6232 19.3466 18.715 19.823 19.0057 19.823C19.4189 19.823 19.9698 19.4695 20.2453 19.4695C20.3371 19.4695 20.4748 19.4695 20.4748 19.5617C20.4748 19.7154 20.2147 19.8537 19.9698 20.0688C19.4648 20.5145 19.0976 20.7757 18.715 21.4211C17.3683 23.7107 15.8075 24.1256 15.0117 24.3714C14.721 24.4636 14.4302 24.6019 14.3078 24.8785C13.864 25.8773 13.6039 26.0003 13.4814 26.0003C13.3284 26.0003 13.2825 25.8312 13.2519 25.4471C13.2213 25.0322 12.9917 24.5558 12.196 24.4175C10.176 24.0334 7.68168 21.9743 7.68168 18.732C7.68168 15.8123 9.88528 14.6752 11.0024 13.5535C11.1554 13.3998 11.2625 13.2308 11.2625 12.9695V12.8773C11.2625 12.739 11.2319 12.5547 11.0483 12.3242C9.93119 10.9104 9.08954 9.97309 7.55926 9.97309C5.89125 9.97309 4.42218 11.3561 4.42218 13.3537C4.42218 15.505 5.47808 16.2426 6.53397 16.5038C6.88593 16.596 7.00836 16.6268 7.00836 16.7343C7.00836 16.9648 6.77881 16.9187 6.77881 17.2721C6.77881 17.5334 6.97775 17.5026 6.97775 17.9175C6.97775 18.2095 6.7176 18.3017 6.7176 18.7473C6.7176 19.1007 6.88593 19.2237 6.88593 19.4234C6.88593 19.6847 7.03896 19.6539 7.03896 20.2225C7.03896 20.3762 7.10017 20.4837 6.97775 20.4837C6.85533 20.4837 6.7176 20.284 6.53397 20.0074C6.12079 19.3927 5.67701 19.0086 5.35565 18.7627C2.80009 16.9034 2.70827 16.0889 2.06555 14.8135C1.91253 14.5216 1.86662 14.0145 1.56056 13.8762C0.627092 13.3998 -0.015625 13.2615 -0.015625 12.4932C-0.015625 12.1398 0.39755 12.4932 1.04027 12.4932C1.39223 12.4932 1.80541 12.5547 2.00434 11.8171C2.44812 10.2497 4.28446 7.74496 7.51335 7.74496C10.9412 7.74496 12.6398 10.6031 12.7622 10.7568C12.9917 11.0795 13.206 11.2024 13.4355 11.2024C13.5886 11.2024 13.6957 11.2024 13.9558 10.9719C16.1288 9.03574 16.2971 8.17522 16.2971 7.05347C16.2971 5.63976 15.18 3.99555 13.1907 3.99555C11.2013 3.99555 10.2525 5.57829 9.9924 6.76151C9.90058 7.14567 9.83937 7.34543 9.67104 7.34543C9.41089 7.34543 9.41089 6.992 9.12014 6.992C8.64575 6.992 8.59985 7.19177 8.355 7.19177C8.03364 7.19177 8.03364 6.60784 7.55926 6.60784C7.43683 6.60784 7.17669 6.76151 7.00836 6.76151C6.56458 6.76151 6.53397 6.8537 6.33503 6.8537C6.10549 6.8537 5.86065 6.73077 5.86065 6.56174C5.86065 6.39271 6.01367 6.26978 6.47276 6.03928C7.08487 5.71659 7.65107 5.48609 7.94183 4.82534C8.84469 2.79697 10.8494 2.15158 11.6145 1.85961C11.9052 1.73668 12.0583 1.62912 12.196 1.35252C12.8081 0.230772 13.0836 0.107841 13.2519 0.107841C13.4202 0.107841 13.4049 0.399803 13.4814 0.753231C13.5733 1.16812 13.5733 1.49082 14.2466 1.65985C16.1594 2.16694 18.9598 3.93408 18.9598 7.16103C18.9598 10.388 15.7922 12.4317 15.6391 12.5547C15.2872 12.8159 15.1647 13.031 15.1647 13.2308C15.1647 13.3844 15.2566 13.5535 15.3484 13.7379C16.1135 15.2745 17.4296 16.2733 18.9598 16.2733C20.7809 16.2733 22.1887 14.5677 22.1887 12.8005C22.1887 11.0334 21.0104 9.97309 19.9851 9.6504C19.6026 9.52746 19.4342 9.52746 19.4342 9.3277C19.4342 9.0972 19.6944 9.17404 19.6944 8.82061C19.6944 8.55938 19.5719 8.62084 19.5719 8.20595C19.5719 7.91399 19.9239 7.82179 19.9239 7.37616C19.9239 7.02274 19.7556 6.8998 19.7556 6.70004C19.7556 6.43881 19.6638 6.46954 19.6638 5.90099C19.6638 5.74732 19.6026 5.63976 19.725 5.63976C19.878 5.63976 20.0157 5.83952 20.1994 6.11612C20.6125 6.73077 20.9339 7.20713 21.2553 7.4069C23.566 8.88207 24.071 9.81943 24.6066 11.1409C24.729 11.4329 24.8361 11.94 25.1881 12.1398C25.4788 12.3242 26.1215 12.5239 26.1215 12.7544" fill="white"/>
</g>
<defs>
<clipPath id="clip0_32_869">
<rect width="164" height="26" fill="white"/>
</clipPath>
</defs>
</svg>
