<svg width="114" height="18" viewBox="0 0 114 18" fill="none" xmlns="http://www.w3.org/2000/svg">
<g clip-path="url(#clip0_42_1024)">
<path d="M113.904 9.12774L110.564 9.08519V11.3511C110.564 14.266 110.053 16.4043 109.809 17.0426C109.649 17.2235 109.277 17.3299 109.054 17.266C108.915 16.7554 108.628 15.1703 108.628 12.532V2.3405C108.628 1.91497 107.426 1.03199 106.979 0.893695C106.862 0.851142 107.245 0.404334 107.362 0.404334C108.277 0.404334 110.681 0.957525 110.628 1.38306C110.585 1.67029 110.564 2.01072 110.564 2.38306V8.21284L113.096 7.21285C113.319 7.12774 114.319 9.12774 113.915 9.12774M106.969 10.2341C107.32 10.7235 106.373 12.798 106.033 12.3086C105.543 11.6171 104.203 9.57455 103.001 8.21284C101.395 10.4575 99.3949 12.266 97.5972 13.2235C97.3738 13.2022 97.1079 12.8724 97.1079 12.6703C99.3311 10.6916 101.841 7.22348 102.895 4.06391C102.958 3.88306 102.203 3.32987 101.873 3.12774C101.767 3.06391 102.224 2.72348 102.341 2.72348C102.948 2.72348 104.628 3.41497 105.033 3.70221C105.256 3.86178 105.277 3.96816 105.171 4.23412C104.724 5.3937 104.128 6.50008 103.458 7.52136C104.969 8.56391 106.639 9.76604 106.969 10.2341ZM96.1718 9.31923L92.8104 9.2554V11.3511C92.8104 14.266 92.3423 16.4043 92.0764 17.0426C91.9169 17.2235 91.5446 17.3299 91.3424 17.266C91.1829 16.7554 90.917 15.1703 90.917 12.532V2.3405C90.917 1.91497 89.7149 1.07455 89.2682 0.893695C89.1618 0.851142 89.5341 0.404334 89.6511 0.404334C90.5659 0.404334 92.9168 0.957525 92.8742 1.38306C92.8529 1.67029 92.8104 2.01072 92.8104 2.38306V8.3937L95.3527 7.41497C95.5974 7.30859 96.5973 9.30859 96.1718 9.30859M85.2473 10.3192C86.1833 10.3192 86.8748 9.67029 86.8748 8.67029C86.8748 7.67029 86.2259 7.00008 85.2473 7.00008C84.2686 7.00008 83.6198 7.67029 83.6198 8.67029C83.6198 9.67029 84.2686 10.3192 85.2473 10.3192ZM82.0667 1.81923C82.0454 1.73412 82.1518 1.45753 82.2688 1.46816C82.939 1.59582 83.6198 1.71284 84.4707 1.81923L86.545 2.04263C86.7259 2.06391 87.5237 3.15965 86.9918 3.15965H83.8538C83.3219 3.15965 82.0986 2.00008 82.0561 1.81923M79.9818 4.29795C79.9605 4.23412 80.0882 4.01072 80.1414 4.03199C80.4924 4.15965 81.737 4.19157 82.9177 4.17029L87.162 4.12774C88.3853 4.10646 88.7469 3.50008 88.9384 3.50008C89.1405 3.50008 89.917 4.57455 89.917 5.07455C89.917 5.15965 89.8319 5.21284 89.6937 5.21284C89.4916 5.21284 88.3108 5.14901 87.3747 5.14901L82.8113 5.17029C82.0773 5.17029 81.588 5.32987 81.3646 5.53199C80.7902 5.37242 80.0775 4.51072 80.0031 4.28731M90.1192 12.6384C88.2895 13.4788 84.7792 13.9682 82.3752 14.266C81.7263 14.3511 81.3327 14.4682 80.9498 14.6916C80.3328 14.532 79.4393 13.6277 79.3542 13.2873C79.3755 13.1809 79.4606 13.0852 79.5138 13.0214C80.1839 13.0214 81.1625 13.0426 82.3433 12.9788C83.0773 12.9362 83.7687 12.8937 84.3963 12.8405L84.2793 11.0852C82.7262 10.8192 81.7689 9.90434 81.7689 8.63838C81.7689 7.2554 82.9709 6.31923 84.8643 6.21284C84.8856 6.12774 84.9069 6.07455 84.9069 5.98944C84.9069 5.82987 84.8643 5.63838 84.6409 5.4788C84.6409 5.09582 85.8642 5.4788 85.8642 5.68093C85.8642 5.76604 85.7579 6.01072 85.7047 6.21284C87.5556 6.3405 88.7257 7.27667 88.7257 8.63838C88.7257 9.90434 87.7258 10.8192 86.194 11.0852L86.1089 12.6703C88.0449 12.4469 89.3533 12.1384 90.2255 11.8511C90.4064 11.7873 90.3319 12.5214 90.1085 12.6277M66.9405 2.71284L66.9192 6.1171H71.6634L71.7804 2.71284H66.9298H66.9405ZM63.8663 1.95753C63.845 1.85114 64.1322 1.51072 64.2705 1.51072C64.6215 1.51072 65.8342 1.55327 66.632 1.69157H71.1528C71.7272 1.69157 72.0251 1.60646 72.2485 1.40433C72.4931 1.31923 74.0781 1.56391 74.0462 1.82987L73.376 5.92561C73.6632 6.19157 74.0462 6.72348 74.0462 7.01072C74.0462 7.09582 73.9611 7.14901 73.8228 7.14901C73.6207 7.14901 72.8654 7.12774 71.7272 7.12774H66.7171C66.5894 7.35114 66.4299 7.55327 66.249 7.76604C66.0682 7.94689 65.7384 8.03199 65.4938 7.96816C65.2917 7.4788 65.1215 6.54263 64.9832 4.85114L64.8024 2.73412C64.7811 2.53199 64.2067 2.08519 63.8663 1.95753ZM75.1525 16.4256C75.1525 16.5107 75.0886 16.5639 74.9291 16.5639H72.8335L66.6001 16.5852C64.8662 16.5852 64.5258 15.9894 64.5258 14.8299V13.0958C64.5258 12.7873 63.8769 12.2554 63.5046 12.2022C63.3876 12.1809 63.7918 11.6703 63.9514 11.6703C64.6641 11.6703 65.7278 11.8299 66.2597 12.032C66.366 12.0745 66.5256 12.1384 66.4831 12.3618C66.4405 12.6277 66.4405 13.0107 66.4405 13.3405V14.8511C66.4405 15.4788 66.6639 15.5639 67.217 15.5639L72.4506 15.5426C73.5569 15.5426 73.9185 14.9256 74.0568 14.9256C74.344 14.9256 75.1525 15.9469 75.1525 16.415M77.131 9.82987C77.131 9.93625 77.0459 9.98944 76.9076 9.98944H70.4508V11.1703C70.4508 12.3724 70.004 13.415 69.6955 13.8831C69.536 14.0639 69.1849 14.149 68.9616 14.0852C68.7807 13.532 68.5148 12.798 68.5148 11.4575V9.98944H64.1748C63.4408 9.98944 62.9515 10.1916 62.7281 10.3937C62.1537 10.2341 60.9942 9.32987 60.9942 9.12774C60.9942 9.04263 61.1006 8.81923 61.1538 8.84051C61.5048 8.96816 62.7494 8.9788 63.9301 8.9788L73.9185 8.95753C75.1844 8.95753 75.6099 8.24476 75.7694 8.24476C75.9928 8.24476 77.131 9.32987 77.131 9.81923M48.6762 4.67029C48.6762 5.9788 49.5272 6.85114 50.8143 6.85114C52.1014 6.85114 53.0801 5.9788 53.0801 4.67029C53.0801 3.36178 52.1652 2.48944 50.8356 2.48944C49.5059 2.48944 48.6762 3.37242 48.6762 4.67029ZM46.7402 4.73412C46.7402 2.90433 48.2082 1.68093 50.4739 1.55327C50.4952 1.48944 50.5165 1.43625 50.5165 1.37242C50.5165 1.19157 50.4739 0.98944 50.208 0.797951C50.208 0.393695 51.5696 0.797951 51.5696 1.02136C51.5696 1.10646 51.4632 1.35114 51.41 1.55327C53.5694 1.71284 54.9948 2.93625 54.9948 4.73412C54.9948 6.62774 53.346 7.87242 50.8781 7.87242C48.4103 7.87242 46.7402 6.62774 46.7402 4.73412ZM58.9306 10.298C58.9306 10.3831 58.8455 10.4362 58.7072 10.4362H54.2821V11.415C54.2821 14.1703 53.7927 16.3086 53.5268 16.9363C53.3673 17.1171 52.995 17.2022 52.7928 17.1597C52.6333 16.649 52.3461 15.0639 52.3461 12.5958V10.4362L49.2293 10.4575V11.0745C49.2293 13.8086 48.74 15.9469 48.4954 16.5745C48.3358 16.7554 47.9635 16.8405 47.7401 16.798C47.6018 16.2873 47.3146 14.7022 47.3146 12.2554V10.4575H45.9743C45.2404 10.4575 44.751 10.6597 44.5277 10.8618C43.9532 10.7022 42.7938 9.79795 42.7938 9.57455C42.7938 9.51072 42.9002 9.28731 42.9533 9.30859C43.3044 9.42561 44.5489 9.44689 45.7297 9.44689L55.7181 9.40434C56.9839 9.40434 57.4094 8.69157 57.569 8.69157C57.7924 8.69157 58.9306 9.78731 58.9306 10.2767M30.6353 3.85114C30.6353 4.96816 31.4757 5.76604 32.7309 5.76604C33.9861 5.76604 34.8264 4.96816 34.8264 3.85114C34.8264 2.73412 33.9861 1.9788 32.7309 1.9788C31.4757 1.9788 30.6353 2.7554 30.6353 3.85114ZM28.6993 3.93625C28.6993 2.32987 30.1035 1.15965 32.2841 1.02136C32.3054 0.914972 32.3479 0.840504 32.3479 0.734121C32.3479 0.55327 32.2841 0.361781 32.0395 0.180929C32.0395 -0.244602 33.401 0.180929 33.401 0.383057C33.401 0.510717 33.2628 0.787313 33.1777 1.01072C35.337 1.14901 36.7837 2.31923 36.7837 3.92561C36.7837 5.6171 35.1349 6.81923 32.7309 6.81923C30.3269 6.81923 28.6993 5.6171 28.6993 3.92561M38.358 16.7554C38.358 16.8618 38.2729 16.8937 38.1346 16.8937H30.2098C28.8483 16.8937 28.3696 16.4256 28.3377 15.3618L28.2951 14.0001C28.2951 13.798 27.7633 13.532 27.4229 13.3831C27.4016 13.2767 27.7101 12.9362 27.8696 12.9362C28.2526 12.9362 29.7099 13.0214 30.2311 13.2022H35.3902L35.4115 11.5533H30.2524C29.6248 11.5533 29.2099 11.7128 28.9866 11.9256C28.2526 11.8192 27.6569 10.8618 27.6463 10.7235C27.625 10.6171 27.7314 10.415 27.8271 10.4362C28.476 10.5533 29.295 10.5533 30.4758 10.5533H34.6988C35.2732 10.5533 35.571 10.4894 35.7944 10.266C36.0391 10.2448 37.6666 10.4256 37.6134 10.6916L37.1028 13.0958C37.4858 13.3831 37.7304 13.8724 37.7304 13.9894C37.7304 14.0958 37.6666 14.1703 37.5709 14.1703C37.39 14.1703 36.2306 14.149 35.2838 14.149H30.2311V15.0426C30.2311 15.7341 30.4332 15.8724 31.348 15.8724H35.8157C37.0815 15.8724 37.2624 15.3405 37.4007 15.3405C37.6879 15.3405 38.358 16.298 38.358 16.7235M40.6876 8.87242C40.6876 8.95753 40.6025 9.01072 40.4642 9.01072H37.5921L27.742 9.03199C27.0293 9.03199 26.54 9.23412 26.3166 9.41497C25.7209 9.2554 24.6678 8.37242 24.5827 8.14902C24.5614 8.08519 24.6891 7.86178 24.7423 7.88306C25.0933 8.01072 26.3272 8.03199 27.5186 8.03199L37.4858 7.98944C38.7303 7.98944 39.1558 7.27667 39.3367 7.27667C39.56 7.27667 40.677 8.37242 40.677 8.86178M18.1791 8.82987C18.1791 9.01072 18.0408 9.01072 17.5515 9.15965C17.3493 9.22348 17.243 9.54263 17.0834 10.0533C16.7324 11.1277 15.6155 12.8618 13.2965 12.8618C10.9776 12.8618 9.7543 10.8831 9.66921 10.7767C9.5522 10.6171 9.36072 10.4682 9.20116 10.4682C9.09479 10.4682 9.02033 10.5107 8.95651 10.5533C8.11616 11.1277 7.20135 11.7767 7.20135 13.266C7.20135 14.2448 8.02042 15.3618 9.40327 15.3618C10.584 15.3618 11.3605 14.2448 11.6052 13.4682C11.6903 13.2022 11.669 13.0958 11.8073 13.0958C11.9881 13.0958 12.052 13.5001 12.2966 13.5001C12.4987 13.5001 12.4349 13.3937 12.7008 13.3937C12.9455 13.3937 13.0093 13.7235 13.2114 13.7235C13.4986 13.7235 13.8816 13.4788 14.0731 13.4788C14.1369 13.4788 14.2326 13.4788 14.2326 13.5426C14.2326 13.649 14.0518 13.7448 13.8816 13.8937C13.5305 14.2022 13.2753 14.3831 13.0093 14.8299C12.0732 16.415 10.9882 16.7022 10.4351 16.8724C10.233 16.9363 10.0309 17.032 9.94578 17.2235C9.63729 17.915 9.45646 18.0001 9.37136 18.0001C9.26499 18.0001 9.23308 17.8831 9.2118 17.6171C9.19053 17.3299 9.03097 17.0001 8.47783 16.9043C7.0737 16.6384 5.33982 15.2128 5.33982 12.9682C5.33982 10.9469 6.87159 10.1597 7.64812 9.38306C7.75449 9.27667 7.82895 9.15965 7.82895 8.9788V8.91497C7.82895 8.81923 7.80768 8.69157 7.68003 8.53199C6.90351 7.55327 6.31846 6.90433 5.25472 6.90433C4.09526 6.90433 3.07408 7.86178 3.07408 9.24476C3.07408 10.7341 3.80805 11.2448 4.54203 11.4256C4.78668 11.4894 4.87178 11.5107 4.87178 11.5852C4.87178 11.7448 4.71222 11.7128 4.71222 11.9575C4.71222 12.1384 4.85051 12.1171 4.85051 12.4043C4.85051 12.6065 4.66967 12.6703 4.66967 12.9788C4.66967 13.2235 4.78668 13.3086 4.78668 13.4469C4.78668 13.6277 4.89306 13.6065 4.89306 14.0001C4.89306 14.1065 4.93561 14.1809 4.85051 14.1809C4.76541 14.1809 4.66967 14.0426 4.54203 13.8511C4.25482 13.4256 3.94634 13.1597 3.72295 12.9894C1.94652 11.7022 1.8827 11.1384 1.43593 10.2554C1.32956 10.0533 1.29765 9.70221 1.0849 9.60646C0.436025 9.27667 -0.0107422 9.18093 -0.0107422 8.64902C-0.0107422 8.40434 0.276465 8.64902 0.723232 8.64902C0.96789 8.64902 1.2551 8.69157 1.39338 8.18093C1.70186 7.09582 2.97834 5.36178 5.22281 5.36178C7.60557 5.36178 8.78631 7.3405 8.87141 7.44689C9.03097 7.67029 9.17989 7.7554 9.33945 7.7554C9.44582 7.7554 9.52028 7.7554 9.70112 7.59582C11.2116 6.2554 11.3286 5.65965 11.3286 4.88306C11.3286 3.90433 10.5521 2.76604 9.16925 2.76604C7.7864 2.76604 7.12689 3.86178 6.94606 4.68093C6.88223 4.94689 6.83968 5.08519 6.72267 5.08519C6.54184 5.08519 6.54184 4.8405 6.33973 4.8405C6.00997 4.8405 5.97806 4.9788 5.80786 4.9788C5.58448 4.9788 5.58448 4.57455 5.25472 4.57455C5.16963 4.57455 4.98879 4.68093 4.87178 4.68093C4.5633 4.68093 4.54203 4.74476 4.40374 4.74476C4.24418 4.74476 4.07398 4.65965 4.07398 4.54263C4.07398 4.42561 4.18036 4.3405 4.49948 4.18093C4.92497 3.95753 5.31855 3.79795 5.52066 3.3405C6.14826 1.93625 7.54175 1.48944 8.07361 1.28731C8.27572 1.20221 8.38209 1.12774 8.47783 0.936249C8.90332 0.159653 9.09479 0.0745465 9.2118 0.0745465C9.32881 0.0745465 9.31818 0.276674 9.37136 0.521355C9.43519 0.808589 9.43519 1.03199 9.90323 1.14901C11.2329 1.50008 13.1795 2.72348 13.1795 4.95753C13.1795 7.19157 10.9776 8.60646 10.8712 8.69157C10.6266 8.87242 10.5415 9.02136 10.5415 9.15965C10.5415 9.26604 10.6053 9.38306 10.6691 9.51072C11.201 10.5745 12.1158 11.266 13.1795 11.266C14.4454 11.266 15.424 10.0852 15.424 8.86178C15.424 7.63838 14.6049 6.90433 13.8922 6.68093C13.6263 6.59582 13.5093 6.59582 13.5093 6.45753C13.5093 6.29795 13.6901 6.35114 13.6901 6.10646C13.6901 5.92561 13.605 5.96816 13.605 5.68093C13.605 5.4788 13.8497 5.41497 13.8497 5.10646C13.8497 4.86178 13.7327 4.77667 13.7327 4.63838C13.7327 4.45753 13.6688 4.4788 13.6688 4.08519C13.6688 3.9788 13.6263 3.90433 13.7114 3.90433C13.8178 3.90433 13.9135 4.04263 14.0411 4.23412C14.3283 4.65965 14.5517 4.98944 14.7751 5.12774C16.3813 6.14902 16.7324 6.79795 17.1047 7.71284C17.1898 7.91497 17.2642 8.26604 17.5089 8.40434C17.711 8.53199 18.1578 8.67029 18.1578 8.82987" fill="white"/>
</g>
<defs>
<clipPath id="clip0_42_1024">
<rect width="114" height="18" fill="white"/>
</clipPath>
</defs>
</svg>
