<svg width="221" height="35" viewBox="0 0 221 35" fill="none" xmlns="http://www.w3.org/2000/svg">
<g clip-path="url(#clip0_32_627)">
<path d="M220.815 17.7483L214.339 17.6656V22.0716C214.339 27.7394 213.35 31.8972 212.875 33.1384C212.566 33.49 211.844 33.6969 211.411 33.5728C211.143 32.5799 210.586 29.4977 210.586 24.3677V4.5509C210.586 3.72348 208.256 2.00657 207.39 1.73766C207.163 1.65492 207.906 0.786123 208.132 0.786123C209.906 0.786123 214.566 1.86177 214.463 2.6892C214.381 3.24771 214.339 3.90965 214.339 4.63364V15.9693L219.247 14.0249C219.68 13.8594 221.619 17.7483 220.835 17.7483M207.369 19.8996C208.05 20.8511 206.215 24.8848 205.555 23.9333C204.606 22.5887 202.008 18.6171 199.678 15.9693C196.564 20.334 192.687 23.8505 189.202 25.7122C188.769 25.6709 188.253 25.0296 188.253 24.6366C192.563 20.7891 197.43 14.0456 199.471 7.90196C199.595 7.55031 198.131 6.47466 197.492 6.08163C197.285 5.95752 198.172 5.29558 198.399 5.29558C199.574 5.29558 202.833 6.64014 203.616 7.19865C204.049 7.50894 204.091 7.71579 203.884 8.23293C203.018 10.4877 201.863 12.639 200.564 14.6248C203.493 16.652 206.73 18.9894 207.369 19.8996ZM186.439 18.1206L179.922 17.9965V22.0716C179.922 27.7394 179.015 31.8972 178.499 33.1384C178.19 33.49 177.468 33.6969 177.076 33.5728C176.767 32.5799 176.252 29.4977 176.252 24.3677V4.5509C176.252 3.72348 173.921 2.08931 173.055 1.73766C172.849 1.65492 173.571 0.786123 173.798 0.786123C175.571 0.786123 180.128 1.86177 180.046 2.6892C180.005 3.24771 179.922 3.90965 179.922 4.63364V16.321L184.851 14.4179C185.325 14.2111 187.263 18.1 186.439 18.1M165.26 20.0651C167.075 20.0651 168.415 18.8033 168.415 16.8588C168.415 14.9144 167.158 13.6112 165.26 13.6112C163.363 13.6112 162.105 14.9144 162.105 16.8588C162.105 18.8033 163.363 20.0651 165.26 20.0651ZM159.095 3.53731C159.053 3.37182 159.26 2.834 159.486 2.85468C160.786 3.10291 162.105 3.33045 163.755 3.53731L167.776 3.9717C168.127 4.01307 169.673 6.14369 168.642 6.14369H162.559C161.528 6.14369 159.156 3.88896 159.074 3.53731M155.053 8.35705C155.012 8.23293 155.259 7.79854 155.362 7.83991C156.043 8.08813 158.455 8.15019 160.744 8.10882L168.972 8.02608C171.344 7.98471 172.045 6.80563 172.416 6.80563C172.808 6.80563 174.313 8.89487 174.313 9.86709C174.313 10.0326 174.148 10.136 173.88 10.136C173.488 10.136 171.199 10.0119 169.385 10.0119L160.538 10.0533C159.115 10.0533 158.167 10.3635 157.734 10.7566C156.62 10.4463 155.238 8.77076 155.094 8.33636M174.705 24.5745C171.158 26.2087 164.353 27.1602 159.693 27.7394C158.435 27.9049 157.672 28.1325 156.929 28.5669C155.733 28.2566 154.001 26.4983 153.836 25.8364C153.877 25.6295 154.042 25.4433 154.145 25.3192C155.445 25.3192 157.342 25.3606 159.631 25.2365C161.054 25.1537 162.394 25.071 163.611 24.9676L163.384 21.5544C160.373 21.0373 158.517 19.2583 158.517 16.7968C158.517 14.1076 160.847 12.2873 164.518 12.0805C164.559 11.915 164.6 11.8115 164.6 11.6461C164.6 11.3358 164.518 10.9634 164.085 10.6531C164.085 9.90846 166.456 10.6531 166.456 11.0462C166.456 11.2117 166.25 11.6874 166.147 12.0805C169.735 12.3287 172.004 14.149 172.004 16.7968C172.004 19.2583 170.065 21.0373 167.096 21.5544L166.931 24.6366C170.684 24.2022 173.22 23.6023 174.911 23.0438C175.262 22.9197 175.117 24.347 174.684 24.5539M129.771 5.27489L129.73 11.8943H138.927L139.154 5.27489H129.75H129.771ZM123.811 3.80622C123.77 3.59936 124.327 2.93742 124.595 2.93742C125.275 2.93742 127.626 3.02017 129.173 3.28908H137.937C139.051 3.28908 139.628 3.12359 140.061 2.73057C140.535 2.56508 143.608 3.04085 143.546 3.55799L142.247 11.5219C142.804 12.0391 143.546 13.0734 143.546 13.6319C143.546 13.7974 143.381 13.9008 143.113 13.9008C142.721 13.9008 141.257 13.8594 139.051 13.8594H129.338C129.09 14.2938 128.781 14.6868 128.43 15.1005C128.08 15.4522 127.441 15.6177 126.966 15.4936C126.575 14.542 126.245 12.7217 125.977 9.4327L125.626 5.31627C125.585 4.92324 124.471 4.05445 123.811 3.80622ZM145.691 31.9386C145.691 32.1041 145.567 32.2075 145.258 32.2075H141.195L129.111 32.2489C125.75 32.2489 125.09 31.0905 125.09 28.8358V25.464C125.09 24.8641 123.832 23.8299 123.11 23.7264C122.883 23.6851 123.667 22.6922 123.976 22.6922C125.358 22.6922 127.42 23.0024 128.451 23.3955C128.657 23.4782 128.967 23.6023 128.884 24.0367C128.802 24.5539 128.802 25.2985 128.802 25.9398V28.8771C128.802 30.0976 129.235 30.2631 130.307 30.2631L140.453 30.2217C142.597 30.2217 143.299 29.0219 143.567 29.0219C144.123 29.0219 145.691 31.0078 145.691 31.9179M149.526 19.1135C149.526 19.3204 149.361 19.4238 149.093 19.4238H136.576V21.7199C136.576 24.0574 135.71 26.0846 135.112 26.9948C134.802 27.3464 134.122 27.5119 133.689 27.3878C133.338 26.3121 132.823 24.8848 132.823 22.2784V19.4238H124.409C122.986 19.4238 122.038 19.8169 121.605 20.2099C120.491 19.8996 118.243 18.1413 118.243 17.7483C118.243 17.5828 118.45 17.1484 118.553 17.1898C119.233 17.438 121.646 17.4587 123.935 17.4587L143.299 17.4173C145.752 17.4173 146.577 16.0314 146.887 16.0314C147.32 16.0314 149.526 18.1413 149.526 19.0929M94.3638 9.08104C94.3638 11.6254 96.0135 13.3216 98.5087 13.3216C101.004 13.3216 102.901 11.6254 102.901 9.08104C102.901 6.53671 101.128 4.8405 98.55 4.8405C95.9723 4.8405 94.3638 6.5574 94.3638 9.08104ZM90.6107 9.20515C90.6107 5.64723 93.4565 3.26839 97.8489 3.02017C97.8901 2.89605 97.9313 2.79262 97.9313 2.66851C97.9313 2.31686 97.8489 1.92383 97.3333 1.55149C97.3333 0.765438 99.9729 1.55149 99.9729 1.98589C99.9729 2.15137 99.7667 2.62714 99.6635 3.02017C103.85 3.33045 106.613 5.70929 106.613 9.20515C106.613 12.8872 103.417 15.3074 98.6325 15.3074C93.8483 15.3074 90.6107 12.8872 90.6107 9.20515ZM114.243 20.0237C114.243 20.1892 114.078 20.2926 113.81 20.2926H105.231V22.1957C105.231 27.5533 104.283 31.7111 103.767 32.9315C103.458 33.2832 102.736 33.4487 102.344 33.3659C102.035 32.373 101.478 29.2909 101.478 24.4918V20.2926L95.4361 20.334V21.5338C95.4361 26.85 94.4876 31.0078 94.0133 32.2282C93.7039 32.5799 92.9822 32.7453 92.5491 32.6626C92.2811 31.6697 91.7243 28.5875 91.7243 23.8299V20.334H89.126C87.7031 20.334 86.7545 20.727 86.3215 21.1201C85.2079 20.8098 82.9602 19.0515 82.9602 18.6171C82.9602 18.493 83.1664 18.0586 83.2695 18.1C83.95 18.3275 86.3627 18.3689 88.6517 18.3689L108.015 18.2861C110.469 18.2861 111.294 16.9002 111.603 16.9002C112.036 16.9002 114.243 19.0308 114.243 19.9823M59.3899 7.48825C59.3899 9.66024 61.019 11.2117 63.4523 11.2117C65.8856 11.2117 67.5147 9.66024 67.5147 7.48825C67.5147 5.31627 65.8856 3.84759 63.4523 3.84759C61.019 3.84759 59.3899 5.35764 59.3899 7.48825ZM55.6368 7.65374C55.6368 4.53021 58.3588 2.2548 62.5862 1.98589C62.6274 1.77903 62.7099 1.63423 62.7099 1.42738C62.7099 1.07572 62.5862 0.703381 62.1119 0.351726C62.1119 -0.475697 64.7514 0.351726 64.7514 0.744752C64.7514 0.992979 64.4834 1.5308 64.3184 1.9652C68.5045 2.23411 71.3091 4.50953 71.3091 7.63305C71.3091 10.9221 68.1127 13.2595 63.4523 13.2595C58.7918 13.2595 55.6368 10.9221 55.6368 7.63305M74.361 32.5799C74.361 32.7867 74.1961 32.8488 73.928 32.8488H58.565C55.9255 32.8488 54.9975 31.9386 54.9356 29.8701L54.8532 27.2223C54.8532 26.8293 53.8221 26.3121 53.1622 26.0225C53.121 25.8157 53.719 25.1537 54.0283 25.1537C54.7707 25.1537 57.5958 25.3192 58.6063 25.6709H68.6077L68.6489 22.4646H58.6475C57.4308 22.4646 56.6266 22.7749 56.1935 23.1886C54.7707 22.9818 53.6159 21.1201 53.5952 20.8511C53.554 20.6443 53.7602 20.2513 53.9458 20.2926C55.2037 20.5202 56.7916 20.5202 59.0805 20.5202H67.2673C68.3808 20.5202 68.9582 20.3961 69.3913 19.9617C69.8656 19.9203 73.0206 20.2719 72.9175 20.7891L71.9277 25.464C72.6701 26.0225 73.1444 26.9741 73.1444 27.2016C73.1444 27.4085 73.0206 27.5533 72.835 27.5533C72.4845 27.5533 70.2367 27.5119 68.4014 27.5119H58.6063V29.2495C58.6063 30.594 58.9981 30.863 60.7715 30.863H69.4325C71.8865 30.863 72.237 29.8287 72.5051 29.8287C73.0619 29.8287 74.361 31.6904 74.361 32.5178M78.8771 17.2518C78.8771 17.4173 78.7122 17.5208 78.4441 17.5208H72.8763L53.7808 17.5621C52.3992 17.5621 51.4506 17.9552 51.0176 18.3068C49.8628 17.9965 47.8212 16.2796 47.6563 15.8452C47.615 15.7211 47.8625 15.2867 47.9656 15.3281C48.6461 15.5763 51.0382 15.6177 53.3478 15.6177L72.6701 15.5349C75.0828 15.5349 75.9076 14.149 76.2582 14.149C76.6913 14.149 78.8565 16.2796 78.8565 17.2312M35.2422 17.1691C35.2422 17.5208 34.9741 17.5208 34.0255 17.8104C33.6337 17.9345 33.4275 18.555 33.1181 19.5479C32.4376 21.6372 30.2724 25.0089 25.7769 25.0089C21.2814 25.0089 18.91 21.1614 18.745 20.9546C18.5182 20.6443 18.147 20.3547 17.8377 20.3547C17.6314 20.3547 17.4871 20.4374 17.3634 20.5202C15.7343 21.6372 13.9608 22.899 13.9608 25.795C13.9608 27.6981 15.5487 29.8701 18.2295 29.8701C20.5184 29.8701 22.0238 27.6981 22.4981 26.188C22.6631 25.6709 22.6218 25.464 22.8899 25.464C23.2405 25.464 23.3642 26.2501 23.8385 26.2501C24.2303 26.2501 24.1066 26.0432 24.6221 26.0432C25.0964 26.0432 25.2201 26.6845 25.6119 26.6845C26.1687 26.6845 26.9111 26.2087 27.2823 26.2087C27.406 26.2087 27.5916 26.2087 27.5916 26.3328C27.5916 26.5397 27.241 26.7258 26.9111 27.0154C26.2306 27.6153 25.7357 27.967 25.2201 28.8358C23.4055 31.9179 21.3021 32.4764 20.2297 32.8074C19.8379 32.9315 19.4461 33.1177 19.2812 33.49C18.6831 34.8346 18.3326 35.0001 18.1676 35.0001C17.9614 35.0001 17.8995 34.7725 17.8583 34.2554C17.817 33.6969 17.5077 33.0556 16.4354 32.8695C13.7134 32.3523 10.3521 29.5805 10.3521 25.2158C10.3521 21.2855 13.3216 19.7548 14.8269 18.2448C15.0331 18.0379 15.1775 17.8104 15.1775 17.4587V17.3346C15.1775 17.1484 15.1363 16.9002 14.8888 16.5899C13.3834 14.6868 12.2493 13.425 10.1871 13.425C7.93937 13.425 5.95971 15.2867 5.95971 17.9758C5.95971 20.8718 7.38259 21.8647 8.80547 22.2164C9.27976 22.3405 9.44473 22.3819 9.44473 22.5267C9.44473 22.837 9.13541 22.7749 9.13541 23.2507C9.13541 23.6023 9.40349 23.5609 9.40349 24.1195C9.40349 24.5125 9.05293 24.6366 9.05293 25.2365C9.05293 25.7122 9.27976 25.8777 9.27976 26.1466C9.27976 26.4983 9.48598 26.4569 9.48598 27.2223C9.48598 27.4292 9.56846 27.574 9.40349 27.574C9.23852 27.574 9.05293 27.305 8.80547 26.9327C8.24869 26.1053 7.65067 25.5881 7.21762 25.2572C3.77384 22.7542 3.65011 21.6579 2.78401 19.941C2.57779 19.5479 2.51593 18.8653 2.1035 18.6792C0.845593 18.0379 -0.0205078 17.8517 -0.0205078 16.8174C-0.0205078 16.3417 0.536271 16.8174 1.40237 16.8174C1.87666 16.8174 2.43344 16.9002 2.70152 15.9073C3.29954 13.7974 5.77412 10.4256 10.1252 10.4256C14.7444 10.4256 17.0334 14.2731 17.1984 14.48C17.5077 14.9144 17.7964 15.0799 18.1057 15.0799C18.312 15.0799 18.4563 15.0799 18.8069 14.7696C21.7351 12.1632 21.962 11.0048 21.962 9.49475C21.962 7.59168 20.4566 5.37832 17.7758 5.37832C15.095 5.37832 13.8165 7.50894 13.4659 9.10173C13.3422 9.61887 13.2597 9.88778 13.0329 9.88778C12.6823 9.88778 12.6823 9.41201 12.2905 9.41201C11.6512 9.41201 11.5894 9.68092 11.2594 9.68092C10.8264 9.68092 10.8264 8.89487 10.1871 8.89487C10.0221 8.89487 9.67157 9.10173 9.44473 9.10173C8.84671 9.10173 8.80547 9.22584 8.53739 9.22584C8.22807 9.22584 7.89813 9.06036 7.89813 8.83281C7.89813 8.60527 8.10434 8.43979 8.72298 8.12951C9.54784 7.69511 10.3108 7.38482 10.7026 6.49534C11.9193 3.76485 14.6207 2.89605 15.6518 2.50303C16.0436 2.33754 16.2498 2.19274 16.4354 1.8204C17.2603 0.310355 17.6314 0.14487 17.8583 0.14487C18.0851 0.14487 18.0645 0.537896 18.1676 1.01366C18.2913 1.57218 18.2913 2.00657 19.1987 2.23411C21.7764 2.91674 25.5501 5.29558 25.5501 9.63955C25.5501 13.9835 21.2814 16.7347 21.0752 16.9002C20.6009 17.2518 20.436 17.5414 20.436 17.8104C20.436 18.0172 20.5597 18.2448 20.6834 18.493C21.7145 20.5615 23.4879 21.9061 25.5501 21.9061C28.004 21.9061 29.9012 19.61 29.9012 17.2312C29.9012 14.8523 28.3134 13.425 26.9317 12.9906C26.4162 12.8251 26.1893 12.8251 26.1893 12.5562C26.1893 12.2459 26.5399 12.3494 26.5399 11.8736C26.5399 11.5219 26.3749 11.6047 26.3749 11.0462C26.3749 10.6531 26.8492 10.529 26.8492 9.92915C26.8492 9.45338 26.6224 9.2879 26.6224 9.01898C26.6224 8.66733 26.4987 8.7087 26.4987 7.94333C26.4987 7.73648 26.4162 7.59168 26.5812 7.59168C26.7874 7.59168 26.973 7.86059 27.2204 8.23293C27.7772 9.06036 28.2102 9.70161 28.6433 9.97052C31.7571 11.9563 32.4376 13.2182 33.1594 14.9971C33.3244 15.3901 33.4687 16.0728 33.943 16.3417C34.3348 16.5899 35.2009 16.8588 35.2009 17.1691" fill="white"/>
</g>
<defs>
<clipPath id="clip0_32_627">
<rect width="221" height="35" fill="white"/>
</clipPath>
</defs>
</svg>
