<svg width="19" height="26" viewBox="0 0 19 26" fill="none" xmlns="http://www.w3.org/2000/svg">
<path d="M10.7676 6.02885L15.3349 10.5962C15.6555 10.9167 16.0294 11.0702 16.4567 11.0569C16.8841 11.0435 17.258 10.89 17.5785 10.5962C17.899 10.2756 18.066 9.89503 18.0793 9.45433C18.0927 9.01362 17.9391 8.63301 17.6186 8.3125L10.2869 0.980769C9.96635 0.660256 9.59242 0.5 9.16507 0.5C8.73772 0.5 8.36378 0.660256 8.04327 0.980769L0.711539 8.3125C0.391026 8.63301 0.237447 9.01362 0.250801 9.45433C0.264156 9.89503 0.43109 10.2756 0.751603 10.5962C1.07212 10.89 1.44605 11.0435 1.8734 11.0569C2.30075 11.0702 2.67468 10.9167 2.99519 10.5962L7.5625 6.02885L7.5625 23.8974C7.5625 24.3515 7.71608 24.7321 8.02324 25.0393C8.3304 25.3464 8.71101 25.5 9.16507 25.5C9.61913 25.5 9.99973 25.3464 10.3069 25.0393C10.6141 24.7321 10.7676 24.3515 10.7676 23.8974L10.7676 6.02885Z" fill="#372821"/>
</svg>
