<svg width="206" height="36" viewBox="0 0 206 36" fill="none" xmlns="http://www.w3.org/2000/svg">
<path d="M41.7119 0.888492V7.23473C41.7119 7.69019 42.0574 8.064 42.5103 8.11556C47.251 8.6505 51.9874 11.9762 53.4081 16.5908C53.9618 18.3868 53.5669 20.909 53.8652 21.9273C54.4189 23.8157 56.5929 23.7835 55.8482 27.5754C54.5884 33.9818 42.0381 36.491 41.1496 33.4082C40.3341 30.5745 45.1735 31.6035 46.5127 31.3715C48.5601 31.0149 50.7684 30.0331 51.9788 28.2908C54.2644 25.0038 51.4959 25.4506 50.9487 23.6117C50.0859 20.7071 51.6075 18.6661 49.1288 15.1751C46.4955 11.4691 43.3193 11.9375 39.6774 10.5754C39.3448 10.4508 39.1173 10.135 39.1044 9.78054L38.9156 4.97037C38.8898 4.30223 38.1623 3.90478 37.5871 4.23993L32.312 7.32067C31.8764 7.57632 31.4708 7.68374 31.7433 8.10912C32.5267 9.33798 33.7757 10.7752 34.4088 12.2211C35.3187 14.2985 35.3509 17.3342 36.3252 18.853C38.1344 21.6695 43.4417 20.5588 42.8107 26.5162C42.1433 32.8238 35.3101 36.3686 29.4663 35.9754C27.7194 35.8573 21.7082 33.8099 21.2211 32.1965C20.9528 31.3092 21.9765 29.8548 22.6826 29.7409C23.3092 29.6399 25.6592 32.0934 27.3031 32.4264C32.106 33.4017 39.3619 31.8807 39.8341 25.9018C40.0272 23.4505 36.5913 23.2636 34.9024 21.981C30.9407 18.9712 33.6812 12.2984 27.4833 8.88038C16.843 3.00677 2.90636 15.0569 2.94713 26.0028C2.97503 33.3287 11.9972 35.0817 15.0296 29.5368C17.8624 24.3528 17.5985 18.1441 21.8542 12.423C23.1762 10.6463 24.6376 8.44211 26.406 10.0942C26.7129 10.3821 26.758 10.8526 26.5326 11.207C24.8801 13.8151 22.8972 16.1826 21.6546 19.0614C19.4613 24.1466 19.545 31.3157 14.3214 34.5274C9.07636 37.7521 1.28177 34.8798 0.225892 28.714C-1.73778 17.2504 9.43046 4.42683 20.9313 4.04443C23.1547 3.97138 28.0564 5.80393 28.801 5.65569C29.3247 5.55257 34.4453 1.67694 36.5913 0.937904C38.0678 0.428744 39.3212 -0.0267078 40.8342 0.0012208C41.3192 0.00981423 41.7119 0.400815 41.7119 0.886343V0.888492Z" fill="white"/>
<path d="M30.7369 19.5945C32.7306 21.5559 29.5759 24.7226 27.6036 22.7268C25.479 20.5784 28.5758 17.4676 30.7369 19.5945Z" fill="white"/>
<path d="M48.4121 20.1662C49.925 21.6936 48.1974 24.6777 46.2853 23.7518C43.5276 22.4155 46.1308 17.861 48.4121 20.1662Z" fill="white"/>
<path d="M189.332 10.6255C188.799 10.6255 188.33 10.3908 187.924 9.92151C187.54 9.45218 187.348 8.81218 187.348 8.00151C187.348 7.66018 187.391 7.32951 187.476 7.00951C187.583 6.66818 187.722 6.36951 187.892 6.11351C188.063 5.85751 188.266 5.65484 188.5 5.50551C188.756 5.33485 189.034 5.24951 189.332 5.24951H203.764C204.383 5.24951 204.863 5.49485 205.204 5.98551C205.567 6.45485 205.748 7.11618 205.748 7.96951C205.748 8.67351 205.567 9.29218 205.204 9.82551C204.842 10.3588 204.351 10.6255 203.732 10.6255H199.348C199.37 11.9268 199.38 13.3348 199.38 14.8495C199.402 16.3428 199.412 17.8468 199.412 19.3615C199.412 20.8548 199.402 22.2948 199.38 23.6815C199.38 25.0682 199.37 26.2948 199.348 27.3615C199.348 28.0655 199.071 28.6308 198.516 29.0575C197.983 29.4842 197.311 29.6762 196.5 29.6335C195.69 29.5908 195.039 29.3562 194.548 28.9295C194.058 28.5242 193.812 27.9802 193.812 27.2975C193.812 26.2308 193.823 25.0042 193.844 23.6175C193.866 22.2095 193.876 20.7588 193.876 19.2655C193.876 17.7508 193.876 16.2468 193.876 14.7535C193.876 13.2602 193.866 11.8842 193.844 10.6255H189.332Z" fill="white"/>
<path d="M176.915 19.7135C176.68 19.7135 176.445 19.6495 176.211 19.5215C175.976 19.3722 175.763 19.1802 175.571 18.9455C175.4 18.7108 175.251 18.4335 175.123 18.1135C175.016 17.7935 174.963 17.4415 174.963 17.0575C174.963 16.7162 175.016 16.3855 175.123 16.0655C175.251 15.7242 175.4 15.4255 175.571 15.1695C175.763 14.9135 175.976 14.7108 176.211 14.5615C176.445 14.4122 176.691 14.3375 176.947 14.3375H183.155C183.368 14.3375 183.592 14.4015 183.827 14.5295C184.061 14.6362 184.275 14.8068 184.467 15.0415C184.659 15.2762 184.819 15.5535 184.947 15.8735C185.075 16.1935 185.139 16.5668 185.139 16.9935C185.139 17.3348 185.085 17.6762 184.979 18.0175C184.893 18.3375 184.755 18.6255 184.563 18.8815C184.392 19.1375 184.179 19.3402 183.923 19.4895C183.688 19.6388 183.421 19.7135 183.123 19.7135H176.915ZM182.899 23.5535C183.56 23.3615 184.189 23.4255 184.787 23.7455C185.405 24.0442 185.821 24.5775 186.035 25.3455C186.141 25.7295 186.163 26.0922 186.099 26.4335C186.056 26.7535 185.949 27.0522 185.779 27.3295C185.629 27.5855 185.437 27.8095 185.203 28.0015C184.968 28.2148 184.723 28.3855 184.467 28.5135C183.976 28.7482 183.421 28.9402 182.803 29.0895C182.205 29.2388 181.587 29.3455 180.947 29.4095C180.328 29.4948 179.699 29.5482 179.059 29.5695C178.44 29.6122 177.875 29.6335 177.363 29.6335C176.808 29.6335 176.232 29.6015 175.635 29.5375C175.059 29.4948 174.493 29.4308 173.939 29.3455C173.405 29.2602 172.893 29.1535 172.403 29.0255C171.933 28.8975 171.528 28.7588 171.187 28.6095C170.717 28.3962 170.216 28.0655 169.683 27.6175C169.171 27.1695 168.84 26.5615 168.691 25.7935C168.605 25.3455 168.531 24.6415 168.467 23.6815C168.424 22.7002 168.392 21.6015 168.371 20.3855C168.371 19.1482 168.371 17.8575 168.371 16.5135C168.371 15.1695 168.381 13.9002 168.403 12.7055C168.445 11.4895 168.488 10.4228 168.531 9.50551C168.573 8.58818 168.627 7.94818 168.691 7.58551C168.733 7.24418 168.84 6.93484 169.011 6.65751C169.181 6.35884 169.384 6.11351 169.619 5.92151C169.853 5.70818 170.099 5.54818 170.355 5.44151C170.632 5.31351 170.877 5.24951 171.091 5.24951H183.315C183.848 5.24951 184.339 5.48418 184.787 5.95351C185.256 6.40151 185.491 7.05218 185.491 7.90551C185.491 8.24684 185.437 8.57751 185.331 8.89751C185.245 9.21751 185.107 9.50551 184.915 9.76151C184.723 10.0175 184.488 10.2202 184.211 10.3695C183.933 10.5188 183.613 10.5935 183.251 10.5935H174.675C174.333 10.5935 174.131 10.7002 174.067 10.9135C174.003 11.1268 173.971 11.2762 173.971 11.3615C173.928 12.0868 173.885 12.9508 173.843 13.9535C173.821 14.9562 173.8 15.9908 173.779 17.0575C173.779 18.1242 173.779 19.1695 173.779 20.1935C173.779 21.1962 173.8 22.0708 173.843 22.8175C173.864 23.4788 174.195 23.8628 174.835 23.9695C175.219 24.0548 175.635 24.1188 176.083 24.1615C176.552 24.1828 177.032 24.1935 177.523 24.1935C178.44 24.1935 179.357 24.1508 180.275 24.0655C181.192 23.9588 182.067 23.7882 182.899 23.5535Z" fill="white"/>
<path d="M156.24 20.8655C155.557 20.8655 154.949 20.6415 154.416 20.1935C153.883 19.7455 153.616 19.0842 153.616 18.2095C153.616 17.8895 153.669 17.5695 153.776 17.2495C153.883 16.9295 154.043 16.6415 154.256 16.3855C154.469 16.1295 154.725 15.9268 155.024 15.7775C155.344 15.6282 155.707 15.5535 156.112 15.5535H156.72C157.211 15.5535 157.669 15.5215 158.096 15.4575C158.523 15.3722 158.896 15.2335 159.216 15.0415C159.536 14.8495 159.781 14.5935 159.952 14.2735C160.144 13.9322 160.24 13.5162 160.24 13.0255C160.24 12.5562 160.144 12.1722 159.952 11.8735C159.76 11.5535 159.515 11.2975 159.216 11.1055C158.917 10.9135 158.576 10.7855 158.192 10.7215C157.829 10.6362 157.467 10.5935 157.104 10.5935H153.424C153.061 10.5935 152.837 10.7108 152.752 10.9455C152.688 11.1802 152.656 11.3508 152.656 11.4575C152.592 12.7588 152.549 14.1348 152.528 15.5855C152.507 17.0362 152.507 18.4655 152.528 19.8735C152.549 21.2815 152.571 22.6362 152.592 23.9375C152.635 25.2388 152.667 26.4015 152.688 27.4255C152.709 27.9375 152.496 28.4282 152.048 28.8975C151.6 29.3882 150.907 29.6335 149.968 29.6335C149.392 29.6335 148.923 29.5588 148.56 29.4095C148.219 29.2602 147.941 29.0682 147.728 28.8335C147.536 28.6202 147.397 28.3855 147.312 28.1295C147.248 27.8735 147.205 27.6495 147.184 27.4575C147.141 26.9882 147.109 26.2308 147.088 25.1855C147.067 24.1402 147.045 22.9562 147.024 21.6335C147.024 20.3108 147.024 18.9242 147.024 17.4735C147.045 16.0015 147.067 14.6148 147.088 13.3135C147.109 11.9908 147.141 10.8282 147.184 9.82551C147.248 8.80151 147.312 8.06551 147.376 7.61751C147.44 7.19085 147.579 6.82818 147.792 6.52951C148.005 6.23084 148.251 5.98551 148.528 5.79351C148.805 5.60151 149.083 5.46285 149.36 5.37751C149.659 5.29218 149.915 5.24951 150.128 5.24951H156.56C158.288 5.24951 159.728 5.47351 160.88 5.92151C162.053 6.34818 162.992 6.92418 163.696 7.64951C164.4 8.37484 164.901 9.20684 165.2 10.1455C165.52 11.0842 165.68 12.0548 165.68 13.0575C165.68 14.0815 165.52 15.0628 165.2 16.0015C164.901 16.9402 164.421 17.7722 163.76 18.4975C163.099 19.2228 162.256 19.7988 161.232 20.2255C160.208 20.6522 158.981 20.8655 157.552 20.8655H156.24Z" fill="white"/>
<path d="M134.99 20.8655C134.307 20.8655 133.699 20.6415 133.166 20.1935C132.633 19.7455 132.366 19.0842 132.366 18.2095C132.366 17.8895 132.419 17.5695 132.526 17.2495C132.633 16.9295 132.793 16.6415 133.006 16.3855C133.219 16.1295 133.475 15.9268 133.774 15.7775C134.094 15.6282 134.457 15.5535 134.862 15.5535H135.47C135.961 15.5535 136.419 15.5215 136.846 15.4575C137.273 15.3722 137.646 15.2335 137.966 15.0415C138.286 14.8495 138.531 14.5935 138.702 14.2735C138.894 13.9322 138.99 13.5162 138.99 13.0255C138.99 12.5562 138.894 12.1722 138.702 11.8735C138.51 11.5535 138.265 11.2975 137.966 11.1055C137.667 10.9135 137.326 10.7855 136.942 10.7215C136.579 10.6362 136.217 10.5935 135.854 10.5935H132.174C131.811 10.5935 131.587 10.7108 131.502 10.9455C131.438 11.1802 131.406 11.3508 131.406 11.4575C131.342 12.7588 131.299 14.1348 131.278 15.5855C131.257 17.0362 131.257 18.4655 131.278 19.8735C131.299 21.2815 131.321 22.6362 131.342 23.9375C131.385 25.2388 131.417 26.4015 131.438 27.4255C131.459 27.9375 131.246 28.4282 130.798 28.8975C130.35 29.3882 129.657 29.6335 128.718 29.6335C128.142 29.6335 127.673 29.5588 127.31 29.4095C126.969 29.2602 126.691 29.0682 126.478 28.8335C126.286 28.6202 126.147 28.3855 126.062 28.1295C125.998 27.8735 125.955 27.6495 125.934 27.4575C125.891 26.9882 125.859 26.2308 125.838 25.1855C125.817 24.1402 125.795 22.9562 125.774 21.6335C125.774 20.3108 125.774 18.9242 125.774 17.4735C125.795 16.0015 125.817 14.6148 125.838 13.3135C125.859 11.9908 125.891 10.8282 125.934 9.82551C125.998 8.80151 126.062 8.06551 126.126 7.61751C126.19 7.19085 126.329 6.82818 126.542 6.52951C126.755 6.23084 127.001 5.98551 127.278 5.79351C127.555 5.60151 127.833 5.46285 128.11 5.37751C128.409 5.29218 128.665 5.24951 128.878 5.24951H135.31C137.038 5.24951 138.478 5.47351 139.63 5.92151C140.803 6.34818 141.742 6.92418 142.446 7.64951C143.15 8.37484 143.651 9.20684 143.95 10.1455C144.27 11.0842 144.43 12.0548 144.43 13.0575C144.43 14.3375 144.185 15.5428 143.694 16.6735C143.203 17.8042 142.435 18.7322 141.39 19.4575C142.03 20.9295 142.595 22.2522 143.086 23.4255C143.577 24.5775 143.993 25.5802 144.334 26.4335C144.462 26.7322 144.483 27.0415 144.398 27.3615C144.334 27.6602 144.206 27.9482 144.014 28.2255C143.822 28.5028 143.587 28.7482 143.31 28.9615C143.054 29.1962 142.787 29.3562 142.51 29.4415C142.233 29.5482 141.934 29.6122 141.614 29.6335C141.294 29.6548 140.974 29.6228 140.654 29.5375C140.355 29.4522 140.078 29.3135 139.822 29.1215C139.587 28.9508 139.406 28.7055 139.278 28.3855C138.851 27.4255 138.414 26.3482 137.966 25.1535C137.518 23.9375 136.953 22.5082 136.27 20.8655H134.99Z" fill="white"/>
<path d="M113.87 5.24951C114.233 5.24951 114.574 5.31351 114.894 5.44151C115.214 5.56951 115.492 5.71884 115.726 5.88951C115.982 6.06018 116.185 6.24151 116.334 6.43351C116.505 6.60418 116.622 6.74285 116.686 6.84951C116.985 7.38284 117.337 8.10818 117.742 9.02551C118.148 9.94285 118.574 10.9775 119.022 12.1295C119.492 13.2602 119.961 14.4655 120.43 15.7455C120.921 17.0255 121.39 18.3055 121.838 19.5855C122.286 20.8442 122.702 22.0495 123.086 23.2015C123.47 24.3535 123.79 25.3668 124.046 26.2415C124.132 26.6042 124.142 26.9668 124.078 27.3295C124.036 27.6708 123.929 27.9908 123.758 28.2895C123.609 28.5882 123.396 28.8442 123.118 29.0575C122.862 29.2708 122.564 29.4202 122.222 29.5055C121.732 29.6335 121.284 29.6655 120.878 29.6015C120.494 29.5375 120.153 29.4095 119.854 29.2175C119.577 29.0468 119.342 28.8228 119.15 28.5455C118.958 28.2682 118.809 27.9802 118.702 27.6815C118.51 27.0628 118.276 26.2948 117.998 25.3775C117.721 24.4602 117.422 23.4895 117.102 22.4655C116.782 21.4415 116.452 20.4068 116.11 19.3615C115.79 18.3162 115.481 17.3455 115.182 16.4495C114.905 15.5535 114.649 14.7855 114.414 14.1455C114.18 13.4842 114.009 13.0468 113.902 12.8335C113.817 13.0042 113.7 13.2922 113.55 13.6975C113.422 14.1028 113.262 14.5935 113.07 15.1695C112.878 15.7455 112.665 16.3855 112.43 17.0895C112.217 17.7722 111.993 18.4975 111.758 19.2655H114.062C114.361 19.2655 114.617 19.3508 114.83 19.5215C115.065 19.6708 115.257 19.8735 115.406 20.1295C115.577 20.3855 115.694 20.6842 115.758 21.0255C115.844 21.3455 115.886 21.6655 115.886 21.9855C115.886 22.2628 115.854 22.5615 115.79 22.8815C115.748 23.1802 115.652 23.4682 115.502 23.7455C115.353 24.0015 115.161 24.2148 114.926 24.3855C114.692 24.5562 114.393 24.6415 114.03 24.6415H110.062C109.892 25.2388 109.721 25.8042 109.55 26.3375C109.38 26.8495 109.241 27.2975 109.134 27.6815C109.049 27.9802 108.91 28.2682 108.718 28.5455C108.526 28.8228 108.292 29.0575 108.014 29.2495C107.737 29.4415 107.406 29.5695 107.022 29.6335C106.66 29.6975 106.244 29.6655 105.774 29.5375C104.9 29.3242 104.302 28.9082 103.982 28.2895C103.684 27.6708 103.63 26.9882 103.822 26.2415C104.078 25.3668 104.398 24.3535 104.782 23.2015C105.166 22.0495 105.582 20.8442 106.03 19.5855C106.478 18.3055 106.937 17.0255 107.406 15.7455C107.897 14.4655 108.366 13.2602 108.814 12.1295C109.284 10.9775 109.721 9.94285 110.126 9.02551C110.553 8.10818 110.916 7.38284 111.214 6.84951C111.278 6.74285 111.385 6.60418 111.534 6.43351C111.684 6.24151 111.876 6.06018 112.11 5.88951C112.345 5.71884 112.612 5.56951 112.91 5.44151C113.209 5.31351 113.529 5.24951 113.87 5.24951Z" fill="white"/>
<path d="M93.1647 19.7135C92.9301 19.7135 92.6954 19.6495 92.4607 19.5215C92.2261 19.3722 92.0127 19.1802 91.8207 18.9455C91.6501 18.7108 91.5007 18.4335 91.3727 18.1135C91.2661 17.7935 91.2127 17.4415 91.2127 17.0575C91.2127 16.7162 91.2661 16.3855 91.3727 16.0655C91.5007 15.7242 91.6501 15.4255 91.8207 15.1695C92.0127 14.9135 92.2261 14.7108 92.4607 14.5615C92.6954 14.4122 92.9407 14.3375 93.1967 14.3375H99.4047C99.6181 14.3375 99.8421 14.4015 100.077 14.5295C100.311 14.6362 100.525 14.8068 100.717 15.0415C100.909 15.2762 101.069 15.5535 101.197 15.8735C101.325 16.1935 101.389 16.5668 101.389 16.9935C101.389 17.3348 101.335 17.6762 101.229 18.0175C101.143 18.3375 101.005 18.6255 100.813 18.8815C100.642 19.1375 100.429 19.3402 100.173 19.4895C99.9381 19.6388 99.6714 19.7135 99.3727 19.7135H93.1647ZM99.1487 23.5535C99.8101 23.3615 100.439 23.4255 101.037 23.7455C101.655 24.0442 102.071 24.5775 102.285 25.3455C102.391 25.7295 102.413 26.0922 102.349 26.4335C102.306 26.7535 102.199 27.0522 102.029 27.3295C101.879 27.5855 101.687 27.8095 101.453 28.0015C101.218 28.2148 100.973 28.3855 100.717 28.5135C100.226 28.7482 99.6714 28.9402 99.0527 29.0895C98.4554 29.2388 97.8367 29.3455 97.1967 29.4095C96.5781 29.4948 95.9487 29.5482 95.3087 29.5695C94.6901 29.6122 94.1247 29.6335 93.6127 29.6335C93.0581 29.6335 92.4821 29.6015 91.8847 29.5375C91.3087 29.4948 90.7434 29.4308 90.1887 29.3455C89.6554 29.2602 89.1434 29.1535 88.6527 29.0255C88.1834 28.8975 87.7781 28.7588 87.4367 28.6095C86.9674 28.3962 86.4661 28.0655 85.9327 27.6175C85.4207 27.1695 85.0901 26.5615 84.9407 25.7935C84.8554 25.3455 84.7807 24.6415 84.7167 23.6815C84.6741 22.7002 84.6421 21.6015 84.6207 20.3855C84.6207 19.1482 84.6207 17.8575 84.6207 16.5135C84.6207 15.1695 84.6314 13.9002 84.6527 12.7055C84.6954 11.4895 84.7381 10.4228 84.7807 9.50551C84.8234 8.58818 84.8767 7.94818 84.9407 7.58551C84.9834 7.24418 85.0901 6.93484 85.2607 6.65751C85.4314 6.35884 85.6341 6.11351 85.8687 5.92151C86.1034 5.70818 86.3487 5.54818 86.6047 5.44151C86.8821 5.31351 87.1274 5.24951 87.3407 5.24951H99.5647C100.098 5.24951 100.589 5.48418 101.037 5.95351C101.506 6.40151 101.741 7.05218 101.741 7.90551C101.741 8.24684 101.687 8.57751 101.581 8.89751C101.495 9.21751 101.357 9.50551 101.165 9.76151C100.973 10.0175 100.738 10.2202 100.461 10.3695C100.183 10.5188 99.8634 10.5935 99.5007 10.5935H90.9247C90.5834 10.5935 90.3807 10.7002 90.3167 10.9135C90.2527 11.1268 90.2207 11.2762 90.2207 11.3615C90.1781 12.0868 90.1354 12.9508 90.0927 13.9535C90.0714 14.9562 90.0501 15.9908 90.0287 17.0575C90.0287 18.1242 90.0287 19.1695 90.0287 20.1935C90.0287 21.1962 90.0501 22.0708 90.0927 22.8175C90.1141 23.4788 90.4447 23.8628 91.0847 23.9695C91.4687 24.0548 91.8847 24.1188 92.3327 24.1615C92.8021 24.1828 93.2821 24.1935 93.7727 24.1935C94.6901 24.1935 95.6074 24.1508 96.5247 24.0655C97.4421 23.9588 98.3167 23.7882 99.1487 23.5535Z" fill="white"/>
<path d="M70.4887 10.5935C70.2754 10.5935 70.1047 10.6362 69.9767 10.7215C69.8701 10.7855 69.7847 10.8708 69.7207 10.9775C69.6781 11.0842 69.6461 11.1908 69.6247 11.2975C69.6247 11.3828 69.6247 11.4575 69.6247 11.5215C69.5181 13.6548 69.4541 15.7135 69.4327 17.6975C69.4114 19.6815 69.4221 21.5802 69.4647 23.3935C69.4861 23.5215 69.5287 23.7028 69.5927 23.9375C69.6567 24.1722 69.8807 24.2895 70.2647 24.2895H72.5047C74.0407 24.2895 75.2461 23.7242 76.1207 22.5935C77.0167 21.4628 77.4647 19.7668 77.4647 17.5055C77.4647 15.1162 77.0487 13.3668 76.2167 12.2575C75.3847 11.1482 74.1474 10.5935 72.5047 10.5935H70.4887ZM72.5687 5.24951C74.4674 5.24951 76.0674 5.60151 77.3687 6.30551C78.6701 6.98818 79.7261 7.90551 80.5367 9.05751C81.3687 10.2095 81.9661 11.5215 82.3287 12.9935C82.6914 14.4655 82.8727 15.9802 82.8727 17.5375C82.8727 19.2228 82.6381 20.8015 82.1687 22.2735C81.6994 23.7455 81.0274 25.0255 80.1527 26.1135C79.2781 27.2015 78.2007 28.0548 76.9207 28.6735C75.6407 29.3135 74.1901 29.6335 72.5687 29.6335H66.7127C66.0301 29.6335 65.4327 29.4522 64.9207 29.0895C64.4301 28.7268 64.1634 28.1828 64.1207 27.4575C64.0994 26.9882 64.0781 26.2308 64.0567 25.1855C64.0354 24.1402 64.0141 22.9562 63.9927 21.6335C63.9927 20.3108 63.9927 18.9242 63.9927 17.4735C64.0141 16.0015 64.0354 14.6148 64.0567 13.3135C64.0781 11.9908 64.1101 10.8282 64.1527 9.82551C64.2167 8.80151 64.2807 8.06551 64.3447 7.61751C64.4087 7.23351 64.5474 6.89218 64.7607 6.59351C64.9741 6.29484 65.2194 6.04951 65.4967 5.85751C65.7741 5.64418 66.0514 5.49485 66.3287 5.40951C66.6274 5.30285 66.8727 5.24951 67.0647 5.24951H72.5687Z" fill="white"/>
</svg>
