<svg width="219" height="36" viewBox="0 0 219 36" fill="none" xmlns="http://www.w3.org/2000/svg">
<path d="M41.7119 0.888492V7.23474C41.7119 7.69019 42.0574 8.064 42.5103 8.11556C47.251 8.6505 51.9874 11.9762 53.4081 16.5908C53.9618 18.3869 53.5669 20.909 53.8652 21.9273C54.4189 23.8157 56.5929 23.7835 55.8482 27.5754C54.5884 33.9818 42.0381 36.491 41.1496 33.4082C40.3341 30.5745 45.1735 31.6035 46.5127 31.3715C48.5601 31.0149 50.7684 30.0331 51.9788 28.2908C54.2644 25.0038 51.4959 25.4506 50.9487 23.6117C50.0859 20.7071 51.6075 18.6661 49.1288 15.1751C46.4955 11.4691 43.3193 11.9375 39.6774 10.5754C39.3448 10.4508 39.1173 10.135 39.1044 9.78054L38.9156 4.97037C38.8898 4.30223 38.1623 3.90478 37.5871 4.23993L32.312 7.32067C31.8764 7.57632 31.4708 7.68374 31.7433 8.10912C32.5267 9.33798 33.7757 10.7752 34.4088 12.2211C35.3187 14.2985 35.3509 17.3342 36.3252 18.853C38.1344 21.6695 43.4417 20.5588 42.8107 26.5162C42.1433 32.8238 35.3101 36.3686 29.4663 35.9754C27.7194 35.8573 21.7082 33.8099 21.2211 32.1965C20.9528 31.3092 21.9765 29.8548 22.6826 29.7409C23.3092 29.6399 25.6592 32.0934 27.3031 32.4264C32.106 33.4017 39.3619 31.8807 39.8341 25.9018C40.0272 23.4505 36.5913 23.2636 34.9024 21.9811C30.9407 18.9712 33.6813 12.2984 27.4834 8.88038C16.843 3.00677 2.90636 15.0569 2.94713 26.0028C2.97503 33.3287 11.9972 35.0817 15.0296 29.5368C17.8624 24.3528 17.5985 18.1441 21.8542 12.423C23.1762 10.6463 24.6376 8.44211 26.406 10.0942C26.7129 10.3821 26.758 10.8526 26.5326 11.207C24.8801 13.8152 22.8972 16.1826 21.6546 19.0614C19.4613 24.1466 19.545 31.3157 14.3214 34.5275C9.07636 37.7521 1.28177 34.8798 0.225892 28.714C-1.73778 17.2504 9.43046 4.42683 20.9313 4.04443C23.1547 3.97138 28.0564 5.80393 28.801 5.65569C29.3247 5.55257 34.4453 1.67694 36.5913 0.937904C38.0679 0.428744 39.3212 -0.0267078 40.8342 0.0012208C41.3192 0.00981423 41.7119 0.400815 41.7119 0.886343V0.888492Z" fill="#152346"/>
<path d="M30.7369 19.5945C32.7306 21.5559 29.5759 24.7226 27.6036 22.7268C25.479 20.5784 28.5758 17.4676 30.7369 19.5945Z" fill="#152346"/>
<path d="M48.4122 20.1662C49.9252 21.6936 48.1976 24.6777 46.2854 23.7518C43.5277 22.4155 46.1309 17.861 48.4122 20.1662Z" fill="#152346"/>
<path d="M202.332 11.624C201.798 11.624 201.329 11.3894 200.924 10.92C200.54 10.4507 200.348 9.81071 200.348 9.00005C200.348 8.65871 200.39 8.32805 200.476 8.00805C200.582 7.66671 200.721 7.36805 200.892 7.11205C201.062 6.85605 201.265 6.65338 201.5 6.50405C201.756 6.33338 202.033 6.24805 202.332 6.24805H216.764C217.382 6.24805 217.862 6.49338 218.204 6.98405C218.566 7.45338 218.748 8.11471 218.748 8.96805C218.748 9.67205 218.566 10.2907 218.204 10.824C217.841 11.3574 217.35 11.624 216.732 11.624H212.348C212.369 12.9254 212.38 14.3334 212.38 15.848C212.401 17.3414 212.412 18.8454 212.412 20.36C212.412 21.8534 212.401 23.2934 212.38 24.68C212.38 26.0667 212.369 27.2934 212.348 28.36C212.348 29.064 212.07 29.6294 211.516 30.056C210.982 30.4827 210.31 30.6747 209.5 30.632C208.689 30.5894 208.038 30.3547 207.548 29.928C207.057 29.5227 206.812 28.9787 206.812 28.296C206.812 27.2294 206.822 26.0027 206.844 24.616C206.865 23.208 206.876 21.7574 206.876 20.264C206.876 18.7494 206.876 17.2454 206.876 15.752C206.876 14.2587 206.865 12.8827 206.844 11.624H202.332Z" fill="#152346"/>
<path d="M189.914 20.712C189.68 20.712 189.445 20.648 189.21 20.52C188.976 20.3707 188.762 20.1787 188.57 19.944C188.4 19.7094 188.25 19.432 188.122 19.112C188.016 18.792 187.962 18.44 187.962 18.056C187.962 17.7147 188.016 17.384 188.122 17.064C188.25 16.7227 188.4 16.424 188.57 16.168C188.762 15.912 188.976 15.7094 189.21 15.56C189.445 15.4107 189.69 15.336 189.946 15.336H196.154C196.368 15.336 196.592 15.4 196.826 15.528C197.061 15.6347 197.274 15.8054 197.466 16.04C197.658 16.2747 197.818 16.552 197.946 16.872C198.074 17.192 198.138 17.5654 198.138 17.992C198.138 18.3334 198.085 18.6747 197.978 19.016C197.893 19.336 197.754 19.624 197.562 19.88C197.392 20.136 197.178 20.3387 196.922 20.488C196.688 20.6374 196.421 20.712 196.122 20.712H189.914ZM195.898 24.552C196.56 24.36 197.189 24.424 197.786 24.744C198.405 25.0427 198.821 25.576 199.034 26.344C199.141 26.728 199.162 27.0907 199.098 27.432C199.056 27.752 198.949 28.0507 198.778 28.328C198.629 28.584 198.437 28.808 198.202 29C197.968 29.2134 197.722 29.384 197.466 29.512C196.976 29.7467 196.421 29.9387 195.802 30.088C195.205 30.2374 194.586 30.344 193.946 30.408C193.328 30.4934 192.698 30.5467 192.058 30.568C191.44 30.6107 190.874 30.632 190.362 30.632C189.808 30.632 189.232 30.6 188.634 30.536C188.058 30.4934 187.493 30.4294 186.938 30.344C186.405 30.2587 185.893 30.152 185.402 30.024C184.933 29.896 184.528 29.7574 184.186 29.608C183.717 29.3947 183.216 29.064 182.682 28.616C182.17 28.168 181.84 27.56 181.69 26.792C181.605 26.344 181.53 25.64 181.466 24.68C181.424 23.6987 181.392 22.6 181.37 21.384C181.37 20.1467 181.37 18.856 181.37 17.512C181.37 16.168 181.381 14.8987 181.402 13.704C181.445 12.488 181.488 11.4214 181.53 10.504C181.573 9.58671 181.626 8.94671 181.69 8.58405C181.733 8.24271 181.84 7.93338 182.01 7.65605C182.181 7.35738 182.384 7.11205 182.618 6.92005C182.853 6.70671 183.098 6.54671 183.354 6.44005C183.632 6.31205 183.877 6.24805 184.09 6.24805H196.314C196.848 6.24805 197.338 6.48271 197.786 6.95205C198.256 7.40005 198.49 8.05071 198.49 8.90405C198.49 9.24538 198.437 9.57605 198.33 9.89605C198.245 10.216 198.106 10.504 197.914 10.76C197.722 11.016 197.488 11.2187 197.21 11.368C196.933 11.5174 196.613 11.592 196.25 11.592H187.674C187.333 11.592 187.13 11.6987 187.066 11.912C187.002 12.1254 186.97 12.2747 186.97 12.36C186.928 13.0854 186.885 13.9494 186.842 14.952C186.821 15.9547 186.8 16.9894 186.778 18.056C186.778 19.1227 186.778 20.168 186.778 21.192C186.778 22.1947 186.8 23.0694 186.842 23.816C186.864 24.4774 187.194 24.8614 187.834 24.968C188.218 25.0534 188.634 25.1174 189.082 25.16C189.552 25.1814 190.032 25.192 190.522 25.192C191.44 25.192 192.357 25.1494 193.274 25.064C194.192 24.9574 195.066 24.7867 195.898 24.552Z" fill="#152346"/>
<path d="M169.239 21.864C168.557 21.864 167.949 21.64 167.415 21.192C166.882 20.744 166.615 20.0827 166.615 19.208C166.615 18.888 166.669 18.568 166.775 18.248C166.882 17.928 167.042 17.64 167.255 17.384C167.469 17.128 167.725 16.9254 168.023 16.776C168.343 16.6267 168.706 16.552 169.111 16.552H169.719C170.21 16.552 170.669 16.52 171.095 16.456C171.522 16.3707 171.895 16.232 172.215 16.04C172.535 15.848 172.781 15.592 172.951 15.272C173.143 14.9307 173.239 14.5147 173.239 14.024C173.239 13.5547 173.143 13.1707 172.951 12.872C172.759 12.552 172.514 12.296 172.215 12.104C171.917 11.912 171.575 11.784 171.191 11.72C170.829 11.6347 170.466 11.592 170.103 11.592H166.423C166.061 11.592 165.837 11.7094 165.751 11.944C165.687 12.1787 165.655 12.3494 165.655 12.456C165.591 13.7574 165.549 15.1334 165.527 16.584C165.506 18.0347 165.506 19.464 165.527 20.872C165.549 22.28 165.57 23.6347 165.591 24.936C165.634 26.2374 165.666 27.4 165.687 28.424C165.709 28.936 165.495 29.4267 165.047 29.896C164.599 30.3867 163.906 30.632 162.967 30.632C162.391 30.632 161.922 30.5574 161.559 30.408C161.218 30.2587 160.941 30.0667 160.727 29.832C160.535 29.6187 160.397 29.384 160.311 29.128C160.247 28.872 160.205 28.648 160.183 28.456C160.141 27.9867 160.109 27.2294 160.087 26.184C160.066 25.1387 160.045 23.9547 160.023 22.632C160.023 21.3094 160.023 19.9227 160.023 18.472C160.045 17 160.066 15.6134 160.087 14.312C160.109 12.9894 160.141 11.8267 160.183 10.824C160.247 9.80005 160.311 9.06405 160.375 8.61605C160.439 8.18938 160.578 7.82671 160.791 7.52805C161.005 7.22938 161.25 6.98405 161.527 6.79205C161.805 6.60005 162.082 6.46138 162.359 6.37605C162.658 6.29071 162.914 6.24805 163.127 6.24805H169.559C171.287 6.24805 172.727 6.47205 173.879 6.92005C175.053 7.34671 175.991 7.92271 176.695 8.64805C177.399 9.37338 177.901 10.2054 178.199 11.144C178.519 12.0827 178.679 13.0534 178.679 14.056C178.679 15.08 178.519 16.0614 178.199 17C177.901 17.9387 177.421 18.7707 176.759 19.496C176.098 20.2214 175.255 20.7974 174.231 21.224C173.207 21.6507 171.981 21.864 170.551 21.864H169.239Z" fill="#152346"/>
<path d="M147.989 21.864C147.307 21.864 146.699 21.64 146.165 21.192C145.632 20.744 145.365 20.0827 145.365 19.208C145.365 18.888 145.419 18.568 145.525 18.248C145.632 17.928 145.792 17.64 146.005 17.384C146.219 17.128 146.475 16.9254 146.773 16.776C147.093 16.6267 147.456 16.552 147.861 16.552H148.469C148.96 16.552 149.419 16.52 149.845 16.456C150.272 16.3707 150.645 16.232 150.965 16.04C151.285 15.848 151.531 15.592 151.701 15.272C151.893 14.9307 151.989 14.5147 151.989 14.024C151.989 13.5547 151.893 13.1707 151.701 12.872C151.509 12.552 151.264 12.296 150.965 12.104C150.667 11.912 150.325 11.784 149.941 11.72C149.579 11.6347 149.216 11.592 148.853 11.592H145.173C144.811 11.592 144.587 11.7094 144.501 11.944C144.437 12.1787 144.405 12.3494 144.405 12.456C144.341 13.7574 144.299 15.1334 144.277 16.584C144.256 18.0347 144.256 19.464 144.277 20.872C144.299 22.28 144.32 23.6347 144.341 24.936C144.384 26.2374 144.416 27.4 144.437 28.424C144.459 28.936 144.245 29.4267 143.797 29.896C143.349 30.3867 142.656 30.632 141.717 30.632C141.141 30.632 140.672 30.5574 140.309 30.408C139.968 30.2587 139.691 30.0667 139.477 29.832C139.285 29.6187 139.147 29.384 139.061 29.128C138.997 28.872 138.955 28.648 138.933 28.456C138.891 27.9867 138.859 27.2294 138.837 26.184C138.816 25.1387 138.795 23.9547 138.773 22.632C138.773 21.3094 138.773 19.9227 138.773 18.472C138.795 17 138.816 15.6134 138.837 14.312C138.859 12.9894 138.891 11.8267 138.933 10.824C138.997 9.80005 139.061 9.06405 139.125 8.61605C139.189 8.18938 139.328 7.82671 139.541 7.52805C139.755 7.22938 140 6.98405 140.277 6.79205C140.555 6.60005 140.832 6.46138 141.109 6.37605C141.408 6.29071 141.664 6.24805 141.877 6.24805H148.309C150.037 6.24805 151.477 6.47205 152.629 6.92005C153.803 7.34671 154.741 7.92271 155.445 8.64805C156.149 9.37338 156.651 10.2054 156.949 11.144C157.269 12.0827 157.429 13.0534 157.429 14.056C157.429 15.336 157.184 16.5414 156.693 17.672C156.203 18.8027 155.435 19.7307 154.389 20.456C155.029 21.928 155.595 23.2507 156.085 24.424C156.576 25.576 156.992 26.5787 157.333 27.432C157.461 27.7307 157.483 28.04 157.397 28.36C157.333 28.6587 157.205 28.9467 157.013 29.224C156.821 29.5014 156.587 29.7467 156.309 29.96C156.053 30.1947 155.787 30.3547 155.509 30.44C155.232 30.5467 154.933 30.6107 154.613 30.632C154.293 30.6534 153.973 30.6214 153.653 30.536C153.355 30.4507 153.077 30.312 152.821 30.12C152.587 29.9494 152.405 29.704 152.277 29.384C151.851 28.424 151.413 27.3467 150.965 26.152C150.517 24.936 149.952 23.5067 149.269 21.864H147.989Z" fill="#152346"/>
<path d="M126.87 6.24805C127.232 6.24805 127.574 6.31205 127.894 6.44005C128.214 6.56805 128.491 6.71738 128.726 6.88805C128.982 7.05871 129.184 7.24005 129.334 7.43205C129.504 7.60271 129.622 7.74138 129.686 7.84805C129.984 8.38138 130.336 9.10671 130.742 10.024C131.147 10.9414 131.574 11.976 132.022 13.128C132.491 14.2587 132.96 15.464 133.43 16.744C133.92 18.024 134.39 19.304 134.838 20.584C135.286 21.8427 135.702 23.048 136.086 24.2C136.47 25.352 136.79 26.3654 137.046 27.24C137.131 27.6027 137.142 27.9654 137.078 28.328C137.035 28.6694 136.928 28.9894 136.758 29.288C136.608 29.5867 136.395 29.8427 136.118 30.056C135.862 30.2694 135.563 30.4187 135.222 30.504C134.731 30.632 134.283 30.664 133.878 30.6C133.494 30.536 133.152 30.408 132.854 30.216C132.576 30.0454 132.342 29.8214 132.15 29.544C131.958 29.2667 131.808 28.9787 131.702 28.68C131.51 28.0614 131.275 27.2934 130.998 26.376C130.72 25.4587 130.422 24.488 130.102 23.464C129.782 22.44 129.451 21.4054 129.11 20.36C128.79 19.3147 128.48 18.344 128.182 17.448C127.904 16.552 127.648 15.784 127.414 15.144C127.179 14.4827 127.008 14.0454 126.902 13.832C126.816 14.0027 126.699 14.2907 126.55 14.696C126.422 15.1014 126.262 15.592 126.07 16.168C125.878 16.744 125.664 17.384 125.43 18.088C125.216 18.7707 124.992 19.496 124.758 20.264H127.062C127.36 20.264 127.616 20.3494 127.83 20.52C128.064 20.6694 128.256 20.872 128.406 21.128C128.576 21.384 128.694 21.6827 128.758 22.024C128.843 22.344 128.886 22.664 128.886 22.984C128.886 23.2614 128.854 23.56 128.79 23.88C128.747 24.1787 128.651 24.4667 128.502 24.744C128.352 25 128.16 25.2134 127.926 25.384C127.691 25.5547 127.392 25.64 127.03 25.64H123.062C122.891 26.2374 122.72 26.8027 122.55 27.336C122.379 27.848 122.24 28.296 122.134 28.68C122.048 28.9787 121.91 29.2667 121.718 29.544C121.526 29.8214 121.291 30.056 121.014 30.248C120.736 30.44 120.406 30.568 120.022 30.632C119.659 30.696 119.243 30.664 118.774 30.536C117.899 30.3227 117.302 29.9067 116.982 29.288C116.683 28.6694 116.63 27.9867 116.822 27.24C117.078 26.3654 117.398 25.352 117.782 24.2C118.166 23.048 118.582 21.8427 119.03 20.584C119.478 19.304 119.936 18.024 120.406 16.744C120.896 15.464 121.366 14.2587 121.814 13.128C122.283 11.976 122.72 10.9414 123.126 10.024C123.552 9.10671 123.915 8.38138 124.214 7.84805C124.278 7.74138 124.384 7.60271 124.534 7.43205C124.683 7.24005 124.875 7.05871 125.11 6.88805C125.344 6.71738 125.611 6.56805 125.91 6.44005C126.208 6.31205 126.528 6.24805 126.87 6.24805Z" fill="#152346"/>
<path d="M106.164 20.712C105.93 20.712 105.695 20.648 105.46 20.52C105.226 20.3707 105.012 20.1787 104.82 19.944C104.65 19.7094 104.5 19.432 104.372 19.112C104.266 18.792 104.212 18.44 104.212 18.056C104.212 17.7147 104.266 17.384 104.372 17.064C104.5 16.7227 104.65 16.424 104.82 16.168C105.012 15.912 105.226 15.7094 105.46 15.56C105.695 15.4107 105.94 15.336 106.196 15.336H112.404C112.618 15.336 112.842 15.4 113.076 15.528C113.311 15.6347 113.524 15.8054 113.716 16.04C113.908 16.2747 114.068 16.552 114.196 16.872C114.324 17.192 114.388 17.5654 114.388 17.992C114.388 18.3334 114.335 18.6747 114.228 19.016C114.143 19.336 114.004 19.624 113.812 19.88C113.642 20.136 113.428 20.3387 113.172 20.488C112.938 20.6374 112.671 20.712 112.372 20.712H106.164ZM112.148 24.552C112.81 24.36 113.439 24.424 114.036 24.744C114.655 25.0427 115.071 25.576 115.284 26.344C115.391 26.728 115.412 27.0907 115.348 27.432C115.306 27.752 115.199 28.0507 115.028 28.328C114.879 28.584 114.687 28.808 114.452 29C114.218 29.2134 113.972 29.384 113.716 29.512C113.226 29.7467 112.671 29.9387 112.052 30.088C111.455 30.2374 110.836 30.344 110.196 30.408C109.578 30.4934 108.948 30.5467 108.308 30.568C107.69 30.6107 107.124 30.632 106.612 30.632C106.058 30.632 105.482 30.6 104.884 30.536C104.308 30.4934 103.743 30.4294 103.188 30.344C102.655 30.2587 102.143 30.152 101.652 30.024C101.183 29.896 100.778 29.7574 100.436 29.608C99.9668 29.3947 99.4655 29.064 98.9322 28.616C98.4202 28.168 98.0895 27.56 97.9402 26.792C97.8548 26.344 97.7802 25.64 97.7162 24.68C97.6735 23.6987 97.6415 22.6 97.6202 21.384C97.6202 20.1467 97.6202 18.856 97.6202 17.512C97.6202 16.168 97.6308 14.8987 97.6522 13.704C97.6948 12.488 97.7375 11.4214 97.7802 10.504C97.8228 9.58671 97.8762 8.94671 97.9402 8.58405C97.9828 8.24271 98.0895 7.93338 98.2602 7.65605C98.4308 7.35738 98.6335 7.11205 98.8682 6.92005C99.1028 6.70671 99.3482 6.54671 99.6042 6.44005C99.8815 6.31205 100.127 6.24805 100.34 6.24805H112.564C113.098 6.24805 113.588 6.48271 114.036 6.95205C114.506 7.40005 114.74 8.05071 114.74 8.90405C114.74 9.24538 114.687 9.57605 114.58 9.89605C114.495 10.216 114.356 10.504 114.164 10.76C113.972 11.016 113.738 11.2187 113.46 11.368C113.183 11.5174 112.863 11.592 112.5 11.592H103.924C103.583 11.592 103.38 11.6987 103.316 11.912C103.252 12.1254 103.22 12.2747 103.22 12.36C103.178 13.0854 103.135 13.9494 103.092 14.952C103.071 15.9547 103.05 16.9894 103.028 18.056C103.028 19.1227 103.028 20.168 103.028 21.192C103.028 22.1947 103.05 23.0694 103.092 23.816C103.114 24.4774 103.444 24.8614 104.084 24.968C104.468 25.0534 104.884 25.1174 105.332 25.16C105.802 25.1814 106.282 25.192 106.772 25.192C107.69 25.192 108.607 25.1494 109.524 25.064C110.442 24.9574 111.316 24.7867 112.148 24.552Z" fill="#152346"/>
<path d="M83.4882 11.592C83.2749 11.592 83.1042 11.6347 82.9762 11.72C82.8695 11.784 82.7842 11.8694 82.7202 11.976C82.6775 12.0827 82.6455 12.1894 82.6242 12.296C82.6242 12.3814 82.6242 12.456 82.6242 12.52C82.5175 14.6534 82.4535 16.712 82.4322 18.696C82.4109 20.68 82.4215 22.5787 82.4642 24.392C82.4855 24.52 82.5282 24.7014 82.5922 24.936C82.6562 25.1707 82.8802 25.288 83.2642 25.288H85.5042C87.0402 25.288 88.2455 24.7227 89.1202 23.592C90.0162 22.4614 90.4642 20.7654 90.4642 18.504C90.4642 16.1147 90.0482 14.3654 89.2162 13.256C88.3842 12.1467 87.1469 11.592 85.5042 11.592H83.4882ZM85.5682 6.24805C87.4669 6.24805 89.0669 6.60005 90.3682 7.30405C91.6695 7.98671 92.7255 8.90405 93.5362 10.056C94.3682 11.208 94.9655 12.52 95.3282 13.992C95.6909 15.464 95.8722 16.9787 95.8722 18.536C95.8722 20.2214 95.6375 21.8 95.1682 23.272C94.6989 24.744 94.0269 26.024 93.1522 27.112C92.2775 28.2 91.2002 29.0534 89.9202 29.672C88.6402 30.312 87.1895 30.632 85.5682 30.632H79.7122C79.0295 30.632 78.4322 30.4507 77.9202 30.088C77.4295 29.7254 77.1629 29.1814 77.1202 28.456C77.0989 27.9867 77.0775 27.2294 77.0562 26.184C77.0349 25.1387 77.0135 23.9547 76.9922 22.632C76.9922 21.3094 76.9922 19.9227 76.9922 18.472C77.0135 17 77.0349 15.6134 77.0562 14.312C77.0775 12.9894 77.1095 11.8267 77.1522 10.824C77.2162 9.80005 77.2802 9.06405 77.3442 8.61605C77.4082 8.23205 77.5469 7.89071 77.7602 7.59205C77.9735 7.29338 78.2189 7.04805 78.4962 6.85605C78.7735 6.64271 79.0509 6.49338 79.3282 6.40805C79.6269 6.30138 79.8722 6.24805 80.0642 6.24805H85.5682Z" fill="#152346"/>
</svg>
