<svg width="142" height="45" viewBox="0 0 142 45" fill="none" xmlns="http://www.w3.org/2000/svg">
<path d="M3.312 18.692H16.79V21.107H3.312V18.692ZM0.943 26.351H20.24V28.766H0.943V26.351ZM14.95 18.692H17.963V20.394C17.963 21.2987 17.94 22.2723 17.894 23.315C17.848 24.3577 17.664 25.569 17.342 26.949L14.283 26.926C14.6203 25.5307 14.812 24.3193 14.858 23.292C14.9193 22.2647 14.95 21.2987 14.95 20.394V18.692ZM3.197 30.997H17.871V38.817H3.197V30.997ZM14.881 33.389H6.21V36.402H14.881V33.389ZM22.4692 20.394H40.0182V22.832H22.4692V20.394ZM21.6412 34.447H40.9382V36.908H21.6412V34.447ZM29.7142 31.618H32.7732V35.413H29.7142V31.618ZM31.2322 23.729C32.7042 23.729 33.9769 23.8977 35.0502 24.235C36.1389 24.557 36.9745 25.0323 37.5572 25.661C38.1399 26.2743 38.4312 27.018 38.4312 27.892C38.4312 28.766 38.1399 29.5173 37.5572 30.146C36.9745 30.7593 36.1389 31.2347 35.0502 31.572C33.9769 31.894 32.6965 32.055 31.2092 32.055C29.7372 32.055 28.4569 31.894 27.3682 31.572C26.2949 31.2347 25.4669 30.7593 24.8842 30.146C24.3015 29.5173 24.0102 28.766 24.0102 27.892C24.0102 27.018 24.3015 26.2743 24.8842 25.661C25.4669 25.0323 26.2949 24.557 27.3682 24.235C28.4569 23.8977 29.7449 23.729 31.2322 23.729ZM31.2092 26.098C30.3352 26.098 29.5915 26.167 28.9782 26.305C28.3649 26.4277 27.8972 26.6193 27.5752 26.88C27.2685 27.1407 27.1152 27.478 27.1152 27.892C27.1152 28.2907 27.2685 28.628 27.5752 28.904C27.8972 29.1647 28.3649 29.3563 28.9782 29.479C29.5915 29.6017 30.3352 29.663 31.2092 29.663C32.1139 29.663 32.8652 29.6017 33.4632 29.479C34.0612 29.3563 34.5135 29.1647 34.8202 28.904C35.1422 28.628 35.3032 28.2907 35.3032 27.892C35.3032 27.478 35.1422 27.1407 34.8202 26.88C34.5135 26.6193 34.0612 26.4277 33.4632 26.305C32.8652 26.167 32.1139 26.098 31.2092 26.098ZM29.7142 17.956H32.7732V21.912H29.7142V17.956ZM42.3164 28.26H61.6134V30.675H42.3164V28.26ZM50.6884 29.778H53.7474V34.263H50.6884V29.778ZM44.6854 18.623H59.1524V26.558H44.6854V18.623ZM56.1394 21.015H47.6984V24.143H56.1394V21.015ZM44.5474 36.218H59.4744V38.679H44.5474V36.218ZM44.5474 32.469H47.6064V37.046H44.5474V32.469ZM67.9596 30.353H71.0186V33.78H67.9596V30.353ZM76.9066 17.749H79.9656V39.047H76.9066V17.749ZM78.9076 26.397H82.6566V28.904H78.9076V26.397ZM63.1756 35.505L62.8076 33.021C64.0343 33.021 65.3759 33.0133 66.8326 32.998C68.3046 32.9827 69.8073 32.929 71.3406 32.837C72.8893 32.745 74.3843 32.607 75.8256 32.423L76.0556 34.631C74.5683 34.907 73.0579 35.114 71.5246 35.252C69.9913 35.3747 68.5116 35.4513 67.0856 35.482C65.6749 35.4973 64.3716 35.505 63.1756 35.505ZM63.1986 20.072H75.7336V22.464H63.1986V20.072ZM69.4776 23.315C70.5049 23.315 71.4096 23.4837 72.1916 23.821C72.9736 24.1583 73.5869 24.626 74.0316 25.224C74.4763 25.822 74.6986 26.5197 74.6986 27.317C74.6986 28.099 74.4763 28.7967 74.0316 29.41C73.5869 30.008 72.9736 30.4757 72.1916 30.813C71.4096 31.1503 70.5049 31.319 69.4776 31.319C68.4656 31.319 67.5686 31.1503 66.7866 30.813C66.0046 30.4757 65.3913 30.008 64.9466 29.41C64.5019 28.7967 64.2796 28.099 64.2796 27.317C64.2796 26.5197 64.5019 25.822 64.9466 25.224C65.3913 24.626 66.0046 24.1583 66.7866 23.821C67.5686 23.4837 68.4656 23.315 69.4776 23.315ZM69.4776 25.615C68.7876 25.615 68.2279 25.7683 67.7986 26.075C67.3846 26.3663 67.1776 26.7803 67.1776 27.317C67.1776 27.869 67.3846 28.2907 67.7986 28.582C68.2279 28.8733 68.7876 29.019 69.4776 29.019C70.1829 29.019 70.7426 28.8733 71.1566 28.582C71.5859 28.2907 71.8006 27.869 71.8006 27.317C71.8006 26.7803 71.5859 26.3663 71.1566 26.075C70.7426 25.7683 70.1829 25.615 69.4776 25.615ZM67.9596 17.841H71.0186V21.866H67.9596V17.841ZM99.2608 17.726H102.182V39.024H99.2608V17.726ZM96.7308 25.891H100.25V28.375H96.7308V25.891ZM94.6838 18.071H97.5358V38.081H94.6838V18.071ZM87.5308 21.061H89.8538V22.924C89.8538 24.2427 89.7695 25.5153 89.6008 26.742C89.4475 27.9533 89.1868 29.088 88.8188 30.146C88.4661 31.1887 87.9908 32.124 87.3928 32.952C86.7948 33.78 86.0511 34.4547 85.1618 34.976L83.3218 32.653C84.3798 32.0243 85.2155 31.2117 85.8288 30.215C86.4421 29.2183 86.8791 28.099 87.1398 26.857C87.4005 25.5997 87.5308 24.2887 87.5308 22.924V21.061ZM88.1518 21.061H90.4748V22.924C90.4748 24.166 90.6051 25.3697 90.8658 26.535C91.1418 27.7003 91.5865 28.743 92.1998 29.663C92.8285 30.583 93.6718 31.319 94.7298 31.871L92.9818 34.194C91.7858 33.55 90.8351 32.6607 90.1298 31.526C89.4245 30.3913 88.9185 29.088 88.6118 27.616C88.3051 26.144 88.1518 24.58 88.1518 22.924V21.061ZM83.9888 19.888H93.6718V22.349H83.9888V19.888ZM118.119 17.749H121.178V33.136H118.119V17.749ZM120.327 23.545H124.007V26.052H120.327V23.545ZM105.216 27.202H106.987C108.536 27.202 109.854 27.1867 110.943 27.156C112.047 27.11 113.028 27.041 113.887 26.949C114.761 26.857 115.62 26.719 116.463 26.535L116.762 28.95C115.903 29.1493 115.022 29.3027 114.117 29.41C113.228 29.502 112.216 29.571 111.081 29.617C109.946 29.6477 108.582 29.663 106.987 29.663H105.216V27.202ZM105.216 19.428H114.761V21.866H108.275V28.49H105.216V19.428ZM107.447 36.218H121.937V38.679H107.447V36.218ZM107.447 31.503H110.529V37.46H107.447V31.503Z" fill="#444B51"/>
<path d="M118 9.53595C118 9.86769 118.048 10.2115 118.181 10.5372C118.766 11.9848 120.256 12.8774 122.151 12.1235C122.603 11.9425 135.134 6.89414 135.134 6.89414C135.134 6.89414 130.199 19.4036 130.012 19.868C129.294 21.6593 130.157 23.2818 131.623 23.8247C131.949 23.9453 132.287 24.0056 132.618 23.9996C133.819 23.9936 134.875 23.2879 135.394 21.8765C135.472 21.6654 141.644 4.72278 141.777 4.31867C141.855 4.07741 142 3.51044 142 3.11839C142 2.28001 141.692 1.48988 141.095 0.892755C140.498 0.301664 139.719 -0.00594452 138.893 8.70201e-05C138.489 8.70201e-05 138.163 0.0724656 137.668 0.229286C137.373 0.32579 121.463 6.24273 120.106 6.74938C118.748 7.25603 117.994 8.34171 118 9.53595Z" fill="#ED1B23"/>
</svg>
