<svg width="24" height="24" viewBox="0 0 24 24" fill="none" xmlns="http://www.w3.org/2000/svg">
<path d="M1 9.80371C1 10.11 1.04468 10.4274 1.16756 10.7281C1.70935 12.0645 3.08895 12.8886 4.84278 12.1926C5.26169 12.0255 16.8627 7.36473 16.8627 7.36473C16.8627 7.36473 12.2938 18.9137 12.1206 19.3425C11.456 20.9963 12.2547 22.4942 13.6119 22.9954C13.9135 23.1067 14.2263 23.1624 14.5335 23.1568C15.645 23.1513 16.6225 22.4998 17.1028 21.1968C17.1754 21.0019 22.8894 5.36009 23.0122 4.98701C23.0849 4.76427 23.2189 4.24084 23.2189 3.87889C23.2189 3.10487 22.9341 2.37541 22.3811 1.82413C21.8393 1.27842 21.1132 1 20.348 1C19.9738 1 19.6722 1.06682 19.2141 1.2116C18.9405 1.3007 4.21163 6.76334 2.95491 7.23109C1.69818 7.69884 0.999997 8.70116 1.00558 9.80371" fill="#ED1C24"/>
</svg>
