<svg id="그룹_3" data-name="그룹 3" xmlns="http://www.w3.org/2000/svg" xmlns:xlink="http://www.w3.org/1999/xlink" width="115.498" height="30.19" viewBox="0 0 115.498 30.19">
  <defs>
    <clipPath id="clip-path">
      <rect id="사각형_29" data-name="사각형 29" width="115.498" height="30.19" fill="#174193"/>
    </clipPath>
  </defs>
  <g id="그룹_1" data-name="그룹 1" clip-path="url(#clip-path)">
    <path id="패스_1" data-name="패스 1" d="M374.242,176v3.235h-4.221c2.613,1.781,4.023,4.709,1.752,7.459-3.4,4.119-12.092,4.372-16.77,2.758-2.872-.99-6.324-3.362-5.325-6.893a6.744,6.744,0,0,1,2.739-3.324h-4.58V176Zm-19.1,5.782a2.3,2.3,0,0,0,.3,3.547c2.361,1.892,8.194,1.887,10.777.48,1.459-.794,2.411-2.255,1.234-3.781-2.032-2.635-10.054-2.579-12.31-.245" transform="translate(-316.583 -160.186)" fill="#174193"/>
    <path id="패스_2" data-name="패스 2" d="M1009.465,30.012h4.042V24.845l.135-.135h4.581l.135.135V38.727h-4.85V33.246H1009.6c-2,5.467-9.353,6.9-14.048,4.081-4.065-2.441-4.9-7.282-1.176-10.507,4.379-3.789,13.2-2.793,15.09,3.191m-9.271-2.131c-4.9.591-4.31,7.942.962,7.611,5.444-.342,4.9-8.318-.962-7.611" transform="translate(-902.858 -22.374)" fill="#174193"/>
    <path id="패스_3" data-name="패스 3" d="M371.742,0V2.606H381.98V5.93h-3.233a5.644,5.644,0,0,0,.611.871c1.55,2.526.084,4.881-2.145,6.265-3.709,2.3-10.005,2.394-14,.814-3.444-1.36-6.089-4.531-3.145-7.951h-3.233V2.606h10.149V0Zm-3.88,5.957c-1.774.157-5.194,1.3-4.18,3.679.883,2.075,5.227,2.346,7.116,2.134,1.587-.178,4.452-.917,4.452-2.919,0-2.937-5.362-3.073-7.388-2.893" transform="translate(-324.77)" fill="#174193"/>
    <path id="패스_4" data-name="패스 4" d="M1039.279,198v2.336h12.933V198h4.76v10.6h-21.33c-.347,0-1.123-.608-1.123-.943V198Zm12.933,5.571h-12.933v1.707h12.933Z" transform="translate(-941.564 -180.209)" fill="#174193"/>
    <path id="패스_5" data-name="패스 5" d="M19.309,30v3.235H12.573a11.929,11.929,0,0,0,2.118,6.641,10.83,10.83,0,0,0,4.258,3.064l-2.016,2.43c-.215.18-.455.025-.676-.053A13.328,13.328,0,0,1,11.1,41.312L9.88,39.345a8.579,8.579,0,0,1-2.743,3.322A17.2,17.2,0,0,1,2.2,45.514L0,42.94c4.239-1.582,7.253-5.037,7.364-9.705H.628V30Z" transform="translate(0 -27.304)" fill="#174193"/>
    <path id="패스_6" data-name="패스 6" d="M694.291,30a1.949,1.949,0,0,1,1.77,1.195c.6,1.658-.789,6.142-1.415,7.876A28.854,28.854,0,0,1,684.413,53l-3.729-2.244a26.563,26.563,0,0,0,9.522-12.624,16.5,16.5,0,0,0,1.076-4.809h-9.969V30Z" transform="translate(-619.522 -27.304)" fill="#174193"/>
    <rect id="사각형_27" data-name="사각형 27" width="4.67" height="26.237" transform="translate(80.202 2.246)" fill="#174193"/>
    <path id="패스_7" data-name="패스 7" d="M43.739,219v5.751H61.612v3.235H39.922c-.3,0-.943-.693-.943-.943V219Z" transform="translate(-35.477 -199.322)" fill="#174193"/>
    <rect id="사각형_28" data-name="사각형 28" width="4.76" height="18.33" transform="translate(21.375 2.246)" fill="#174193"/>
  </g>
</svg>
