<svg width="277" height="140" viewBox="0 0 277 140" fill="none" xmlns="http://www.w3.org/2000/svg">
<path d="M269.426 134.958C276.492 131.425 276.95 124.652 276.296 121.708C270.898 91.2808 261.083 52.0202 254.212 29.4454C247.341 6.8706 237.036 0 230.656 0C224.276 0 216.915 4.90757 207.099 26.5009C197.284 48.0942 184.525 93.7346 182.562 107.476C180.599 121.217 179.617 134.958 202.683 137.903C225.748 140.847 260.592 139.375 269.426 134.958Z" fill="#6A8238"/>
<path d="M139.346 34.6622C138.168 10.7132 114.645 7.67054 103.03 9.14281C83.3999 11.1056 69.1679 14.5414 67.2049 44.9684C65.2419 75.3953 64.7511 122.999 69.1679 128.888C73.5847 134.777 98.6133 139.684 110.882 139.684C123.151 139.684 139.346 130.851 140.818 104.841C142.291 78.8306 140.818 64.5983 139.346 34.6622Z" fill="#A4B648"/>
<g style="mix-blend-mode:multiply">
<path d="M206.175 88.0582C199.893 54.2942 173.13 48.7977 160.534 50.2699C128.144 56.6498 121.274 79.2246 119.801 99.3456C118.329 119.467 145.812 143.514 166.914 139.097C188.017 134.68 214.027 130.263 206.175 88.0582Z" fill="#6DA13D"/>
</g>
<g style="mix-blend-mode:multiply">
<path d="M68.1524 62.3262C61.8707 45.4441 50.4851 41.2236 45.5775 41.2236C35.7624 41.2236 29.3826 45.6404 22.0212 63.3077C16.1321 77.4415 5.17188 108.13 0.427896 121.708C-0.717204 125.143 -0.259164 132.995 10.7338 136.921C21.7267 140.847 53.5932 139.211 68.1524 137.903C75.5137 137.248 89.5494 132.406 86.8011 118.272C83.3658 100.605 76.0045 83.4287 68.1524 62.3262Z" fill="#446A37"/>
</g>
</svg>
