<?xml version="1.0" encoding="utf-8"?>
<!-- Generator: Adobe Illustrator 28.0.0, SVG Export Plug-In . SVG Version: 6.00 Build 0)  -->
<svg version="1.1" id="레이어_2" xmlns="http://www.w3.org/2000/svg" xmlns:xlink="http://www.w3.org/1999/xlink" x="0px"
	 y="0px" viewBox="0 0 35 35" style="enable-background:new 0 0 35 35;" xml:space="preserve">
<style type="text/css">
	.st0{fill:#F12D41;}
</style>
<path id="e00c" class="st0" d="M33.1,10.4c0.3-0.2,0.4-0.5,0.4-0.9c0-0.3-0.2-0.6-0.5-0.8l-8.9-5.6c-0.4-0.2-0.8-0.2-1.2,0.1
	l-5.4,4.4l-5.4-4.4c-0.3-0.3-0.8-0.3-1.1-0.1L2,8.7C1.7,8.9,1.5,9.2,1.5,9.5c0,0.3,0.1,0.6,0.4,0.8L7,14.7l-4.4,3.5
	c-0.3,0.2-0.4,0.5-0.4,0.8c0,0.3,0.2,0.6,0.5,0.8l4.1,2.8c-0.2,0.2-0.3,0.4-0.3,0.7v4c0,0.3,0.2,0.7,0.5,0.8L17,33.8
	c0.2,0.1,0.3,0.2,0.5,0.2c0.1,0,0.2,0,0.3,0c0.1,0,0.2-0.1,0.3-0.1l9.9-5.7c0.3-0.2,0.5-0.5,0.5-0.8v-4.9l3.9-2.6
	c0.3-0.2,0.4-0.5,0.4-0.8c0-0.2,0-0.3-0.1-0.5c-0.1-0.1-0.2-0.3-0.3-0.3L28,14.7L33.1,10.4z M24.5,14.7l-7,4.4l-7-4.4l7-4.6
	L24.5,14.7z M4.2,9.7l7.1-4.5l4.5,3.6l-7.1,4.6L4.2,9.7z M8.7,15.9l7.1,4.4l-4,3.1l-6.8-4.5L8.7,15.9z M8.4,23.6l2.8,1.9
	c0.2,0.1,0.4,0.2,0.6,0.2c0.2,0,0.4-0.1,0.6-0.2l4-3.1v8.8l-8-4.5L8.4,23.6z M26.4,26.7l-8,4.5v-9l4.2,3.2c0.1,0.1,0.2,0.1,0.3,0.1
	c0.1,0,0.2,0,0.3,0s0.2,0,0.3,0c0.1,0,0.2-0.1,0.3-0.1l2.7-1.8V26.7z M30,18.9l-6.8,4.6l-4-3.1l7.1-4.4L30,18.9z M26.3,13.5
	l-7.1-4.6l4.5-3.6l7.1,4.5L26.3,13.5z"/>
</svg>
