<svg width="112" height="72" viewBox="0 0 112 72" fill="none" xmlns="http://www.w3.org/2000/svg">
<path d="M98.5204 22.2419C97.1707 22.2419 95.8034 22.4682 94.4537 22.9033C93.4195 18.0824 89.0899 14.5495 84.0767 14.5495C83.2704 14.5495 82.4465 14.6539 81.5701 14.8802C81.4123 6.64821 74.6112 0 66.285 0C57.9589 0 51 6.80485 51 15.176C51 23.5472 57.8537 30.3521 66.285 30.3521C68.9669 30.3521 71.5963 29.6385 73.9451 28.2984C74.6638 30.5783 76.1537 32.5275 78.1695 33.8676C73.0687 36.1475 69.7207 41.1772 69.7207 46.7812C69.7207 54.6128 76.1362 61 84.0416 61C91.1057 61 97.048 55.8659 98.1348 48.974C98.275 48.974 98.3977 48.9914 98.5379 48.9914C105.97 48.9914 112 42.9872 112 35.6254C112 28.2636 105.953 22.2593 98.5379 22.2593" fill="white"/>
<path d="M14.5 21C6.50598 21 0 27.506 0 35.5C0 43.494 6.50598 50 14.5 50C22.4941 50 29 43.494 29 35.5C29 27.506 22.4941 21 14.5 21Z" fill="white"/>
<path d="M6.93941 65.5678C6.93941 65.2564 7.13635 65 7.42423 65C7.68181 65 7.89393 65.2564 7.89393 65.5678C7.89393 65.8791 7.68181 66.1355 7.42423 66.1355C7.1515 66.1355 6.93941 65.8791 6.93941 65.5678ZM6.48483 69.1941C6.89393 69.1941 7.12122 68.8095 7.12122 68.2051C7.12122 67.6007 6.90908 67.1978 6.48483 67.1978C6.10604 67.1978 5.84849 67.6007 5.84849 68.2051C5.84849 68.8095 6.10604 69.1941 6.48483 69.1941ZM5.86361 69.5971V69.9084H5V65.0366H5.86361V66.8132C5.99997 66.63 6.30302 66.4103 6.68181 66.4103C7.48485 66.4103 8 67.1245 8 68.2051C8 69.2857 7.4697 70 6.68181 70C6.33332 70 6.04543 69.8535 5.86361 69.5971Z" fill="white"/>
<path d="M9.98866 67V68.4764C9.98866 68.9162 9.98866 69.2304 10.4659 69.2304C10.858 69.2304 11.0284 68.9319 11.0284 68.5393V67H12V69.9215H11.0455V69.5602C10.8921 69.7958 10.5512 70 10.108 70C9.73299 70 9.47729 69.9057 9.28979 69.7173C9.08525 69.5131 9 69.3089 9 68.6649V67H9.9716H9.98866Z" fill="white"/>
<path d="M13.4832 67.6308C13.2641 67.6308 13.0787 67.6923 13.0787 67.8308C13.0787 67.9846 13.2135 68.0308 13.5337 68.0923L14.0393 68.1846C14.5449 68.2769 15 68.4615 15 69.0154C15 69.6769 14.3764 70 13.6011 70C12.8764 70 12.2865 69.7077 12 69.3538L12.6068 68.9231C12.7922 69.1538 13.1798 69.3538 13.6011 69.3538C13.9214 69.3538 14.0899 69.2462 14.0899 69.0923C14.0899 68.9385 13.9045 68.9077 13.6854 68.8616L13.1966 68.7692C12.8764 68.7231 12.6067 68.6308 12.4213 68.4769C12.2528 68.3385 12.1517 68.1539 12.1517 67.9231C12.1517 67.2462 12.8596 67 13.4832 67C14.0562 67 14.5281 67.2 14.8483 67.4769L14.309 67.9538C14.073 67.7692 13.7697 67.6462 13.4663 67.6462" fill="white"/>
<path d="M16.9558 68.9021V68.6082C16.9558 68.6082 16.7901 68.6546 16.6741 68.6856L16.5083 68.7165C16.0939 68.7938 15.9282 68.8557 15.9282 69.0876C15.9282 69.3196 16.0774 69.4278 16.3757 69.4278C16.6906 69.4278 16.9393 69.2732 16.9393 68.8866M16.5249 67C17.1216 67 17.4862 67.1237 17.6685 67.3866C17.8011 67.5567 17.8343 67.8041 17.8343 68.1443V69.2577C17.8343 69.4278 17.8674 69.4588 18 69.4588V69.9691C17.9006 69.9691 17.8177 70 17.6354 70C17.2873 70 17.105 69.9382 17.0221 69.7217C16.8895 69.8454 16.6243 70 16.0939 70C15.4475 70 15 69.7062 15 69.1186C15 68.4227 15.6133 68.268 16.5249 68.1443L16.7404 68.1134C16.8895 68.0979 16.9558 68.0361 16.9558 67.9124C16.9558 67.7268 16.8232 67.5722 16.4752 67.5722C16.1105 67.5722 15.9448 67.7423 15.9448 68.0361H15.0994C15.0994 67.2938 15.6961 67 16.5083 67" fill="white"/>
<path d="M21.0508 69.9843V68.5078C21.0508 68.0523 21.0339 67.7382 20.5424 67.7382C20.1356 67.7382 19.9661 68.0367 19.9661 68.445V69.9843H19V67.0628H19.9492V67.4241C20.1017 67.1885 20.4576 67 20.8983 67C21.2712 67 21.5424 67.0942 21.7288 67.2827C21.9322 67.5026 22 67.6911 22 68.3351V70H21.0339L21.0508 69.9843Z" fill="white"/>
<path d="M26.0205 69.9843V68.5078C26.0205 68.0523 26.0205 67.7382 25.524 67.7382C25.1301 67.7382 24.976 68.0367 24.976 68.445V69.9843H24V67.0628H24.9589V67.4241C25.113 67.1885 25.4383 67 25.8835 67C26.3801 67 26.7055 67.1728 26.8767 67.534C27.0308 67.2827 27.3904 67 27.9041 67C28.2637 67 28.5377 67.0942 28.726 67.2827C28.9144 67.5026 29 67.6911 29 68.3351V70H28.024V68.5235C28.024 68.068 28.024 67.7539 27.5445 67.7539C27.1335 67.7539 26.9795 68.0524 26.9795 68.4607V70H26.0034L26.0205 69.9843Z" fill="white"/>
<path d="M29.9886 67V68.4764C29.9886 68.9162 29.9886 69.2304 30.4659 69.2304C30.858 69.2304 31.0284 68.9319 31.0284 68.5393V67H32V69.9215H31.0454V69.5602C30.892 69.7958 30.5511 70 30.108 70C29.75 70 29.4772 69.9057 29.2897 69.7173C29.0852 69.5131 29 69.3089 29 68.6649V67H29.9716H29.9886Z" fill="white"/>
<path d="M34.4832 67.6308C34.2641 67.6308 34.0787 67.6923 34.0787 67.8308C34.0787 67.9846 34.2135 68.0308 34.5337 68.0923L35.0394 68.1846C35.545 68.2769 36 68.4615 36 69.0154C36 69.6769 35.3764 70 34.6011 70C33.8764 70 33.2865 69.7077 33 69.3538L33.6068 68.9231C33.7922 69.1538 34.1798 69.3538 34.6011 69.3538C34.9214 69.3538 35.0899 69.2462 35.0899 69.0923C35.0899 68.9385 34.9045 68.9077 34.6854 68.8616L34.1967 68.7692C33.8764 68.7231 33.6067 68.6308 33.4213 68.4769C33.2528 68.3385 33.1517 68.1539 33.1517 67.9231C33.1517 67.2462 33.8596 67 34.4832 67C35.0562 67 35.5281 67.2 35.8483 67.4769L35.309 67.9538C35.073 67.7692 34.7697 67.6462 34.4663 67.6462" fill="white"/>
<path d="M36.8777 68.1633H38.1224C38.1064 67.8418 37.883 67.6122 37.5319 67.6122C37.133 67.6122 36.8936 67.8724 36.8777 68.1633ZM37.5479 70C36.6702 70 36 69.449 36 68.4847C36 67.5969 36.6383 67 37.516 67C38.4894 67 39 67.6735 39 68.5459C39 68.6071 39 68.6684 39 68.7296H36.8777C36.9096 69.0357 37.1489 69.3112 37.5957 69.3112C37.9947 69.3112 38.2341 69.0816 38.3298 68.9133L38.9521 69.3112C38.7766 69.5408 38.3458 69.9847 37.5319 69.9847" fill="white"/>
<path d="M40.9886 67V68.4764C40.9886 68.9162 40.9886 69.2304 41.4659 69.2304C41.858 69.2304 42.0284 68.9319 42.0284 68.5393V67H43V69.9215H42.0454V69.5602C41.892 69.7958 41.5511 70 41.108 70C40.75 70 40.4772 69.9057 40.2897 69.7173C40.0852 69.5131 40 69.3089 40 68.6649V67H40.9716H40.9886Z" fill="white"/>
<path d="M45.0206 69.9843V68.5078C45.0206 68.0523 45.0206 67.7382 44.524 67.7382C44.1302 67.7382 43.976 68.0367 43.976 68.445V69.9843H43V67.0628H43.9589V67.4241C44.113 67.1885 44.4384 67 44.8836 67C45.3801 67 45.7055 67.1728 45.8767 67.534C46.0308 67.2827 46.3904 67 46.9041 67C47.2637 67 47.5377 67.0942 47.726 67.2827C47.9315 67.5026 48 67.6911 48 68.3351V70H47.024V68.5235C47.024 68.068 47.024 67.7539 46.5445 67.7539C46.1336 67.7539 45.9795 68.0524 45.9795 68.4607V70H45.0034L45.0206 69.9843Z" fill="white"/>
<path d="M51.4924 69.3265C51.8883 69.3265 52.1168 69.0204 52.1168 68.5C52.1168 67.9796 51.8883 67.6582 51.4924 67.6582C51.0965 67.6582 50.868 67.9643 50.868 68.5C50.868 69.0357 51.0812 69.3265 51.4924 69.3265ZM51.4924 67C52.3909 67 53 67.5357 53 68.5153C53 69.4949 52.3909 70 51.4924 70C50.5939 70 50 69.4796 50 68.5153C50 67.551 50.6092 67 51.4924 67Z" fill="white"/>
<path d="M55.0308 67.3333V70H53.7154V67.3333H53V66.5556H53.7154V66.1481C53.7154 65.7778 53.8308 65.537 53.9923 65.3519C54.2231 65.0741 54.6846 65 55.2154 65C55.5385 65 55.8154 65.0185 56 65.037V65.8333C56 65.8333 55.7923 65.8148 55.6308 65.8148C55.4 65.8148 55.2385 65.8333 55.1462 65.9074C55.0769 65.9629 55.0308 66.037 55.0308 66.2222V66.537H56V67.3148H55.0308V67.3333Z" fill="white"/>
<path d="M58.5968 70C57.6452 70 57 69.4796 57 68.5153C57 67.551 57.6452 67 58.5968 67C59.4355 67 59.8548 67.4286 60 67.8878L59.2097 68.148C59.129 67.8418 58.9032 67.6582 58.5968 67.6582C58.1774 67.6582 57.9355 67.9643 57.9355 68.5C57.9355 69.0357 58.1613 69.3265 58.5968 69.3265C58.8871 69.3265 59.0968 69.1735 59.1936 68.9133L59.9839 69.2194C59.8226 69.6174 59.4032 70 58.5968 70Z" fill="white"/>
<path d="M62 69.3265C62.5253 69.3265 62.8283 69.0204 62.8283 68.5C62.8283 67.9796 62.5253 67.6582 62 67.6582C61.4747 67.6582 61.1717 67.9643 61.1717 68.5C61.1717 69.0357 61.4545 69.3265 62 69.3265ZM62 67C63.1919 67 64 67.5357 64 68.5153C64 69.4949 63.1919 70 62 70C60.8081 70 60 69.4796 60 68.5153C60 67.551 60.8081 67 62 67Z" fill="white"/>
<path d="M66.0339 69.9843V68.5078C66.0339 68.0523 66.017 67.7382 65.5424 67.7382C65.1356 67.7382 64.9661 68.0367 64.9661 68.445V69.9843H64V67.0628H64.9492V67.4241C65.1017 67.1885 65.4407 67 65.8983 67C66.2542 67 66.5424 67.0942 66.7288 67.2827C66.9322 67.5026 67 67.6911 67 68.3351V70H66.0339V69.9843Z" fill="white"/>
<path d="M69.4776 69.985C69.1493 69.985 68.7911 69.9401 68.6567 69.7453C68.5522 69.6105 68.5373 69.4607 68.5373 69.1611V67.7378H68V67.1236H68.5373V66.1798L69.3881 66V67.1236H70V67.7378H69.3881V68.9513C69.3881 69.1011 69.403 69.191 69.4627 69.2359C69.5224 69.2959 69.6269 69.3258 69.7761 69.3258C69.8806 69.3258 69.9553 69.3258 69.9851 69.3258V69.9551C69.8657 69.97 69.6717 70 69.4776 70" fill="white"/>
<path d="M70.8777 68.1633H72.1223C72.1064 67.8418 71.883 67.6122 71.5159 67.6122C71.117 67.6122 70.8776 67.8724 70.8617 68.1633M71.5478 70C70.6702 70 70 69.449 70 68.4847C70 67.5969 70.6383 67 71.5159 67C72.4894 67 73 67.6735 73 68.5459C73 68.6071 73 68.6684 73 68.7296H70.8777C70.9096 69.0357 71.149 69.3112 71.5958 69.3112C71.9947 69.3112 72.2341 69.0816 72.3298 68.9133L72.9521 69.3112C72.7766 69.5408 72.3458 69.9847 71.5319 69.9847" fill="white"/>
<path d="M76.0205 69.9843V68.5078C76.0205 68.0523 76.0206 67.7382 75.524 67.7382C75.1302 67.7382 74.976 68.0367 74.976 68.445V69.9843H74V67.0628H74.9589V67.4241C75.113 67.1885 75.4384 67 75.8836 67C76.3801 67 76.7055 67.1728 76.8767 67.534C77.0308 67.2827 77.3904 67 77.9041 67C78.2637 67 78.5377 67.0942 78.726 67.2827C78.9144 67.5026 79 67.6911 79 68.3351V70H78.024V68.5235C78.024 68.068 78.024 67.7539 77.5445 67.7539C77.1336 67.7539 76.9794 68.0524 76.9794 68.4607V70H76.0034L76.0205 69.9843Z" fill="white"/>
<path d="M80.9798 69.2943C81.5253 69.2943 81.8283 68.9774 81.8283 68.4792C81.8283 67.9811 81.5455 67.649 80.9798 67.649C80.4748 67.649 80.1313 67.9811 80.1313 68.4792C80.1313 68.9774 80.4748 69.2943 80.9798 69.2943ZM80.1515 69.6264V71H79V67.0755H80.1515V67.3321C80.3333 67.1811 80.7374 67 81.2424 67C82.3131 67 83 67.5887 83 68.4641C83 69.3396 82.2929 69.9434 81.2424 69.9434C80.7778 69.9434 80.3939 69.8377 80.1515 69.6113" fill="white"/>
<path d="M85 69.3265C85.5253 69.3265 85.8283 69.0204 85.8283 68.5C85.8283 67.9796 85.5253 67.6582 85 67.6582C84.4748 67.6582 84.1717 67.9643 84.1717 68.5C84.1717 69.0357 84.4546 69.3265 85 69.3265ZM85 67C86.1919 67 87 67.5357 87 68.5153C87 69.4949 86.1919 70 85 70C83.8081 70 83 69.4796 83 68.5153C83 67.551 83.8081 67 85 67Z" fill="white"/>
<path d="M88.8782 67.0314C88.8782 67.0314 88.9478 67.0314 89 67.0314V67.8796C88.8957 67.8482 88.7739 67.8482 88.687 67.8482C88.3217 67.8482 88.1131 68.0052 88.0435 68.2565C88.0087 68.3665 87.9913 68.5079 87.9913 68.6492V70H87V67.0785H87.9739V67.4712C88.0609 67.2513 88.4261 67 88.8782 67" fill="white"/>
<path d="M90.9558 68.9021V68.6082C90.9558 68.6082 90.79 68.6546 90.674 68.6856L90.5083 68.7165C90.0939 68.7938 89.9282 68.8557 89.9282 69.0876C89.9282 69.3196 90.0773 69.4278 90.3757 69.4278C90.7072 69.4278 90.9392 69.2732 90.9392 68.8866M90.5248 67C91.1215 67 91.4862 67.1237 91.6685 67.3866C91.8011 67.5567 91.8342 67.8041 91.8342 68.1443V69.2577C91.8342 69.4278 91.8674 69.4588 92 69.4588V69.9691C91.9006 69.9691 91.8177 70 91.6354 70C91.2873 70 91.105 69.9382 91.0221 69.7217C90.8895 69.8454 90.6243 70 90.0939 70C89.4475 70 89 69.7062 89 69.1186C89 68.4227 89.6132 68.268 90.5248 68.1443L90.7569 68.1134C90.9061 68.0979 90.9724 68.0361 90.9724 67.9124C90.9724 67.7268 90.8398 67.5722 90.4917 67.5722C90.1271 67.5722 89.9613 67.7423 89.9613 68.0361H89.116C89.116 67.2938 89.7127 67 90.5248 67Z" fill="white"/>
<path d="M94.8783 67.0314C94.8783 67.0314 94.9478 67.0314 95 67.0314V67.8796C94.8957 67.8482 94.7739 67.8482 94.687 67.8482C94.3217 67.8482 94.1131 68.0052 94.0435 68.2565C94.0087 68.3665 93.9913 68.5079 93.9913 68.6492V70H93V67.0785H93.9739V67.4712C94.0609 67.2513 94.4261 67 94.8783 67" fill="white"/>
<path d="M96.6755 71.5833C96.5 71.8106 96.3085 72 95.7979 72C95.5745 72 95.4468 72 95.2394 71.9621V71.1288C95.3511 71.1288 95.4308 71.1477 95.5266 71.1477C95.7978 71.1477 95.9894 71.1098 95.9894 70.7879C95.9894 70.5985 95.9415 70.4659 95.8936 70.2955L95 67H95.9575L96.2925 68.5152C96.3723 68.8561 96.4681 69.3106 96.5319 69.6705C96.5798 69.3296 96.6915 68.8371 96.7553 68.5152L97.0744 67H98L96.9787 70.8068C96.883 71.1667 96.7872 71.4129 96.6755 71.5833Z" fill="white"/>
<path d="M101.608 68.9021V68.6082C101.608 68.6082 101.387 68.6546 101.232 68.6856L101.011 68.7165C100.459 68.7938 100.238 68.8557 100.238 69.0876C100.238 69.3196 100.436 69.4278 100.834 69.4278C101.254 69.4278 101.586 69.2732 101.586 68.8866M101.033 67C101.829 67 102.315 67.1237 102.558 67.3866C102.735 67.5567 102.779 67.8041 102.779 68.1443V69.2577C102.779 69.4278 102.823 69.4588 103 69.4588V69.9691C102.867 69.9691 102.757 70 102.514 70C102.05 70 101.807 69.9382 101.696 69.7217C101.519 69.8454 101.166 70 100.459 70C99.5967 70 99 69.7062 99 69.1186C99 68.4227 99.8176 68.268 101.033 68.1443L101.343 68.1134C101.541 68.0979 101.63 68.0361 101.63 67.9124C101.63 67.7268 101.453 67.5722 100.989 67.5722C100.503 67.5722 100.282 67.7423 100.282 68.0361H99.1547C99.1547 67.2938 99.9502 67 101.033 67Z" fill="white"/>
<path d="M104.878 67.0314C104.878 67.0314 104.948 67.0314 105 67.0314V67.8796C104.896 67.8482 104.774 67.8482 104.687 67.8482C104.322 67.8482 104.113 68.0052 104.043 68.2565C104.009 68.3665 103.991 68.5079 103.991 68.6492V70H103V67.0785H103.974V67.4712C104.061 67.2513 104.426 67 104.878 67" fill="white"/>
<path d="M107.216 69.985C106.724 69.985 106.187 69.9401 105.985 69.7453C105.828 69.6105 105.806 69.4607 105.806 69.1611V67.7378H105V67.1236H105.806V66.1798L107.082 66V67.1236H107.978V67.7378H107.082V68.9513C107.082 69.1011 107.104 69.191 107.194 69.2359C107.284 69.2959 107.44 69.3258 107.664 69.3258C107.821 69.3258 107.933 69.3258 108 69.3258V69.9551C107.821 69.97 107.53 70 107.239 70" fill="white"/>
<path d="M10.4285 54V55.0134H6.5352V54H5.1046V58.0878H11.8953V54H10.4285ZM6.5352 56.0954H10.4285V56.9886H6.5352V56.0954ZM4 58.8607V59.9428H7.74845V63H9.19717V59.9428H13V58.8607H4Z" fill="white"/>
<path d="M22 56.5642V57.6871H20.6871V60.7039H19.3225V54H20.6871V56.5642H22ZM14.5547 59.9832H15.9539V61.9609H20.8772V63H14.5547V59.9832ZM15.9885 57.4022C15.7293 58.2905 14.6238 59.229 13.7083 59.514L13 58.4413C14.4338 57.9721 15.263 56.8827 15.263 55.5084V54.4693H16.6795V55.4413C16.6795 56.9162 17.595 57.8045 18.8042 58.2067L18.0269 59.2793C17.2841 59.0447 16.2994 58.2402 15.9712 57.419" fill="white"/>
<path d="M29.3688 59.3167H28.1887V58.25H29.3688V57.4H28.2581V56.3333H29.3688V54H30.7744V60.8833H29.3688V59.35V59.3167ZM25.5336 57.85C24.9957 57.85 24.6312 58.2167 24.6312 58.5667C24.6312 58.95 24.9957 59.2833 25.5336 59.2833C26.0716 59.2833 26.4534 58.95 26.4534 58.5667C26.4534 58.2 26.0716 57.85 25.5336 57.85ZM24.3015 54.3167H26.9393V55.3333H24.3015V54.3167ZM24.3015 60.5833H25.7245V61.95H31V63H24.3189V60.5833H24.3015ZM25.5336 60.2667C24.2321 60.2667 23.3297 59.55 23.3297 58.5833C23.3297 57.6167 24.2147 56.9 25.5336 56.9C26.8525 56.9 27.7549 57.6167 27.7549 58.5833C27.7549 59.55 26.8525 60.2667 25.5336 60.2667ZM23 55.7167H27.9979V56.75H23V55.7167Z" fill="white"/>
<path d="M38.6461 58.5327H37.9077V62.5746H36.589V54.1473H37.9077V57.4855H38.6461V54H40V63H38.6461V58.5491V58.5327ZM36.0791 59.6945L36.2374 60.6927C35.4286 60.8564 33.8989 60.9382 33.0374 60.9382H32V55.0309H35.6572V56.0455H33.4242V59.8745H33.6527C34.2154 59.8745 35.4638 59.8254 36.0967 59.6945" fill="white"/>
<path d="M47.5 54H49V63H47.5V54ZM42.4815 59.6127H44.3518V55.8H42.4815V59.6127ZM41 54.7691H45.8704V60.66H41V54.7691Z" fill="white"/>
<path d="M50.9778 57.321L50.4165 56.2583C52.1911 56.0756 53.7485 55.3284 53.7485 54.083V54H55.2334V54.083C55.2334 55.345 56.7545 56.059 58.5654 56.2583L58.004 57.3044C56.6278 57.1384 55.0704 56.5406 54.4909 55.5111C53.8933 56.524 52.336 57.1384 50.9778 57.3044M51.0865 60.5923H56.3199V60.1771H51.0503V59.131H53.7666V58.6328H50V57.5867H59V58.6328H55.2334V59.131H57.8049V61.5055H52.5352V61.9207H58.167V63H51.1046V60.5923H51.0865Z" fill="white"/>
<path d="M67.6756 60.8427H66.1401V54H67.6756V56.6798H69V57.8258H67.6756V60.8595V60.8427ZM60.6507 60.2865H62.1862V61.9551H67.8676V63H60.6315V60.2865H60.6507ZM64.8541 57.9101L63.3762 57.7584C63.4913 57.3539 63.5681 56.5281 63.5681 55.7022H59.6334V54.6404H65.1228C65.1228 55.8034 65.0461 57.1854 64.8541 57.9101ZM62.4165 59.6798C61.1497 59.7303 59.7294 59.7472 59.1344 59.7472L59 58.6685C59.7294 58.6685 60.3628 58.6685 61.0154 58.6685V56.8483H62.4741V58.6348C63.3378 58.6011 65.0844 58.5168 65.6602 58.4326L65.737 59.427C65.0653 59.5112 63.5681 59.6292 62.4165 59.6966" fill="white"/>
</svg>
