<svg width="80" height="51" viewBox="0 0 80 51" fill="none" xmlns="http://www.w3.org/2000/svg">
<path d="M4.92965 47.3407C4.92965 47.1539 5.1407 47 5.41206 47C5.66834 47 5.8794 47.1539 5.8794 47.3407C5.8794 47.5275 5.66834 47.6813 5.41206 47.6813C5.1407 47.6813 4.92965 47.5275 4.92965 47.3407ZM4.47739 49.5165C4.88442 49.5165 5.11055 49.2857 5.11055 48.9231C5.11055 48.5604 4.8995 48.3187 4.47739 48.3187C4.1005 48.3187 3.84422 48.5604 3.84422 48.9231C3.84422 49.2857 4.1005 49.5165 4.47739 49.5165ZM3.8593 49.7582V49.9451H3V47.022H3.8593V48.0879C3.99497 47.978 4.29648 47.8462 4.68844 47.8462C5.48744 47.8462 6 48.2747 6 48.9231C6 49.5714 5.47236 50 4.68844 50C4.34171 50 4.05528 49.9121 3.8593 49.7582Z" fill="#333333"/>
<path d="M6.65909 48V48.9843C6.65909 49.2775 6.65909 49.4869 6.97727 49.4869C7.23864 49.4869 7.35227 49.288 7.35227 49.0262V48H8V49.9476H7.36364V49.7068C7.26136 49.8639 7.03409 50 6.73864 50C6.48864 50 6.31818 49.9372 6.19318 49.8115C6.05682 49.6754 6 49.5393 6 49.1099V48H6.64773H6.65909Z" fill="#333333"/>
<path d="M9.98876 48.4205C9.8427 48.4205 9.7191 48.4615 9.7191 48.5539C9.7191 48.6564 9.80899 48.6872 10.0225 48.7282L10.3596 48.7897C10.6966 48.8513 11 48.9744 11 49.3436C11 49.7846 10.5843 50 10.0674 50C9.58427 50 9.19101 49.8051 9 49.5692L9.40449 49.2821C9.52809 49.4359 9.78652 49.5692 10.0674 49.5692C10.2809 49.5692 10.3933 49.4974 10.3933 49.3949C10.3933 49.2923 10.2697 49.2718 10.1236 49.241L9.78652 49.1795C9.57303 49.1487 9.39326 49.0872 9.26966 48.9846C9.1573 48.8923 9.08989 48.7692 9.08989 48.6154C9.08989 48.1641 9.5618 48 9.98876 48C10.3708 48 10.6854 48.1333 10.8989 48.3179L10.5393 48.6359C10.382 48.5128 10.1798 48.4308 9.97753 48.4308" fill="#333333"/>
<path d="M12.3039 49.268V49.0722C12.3039 49.0722 12.1934 49.1031 12.116 49.1237L12.0055 49.1443C11.7293 49.1959 11.6188 49.2371 11.6188 49.3918C11.6188 49.5464 11.7182 49.6186 11.9171 49.6186C12.1271 49.6186 12.2928 49.5155 12.2928 49.2577M12.0166 48C12.4144 48 12.6575 48.0825 12.779 48.2577C12.8674 48.3711 12.8895 48.5361 12.8895 48.7629V49.5052C12.8895 49.6186 12.9116 49.6392 13 49.6392V49.9794C12.9337 49.9794 12.8785 50 12.7569 50C12.5138 50 12.4033 49.9588 12.3481 49.8144C12.2597 49.8969 12.0829 50 11.7293 50C11.2983 50 11 49.8041 11 49.4124C11 48.9485 11.4088 48.8454 12.0166 48.7629L12.1713 48.7423C12.2707 48.7319 12.3149 48.6907 12.3149 48.6082C12.3149 48.4845 12.2265 48.3814 11.9945 48.3814C11.7514 48.3814 11.6409 48.4948 11.6409 48.6907H11.0773C11.0773 48.1959 11.4751 48 12.0166 48Z" fill="#333333"/>
<path d="M15.3672 49.9895V49.0052C15.3672 48.7016 15.3559 48.4921 15.0282 48.4921C14.7571 48.4921 14.6441 48.6911 14.6441 48.9634V49.9895H14V48.0419H14.6328V48.2827C14.7345 48.1256 14.9718 48 15.2655 48C15.5141 48 15.6949 48.0628 15.8192 48.1885C15.9548 48.3351 16 48.4607 16 48.89V50H15.3559L15.3672 49.9895Z" fill="#333333"/>
<path d="M18.6164 49.9895V49.0052C18.6164 48.7016 18.6164 48.4921 18.2192 48.4921C17.9041 48.4921 17.7808 48.6911 17.7808 48.9634V49.9895H17V48.0419H17.7671V48.2827C17.8904 48.1256 18.1507 48 18.5068 48C18.9041 48 19.1644 48.1152 19.3014 48.356C19.4247 48.1885 19.7123 48 20.1233 48C20.411 48 20.6301 48.0628 20.7808 48.1885C20.9452 48.3351 21 48.4607 21 48.89V50H20.2192V49.0157C20.2192 48.712 20.2192 48.5026 19.8356 48.5026C19.5068 48.5026 19.3836 48.7016 19.3836 48.9738V50H18.6027L18.6164 49.9895Z" fill="#333333"/>
<path d="M21.6591 48V48.9843C21.6591 49.2775 21.6591 49.4869 21.9773 49.4869C22.2386 49.4869 22.3523 49.288 22.3523 49.0262V48H23V49.9476H22.3636V49.7068C22.2614 49.8639 22.0341 50 21.7386 50C21.4886 50 21.3182 49.9372 21.1932 49.8115C21.0568 49.6754 21 49.5393 21 49.1099V48H21.6477H21.6591Z" fill="#333333"/>
<path d="M24.4831 48.4205C24.264 48.4205 24.0787 48.4615 24.0787 48.5539C24.0787 48.6564 24.2135 48.6872 24.5337 48.7282L25.0393 48.7897C25.5449 48.8513 26 48.9744 26 49.3436C26 49.7846 25.3764 50 24.6011 50C23.8764 50 23.2865 49.8051 23 49.5692L23.6067 49.2821C23.7921 49.4359 24.1798 49.5692 24.6011 49.5692C24.9213 49.5692 25.0899 49.4974 25.0899 49.3949C25.0899 49.2923 24.9045 49.2718 24.6854 49.241L24.1798 49.1795C23.8596 49.1487 23.5899 49.0872 23.4045 48.9846C23.236 48.8923 23.1348 48.7692 23.1348 48.6154C23.1348 48.1641 23.8427 48 24.4831 48C25.0562 48 25.5281 48.1333 25.8483 48.3179L25.309 48.6359C25.0899 48.5128 24.7697 48.4308 24.4663 48.4308" fill="#333333"/>
<path d="M26.5851 48.7755H27.4149C27.4043 48.5612 27.2553 48.4082 27.0106 48.4082C26.7447 48.4082 26.5957 48.5816 26.5745 48.7755M27.0319 50C26.4468 50 26 49.6327 26 48.9898C26 48.398 26.4255 48 27.0106 48C27.6596 48 28 48.449 28 49.0306C28 49.0714 28 49.1122 28 49.1531H26.5851C26.6064 49.3571 26.766 49.5408 27.0638 49.5408C27.3298 49.5408 27.4894 49.3878 27.5532 49.2755L27.9681 49.5408C27.8511 49.6939 27.5638 49.9898 27.0213 49.9898" fill="#333333"/>
<path d="M28.9886 48V48.9843C28.9886 49.2775 28.9886 49.4869 29.4659 49.4869C29.858 49.4869 30.0284 49.288 30.0284 49.0262V48H31V49.9476H30.0455V49.7068C29.892 49.8639 29.5511 50 29.108 50C28.733 50 28.4773 49.9372 28.2898 49.8115C28.0852 49.6754 28 49.5393 28 49.1099V48H28.9716H28.9886Z" fill="#333333"/>
<path d="M32.6164 49.9895V49.0052C32.6164 48.7016 32.6164 48.4921 32.2192 48.4921C31.9041 48.4921 31.7808 48.6911 31.7808 48.9634V49.9895H31V48.0419H31.7671V48.2827C31.8904 48.1256 32.1507 48 32.5068 48C32.9041 48 33.1644 48.1152 33.3014 48.356C33.4247 48.1885 33.7123 48 34.1233 48C34.4247 48 34.6301 48.0628 34.7808 48.1885C34.9315 48.3351 35 48.4607 35 48.89V50H34.2192V49.0157C34.2192 48.712 34.2192 48.5026 33.8356 48.5026C33.5068 48.5026 33.3836 48.7016 33.3836 48.9738V50H32.6027L32.6164 49.9895Z" fill="#333333"/>
<path d="M36.9949 49.551C37.2589 49.551 37.4112 49.3469 37.4112 49C37.4112 48.6531 37.269 48.4388 36.9949 48.4388C36.7208 48.4388 36.5787 48.6429 36.5787 49C36.5787 49.3571 36.7208 49.551 36.9949 49.551ZM36.9949 48C37.5939 48 38 48.3571 38 49.0102C38 49.6633 37.5939 50 36.9949 50C36.3959 50 36 49.6531 36 49.0102C36 48.3674 36.4061 48 36.9949 48Z" fill="#333333"/>
<path d="M39.3643 48.4V50H38.4806V48.4H38V47.9333H38.4806V47.6889C38.4806 47.4667 38.5581 47.3222 38.6512 47.2111C38.8062 47.0444 39.1163 47 39.4729 47C39.6899 47 39.876 47.0111 40 47.0222V47.5C40 47.5 39.8605 47.4889 39.7519 47.4889C39.5969 47.4889 39.4884 47.5 39.4264 47.5444C39.3798 47.5778 39.3488 47.6222 39.3488 47.7333V47.9222H40V48.3889H39.3488L39.3643 48.4Z" fill="#333333"/>
<path d="M42.0595 49.9898C41.4216 49.9898 41 49.6428 41 49C41 48.3571 41.4324 48 42.0595 48C42.6216 48 42.9027 48.2857 43 48.5918L42.4703 48.7653C42.4054 48.5612 42.2649 48.4388 42.0486 48.4388C41.7676 48.4388 41.6054 48.6429 41.6054 49C41.6054 49.3571 41.7568 49.551 42.0486 49.551C42.2432 49.551 42.3838 49.449 42.4487 49.2755L42.9784 49.4796C42.8703 49.7449 42.5892 50 42.0486 50" fill="#333333"/>
<path d="M44.4924 49.551C44.8883 49.551 45.1168 49.3469 45.1168 49C45.1168 48.6531 44.8883 48.4388 44.4924 48.4388C44.0965 48.4388 43.868 48.6429 43.868 49C43.868 49.3571 44.0812 49.551 44.4924 49.551ZM44.4924 48C45.3909 48 46 48.3571 46 49.0102C46 49.6633 45.3909 50 44.4924 50C43.5939 50 43 49.6531 43 49.0102C43 48.3674 43.6091 48 44.4924 48Z" fill="#333333"/>
<path d="M47.3672 49.9895V49.0052C47.3672 48.7016 47.3559 48.4921 47.0282 48.4921C46.7571 48.4921 46.6441 48.6911 46.6441 48.9634V49.9895H46V48.0419H46.6328V48.2827C46.7345 48.1256 46.9718 48 47.2655 48C47.5028 48 47.6949 48.0628 47.8192 48.1885C47.9548 48.3351 48 48.4607 48 48.89V50H47.3559L47.3672 49.9895Z" fill="#333333"/>
<path d="M49.4776 49.9888C49.1493 49.9888 48.791 49.9551 48.6567 49.809C48.5522 49.7079 48.5373 49.5955 48.5373 49.3708V48.3034H48V47.8427H48.5373V47.1348L49.3881 47V47.8427H50V48.3034H49.3881V49.2135C49.3881 49.3258 49.403 49.3932 49.4627 49.427C49.5224 49.4719 49.6269 49.4944 49.7761 49.4944C49.8806 49.4944 49.9552 49.4944 50 49.4944V49.9663C49.8806 49.9775 49.6866 50 49.4925 50" fill="#333333"/>
<path d="M50.5851 48.7755H51.4149C51.4043 48.5612 51.2553 48.4082 51.0106 48.4082C50.7447 48.4082 50.5851 48.5816 50.5745 48.7755M51.0319 50C50.4468 50 50 49.6327 50 48.9898C50 48.398 50.4255 48 51.0106 48C51.6596 48 52 48.449 52 49.0306C52 49.0714 52 49.1122 52 49.1531H50.5851C50.6064 49.3571 50.766 49.5408 51.0638 49.5408C51.3298 49.5408 51.4894 49.3878 51.5532 49.2755L51.9787 49.5408C51.8617 49.6939 51.5745 49.9898 51.0319 49.9898" fill="#333333"/>
<path d="M54.2123 49.9895V49.0052C54.2123 48.7016 54.2123 48.4921 53.9144 48.4921C53.6781 48.4921 53.5856 48.6911 53.5856 48.9634V49.9895H53V48.0419H53.5753V48.2827C53.6678 48.1256 53.863 48 54.1301 48C54.4281 48 54.6233 48.1152 54.726 48.356C54.8185 48.1885 55.0342 48 55.3425 48C55.5685 48 55.7226 48.0628 55.8356 48.1885C55.9486 48.3351 56 48.4607 56 48.89V50H55.4144V49.0157C55.4144 48.712 55.4144 48.5026 55.1267 48.5026C54.8801 48.5026 54.7877 48.7016 54.7877 48.9738V50H54.2021L54.2123 49.9895Z" fill="#333333"/>
<path d="M57.9849 49.7207C58.2563 49.7207 58.407 49.483 58.407 49.1094C58.407 48.7358 58.2663 48.4868 57.9849 48.4868C57.7337 48.4868 57.5628 48.7358 57.5628 49.1094C57.5628 49.483 57.7337 49.7207 57.9849 49.7207ZM57.5729 49.9698V51H57V48.0566H57.5729V48.249C57.6633 48.1358 57.8643 48 58.1256 48C58.6583 48 59 48.4415 59 49.0981C59 49.7547 58.6482 50.2075 58.1256 50.2075C57.8945 50.2075 57.7035 50.1283 57.5729 49.9585" fill="#333333"/>
<path d="M60.4924 49.551C60.8883 49.551 61.1167 49.3469 61.1167 49C61.1167 48.6531 60.9036 48.4388 60.4924 48.4388C60.0812 48.4388 59.868 48.6429 59.868 49C59.868 49.3571 60.0812 49.551 60.4924 49.551ZM60.4924 48C61.3909 48 62 48.3571 62 49.0102C62 49.6633 61.3909 50 60.4924 50C59.5939 50 59 49.6531 59 49.0102C59 48.3674 59.6091 48 60.4924 48Z" fill="#333333"/>
<path d="M63.8783 48.0209C63.8783 48.0209 63.9478 48.0209 64 48.0209V48.5864C63.8957 48.5654 63.7565 48.5654 63.687 48.5654C63.3043 48.5654 63.113 48.6702 63.0435 48.8377C63.0087 48.911 62.9913 49.0052 62.9913 49.0995V50H62V48.0524H62.9739V48.3141C63.0609 48.1675 63.4261 48 63.8783 48" fill="#333333"/>
<path d="M65.3039 49.268V49.0722C65.3039 49.0722 65.1934 49.1031 65.116 49.1237L65.0055 49.1443C64.7293 49.1959 64.6188 49.2371 64.6188 49.3918C64.6188 49.5464 64.7182 49.6186 64.9171 49.6186C65.1381 49.6186 65.2928 49.5155 65.2928 49.2577M65.0166 48C65.4144 48 65.6575 48.0825 65.779 48.2577C65.8674 48.3711 65.8895 48.5361 65.8895 48.7629V49.5052C65.8895 49.6186 65.9116 49.6392 66 49.6392V49.9794C65.9337 49.9794 65.8785 50 65.7569 50C65.5138 50 65.4033 49.9588 65.3481 49.8144C65.2597 49.8969 65.0829 50 64.7293 50C64.2983 50 64 49.8041 64 49.4124C64 48.9485 64.4088 48.8454 65.0166 48.7629L65.1713 48.7423C65.2707 48.7319 65.3149 48.6907 65.3149 48.6082C65.3149 48.4845 65.2265 48.3814 64.9945 48.3814C64.7514 48.3814 64.6409 48.4948 64.6409 48.6907H64.0773C64.0773 48.1959 64.4751 48 65.0166 48Z" fill="#333333"/>
<path d="M67.8783 48.0209C67.8783 48.0209 67.9652 48.0209 68 48.0209V48.5864C67.8957 48.5654 67.7565 48.5654 67.687 48.5654C67.3217 48.5654 67.113 48.6702 67.0435 48.8377C67.0087 48.911 66.9913 49.0052 66.9913 49.0995V50H66V48.0524H66.9739V48.3141C67.0609 48.1675 67.4261 48 67.8783 48" fill="#333333"/>
<path d="M69.117 50.75C69 50.8864 68.8723 51 68.5319 51C68.383 51 68.2979 51 68.1596 50.9773V50.4773C68.234 50.4773 68.2872 50.4886 68.3511 50.4886C68.5319 50.4886 68.6596 50.4659 68.6596 50.2727C68.6596 50.1591 68.6277 50.0796 68.5957 49.9773L68 48H68.6383L68.8617 48.9091C68.9149 49.1136 68.9787 49.3864 69.0213 49.6023C69.0532 49.3977 69.1277 49.1023 69.1702 48.9091L69.383 48H70L69.3191 50.2841C69.2553 50.5 69.1915 50.6477 69.117 50.75Z" fill="#333333"/>
<path d="M72.3039 49.268V49.0722C72.3039 49.0722 72.1934 49.1031 72.116 49.1237L72.0055 49.1443C71.7293 49.1959 71.6188 49.2371 71.6188 49.3918C71.6188 49.5464 71.7182 49.6186 71.9171 49.6186C72.1381 49.6186 72.2928 49.5155 72.2928 49.2577M72.0166 48C72.4144 48 72.6575 48.0825 72.779 48.2577C72.8674 48.3711 72.8895 48.5361 72.8895 48.7629V49.5052C72.8895 49.6186 72.9116 49.6392 73 49.6392V49.9794C72.9337 49.9794 72.8785 50 72.7569 50C72.5138 50 72.4033 49.9588 72.3481 49.8144C72.2597 49.8969 72.0829 50 71.7293 50C71.2983 50 71 49.8041 71 49.4124C71 48.9485 71.4088 48.8454 72.0166 48.7629L72.1713 48.7423C72.2707 48.7319 72.3149 48.6907 72.3149 48.6082C72.3149 48.4845 72.2265 48.3814 71.9945 48.3814C71.7514 48.3814 71.6409 48.4948 71.6409 48.6907H71.0773C71.0773 48.1959 71.4751 48 72.0166 48Z" fill="#333333"/>
<path d="M74.9391 48.0209C74.9391 48.0209 74.9826 48.0209 75 48.0209V48.5864C74.9478 48.5654 74.8783 48.5654 74.8435 48.5654C74.6522 48.5654 74.5565 48.6702 74.5217 48.8377C74.5043 48.911 74.4957 49.0052 74.4957 49.0995V50H74V48.0524H74.487V48.3141C74.5304 48.1675 74.713 48 74.9391 48" fill="#333333"/>
<path d="M76.4887 49.9888C76.1579 49.9888 75.797 49.9551 75.6617 49.809C75.5564 49.7079 75.5413 49.5955 75.5413 49.3708V48.3034H75V47.8427H75.5413V47.1348L76.3985 47V47.8427H77V48.3034H76.3985V49.2135C76.3985 49.3258 76.4135 49.3932 76.4737 49.427C76.5338 49.4719 76.6391 49.4944 76.7895 49.4944C76.8947 49.4944 76.9699 49.4944 77 49.4944V49.9663C76.8797 49.9775 76.6842 50 76.4887 50" fill="#333333"/>
<path d="M13.0534 20.2764C13.0534 19.5791 13.6452 19 14.3973 19C15.1493 19 15.7534 19.5791 15.7534 20.2764C15.7534 20.9736 15.1493 21.5527 14.3973 21.5527C13.6452 21.5527 13.0534 20.9618 13.0534 20.2764ZM11.463 30.2036C12.8808 30.2036 13.8178 29.1164 13.8178 27.3791C13.8178 25.6418 12.8685 24.5427 11.463 24.5427C10.0575 24.5427 9.08356 25.6655 9.08356 27.3791C9.08356 29.0927 10.0329 30.2036 11.463 30.2036ZM9.19452 31.3027V31.7873H7V19.1655H9.19452V23.4909C9.19452 23.6445 9.37945 23.7273 9.50274 23.6209C10.0699 23.1245 10.9329 22.7345 11.9315 22.7345C14.4342 22.7345 16 24.6727 16 27.4027C16 30.1327 14.3849 32 11.9315 32C10.8712 32 10.0699 31.6691 9.50274 31.1727C9.39178 31.0664 9.19452 31.1491 9.19452 31.3027Z" fill="#333333"/>
<path d="M19.1538 23V27.8887C19.1538 29.267 19.4615 30.1623 20.84 30.1623C22.2185 30.1623 22.8215 29.1374 22.8215 27.7238V23H25V31.788H22.8215V31.1636C22.8215 30.9987 22.6123 30.928 22.5015 31.0458C21.9846 31.5995 21.1477 32 20.04 32C18.7846 32 17 31.5759 17 28.5956V23H19.1662H19.1538Z" fill="#333333"/>
<path d="M30.4532 24.6458C29.5037 24.6458 28.8083 24.9335 28.8083 25.4859C28.8083 26.1304 29.5037 26.257 30.9212 26.5102L32.1382 26.7404C33.6092 27.0512 35 27.523 35 29.0997C35 31.0563 32.9272 32 30.6404 32C28.2333 32 26.6419 30.9987 26 30.2621L27.6048 29.0422C28.2065 29.6982 29.1694 30.3312 30.6939 30.3312C31.9108 30.3312 32.6062 29.9744 32.6062 29.3529C32.6062 28.7315 32.0312 28.6164 31.055 28.4552L29.5572 28.179C27.8187 27.8453 26.4547 27.2123 26.4547 25.6586C26.4547 23.7941 28.5676 23 30.4799 23C32.4993 23 33.997 23.7366 34.6657 24.3465L33.2883 25.6125C32.5929 25.0371 31.63 24.6458 30.4666 24.6458" fill="#333333"/>
<path d="M41.4278 28.6958V27.6098C41.2238 27.6906 41.0198 27.7831 40.7025 27.8639L39.5467 28.095C38.5609 28.2914 38.0737 28.6149 38.0737 29.3196C38.0737 30.0244 38.5609 30.4634 39.5354 30.4634C40.6119 30.4634 41.4391 29.932 41.4391 28.6842M43.8867 30.6252H44V31.8383C43.796 31.8845 43.5128 31.9538 42.9802 31.9538C42.221 31.9538 41.6997 31.6996 41.5751 31.0295C41.2125 31.4339 40.5099 32 39.0142 32C37.2578 32 36 31.1451 36 29.389C36 27.3209 37.5637 26.9166 40.1133 26.466L40.7365 26.3505C41.2691 26.2696 41.4278 26.154 41.4278 25.7728V25.7035C41.4278 25.0103 40.9745 24.5712 39.8867 24.5712C38.7422 24.5712 38.1756 25.068 38.1643 26.0385L36.2833 25.9923C36.2833 23.8665 37.881 23 39.9773 23C41.9603 23 43.3881 23.6585 43.3881 25.611V29.8742C43.3881 30.4056 43.4788 30.6136 43.898 30.6136" fill="#333333"/>
<path d="M51.8802 32V27.5765C51.8802 26.9059 51.8443 26.3294 51.7126 25.8824C51.5329 25.2235 51.0778 24.8588 50.1437 24.8588C48.7665 24.8588 48.1317 25.8588 48.1317 27.3059V31.9882H46V23.2118H48.1317V23.8235C48.1317 23.9882 48.3353 24.0588 48.4431 23.9412C48.9581 23.3765 49.8204 23 50.9222 23C51.9281 23 52.7784 23.2941 53.4012 24.1059C53.8084 24.6706 54 25.3176 54 27.0353V32H51.8802Z" fill="#333333"/>
<path d="M43.7274 8.3087C43.651 8.02058 43.2559 8.08607 43.2559 8.37419C43.2814 9.4088 43.2941 10.666 43.2941 11.9233V18H41V4.0131H44.5431L46.6971 11.753C46.8755 12.4864 47.1049 13.4425 47.2706 14.1628C47.3343 14.4378 47.7039 14.4378 47.7804 14.1628C47.9843 13.4032 48.2392 12.3817 48.4049 11.7268L50.4569 4H54V17.9869H51.7059V12.0805C51.7059 10.9804 51.7441 9.53976 51.7824 8.28251C51.7824 7.99439 51.3873 7.92891 51.3108 8.21703C51.0559 9.27783 50.7627 10.4303 50.6098 11.0196L48.698 17.9869H46.3147L44.3137 10.5351C44.148 9.94575 43.9314 9.09448 43.7274 8.2956" fill="#333333"/>
<path d="M60.5 21.0588C61.8995 21.0588 62.8767 19.8582 62.8767 17.9936C62.8767 16.129 61.9357 14.9285 60.5 14.9285C59.0643 14.9285 58.1233 16.0907 58.1233 17.9936C58.1233 19.8966 59.1367 21.0588 60.5 21.0588ZM60.5 13C63.2627 13 65 14.9668 65 18.0319C65 21.0971 63.2748 23 60.5 23C57.7252 23 56 21.0843 56 18.0319C56 14.9796 57.7493 13 60.5 13Z" fill="#333333"/>
<path d="M70.4635 31.9882C66.273 31.9882 64 29.3294 64 25.4941C64 21.6588 66.4635 19 70.4635 19C73.6 19 75.1619 20.7647 75.8603 21.8824L73.8032 23.0706C73.1302 21.7529 72.0254 20.9882 70.4635 20.9882C68.0508 20.9882 66.6159 22.7412 66.6159 25.5059C66.6159 28.2706 68 29.9765 70.4635 29.9765C71.9746 29.9765 73.0921 29.2588 73.727 28.0353L76 28.9059C75.3778 30.0941 73.7651 32 70.4635 32" fill="#333333"/>
<path d="M60.2204 28.6292C60.1448 28.3979 59.8174 28.3979 59.7419 28.6292C59.5152 29.3961 59.1626 30.5524 58.9612 31.1976L58.0672 34.0215H61.8573L60.9633 31.0272C60.7744 30.4307 60.447 29.3595 60.2204 28.617M54 39L58.6967 26H61.3536L66 39H63.595L62.6506 36.2612C62.5876 36.0786 62.4113 35.9448 62.1973 35.9448H57.7524C57.5509 35.9448 57.3746 36.0665 57.3116 36.2612L56.3421 39H54Z" fill="#333333"/>
<path d="M60.2984 44C65.267 44 69.4447 40.3595 70.2233 35.3506V35.3255H70.2481C70.3469 35.3255 70.4211 35.3381 70.4953 35.3381C75.7358 35.3381 80 31.0071 80 25.697C80 20.3869 75.7358 16.0559 70.4953 16.0559C69.5559 16.0559 68.6042 16.2066 67.6525 16.5204H67.6278V16.4953C66.8738 13.018 63.8086 10.4947 60.3231 10.4947C59.7545 10.4947 59.186 10.57 58.5927 10.7207H58.5556V10.6956C58.4938 7.83339 57.3444 5.14693 55.3173 3.12582C53.2903 1.11726 50.6082 0 47.7778 0C41.8327 0 37 4.90842 37 10.9466C37 16.9849 41.8327 21.8933 47.7778 21.8933C49.6565 21.8933 51.5105 21.3912 53.142 20.4245H53.1667V20.4371C53.7847 22.3703 55.1319 23.9646 56.9612 24.9187L57.3444 24.0776C55.5645 23.1612 54.3038 21.5418 53.8712 19.5834C53.8341 19.4454 53.7353 19.3198 53.5993 19.2571C53.4634 19.1943 53.315 19.2194 53.1791 19.2947C51.5599 20.3743 49.6812 20.9518 47.7531 20.9518C42.3024 20.9518 37.8776 16.4576 37.8776 10.9215C37.8776 5.38545 42.3147 0.891297 47.7531 0.891297C53.1914 0.891297 57.6286 5.39801 57.6286 10.9215V10.9466C57.6286 10.9466 57.6286 11.0847 57.6163 11.2479C57.5916 11.4613 57.641 11.5743 57.7769 11.6873C57.814 11.7124 57.8387 11.7124 57.8758 11.725C57.95 11.7501 58.0241 11.7752 58.1107 11.7626C58.1354 11.7626 58.1725 11.7626 58.1972 11.7626C58.9388 11.499 59.6309 11.3735 60.3107 11.3735C63.5737 11.3735 66.3671 13.8591 66.8244 17.1606C66.8367 17.2987 66.9233 17.4117 67.0469 17.487C67.1704 17.5623 67.3064 17.5749 67.43 17.5247C68.4559 17.1355 69.4817 16.9347 70.4953 16.9347C75.2414 16.9347 79.0854 20.8514 79.0854 25.6593C79.0854 30.4673 75.2291 34.384 70.4953 34.384C70.3099 34.384 70.2975 34.384 70.1986 34.3715H70.1863C69.9638 34.3338 69.7784 34.3464 69.6177 34.4593C69.4447 34.5849 69.3952 34.7857 69.3582 34.9615C69.3582 34.9866 69.3581 35.0242 69.3458 35.0494V35.0996C69.0121 37.309 67.9244 39.3301 66.2682 40.7863C64.612 42.2425 62.4861 43.0459 60.2984 43.0459C55.2308 43.0459 51.115 38.8656 51.1026 33.7312H50.2003C50.2127 39.3803 54.7364 43.9623 60.2984 43.9623" fill="#333333"/>
<path d="M19.0044 21.3276H20C18.3323 17.4809 14.5737 15 10.4294 15C4.67953 15 0 19.7112 0 25.5C0 31.2888 4.67953 36 10.4294 36C13.0056 36 15.5818 35.0101 17.486 33.2936L16.7019 32.7172C14.972 34.2458 12.7442 35.0853 10.4294 35.0853C5.17735 35.0853 0.908525 30.7876 0.908525 25.5C0.908525 20.2124 5.17735 15.9147 10.4294 15.9147C14.051 15.9147 17.4113 18.0322 19.0044 21.3276Z" fill="#333333"/>
<path d="M7.28571 39V39.7882H4.69014V39H3.73642V42.1794H8.26358V39H7.28571ZM4.69014 40.6298H7.28571V41.3244H4.69014V40.6298ZM3 42.7805V43.6221H5.49899V46H6.46479V43.6221H9V42.7805H3Z" fill="#333333"/>
<path d="M16 40.7095V41.4581H14.9789V43.4693H13.9175V39H14.9789V40.7095H16ZM10.2092 42.9888H11.2975V44.3073H15.1267V45H10.2092V42.9888ZM11.3244 41.2682C11.1228 41.8603 10.263 42.486 9.55086 42.676L9 41.9609C10.1152 41.648 10.7601 40.9218 10.7601 40.0056V39.3128H11.8618V39.9609C11.8618 40.9441 12.5739 41.5363 13.5144 41.8045L12.9232 42.5195C12.3455 42.3631 11.5797 41.8268 11.3244 41.2793" fill="#333333"/>
<path d="M20.7766 42.5445H19.8915V41.8333H20.7766V41.2667H19.9436V40.5556H20.7766V39H21.8308V43.5889H20.7766V42.5667V42.5445ZM17.9132 41.5667C17.5098 41.5667 17.2364 41.8111 17.2364 42.0445C17.2364 42.3 17.5098 42.5222 17.9132 42.5222C18.3167 42.5222 18.603 42.3 18.603 42.0445C18.603 41.8 18.3167 41.5667 17.9132 41.5667ZM16.9761 39.2111H18.9544V39.8889H16.9761V39.2111ZM16.9761 43.3889H18.0434V44.3H22V45H16.9892V43.3889H16.9761ZM17.9132 43.1778C16.9241 43.1778 16.2473 42.7 16.2473 42.0556C16.2473 41.4111 16.9111 40.9333 17.9132 40.9333C18.9154 40.9333 19.5792 41.4111 19.5792 42.0556C19.5792 42.7 18.9024 43.1778 17.9132 43.1778ZM16 40.1444H19.7484V40.8333H16V40.1444Z" fill="#333333"/>
<path d="M27.9846 42.5255H27.4308V45.6691H26.4418V39.1145H27.4308V41.7109H27.9846V39H29V46H27.9846V42.5382V42.5255ZM26.0593 43.4291L26.178 44.2054C25.5714 44.3327 24.4242 44.3964 23.778 44.3964H23V39.8018H25.7429V40.5909H24.0681V43.5691H24.2396C24.6615 43.5691 25.5978 43.5309 26.0725 43.4291" fill="#333333"/>
<path d="M34.0625 39H35V46H34.0625V39ZM30.9259 43.3654H32.0949V40.4H30.9259V43.3654ZM30 39.6109H33.044V44.1927H30V39.6109Z" fill="#333333"/>
<path d="M36.6519 41.214L36.2777 40.5055C37.4608 40.3948 38.499 39.8856 38.499 39.0554V39H39.4889V39.0554C39.4889 39.8967 40.503 40.3727 41.7103 40.5055L41.336 41.2029C40.4185 41.0922 39.3803 40.6937 38.994 40.0074C38.5956 40.6827 37.5573 41.0922 36.6519 41.2029M36.7243 43.3948H40.2254V43.1181H36.7123V42.4207H38.5231V42.0886H36V41.3911H42V42.0886H39.4769V42.4207H41.1911V44.0037H37.6781V44.2804H41.4326V45H36.7243V43.3948Z" fill="#333333"/>
<path d="M48.0729 43.5618H46.9981V39H48.0729V40.7865H49V41.5506H48.0729V43.573V43.5618ZM43.1555 43.191H44.2438V44.3034H48.2207V45H43.1555V43.191ZM46.0979 41.6067L45.0633 41.5056C45.144 41.236 45.2111 40.6854 45.2111 40.1348H42.4568V39.427H46.2994C46.2994 40.2022 46.2457 41.1236 46.1113 41.6067M44.3916 42.7865C43.5048 42.8202 42.5106 42.8315 42.0941 42.8315L42 42.1123C42.5106 42.1123 42.9539 42.1123 43.4108 42.1123V40.8989H44.4319V42.0899C45.0365 42.0674 46.2591 42.0112 46.6622 41.955L46.7159 42.618C46.2457 42.6742 45.1977 42.7528 44.3916 42.7977" fill="#333333"/>
</svg>
