<svg width="182" height="43" viewBox="0 0 182 43" fill="none" xmlns="http://www.w3.org/2000/svg">
<path fill-rule="evenodd" clip-rule="evenodd" d="M84.6662 37.2952C84.8667 38.1975 84.7263 40.2728 82.5608 41.3556C79.8539 42.709 69.1766 43.1602 62.1086 42.2579C60.1385 42.0064 58.7408 41.4978 57.7627 40.8039C61.8175 39.032 64.7714 35.5449 63.1786 26.9839C62.5264 23.4781 61.1536 20.9669 59.4733 19.1962C60.7513 15.0509 62.1877 10.9244 63.462 8.12073C66.4697 1.50384 68.7255 0 70.6805 0C72.6355 0 75.7935 2.10538 77.8989 9.02304C80.0043 15.9407 83.0119 27.9714 84.6662 37.2952Z" fill="#6A8238"/>
<path fill-rule="evenodd" clip-rule="evenodd" d="M42.7002 10.6217C42.3393 3.28292 35.1309 2.35054 31.5718 2.8017C25.5564 3.40315 21.1953 4.45601 20.5938 13.7798C20.5109 15.0648 20.4365 16.4497 20.3735 17.8873C20.5532 18.2653 20.7241 18.6686 20.8841 19.0988C21.3572 20.3703 21.8246 21.5954 22.2781 22.7841C24.1308 27.6409 25.753 31.8934 26.5987 36.2425C27.0809 38.7224 25.8769 40.2688 24.3362 41.1753C27.2854 42.1447 31.4887 42.8039 33.978 42.8039C36.3121 42.8039 39.11 41.7605 41.004 39.0619C38.3256 36.645 36.4943 33.405 36.7111 30.4428C37.0485 25.8315 38.3112 20.7997 43.0783 17.7378C43.0398 17.0065 42.9984 16.2505 42.9552 15.4603C42.8746 13.9867 42.7874 12.3936 42.7002 10.6217Z" fill="#A4B648"/>
<path fill-rule="evenodd" clip-rule="evenodd" d="M59.4733 19.1962C56.1945 15.7413 51.7449 15.1061 49.1929 15.4044C46.6906 15.8973 44.6853 16.7056 43.0783 17.7378C43.3397 22.7016 43.4686 26.5218 43.1514 32.1267C42.9803 35.1486 42.1607 37.4139 41.004 39.0619C43.9007 41.6757 47.7882 43.3271 51.1479 42.6239C51.2217 42.6084 51.2956 42.593 51.3697 42.5776C51.4404 42.5628 51.5113 42.5481 51.5823 42.5333C53.6436 42.1041 55.8284 41.6491 57.7627 40.8039C55.2316 39.0082 55.509 35.9711 55.9428 32.9341C56.2895 30.5075 57.7349 24.8344 59.4733 19.1962Z" fill="#6DA13D"/>
<path fill-rule="evenodd" clip-rule="evenodd" d="M13.9664 12.6323C15.3452 12.6323 18.3927 13.7194 20.3735 17.8873C19.9794 26.8815 20.0284 37.9396 21.1953 39.4955C21.6526 40.1052 22.8311 40.6807 24.3362 41.1753C23.1861 41.8521 21.8483 42.1722 20.8841 42.2579C16.4227 42.6589 6.65779 43.1602 3.28918 41.9571C-0.0794162 40.7541 -0.219775 38.3479 0.131121 37.2952C1.58483 33.1346 4.94341 23.7306 6.74801 19.3995C9.00377 13.9857 10.9588 12.6323 13.9664 12.6323Z" fill="#446A37"/>
<path d="M24.3362 41.1753C22.8311 40.6807 21.6526 40.1052 21.1953 39.4955C20.0284 37.9396 19.9794 26.8815 20.3735 17.8873C20.5532 18.2653 20.7241 18.6686 20.8841 19.0988C21.3572 20.3703 21.8246 21.5954 22.2781 22.7841C24.1308 27.6409 25.753 31.8934 26.5987 36.2425C27.0809 38.7224 25.8769 40.2688 24.3362 41.1753Z" fill="#37582D"/>
<path d="M43.0783 17.7378C43.3397 22.7016 43.4686 26.5218 43.1514 32.1267C42.9803 35.1486 42.1607 37.4139 41.004 39.0619C38.3256 36.645 36.4943 33.405 36.7111 30.4428C37.0485 25.8315 38.3112 20.7997 43.0783 17.7378Z" fill="#538433"/>
<path fill-rule="evenodd" clip-rule="evenodd" d="M55.9428 32.9341C56.2895 30.5075 57.7349 24.8344 59.4733 19.1962C61.1536 20.9669 62.5264 23.4781 63.1786 26.9839C64.7714 35.5449 61.8175 39.032 57.7627 40.8039C55.2316 39.0082 55.509 35.9711 55.9428 32.9341Z" fill="#446A39"/>
<path d="M169.333 25.9594H173.231L173.691 23.3066H168.873L169.333 25.9594ZM163.053 23.3066C162.548 23.3066 162.295 23.045 162.295 22.5216V20.8433C162.295 20.32 162.548 20.0583 163.053 20.0583H169.252V19.5982C169.252 19.1651 169.441 18.8492 169.82 18.6507C169.116 18.6688 168.386 18.6778 167.628 18.6778C166.87 18.6598 166.121 18.6507 165.381 18.6507C164.659 18.6327 163.964 18.6056 163.297 18.5695C162.629 18.5334 162.024 18.4973 161.483 18.4613C160.887 18.4071 160.59 18.1184 160.59 17.595V15.998C160.59 15.4024 160.887 15.1318 161.483 15.1859C162.656 15.2761 164.082 15.3393 165.76 15.3754C167.456 15.3934 169.261 15.4024 171.174 15.4024C172.238 15.4024 173.258 15.4024 174.232 15.4024C175.225 15.3844 176.145 15.3664 176.993 15.3483C177.842 15.3303 178.6 15.3122 179.267 15.2942C179.953 15.2581 180.503 15.222 180.919 15.1859C181.532 15.1318 181.839 15.4024 181.839 15.998V17.595C181.839 18.1184 181.541 18.4071 180.946 18.4613C180.621 18.4973 180.197 18.5334 179.673 18.5695C179.15 18.5876 178.582 18.6056 177.968 18.6237C177.372 18.6417 176.741 18.6598 176.073 18.6778C175.423 18.6778 174.783 18.6778 174.151 18.6778C173.502 18.6778 173.177 18.9575 173.177 19.5169V20.0583H179.511C180.016 20.0583 180.269 20.32 180.269 20.8433V22.5216C180.269 23.045 180.016 23.3066 179.511 23.3066H177.589L177.156 25.8241C177.751 25.788 178.275 25.7609 178.726 25.7428C179.195 25.7248 179.583 25.6977 179.89 25.6616C180.413 25.6075 180.675 25.8241 180.675 26.3113V28.1791C180.675 28.6122 180.44 28.8558 179.971 28.9099C179.61 28.9641 179.132 29.0092 178.536 29.0453C177.959 29.0814 177.291 29.1084 176.533 29.1265C175.793 29.1626 174.972 29.1896 174.07 29.2077C173.186 29.2257 172.256 29.2348 171.282 29.2348C169.315 29.2348 167.564 29.1987 166.03 29.1265C164.515 29.0723 163.369 29.0002 162.593 28.9099C162.124 28.8558 161.889 28.6122 161.889 28.1791V26.3113C161.889 25.8241 162.151 25.6075 162.674 25.6616C162.981 25.6977 163.36 25.7248 163.811 25.7428C164.28 25.7789 164.812 25.815 165.408 25.8511L164.975 23.3066H163.053ZM171.336 10.7195C171.047 11.2428 170.641 11.7301 170.118 12.1812C169.613 12.6143 169.017 12.9933 168.331 13.3181C167.646 13.6249 166.888 13.8595 166.058 14.0219C165.245 14.1663 164.379 14.2204 163.459 14.1843C162.863 14.1482 162.566 13.8685 162.566 13.3452V11.4504C162.566 10.927 162.863 10.6653 163.459 10.6653C165.426 10.6653 166.906 10.2954 167.898 9.55551C168.891 8.79758 169.387 7.85016 169.387 6.71326V6.19895C169.387 5.60343 169.685 5.30566 170.28 5.30566H172.419C173.014 5.30566 173.312 5.60343 173.312 6.19895V6.71326C173.312 7.85016 173.799 8.79758 174.774 9.55551C175.766 10.2954 177.237 10.6653 179.186 10.6653C179.782 10.6653 180.079 10.927 180.079 11.4504V13.3452C180.079 13.8685 179.782 14.1482 179.186 14.1843C178.266 14.2204 177.39 14.1663 176.56 14.0219C175.748 13.8595 174.999 13.6249 174.314 13.3181C173.628 12.9933 173.032 12.6143 172.527 12.1812C172.022 11.7301 171.625 11.2428 171.336 10.7195Z" fill="white"/>
<path d="M136.644 24.0644C136.644 23.7756 136.716 23.5591 136.861 23.4147C137.023 23.2703 137.249 23.2162 137.537 23.2523C137.988 23.3245 138.44 23.3876 138.891 23.4418C139.36 23.4779 139.856 23.514 140.38 23.5501C140.903 23.5862 141.471 23.6132 142.085 23.6313C142.699 23.6493 143.375 23.6583 144.115 23.6583C144.765 23.6583 145.423 23.6493 146.091 23.6313C146.777 23.6132 147.427 23.5862 148.04 23.5501C148.654 23.514 149.204 23.4689 149.691 23.4147C150.197 23.3606 150.594 23.3064 150.882 23.2523C151.171 23.1982 151.397 23.2523 151.559 23.4147C151.722 23.5591 151.803 23.7756 151.803 24.0644V26.0675C151.803 26.5186 151.505 26.8074 150.909 26.9337C150.621 26.9878 150.224 27.042 149.718 27.0961C149.231 27.1503 148.681 27.1954 148.067 27.2315C147.454 27.2676 146.804 27.2946 146.118 27.3127C145.451 27.3307 144.792 27.3397 144.142 27.3397C142.662 27.3397 141.417 27.3036 140.407 27.2315C139.396 27.1773 138.44 27.0781 137.537 26.9337C136.942 26.8615 136.644 26.5728 136.644 26.0675V24.0644ZM156.973 28.0706C156.973 28.6661 156.675 28.9639 156.08 28.9639H153.941C153.346 28.9639 153.048 28.6661 153.048 28.0706V5.60324C153.048 5.00772 153.346 4.70996 153.941 4.70996H156.08C156.675 4.70996 156.973 5.00772 156.973 5.60324V28.0706ZM137.808 13.0202C137.808 11.8833 137.952 10.8637 138.241 9.96137C138.53 9.04102 138.945 8.25602 139.486 7.60636C140.046 6.9567 140.713 6.46043 141.489 6.11755C142.283 5.77468 143.177 5.60324 144.169 5.60324C145.162 5.60324 146.046 5.77468 146.822 6.11755C147.616 6.46043 148.284 6.9567 148.825 7.60636C149.385 8.25602 149.809 9.04102 150.097 9.96137C150.386 10.8637 150.531 11.8833 150.531 13.0202C150.531 14.1571 150.386 15.1857 150.097 16.1061C149.809 17.0264 149.385 17.8114 148.825 18.4611C148.284 19.0927 147.616 19.589 146.822 19.9499C146.046 20.2927 145.162 20.4642 144.169 20.4642C143.177 20.4642 142.283 20.2927 141.489 19.9499C140.713 19.589 140.046 19.0927 139.486 18.4611C138.945 17.8114 138.53 17.0264 138.241 16.1061C137.952 15.1857 137.808 14.1571 137.808 13.0202ZM144.169 16.8099C144.945 16.8099 145.55 16.467 145.983 15.7812C146.434 15.0774 146.66 14.1571 146.66 13.0202C146.66 11.8833 146.434 10.9719 145.983 10.2862C145.55 9.60045 144.945 9.25757 144.169 9.25757C143.393 9.25757 142.78 9.60045 142.329 10.2862C141.895 10.9719 141.679 11.8833 141.679 13.0202C141.679 14.1571 141.895 15.0774 142.329 15.7812C142.78 16.467 143.393 16.8099 144.169 16.8099Z" fill="white"/>
<path d="M125.34 25.878C126.35 25.878 127.189 25.8419 127.857 25.7697C128.543 25.7156 129.084 25.6163 129.481 25.472C129.896 25.3456 130.194 25.1652 130.374 24.9306C130.555 24.714 130.645 24.4433 130.645 24.1185C130.645 23.7937 130.555 23.523 130.374 23.3064C130.194 23.0718 129.896 22.8914 129.481 22.7651C129.084 22.6207 128.543 22.5214 127.857 22.4673C127.189 22.3951 126.35 22.359 125.34 22.359C124.329 22.359 123.481 22.3951 122.795 22.4673C122.109 22.5214 121.559 22.6207 121.144 22.7651C120.729 22.8914 120.431 23.0718 120.251 23.3064C120.07 23.523 119.98 23.7937 119.98 24.1185C119.98 24.4433 120.07 24.714 120.251 24.9306C120.431 25.1652 120.729 25.3456 121.144 25.472C121.559 25.6163 122.109 25.7156 122.795 25.7697C123.481 25.8419 124.329 25.878 125.34 25.878ZM120.521 13.6428C121.207 13.6428 121.757 13.3901 122.173 12.8848C122.606 12.3615 122.822 11.6938 122.822 10.8817C122.822 9.52826 122.145 8.85153 120.792 8.85153H119.249C118.69 8.85153 118.41 9.13125 118.41 9.69068V12.6412C118.41 13.3089 118.816 13.6428 119.628 13.6428H120.521ZM125.34 18.84C131.493 18.84 134.57 20.5995 134.57 24.1185C134.57 27.6375 131.493 29.397 125.34 29.397C122.2 29.397 119.872 28.9639 118.356 28.0977C116.84 27.2315 116.082 25.9051 116.082 24.1185C116.082 22.332 116.84 21.0056 118.356 20.1394C119.872 19.2731 122.2 18.84 125.34 18.84ZM118.058 17.1618C116.921 17.1618 116.046 16.9001 115.432 16.3767C114.837 15.8534 114.539 15.1045 114.539 14.13V6.90256C114.539 5.85589 115.053 5.33255 116.082 5.33255H122.66C123.905 5.33255 124.888 5.64836 125.61 6.27997C126.332 6.89354 126.693 7.82291 126.693 9.06809C126.693 10.0967 126.449 11.0441 125.962 11.9103C125.493 12.7766 124.834 13.3991 123.986 13.7781H125.692C126.251 13.7781 126.531 14.0578 126.531 14.6173V16.3226C126.531 16.882 126.251 17.1618 125.692 17.1618H118.058ZM130.05 5.60324C130.05 5.00772 130.347 4.70996 130.943 4.70996H133.081C133.677 4.70996 133.975 5.00772 133.975 5.60324V16.9723C133.975 17.5678 133.677 17.8655 133.081 17.8655H130.943C130.347 17.8655 130.05 17.5678 130.05 16.9723V15.2669C129.779 15.6639 129.301 15.8624 128.615 15.8624H128.019C127.46 15.8624 127.18 15.5827 127.18 15.0233V13.1826C127.18 12.6232 127.46 12.3434 128.019 12.3434H128.994C129.409 12.3434 129.689 12.2532 129.833 12.0728C129.977 11.8923 130.05 11.6216 130.05 11.2607V9.77188C129.779 10.1689 129.301 10.3674 128.615 10.3674H128.019C127.46 10.3674 127.18 10.0877 127.18 9.52826V7.68756C127.18 7.12813 127.46 6.84842 128.019 6.84842H128.994C129.463 6.84842 129.752 6.76721 129.86 6.6048C129.986 6.42434 130.05 6.14462 130.05 5.76566V5.60324Z" fill="white"/>
<path d="M92.2396 24.1185C92.2396 22.332 93.0426 21.0056 94.6487 20.1394C96.2729 19.2731 98.691 18.84 101.903 18.84C105.115 18.84 107.525 19.2731 109.131 20.1394C110.755 21.0056 111.567 22.332 111.567 24.1185C111.567 25.9051 110.755 27.2315 109.131 28.0977C107.525 28.9639 105.115 29.397 101.903 29.397C98.691 29.397 96.2729 28.9639 94.6487 28.0977C93.0426 27.2315 92.2396 25.9051 92.2396 24.1185ZM107.371 5.5491C107.371 4.98967 107.651 4.70996 108.21 4.70996H110.186C110.746 4.70996 111.026 4.98967 111.026 5.5491V17.0264C111.026 17.5858 110.746 17.8655 110.186 17.8655H108.21C107.651 17.8655 107.371 17.5858 107.371 17.0264V12.7224H106.397C106.09 12.7224 105.837 12.8217 105.639 13.0202C105.44 13.2006 105.341 13.4443 105.341 13.751V16.485C105.341 17.0445 105.061 17.3242 104.502 17.3242H102.526C101.966 17.3242 101.687 17.0445 101.687 16.485V5.81979C101.687 5.26037 101.966 4.98065 102.526 4.98065H104.502C105.061 4.98065 105.341 5.26037 105.341 5.81979V9.55533C105.576 9.2305 105.928 9.06809 106.397 9.06809H107.371V5.5491ZM96.5977 10.0155C96.5977 11.008 96.8413 11.8382 97.3286 12.5059C97.8338 13.1736 98.5737 13.5074 99.5482 13.5074C100.108 13.5074 100.387 13.7691 100.387 14.2924V16.3226C100.387 16.882 100.126 17.1618 99.6024 17.1618C98.5196 17.1618 97.5361 16.8459 96.6518 16.2143C95.7676 15.5827 95.145 14.7526 94.7841 13.724C94.6036 14.2473 94.3329 14.7255 93.972 15.1586C93.6111 15.5737 93.205 15.9346 92.7539 16.2414C92.3027 16.5301 91.8065 16.7557 91.2651 16.9181C90.7417 17.0805 90.2094 17.1618 89.668 17.1618C89.3793 17.1618 89.1627 17.0896 89.0183 16.9452C88.892 16.7828 88.8289 16.5753 88.8289 16.3226V14.2924C88.8289 13.7691 89.1266 13.5074 89.7221 13.5074C90.2274 13.5074 90.6786 13.4172 91.0756 13.2367C91.4726 13.0382 91.8065 12.7856 92.0772 12.4788C92.3478 12.154 92.5554 11.784 92.6997 11.369C92.8441 10.9359 92.9163 10.4847 92.9163 10.0155V6.17169C92.9163 5.61226 93.196 5.33255 93.7554 5.33255H95.7586C96.0473 5.33255 96.2548 5.40473 96.3811 5.5491C96.5255 5.69347 96.5977 5.94612 96.5977 6.30704V10.0155ZM101.903 25.878C103.997 25.878 105.476 25.7427 106.343 25.472C107.209 25.2193 107.642 24.7682 107.642 24.1185C107.642 23.4689 107.209 23.0177 106.343 22.7651C105.476 22.4944 103.997 22.359 101.903 22.359C99.8099 22.359 98.3301 22.4944 97.4639 22.7651C96.5977 23.0177 96.1646 23.4689 96.1646 24.1185C96.1646 24.7682 96.5977 25.2193 97.4639 25.472C98.3301 25.7427 99.8099 25.878 101.903 25.878Z" fill="white"/>
<path d="M178.915 40.7121C179.114 40.7121 179.213 40.8116 179.213 41.0105V41.7612C179.213 41.9601 179.114 42.0595 178.915 42.0595H174.18C173.814 42.0595 173.631 41.8735 173.631 41.5013V35.0529C173.631 34.6807 173.814 34.4946 174.18 34.4946H178.703C178.915 34.4946 179.021 34.6005 179.021 34.8122V35.5245C179.021 35.7362 178.915 35.8421 178.703 35.8421H175.027V37.4879H178.511C178.723 37.4879 178.828 37.5937 178.828 37.8055V38.5177C178.828 38.7294 178.723 38.8353 178.511 38.8353H175.027V40.7121H178.915Z" fill="#E9F6E9"/>
<path d="M172.638 34.4946C172.85 34.4946 172.956 34.6005 172.956 34.8122V35.5245C172.956 35.7362 172.85 35.8421 172.638 35.8421H168.961V37.8729H172.446C172.657 37.8729 172.763 37.9787 172.763 38.1905V38.9027C172.763 39.1144 172.657 39.2203 172.446 39.2203H168.961V41.7419C168.961 41.9537 168.856 42.0595 168.644 42.0595H167.884C167.672 42.0595 167.566 41.9537 167.566 41.7419V35.0529C167.566 34.6807 167.749 34.4946 168.115 34.4946H172.638Z" fill="#E9F6E9"/>
<path d="M166.137 34.4946C166.349 34.4946 166.455 34.6005 166.455 34.8122V35.5245C166.455 35.7362 166.349 35.8421 166.137 35.8421H165.059V40.7121H166.281C166.493 40.7121 166.599 40.818 166.599 41.0297V41.7419C166.599 41.9537 166.493 42.0595 166.281 42.0595H162.441C162.229 42.0595 162.124 41.9537 162.124 41.7419V41.0297C162.124 40.818 162.229 40.7121 162.441 40.7121H163.663V35.8421H162.586C162.374 35.8421 162.268 35.7362 162.268 35.5245V34.8122C162.268 34.6005 162.374 34.4946 162.586 34.4946H166.137Z" fill="#E9F6E9"/>
<path d="M156.802 42.0595C156.437 42.0595 156.254 41.8735 156.254 41.5013V34.8122C156.254 34.6005 156.36 34.4946 156.571 34.4946H157.332C157.543 34.4946 157.649 34.6005 157.649 34.8122V40.7121H161.153C161.351 40.7121 161.451 40.8116 161.451 41.0105V41.7612C161.451 41.9601 161.351 42.0595 161.153 42.0595H156.802Z" fill="#E9F6E9"/>
<path d="M150.521 38.2867C151.271 38.2867 151.647 37.8793 151.647 37.0644C151.647 36.2495 151.271 35.8421 150.521 35.8421H148.471V38.2867H150.521ZM150.578 34.4946C151.387 34.4946 152 34.7128 152.417 35.1491C152.834 35.5854 153.042 36.2238 153.042 37.0644C153.042 38.1937 152.667 38.954 151.916 39.3454L153.138 41.7516C153.183 41.835 153.183 41.9056 153.138 41.9633C153.1 42.0275 153.026 42.0595 152.917 42.0595H152.157C152.035 42.0595 151.942 42.0403 151.878 42.0018C151.813 41.9697 151.762 41.9152 151.724 41.8382L150.617 39.6342H148.471V41.7419C148.471 41.9537 148.365 42.0595 148.153 42.0595H147.393C147.181 42.0595 147.075 41.9537 147.075 41.7419V35.0529C147.075 34.6807 147.258 34.4946 147.624 34.4946H150.578Z" fill="#E9F6E9"/>
<path d="M139.683 38.2767C139.683 36.9677 139.968 35.9956 140.539 35.3604C141.117 34.7188 141.935 34.3979 142.993 34.3979C144.052 34.3979 144.867 34.7188 145.438 35.3604C146.016 35.9956 146.304 36.9677 146.304 38.2767C146.304 39.5856 146.016 40.5577 145.438 41.1929C144.867 41.8345 144.052 42.1554 142.993 42.1554C141.935 42.1554 141.117 41.8345 140.539 41.1929C139.968 40.5577 139.683 39.5856 139.683 38.2767ZM141.059 38.2767C141.059 39.1493 141.226 39.7941 141.559 40.2112C141.899 40.6218 142.377 40.8272 142.993 40.8272C143.609 40.8272 144.084 40.6218 144.418 40.2112C144.758 39.7941 144.928 39.1493 144.928 38.2767C144.928 37.404 144.758 36.7624 144.418 36.3517C144.084 35.9347 143.609 35.7261 142.993 35.7261C142.377 35.7261 141.899 35.9347 141.559 36.3517C141.226 36.7624 141.059 37.404 141.059 38.2767Z" fill="#E9F6E9"/>
<path d="M138.786 34.4946C138.998 34.4946 139.104 34.6005 139.104 34.8122V35.5245C139.104 35.7362 138.998 35.8421 138.786 35.8421H135.109V37.8729H138.594C138.805 37.8729 138.911 37.9787 138.911 38.1905V38.9027C138.911 39.1144 138.805 39.2203 138.594 39.2203H135.109V41.7419C135.109 41.9537 135.004 42.0595 134.792 42.0595H134.031C133.82 42.0595 133.714 41.9537 133.714 41.7419V35.0529C133.714 34.6807 133.897 34.4946 134.262 34.4946H138.786Z" fill="#E9F6E9"/>
<path d="M128.348 35.8421V41.7419C128.348 41.9537 128.242 42.0595 128.031 42.0595H127.27C127.059 42.0595 126.953 41.9537 126.953 41.7419V35.8421H124.98C124.768 35.8421 124.662 35.7362 124.662 35.5245V34.8122C124.662 34.6005 124.768 34.4946 124.98 34.4946H130.312C130.523 34.4946 130.629 34.6005 130.629 34.8122V35.5245C130.629 35.7362 130.523 35.8421 130.312 35.8421H128.348Z" fill="#E9F6E9"/>
<path d="M122.685 40.1631C122.685 40.0412 122.653 39.9321 122.589 39.8358C122.531 39.7332 122.432 39.6337 122.291 39.5375C122.149 39.4348 121.96 39.3321 121.723 39.2295C121.492 39.1268 121.2 39.0145 120.847 38.8926C120.327 38.713 119.891 38.5365 119.538 38.3633C119.185 38.19 118.903 38.0104 118.691 37.8243C118.479 37.6318 118.325 37.4265 118.229 37.2083C118.139 36.9838 118.094 36.7335 118.094 36.4576C118.094 35.7711 118.335 35.2577 118.816 34.9177C119.297 34.5712 120.006 34.3979 120.943 34.3979C121.88 34.3979 122.589 34.5808 123.07 34.9466C123.551 35.3059 123.792 35.8513 123.792 36.5827C123.792 36.7945 123.686 36.9003 123.474 36.9003H122.714C122.502 36.9003 122.396 36.7945 122.396 36.5827C122.396 36.0245 121.899 35.7454 120.905 35.7454C119.961 35.7454 119.49 35.9635 119.49 36.3999C119.49 36.6052 119.625 36.7977 119.894 36.9773C120.17 37.157 120.622 37.3495 121.251 37.5548C121.771 37.7281 122.21 37.9013 122.57 38.0745C122.929 38.2478 123.221 38.4371 123.446 38.6424C123.67 38.8413 123.831 39.0595 123.927 39.2969C124.029 39.5343 124.081 39.8005 124.081 40.0957C124.081 41.4688 123.067 42.1554 121.039 42.1554C119.012 42.1554 117.998 41.4271 117.998 39.9706C117.998 39.7588 118.104 39.653 118.316 39.653H119.076C119.288 39.653 119.394 39.7588 119.394 39.9706C119.394 40.2657 119.525 40.4807 119.788 40.6154C120.058 40.7438 120.488 40.8079 121.078 40.8079C121.63 40.8079 122.034 40.7566 122.291 40.6539C122.554 40.5513 122.685 40.3876 122.685 40.1631Z" fill="#E9F6E9"/>
<path d="M117.125 40.7121C117.324 40.7121 117.424 40.8116 117.424 41.0105V41.7612C117.424 41.9601 117.324 42.0595 117.125 42.0595H112.39C112.024 42.0595 111.841 41.8735 111.841 41.5013V35.0529C111.841 34.6807 112.024 34.4946 112.39 34.4946H116.913C117.125 34.4946 117.231 34.6005 117.231 34.8122V35.5245C117.231 35.7362 117.125 35.8421 116.913 35.8421H113.237V37.4879H116.721C116.933 37.4879 117.039 37.5937 117.039 37.8055V38.5177C117.039 38.7294 116.933 38.8353 116.721 38.8353H113.237V40.7121H117.125Z" fill="#E9F6E9"/>
<path d="M108.517 38.2867C109.268 38.2867 109.643 37.8793 109.643 37.0644C109.643 36.2495 109.268 35.8421 108.517 35.8421H106.467V38.2867H108.517ZM108.575 34.4946C109.383 34.4946 109.996 34.7128 110.413 35.1491C110.83 35.5854 111.039 36.2238 111.039 37.0644C111.039 38.1937 110.663 38.954 109.912 39.3454L111.135 41.7516C111.18 41.835 111.18 41.9056 111.135 41.9633C111.096 42.0275 111.022 42.0595 110.913 42.0595H110.153C110.031 42.0595 109.938 42.0403 109.874 42.0018C109.81 41.9697 109.758 41.9152 109.72 41.8382L108.613 39.6342H106.467V41.7419C106.467 41.9537 106.361 42.0595 106.149 42.0595H105.389C105.177 42.0595 105.071 41.9537 105.071 41.7419V35.0529C105.071 34.6807 105.254 34.4946 105.62 34.4946H108.575Z" fill="#E9F6E9"/>
<path d="M97.6787 38.2767C97.6787 36.9677 97.9642 35.9956 98.5353 35.3604C99.1128 34.7188 99.9309 34.3979 100.99 34.3979C102.048 34.3979 102.863 34.7188 103.434 35.3604C104.012 35.9956 104.3 36.9677 104.3 38.2767C104.3 39.5856 104.012 40.5577 103.434 41.1929C102.863 41.8345 102.048 42.1554 100.99 42.1554C99.9309 42.1554 99.1128 41.8345 98.5353 41.1929C97.9642 40.5577 97.6787 39.5856 97.6787 38.2767ZM99.055 38.2767C99.055 39.1493 99.2219 39.7941 99.5555 40.2112C99.8956 40.6218 100.374 40.8272 100.99 40.8272C101.606 40.8272 102.08 40.6218 102.414 40.2112C102.754 39.7941 102.924 39.1493 102.924 38.2767C102.924 37.404 102.754 36.7624 102.414 36.3517C102.08 35.9347 101.606 35.7261 100.99 35.7261C100.374 35.7261 99.8956 35.9347 99.5555 36.3517C99.2219 36.7624 99.055 37.404 99.055 38.2767Z" fill="#E9F6E9"/>
<path d="M96.7821 34.4946C96.9939 34.4946 97.0997 34.6005 97.0997 34.8122V35.5245C97.0997 35.7362 96.9939 35.8421 96.7821 35.8421H93.1055V37.8729H96.5896C96.8014 37.8729 96.9072 37.9787 96.9072 38.1905V38.9027C96.9072 39.1144 96.8014 39.2203 96.5896 39.2203H93.1055V41.7419C93.1055 41.9537 92.9997 42.0595 92.7879 42.0595H92.0276C91.8158 42.0595 91.71 41.9537 91.71 41.7419V35.0529C91.71 34.6807 91.8928 34.4946 92.2586 34.4946H96.7821Z" fill="#E9F6E9"/>
</svg>
