<svg width="65" height="36" viewBox="0 0 65 36" fill="none" xmlns="http://www.w3.org/2000/svg">
<path d="M56.49 12.78C55.72 12.78 54.94 12.91 54.17 13.16C53.58 10.39 51.11 8.36 48.25 8.36C47.79 8.36 47.32 8.42 46.82 8.55C46.73 3.82 42.85 0 38.1 0C33.35 0 29.38 3.91 29.38 8.72C29.38 13.53 33.29 17.44 38.1 17.44C39.63 17.44 41.13 17.03 42.47 16.26C42.88 17.57 43.73 18.69 44.88 19.46C41.97 20.77 40.06 23.66 40.06 26.88C40.06 31.38 43.72 35.05 48.23 35.05C52.26 35.05 55.65 32.1 56.26 28.14C56.33 28.14 56.41 28.15 56.49 28.15C60.73 28.15 64.17 24.7 64.17 20.47C64.17 16.24 60.72 12.78 56.49 12.78Z" fill="#39AF34"/>
<path d="M8.38 12.1699C3.76 12.1699 0 15.9299 0 20.5499C0 25.1699 3.76 28.9299 8.38 28.9299C13 28.9299 16.76 25.1699 16.76 20.5499C16.76 15.9299 13 12.1699 8.38 12.1699Z" fill="#39AF34"/>
</svg>
