<svg width="30" height="22" viewBox="0 0 30 22" fill="none" xmlns="http://www.w3.org/2000/svg">
<path d="M0 20V12.5C0 11.825 0.1375 11.2125 0.4125 10.6625C0.6875 10.1125 1.05 9.625 1.5 9.2V5C1.5 3.75 1.9375 2.6875 2.8125 1.8125C3.6875 0.9375 4.75 0.5 6 0.5H12C12.575 0.5 13.1125 0.60625 13.6125 0.81875C14.1125 1.03125 14.575 1.325 15 1.7C15.425 1.325 15.8875 1.03125 16.3875 0.81875C16.8875 0.60625 17.425 0.5 18 0.5H24C25.25 0.5 26.3125 0.9375 27.1875 1.8125C28.0625 2.6875 28.5 3.75 28.5 5V9.2C28.95 9.625 29.3125 10.1125 29.5875 10.6625C29.8625 11.2125 30 11.825 30 12.5V20C30 20.425 29.8562 20.7812 29.5687 21.0688C29.2812 21.3563 28.925 21.5 28.5 21.5C28.075 21.5 27.7188 21.3563 27.4313 21.0688C27.1438 20.7812 27 20.425 27 20V18.5H3V20C3 20.425 2.85625 20.7812 2.56875 21.0688C2.28125 21.3563 1.925 21.5 1.5 21.5C1.075 21.5 0.71875 21.3563 0.43125 21.0688C0.14375 20.7812 0 20.425 0 20ZM16.5 8H25.5V5C25.5 4.575 25.3562 4.21875 25.0687 3.93125C24.7812 3.64375 24.425 3.5 24 3.5H18C17.575 3.5 17.2188 3.64375 16.9313 3.93125C16.6438 4.21875 16.5 4.575 16.5 5V8ZM4.5 8H13.5V5C13.5 4.575 13.3563 4.21875 13.0688 3.93125C12.7813 3.64375 12.425 3.5 12 3.5H6C5.575 3.5 5.21875 3.64375 4.93125 3.93125C4.64375 4.21875 4.5 4.575 4.5 5V8ZM3 15.5H27V12.5C27 12.075 26.8562 11.7188 26.5687 11.4312C26.2812 11.1438 25.925 11 25.5 11H4.5C4.075 11 3.71875 11.1438 3.43125 11.4312C3.14375 11.7188 3 12.075 3 12.5V15.5Z" fill="white"/>
</svg>
