<svg width="18" height="18" viewBox="0 0 18 18" fill="none" xmlns="http://www.w3.org/2000/svg">
<path d="M8.16675 13.1665H9.83341V9.83317H13.1667V8.1665H9.83341V4.83317H8.16675V8.1665H4.83341V9.83317H8.16675V13.1665ZM9.00008 17.3332C7.8473 17.3332 6.76397 17.1144 5.75008 16.6769C4.73619 16.2394 3.85425 15.6457 3.10425 14.8957C2.35425 14.1457 1.7605 13.2637 1.323 12.2498C0.885498 11.2359 0.666748 10.1526 0.666748 8.99984C0.666748 7.84706 0.885498 6.76373 1.323 5.74984C1.7605 4.73595 2.35425 3.854 3.10425 3.104C3.85425 2.354 4.73619 1.76025 5.75008 1.32275C6.76397 0.885254 7.8473 0.666504 9.00008 0.666504C10.1529 0.666504 11.2362 0.885254 12.2501 1.32275C13.264 1.76025 14.1459 2.354 14.8959 3.104C15.6459 3.854 16.2397 4.73595 16.6772 5.74984C17.1147 6.76373 17.3334 7.84706 17.3334 8.99984C17.3334 10.1526 17.1147 11.2359 16.6772 12.2498C16.2397 13.2637 15.6459 14.1457 14.8959 14.8957C14.1459 15.6457 13.264 16.2394 12.2501 16.6769C11.2362 17.1144 10.1529 17.3332 9.00008 17.3332ZM9.00008 15.6665C10.8612 15.6665 12.4376 15.0207 13.7292 13.729C15.0209 12.4373 15.6667 10.8609 15.6667 8.99984C15.6667 7.13873 15.0209 5.56234 13.7292 4.27067C12.4376 2.979 10.8612 2.33317 9.00008 2.33317C7.13897 2.33317 5.56258 2.979 4.27091 4.27067C2.97925 5.56234 2.33341 7.13873 2.33341 8.99984C2.33341 10.8609 2.97925 12.4373 4.27091 13.729C5.56258 15.0207 7.13897 15.6665 9.00008 15.6665Z" fill="white"/>
</svg>
