<svg width="24" height="29" viewBox="0 0 24 29" fill="none" xmlns="http://www.w3.org/2000/svg">
<path d="M6 25.5V26.25C6 26.875 5.78125 27.4062 5.34375 27.8438C4.90625 28.2812 4.375 28.5 3.75 28.5C3.125 28.5 2.59375 28.2812 2.15625 27.8438C1.71875 27.4062 1.5 26.875 1.5 26.25V23.925C1.05 23.425 0.6875 22.8688 0.4125 22.2563C0.1375 21.6438 0 20.975 0 20.25V6C0 3.925 0.9625 2.40625 2.8875 1.44375C4.8125 0.48125 7.85 0 12 0C16.3 0 19.375 0.4625 21.225 1.3875C23.075 2.3125 24 3.85 24 6V20.25C24 20.975 23.8625 21.6438 23.5875 22.2563C23.3125 22.8688 22.95 23.425 22.5 23.925V26.25C22.5 26.875 22.2812 27.4062 21.8438 27.8438C21.4062 28.2812 20.875 28.5 20.25 28.5C19.625 28.5 19.0938 28.2812 18.6562 27.8438C18.2188 27.4062 18 26.875 18 26.25V25.5H6ZM3 12H21V7.5H3V12ZM6.75 21C7.375 21 7.90625 20.7812 8.34375 20.3438C8.78125 19.9062 9 19.375 9 18.75C9 18.125 8.78125 17.5938 8.34375 17.1562C7.90625 16.7188 7.375 16.5 6.75 16.5C6.125 16.5 5.59375 16.7188 5.15625 17.1562C4.71875 17.5938 4.5 18.125 4.5 18.75C4.5 19.375 4.71875 19.9062 5.15625 20.3438C5.59375 20.7812 6.125 21 6.75 21ZM17.25 21C17.875 21 18.4062 20.7812 18.8438 20.3438C19.2812 19.9062 19.5 19.375 19.5 18.75C19.5 18.125 19.2812 17.5938 18.8438 17.1562C18.4062 16.7188 17.875 16.5 17.25 16.5C16.625 16.5 16.0938 16.7188 15.6562 17.1562C15.2188 17.5938 15 18.125 15 18.75C15 19.375 15.2188 19.9062 15.6562 20.3438C16.0938 20.7812 16.625 21 17.25 21ZM3.675 4.5H20.475C20.1 4.075 19.2938 3.71875 18.0563 3.43125C16.8188 3.14375 14.825 3 12.075 3C9.4 3 7.44375 3.15625 6.20625 3.46875C4.96875 3.78125 4.125 4.125 3.675 4.5ZM6 22.5H18C18.825 22.5 19.5312 22.2063 20.1188 21.6188C20.7063 21.0312 21 20.325 21 19.5V15H3V19.5C3 20.325 3.29375 21.0312 3.88125 21.6188C4.46875 22.2063 5.175 22.5 6 22.5Z" fill="white"/>
</svg>
