<svg width="28" height="30" viewBox="0 0 28 30" fill="none" xmlns="http://www.w3.org/2000/svg">
<path d="M6.5 30C6.075 30 5.71875 29.8562 5.43125 29.5687C5.14375 29.2812 5 28.925 5 28.5V16.275C3.65 15.925 2.5625 15.2125 1.7375 14.1375C0.9125 13.0625 0.5 11.85 0.5 10.5V1.5C0.5 1.075 0.64375 0.71875 0.93125 0.43125C1.21875 0.14375 1.575 0 2 0C2.425 0 2.78125 0.14375 3.06875 0.43125C3.35625 0.71875 3.5 1.075 3.5 1.5V9H5V1.5C5 1.075 5.14375 0.71875 5.43125 0.43125C5.71875 0.14375 6.075 0 6.5 0C6.925 0 7.28125 0.14375 7.56875 0.43125C7.85625 0.71875 8 1.075 8 1.5V9H9.5V1.5C9.5 1.075 9.64375 0.71875 9.93125 0.43125C10.2188 0.14375 10.575 0 11 0C11.425 0 11.7812 0.14375 12.0688 0.43125C12.3562 0.71875 12.5 1.075 12.5 1.5V10.5C12.5 11.85 12.0875 13.0625 11.2625 14.1375C10.4375 15.2125 9.35 15.925 8 16.275V28.5C8 28.925 7.85625 29.2812 7.56875 29.5687C7.28125 29.8562 6.925 30 6.5 30ZM21.5 30C21.075 30 20.7188 29.8562 20.4313 29.5687C20.1438 29.2812 20 28.925 20 28.5V15.7125C18.65 15.2625 17.5625 14.3188 16.7375 12.8813C15.9125 11.4438 15.5 9.8125 15.5 7.9875C15.5 5.7625 16.0875 3.875 17.2625 2.325C18.4375 0.775 19.85 0 21.5 0C23.15 0 24.5625 0.78125 25.7375 2.34375C26.9125 3.90625 27.5 5.8 27.5 8.025C27.5 9.85 27.0875 11.475 26.2625 12.9C25.4375 14.325 24.35 15.2625 23 15.7125V28.5C23 28.925 22.8563 29.2812 22.5688 29.5687C22.2812 29.8562 21.925 30 21.5 30Z" fill="white"/>
</svg>
