<svg width="26" height="30" viewBox="0 0 26 30" fill="none" xmlns="http://www.w3.org/2000/svg">
<path d="M11.4999 28.5V24H5.23735C4.83735 24 4.4561 23.925 4.0936 23.775C3.7311 23.625 3.41235 23.4125 3.13735 23.1375L0.549854 20.55C0.249854 20.25 0.0998535 19.9 0.0998535 19.5C0.0998535 19.1 0.249854 18.75 0.549854 18.45L3.13735 15.8625C3.41235 15.5875 3.7311 15.375 4.0936 15.225C4.4561 15.075 4.83735 15 5.23735 15H11.4999V12H2.49985C2.07485 12 1.7186 11.8563 1.4311 11.5688C1.1436 11.2813 0.999854 10.925 0.999854 10.5V4.5C0.999854 4.075 1.1436 3.71875 1.4311 3.43125C1.7186 3.14375 2.07485 3 2.49985 3H11.4999V1.5C11.4999 1.075 11.6436 0.71875 11.9311 0.43125C12.2186 0.14375 12.5749 0 12.9999 0C13.4249 0 13.7811 0.14375 14.0686 0.43125C14.3561 0.71875 14.4999 1.075 14.4999 1.5V3H20.7624C21.1624 3 21.5436 3.075 21.9061 3.225C22.2686 3.375 22.5874 3.5875 22.8624 3.8625L25.4499 6.45C25.7499 6.75 25.8999 7.1 25.8999 7.5C25.8999 7.9 25.7499 8.25 25.4499 8.55L22.8624 11.1375C22.5874 11.4125 22.2686 11.625 21.9061 11.775C21.5436 11.925 21.1624 12 20.7624 12H14.4999V15H23.4999C23.9249 15 24.2811 15.1438 24.5686 15.4313C24.8561 15.7188 24.9999 16.075 24.9999 16.5V22.5C24.9999 22.925 24.8561 23.2813 24.5686 23.5688C24.2811 23.8563 23.9249 24 23.4999 24H14.4999V28.5C14.4999 28.925 14.3561 29.2812 14.0686 29.5687C13.7811 29.8562 13.4249 30 12.9999 30C12.5749 30 12.2186 29.8562 11.9311 29.5687C11.6436 29.2812 11.4999 28.925 11.4999 28.5ZM3.99985 9H20.7624L22.2624 7.5L20.7624 6H3.99985V9ZM5.23735 21H21.9999V18H5.23735L3.73735 19.5L5.23735 21Z" fill="white"/>
</svg>
