<svg width="15" height="15" viewBox="0 0 15 15" fill="none" xmlns="http://www.w3.org/2000/svg">
<path d="M2.09206 15.0054C1.50754 15.0054 1.01176 14.8019 0.604714 14.3948C0.197665 13.9878 -0.00585938 13.492 -0.00585938 12.9075V2.09255C-0.00585938 1.50803 0.197665 1.01225 0.604714 0.605201C1.01176 0.198153 1.50754 -0.00537109 2.09206 -0.00537109H6.45058C6.74204 -0.00537109 6.9897 0.0966212 7.19356 0.300607C7.39754 0.504593 7.49954 0.752254 7.49954 1.04359C7.49954 1.33505 7.39754 1.58278 7.19356 1.78676C6.9897 1.99062 6.74204 2.09255 6.45058 2.09255H2.09206V12.9075H12.907V8.54898C12.907 8.25752 13.0089 8.00986 13.2128 7.806C13.4168 7.60202 13.6645 7.50002 13.956 7.50002C14.2473 7.50002 14.495 7.60202 14.699 7.806C14.9029 8.00986 15.0049 8.25752 15.0049 8.54898V12.9075C15.0049 13.492 14.8014 13.9878 14.3944 14.3948C13.9873 14.8019 13.4915 15.0054 12.907 15.0054H2.09206ZM12.907 3.54783L6.74745 9.70719C6.55006 9.90458 6.3094 10.0014 6.02545 9.99773C5.74151 9.99391 5.50084 9.89336 5.30345 9.69611C5.1062 9.49872 5.00757 9.25614 5.00757 8.96837C5.00757 8.68073 5.1062 8.43822 5.30345 8.24083L11.4517 2.09255H10.1318C9.84036 2.09255 9.5927 1.99062 9.38885 1.78676C9.18486 1.58278 9.08287 1.33505 9.08287 1.04359C9.08287 0.752254 9.18486 0.504593 9.38885 0.300607C9.5927 0.0966212 9.84036 -0.00537109 10.1318 -0.00537109H13.956C14.2473 -0.00537109 14.495 0.0966212 14.699 0.300607C14.9029 0.504593 15.0049 0.752254 15.0049 1.04359V4.86773C15.0049 5.1592 14.9029 5.40686 14.699 5.61071C14.495 5.8147 14.2473 5.91669 13.956 5.91669C13.6645 5.91669 13.4168 5.8147 13.2128 5.61071C13.0089 5.40686 12.907 5.1592 12.907 4.86773V3.54783Z" fill="#666666"/>
</svg>
