<svg width="10" height="10" viewBox="0 0 10 10" fill="none" xmlns="http://www.w3.org/2000/svg">
<path d="M4.50033 5.49984H1.16699C1.02533 5.49984 0.906603 5.45189 0.810826 5.356C0.714937 5.26012 0.666992 5.14134 0.666992 4.99967C0.666992 4.85789 0.714937 4.73917 0.810826 4.6435C0.906603 4.54773 1.02533 4.49984 1.16699 4.49984H4.50033V1.1665C4.50033 1.02484 4.54827 0.906115 4.64416 0.810337C4.74005 0.714448 4.85883 0.666504 5.00049 0.666504C5.14227 0.666504 5.26099 0.714448 5.35666 0.810337C5.45244 0.906115 5.50033 1.02484 5.50033 1.1665V4.49984H8.83366C8.97533 4.49984 9.09405 4.54778 9.18983 4.64367C9.28571 4.73956 9.33366 4.85834 9.33366 5C9.33366 5.14178 9.28571 5.2605 9.18983 5.35617C9.09405 5.45195 8.97533 5.49984 8.83366 5.49984H5.50033V8.83317C5.50033 8.97484 5.45238 9.09356 5.35649 9.18934C5.2606 9.28523 5.14183 9.33317 5.00016 9.33317C4.85838 9.33317 4.73966 9.28523 4.64399 9.18934C4.54821 9.09356 4.50033 8.97484 4.50033 8.83317V5.49984Z" fill="#666666"/>
</svg>
