<svg width="15" height="15" viewBox="0 0 15 15" fill="none" xmlns="http://www.w3.org/2000/svg">
<path d="M2.20164 14.2293C1.80172 14.2293 1.46322 14.0908 1.18613 13.8137C0.90905 13.5366 0.770508 13.1981 0.770508 12.7982V2.20213C0.770508 1.80221 0.90905 1.4637 1.18613 1.18662C1.46322 0.909538 1.80172 0.770996 2.20164 0.770996H6.60133C6.76982 0.770996 6.91094 0.827864 7.02467 0.9416C7.13828 1.0552 7.19508 1.19625 7.19508 1.36475C7.19508 1.53324 7.13828 1.67429 7.02467 1.78789C6.91094 1.90163 6.76982 1.9585 6.60133 1.9585H2.20164C2.14068 1.9585 2.08487 1.9839 2.03421 2.03469C1.98341 2.08536 1.95801 2.14117 1.95801 2.20213V12.7982C1.95801 12.8592 1.98341 12.915 2.03421 12.9656C2.08487 13.0164 2.14068 13.0418 2.20164 13.0418H12.7977C12.8587 13.0418 12.9145 13.0164 12.9651 12.9656C13.0159 12.915 13.0413 12.8592 13.0413 12.7982V8.39851C13.0413 8.23001 13.0982 8.0889 13.2119 7.97516C13.3255 7.86156 13.4666 7.80476 13.6351 7.80476C13.8036 7.80476 13.9446 7.86156 14.0582 7.97516C14.172 8.0889 14.2288 8.23001 14.2288 8.39851V12.7982C14.2288 13.1981 14.0903 13.5366 13.8132 13.8137C13.5361 14.0908 13.1976 14.2293 12.7977 14.2293H2.20164ZM13.0413 2.79272L6.11129 9.72297C6.00164 9.83248 5.86383 9.88856 5.69784 9.8912C5.53199 9.8937 5.39166 9.83763 5.27687 9.72297C5.16221 9.60817 5.10488 9.4691 5.10488 9.30576C5.10488 9.14241 5.16221 9.00334 5.27687 8.88855L12.2071 1.9585H9.67676C9.50826 1.9585 9.36722 1.90163 9.25361 1.78789C9.13988 1.67429 9.08301 1.53324 9.08301 1.36475C9.08301 1.19625 9.13988 1.0552 9.25361 0.9416C9.36722 0.827864 9.50826 0.770996 9.67676 0.770996H13.5132C13.7173 0.770996 13.8876 0.839277 14.024 0.975839C14.1606 1.11227 14.2288 1.28254 14.2288 1.48666V5.32308C14.2288 5.49157 14.172 5.63262 14.0582 5.74623C13.9446 5.85996 13.8036 5.91683 13.6351 5.91683C13.4666 5.91683 13.3255 5.85996 13.2119 5.74623C13.0982 5.63262 13.0413 5.49157 13.0413 5.32308V2.79272Z" fill="#666666"/>
</svg>
