<svg width="45" height="41" viewBox="0 0 45 41" fill="none" xmlns="http://www.w3.org/2000/svg">
<path d="M6.00004 40.7501V20.6873L1.95433 23.7916L0 21.2003L6.00004 16.5918V10.3751H9.25004V14.1001L22.25 4.18762L44.5001 21.2003L42.5458 23.7586L38.5 20.6873V40.7501H6.00004ZM9.25004 37.5001H19.6668V27.9998H24.8333V37.5001H35.25V18.2168L22.25 8.30429L9.25004 18.2168V37.5001ZM6.00004 8.00042C6.00004 6.44475 6.52438 5.11839 7.57304 4.02133C8.62171 2.92392 9.98635 2.37521 11.667 2.37521C12.4473 2.37521 13.0451 2.14681 13.4604 1.69C13.8757 1.23283 14.0833 0.6695 14.0833 0H17.3333C17.3333 1.55567 16.809 2.88221 15.7603 3.97962C14.7117 5.07668 13.3472 5.62521 11.667 5.62521C10.8862 5.62521 10.2882 5.85361 9.87296 6.31042C9.45768 6.76758 9.25004 7.33092 9.25004 8.00042H6.00004Z" fill="white"/>
</svg>
