<svg width="14" height="14" viewBox="0 0 14 14" fill="none" xmlns="http://www.w3.org/2000/svg">
<path d="M3.89118 12.33V8.16337H1.12514C0.887919 8.16337 0.71778 8.05601 0.614724 7.84129C0.511669 7.62657 0.538127 7.42573 0.694099 7.23879L6.42639 0.437539C6.57709 0.255873 6.76834 0.165039 7.00014 0.165039C7.23195 0.165039 7.4232 0.255873 7.57389 0.437539L13.3062 7.23879C13.4622 7.42573 13.4886 7.62657 13.3856 7.84129C13.2825 8.05601 13.1124 8.16337 12.8751 8.16337H10.1091V12.33C10.1091 12.5449 10.0372 12.7241 9.89348 12.8677C9.74986 13.0115 9.5707 13.0834 9.35598 13.0834H4.64431C4.42959 13.0834 4.25042 13.0115 4.10681 12.8677C3.96306 12.7241 3.89118 12.5449 3.89118 12.33Z" fill="#666666"/>
</svg>
