<svg width="14" height="14" viewBox="0 0 14 14" fill="none" xmlns="http://www.w3.org/2000/svg">
<path d="M3.89069 12.33V8.16337H1.12465C0.887431 8.16337 0.717292 8.05601 0.614236 7.84129C0.511181 7.62657 0.537639 7.42573 0.693611 7.23879L6.4259 0.437539C6.5766 0.255873 6.76785 0.165039 6.99965 0.165039C7.23146 0.165039 7.42271 0.255873 7.5734 0.437539L13.3057 7.23879C13.4617 7.42573 13.4881 7.62657 13.3851 7.84129C13.282 8.05601 13.1119 8.16337 12.8747 8.16337H10.1086V12.33C10.1086 12.5449 10.0367 12.7241 9.89299 12.8677C9.74938 13.0115 9.57021 13.0834 9.35549 13.0834H4.64382C4.4291 13.0834 4.24993 13.0115 4.10632 12.8677C3.96257 12.7241 3.89069 12.5449 3.89069 12.33Z" fill="white"/>
</svg>
