<svg width="18" height="20" viewBox="0 0 18 20" fill="none" xmlns="http://www.w3.org/2000/svg">
<path d="M1.0303 19.5H0.499549V18H1.0303C1.77897 18 2.4998 17.9061 3.1928 17.7183C3.8858 17.5304 4.62138 17.2448 5.39955 16.8615C6.00088 17.2038 6.56788 17.476 7.10055 17.678C7.63322 17.8798 8.2598 17.9807 8.9803 17.9807C9.7008 17.9807 10.3274 17.8798 10.86 17.678C11.3929 17.476 11.9599 17.2038 12.5611 16.8615C13.3291 17.2448 14.0646 17.5304 14.7678 17.7183C15.471 17.9061 16.197 18 16.9458 18H17.4995V19.5H16.9458C16.1931 19.5 15.4566 19.425 14.7361 19.275C14.0156 19.125 13.306 18.8968 12.6073 18.5903C11.9726 18.9006 11.3627 19.1273 10.7775 19.2703C10.1922 19.4131 9.59313 19.4845 8.9803 19.4845C8.36747 19.4845 7.77097 19.4131 7.1908 19.2703C6.6108 19.1273 6.00347 18.9006 5.3688 18.5903C4.67013 18.8968 3.96055 19.125 3.24005 19.275C2.51955 19.425 1.78297 19.5 1.0303 19.5ZM8.99005 15.7885C8.13738 15.7885 7.37613 15.5161 6.7063 14.9712C6.03647 14.4262 5.54772 13.9807 5.24005 13.6345C4.73222 14.1743 4.22805 14.6042 3.72755 14.924C3.22688 15.2438 2.68547 15.4897 2.1033 15.6615L0.295799 9.59625C0.225299 9.35142 0.248132 9.12317 0.364299 8.9115C0.480632 8.7 0.662299 8.55642 0.909299 8.48075L2.2593 8.08075V4.30775C2.2593 3.81058 2.4363 3.385 2.7903 3.031C3.1443 2.677 3.5698 2.5 4.0668 2.5H6.83605V0.5H11.1438V2.5H13.913C14.41 2.5 14.8356 2.677 15.1898 3.031C15.5438 3.385 15.7208 3.81058 15.7208 4.30775V8.08075L17.0706 8.48075C17.3177 8.55642 17.4994 8.7 17.6156 8.9115C17.7317 9.12317 17.7545 9.35142 17.684 9.59625L15.8765 15.6615C15.2944 15.4897 14.753 15.2438 14.2525 14.924C13.7519 14.6042 13.2477 14.1743 12.7401 13.6345C12.4322 13.9807 11.9434 14.4262 11.2736 14.9712C10.6037 15.5161 9.84255 15.7885 8.99005 15.7885ZM9.0303 14.2885C9.61113 14.2885 10.1191 14.0952 10.5543 13.7087C10.9896 13.3221 11.3964 12.9115 11.7746 12.477L12.7033 11.4115L13.5553 12.3173C13.7771 12.5583 14.0015 12.7868 14.2283 13.003C14.4553 13.219 14.699 13.4167 14.9593 13.5962L16.0611 9.74625L8.9803 7.7385L1.93405 9.74625L3.03605 13.5962C3.29638 13.4167 3.53997 13.219 3.7668 13.003C3.9938 12.7868 4.21822 12.5583 4.44005 12.3173L5.2918 11.4115L6.2208 12.477C6.59897 12.9218 7.01397 13.3349 7.4658 13.7163C7.9178 14.0978 8.4393 14.2885 9.0303 14.2885ZM3.7398 7.67125L8.9803 6.17325L14.2208 7.67125V4H3.7398V7.67125Z" fill="white"/>
</svg>
