<svg width="20" height="11" viewBox="0 0 20 11" fill="none" xmlns="http://www.w3.org/2000/svg">
<path d="M0.25 10.6152V9.09623C0.825667 9.06406 1.26283 8.89573 1.5615 8.59123C1.86033 8.2869 2.4565 8.13473 3.35 8.13473C4.26283 8.13473 4.883 8.3014 5.2105 8.63473C5.53817 8.96806 6.02117 9.13473 6.6595 9.13473C7.3185 9.13473 7.81183 8.96806 8.1395 8.63473C8.467 8.3014 9.08717 8.13473 10 8.13473C10.8923 8.13473 11.5125 8.3014 11.8605 8.63473C12.2087 8.96806 12.702 9.13473 13.3405 9.13473C13.9993 9.13473 14.4874 8.96806 14.8048 8.63473C15.1221 8.3014 15.7372 8.13473 16.65 8.13473C17.5435 8.13473 18.1397 8.2869 18.4385 8.59123C18.7372 8.89573 19.1743 9.06406 19.75 9.09623V10.6152C18.973 10.5769 18.4105 10.4038 18.0625 10.096C17.7145 9.78831 17.2437 9.63448 16.65 9.63448C16.018 9.63448 15.5366 9.80115 15.2057 10.1345C14.8749 10.4678 14.2532 10.6345 13.3405 10.6345C12.4482 10.6345 11.8279 10.4678 11.4798 10.1345C11.1318 9.80115 10.6385 9.63448 10 9.63448C9.341 9.63448 8.84775 9.80115 8.52025 10.1345C8.19258 10.4678 7.57233 10.6345 6.6595 10.6345C5.74683 10.6345 5.13017 10.4678 4.8095 10.1345C4.489 9.80115 4.0025 9.63448 3.35 9.63448C2.7295 9.63448 2.26025 9.78831 1.94225 10.096C1.62442 10.4038 1.06033 10.5769 0.25 10.6152ZM0.25 6.73073V5.21148C0.825667 5.17948 1.26283 5.01123 1.5615 4.70673C1.86033 4.40223 2.4565 4.24998 3.35 4.24998C4.24233 4.24998 4.85742 4.41665 5.19525 4.74998C5.53308 5.08331 6.02117 5.24998 6.6595 5.24998C7.3185 5.24998 7.81183 5.08331 8.1395 4.74998C8.467 4.41665 9.08717 4.24998 10 4.24998C10.8923 4.24998 11.51 4.41665 11.853 4.74998C12.1958 5.08331 12.6813 5.24998 13.3095 5.24998C13.9685 5.24998 14.4618 5.08331 14.7895 4.74998C15.117 4.41665 15.7372 4.24998 16.65 4.24998C17.523 4.24998 18.1192 4.40223 18.4385 4.70673C18.7577 5.01123 19.1948 5.17948 19.75 5.21148V6.73073C18.9525 6.69223 18.3848 6.51915 18.047 6.21148C17.7093 5.90381 17.2437 5.74998 16.65 5.74998C16.018 5.74998 15.5366 5.91665 15.2057 6.24998C14.8749 6.58331 14.2532 6.74998 13.3405 6.74998C12.4482 6.74998 11.8279 6.58331 11.4798 6.24998C11.1318 5.91665 10.6385 5.74998 10 5.74998C9.341 5.74998 8.85283 5.91665 8.5355 6.24998C8.21817 6.58331 7.60317 6.74998 6.6905 6.74998C5.77767 6.74998 5.15067 6.58331 4.8095 6.24998C4.4685 5.91665 3.982 5.74998 3.35 5.74998C2.75 5.74998 2.28075 5.90381 1.94225 6.21148C1.60375 6.51915 1.03967 6.69223 0.25 6.73073ZM0.25 2.84623V1.32698C0.825667 1.29481 1.26283 1.12656 1.5615 0.822229C1.86033 0.517729 2.4565 0.365479 3.35 0.365479C4.24233 0.365479 4.85742 0.532145 5.19525 0.865479C5.53308 1.19881 6.02117 1.36548 6.6595 1.36548C7.3185 1.36548 7.81183 1.19881 8.1395 0.865479C8.467 0.532145 9.08717 0.365479 10 0.365479C10.8923 0.365479 11.51 0.532145 11.853 0.865479C12.1958 1.19881 12.6813 1.36548 13.3095 1.36548C13.9685 1.36548 14.4618 1.19881 14.7895 0.865479C15.117 0.532145 15.7372 0.365479 16.65 0.365479C17.523 0.365479 18.1192 0.517729 18.4385 0.822229C18.7577 1.12656 19.1948 1.29481 19.75 1.32698V2.84623C18.9525 2.80773 18.3848 2.63465 18.047 2.32698C17.7093 2.01915 17.2437 1.86523 16.65 1.86523C16.018 1.86523 15.5366 2.03189 15.2057 2.36523C14.8749 2.69856 14.2532 2.86523 13.3405 2.86523C12.4482 2.86523 11.8279 2.69856 11.4798 2.36523C11.1318 2.03189 10.6385 1.86523 10 1.86523C9.341 1.86523 8.85283 2.03189 8.5355 2.36523C8.21817 2.69856 7.60317 2.86523 6.6905 2.86523C5.77767 2.86523 5.15067 2.69856 4.8095 2.36523C4.4685 2.03189 3.982 1.86523 3.35 1.86523C2.75 1.86523 2.27758 2.01915 1.93275 2.32698C1.58792 2.63465 1.027 2.80773 0.25 2.84623Z" fill="white"/>
</svg>
