<svg width="22" height="20" viewBox="0 0 22 20" fill="none" xmlns="http://www.w3.org/2000/svg">
<path d="M10.2496 4.21154V0.519287H11.7496V4.21154H10.2496ZM16.3226 6.73079L15.2688 5.66729L17.8823 3.03854L18.9361 4.11729L16.3226 6.73079ZM17.7881 11.75V10.25H21.4803V11.75H17.7881ZM17.8823 18.9365L15.2688 16.323L16.3323 15.2595L18.9611 17.8578L17.8823 18.9365ZM5.68609 6.74054L3.05359 4.10779L4.13234 3.04804L6.74009 5.68654L5.68609 6.74054ZM5.28809 18.0578H9.59584C10.0765 18.0578 10.4883 17.8863 10.8313 17.5433C11.1743 17.2003 11.3458 16.7885 11.3458 16.3078C11.3458 15.827 11.1801 15.4167 10.8486 15.077C10.5173 14.7372 10.1112 14.5673 9.63034 14.5673H8.50934L8.07659 13.5308C7.83042 12.9551 7.44609 12.4984 6.92359 12.1605C6.40125 11.8227 5.824 11.6538 5.19184 11.6538C4.31367 11.6538 3.5685 11.9599 2.95634 12.572C2.34417 13.1842 2.03809 13.9295 2.03809 14.8078C2.03809 15.7116 2.35375 16.4792 2.98509 17.1105C3.61659 17.742 4.38425 18.0578 5.28809 18.0578ZM5.28809 19.5578C3.97525 19.5578 2.85542 19.0943 1.92859 18.1673C1.00159 17.2405 0.538086 16.1206 0.538086 14.8078C0.538086 13.5141 0.990336 12.415 1.89484 11.5105C2.79934 10.606 3.89834 10.1538 5.19184 10.1538C6.147 10.1538 7.01625 10.4183 7.79959 10.9473C8.58292 11.4761 9.15217 12.1828 9.50734 13.0673C10.4098 13.0673 11.1903 13.3728 11.8486 13.9838C12.5069 14.5946 12.8393 15.3968 12.8458 16.3903C12.8252 17.2763 12.5014 18.0257 11.8746 18.6385C11.2476 19.2514 10.488 19.5578 9.59584 19.5578H5.28809ZM12.8266 16.198C12.7624 15.948 12.6983 15.7048 12.6341 15.4683C12.5701 15.2318 12.506 14.9885 12.4418 14.7385C13.2112 14.4154 13.8298 13.9189 14.2976 13.249C14.7656 12.5792 14.9996 11.8295 14.9996 11C14.9996 9.90004 14.6079 8.95837 13.8246 8.17504C13.0413 7.3917 12.0996 7.00004 10.9996 7.00004C9.98042 7.00004 9.09259 7.33629 8.33609 8.00879C7.57975 8.68112 7.14775 9.52695 7.04009 10.5463C6.79009 10.4821 6.53492 10.4231 6.27459 10.3693C6.01442 10.3155 5.75934 10.2565 5.50934 10.1923C5.70417 8.82829 6.32434 7.7052 7.36984 6.82304C8.41534 5.94104 9.62525 5.50004 10.9996 5.50004C12.5253 5.50004 13.8233 6.03529 14.8938 7.10579C15.9643 8.17629 16.4996 9.47437 16.4996 11C16.4996 12.1744 16.1633 13.2324 15.4908 14.174C14.8185 15.1157 13.9304 15.7904 12.8266 16.198Z" fill="white"/>
</svg>
