<svg xmlns="http://www.w3.org/2000/svg" width="61" height="61" viewBox="0 0 61 61">
  <g id="그룹_10" data-name="그룹 10" transform="translate(10839 -2980)">
    <g id="그룹_8" data-name="그룹 8" transform="translate(-10838 3000.278)">
      <g id="그룹_9" data-name="그룹 9" transform="translate(0 -5)">
        <path id="패스_1" data-name="패스 1" d="M374.242,176v3.235h-4.221c2.613,1.781,4.023,4.709,1.752,7.459-3.4,4.119-12.092,4.372-16.77,2.758-2.872-.99-6.324-3.362-5.325-6.893a6.744,6.744,0,0,1,2.739-3.324h-4.58V176Zm-19.1,5.782a2.3,2.3,0,0,0,.3,3.547c2.361,1.892,8.194,1.887,10.777.48,1.459-.794,2.411-2.255,1.234-3.781-2.032-2.635-10.054-2.579-12.31-.245" transform="translate(-316.583 -160.186)" fill="#174193"/>
        <path id="패스_3" data-name="패스 3" d="M371.742,0V2.606H381.98V5.93h-3.233a5.644,5.644,0,0,0,.611.871c1.55,2.526.084,4.881-2.145,6.265-3.709,2.3-10.005,2.394-14,.814-3.444-1.36-6.089-4.531-3.145-7.951h-3.233V2.606h10.149V0Zm-3.88,5.957c-1.774.157-5.194,1.3-4.18,3.679.883,2.075,5.227,2.346,7.116,2.134,1.587-.178,4.452-.917,4.452-2.919,0-2.937-5.362-3.073-7.388-2.893" transform="translate(-324.77)" fill="#174193"/>
        <path id="패스_5" data-name="패스 5" d="M19.309,30v3.235H12.573a11.929,11.929,0,0,0,2.118,6.641,10.83,10.83,0,0,0,4.258,3.064l-2.016,2.43c-.215.18-.455.025-.676-.053A13.328,13.328,0,0,1,11.1,41.312L9.88,39.345a8.579,8.579,0,0,1-2.743,3.322A17.2,17.2,0,0,1,2.2,45.514L0,42.94c4.239-1.582,7.253-5.037,7.364-9.705H.628V30Z" transform="translate(0 -27.304)" fill="#174193"/>
        <path id="패스_7" data-name="패스 7" d="M43.739,219v5.751H61.612v3.235H39.922c-.3,0-.943-.693-.943-.943V219Z" transform="translate(-35.477 -199.322)" fill="#174193"/>
        <rect id="사각형_28" data-name="사각형 28" width="4.76" height="18.33" transform="translate(21.375 2.246)" fill="#174193"/>
        <rect id="사각형_46" data-name="사각형 46" width="61" height="61" transform="translate(-1 -15.278)" fill="none" opacity="0.7"/>
      </g>
    </g>
  </g>
</svg>
